<svg width="128" height="128" fill="none" xmlns="http://www.w3.org/2000/svg"><g fill="#C479FF"><path d="M64 128c35.346 0 64-28.654 64-64 0-35.346-28.654-64-64-64C28.654 0 0 28.654 0 64c0 35.346 28.654 64 64 64zm0-117.333c29.454 0 53.333 23.878 53.333 53.333 0 29.454-23.879 53.333-53.333 53.333-29.455 0-53.333-23.879-53.333-53.333 0-29.455 23.878-53.333 53.333-53.333z"/><path d="M41.104 78.438L64 55.542l22.895 22.896a5.333 5.333 0 007.543-7.543L67.77 44.23a5.333 5.333 0 00-7.542 0L33.562 70.895a5.334 5.334 0 007.542 7.543z"/></g></svg>