<svg width="35" height="35" fill="none" xmlns="http://www.w3.org/2000/svg"><path d="M26.815 9.236c-1.084-.253-2.756-2-2.756-1.99-1.43-2-2.874-3.833-4.229-5.377-.007 0-1.312-.06-2.689-.075-1.376.018-2.681.075-2.688.075-1.355 1.544-2.8 3.377-4.23 5.377 0-.01-1.672 1.737-2.756 1.99C4.68 9.835-.067 14.78.004 14.78c-.043.543.307 1.398.556 2.707a194.081 194.081 0 003.11 4.767c.631 1.077 1.08 2.076 1.002 3.131-.121 1.544-.2 5.056-.2 5.056s1.01 1.808 1.013 1.794a55.107 55.107 0 004.842 2.318c-.007-.01 2.86-1.195 5.249-2.018.474-.168 2.66-.168 3.134 0 2.39.823 5.26 2.007 5.25 2.018a55.1 55.1 0 004.841-2.318c.004.014 1.013-1.793 1.013-1.793s-.078-3.513-.2-5.057c-.082-1.059.371-2.057 1.002-3.13a186.697 186.697 0 003.11-4.768c.25-1.309.599-2.164.556-2.706.068-.004-4.678-4.946-7.467-5.545z" fill="#2D4F67"/><path d="M34.275 14.78c-.04-1.512-.19-3.63-.453-5.28.075 0-4.222-1.46-7.01-2.058-1.084-.253-2.757-2-2.757-1.99-1.43-2-2.874-3.833-4.229-5.377-.007 0-1.312-.06-2.688-.075-1.377.018-2.682.075-2.689.075-1.355 1.544-2.799 3.377-4.229 5.377-.841.781-1.672 1.737-2.756 1.99C4.675 8.04.379 9.499.454 9.499.19 11.147.04 13.27 0 14.78c-.043.164 2.32 3.391 3.665 5.68.678.853 1.08 2.076 1.002 3.131-.21 2.675-.217 6.886-.21 6.854A55.104 55.104 0 009.3 32.762c-.007-.01 3.887-1.194 6.276-2.018.474-.167 2.66-.167 3.134 0 2.39.824 6.283 2.008 6.276 2.018a55.1 55.1 0 004.842-2.317c.008.032 0-4.18-.21-6.854-.082-1.059.325-2.278 1.002-3.13 1.334-2.29 3.701-5.52 3.655-5.68z" fill="url(#paint0_linear_27_3346)"/><path opacity=".3" d="M21.927 21.163c3.576 1.255 8.707-2.09 9.948-5.274 1.245-3.188-5.83-2.489-7.852-1.244-2.018 1.244-2.096 6.518-2.096 6.518z" fill="#618DAA"/><path d="M31.875 15.89c.763-1.958-1.612-2.45-4.03-2.247 2.24.182 3.923 1.376 3.256 3.63a6.08 6.08 0 00.774-1.384zM15.066 30.909l-3.045-3.017-.564-2.539-5.49-2.072 5.75 1.398 2.23 4.012 1.864 2.053-.745.165z" fill="#2D4F67"/><path d="M18.967 5.701c.82 1.024 1.726 2.45 2.614 4.076a2.583 2.583 0 001.765 1.284c1.8.324 3.43.699 4.689 1.102 1.226.442 1.458 2.464.802 3.544-.738 1.116-1.73 2.407-2.938 3.744-.489.538-.749 1.323-.663 2.029a80.51 80.51 0 01.424 4.767c.096 1.47-1.872 2.272-3.17 1.737-1.32-.513-2.746-1.034-4.318-1.694a2.775 2.775 0 00-2.072 0c-1.572.66-2.999 1.18-4.318 1.694-1.298.538-3.266-.267-3.17-1.737a77.91 77.91 0 01.424-4.767c.086-.706-.174-1.49-.663-2.029-1.209-1.34-2.2-2.628-2.938-3.744-.66-1.08-.425-3.102.802-3.544 1.259-.403 2.892-.774 4.69-1.102a2.594 2.594 0 001.764-1.284c.888-1.622 1.794-3.052 2.614-4.076.834-.923 2.831-.923 3.662 0z" fill="#00252F"/><path d="M10.423 7.806s3.99-7.05 4.25-6.996c.261.053 6.013 2.022 6.013 2.022l3.94 5.027 7.203 2.49 2-.846c.075 0-4.222-1.458-7.01-2.057-1.084-.253-2.756-2-2.756-1.99-1.43-2-2.874-3.833-4.23-5.377-.007 0-1.312-.06-2.688-.075-1.377.018-2.682.075-2.689.075-1.355 1.544-2.799 3.377-4.229 5.377-.841.78-1.672 1.737-2.756 1.99C4.682 8.045.386 9.503.46 9.503l3.597.203 6.365-1.9z" fill="#87AFCC"/><path d="M5.324 30.905l4.529 1.127 4.093-1.712-1.925-2.428 3.045 3.016-5.77 1.855-3.972-1.858zm21.926.627l-3.769-.096-4.974-1.865-2.35.76-1.622-.967 1.173 1.348c.656-.132 2.56-.121 3.002.032 2.097.724 5.356 1.723 6.112 1.965l.193.04c.317-.136.634-.275.955-.418l3.177-1.533c.025-.015.054-.029.079-.043l-1.976.777z" fill="#77A2C0"/><defs><linearGradient id="paint0_linear_27_3346" x1="17.138" y1="1.67" x2="17.138" y2="28.828" gradientUnits="userSpaceOnUse"><stop stop-color="#567B98"/><stop offset="1" stop-color="#618DAA"/></linearGradient></defs></svg>