<svg width="54" height="54" fill="none" xmlns="http://www.w3.org/2000/svg"><path d="M41.56 14.314c-1.68-.393-4.271-3.1-4.271-3.084-2.217-3.1-4.455-5.941-6.555-8.334-.01 0-2.034-.094-4.167-.116-2.133.027-4.156.116-4.167.116-2.1 2.393-4.338 5.234-6.554 8.334 0-.017-2.592 2.691-4.273 3.084-4.321.928-11.677 8.594-11.567 8.594-.066.84.476 2.166.862 4.194a299.24 299.24 0 004.82 7.39c.978 1.668 1.674 3.216 1.553 4.852-.188 2.393-.31 7.836-.31 7.836s1.564 2.802 1.57 2.78a85.411 85.411 0 007.505 3.593c-.011-.017 4.432-1.852 8.135-3.129.735-.26 4.123-.26 4.858 0 3.703 1.277 8.152 3.112 8.135 3.129a85.411 85.411 0 007.505-3.593c.005.022 1.57-2.78 1.57-2.78s-.122-5.443-.31-7.836c-.127-1.642.575-3.19 1.553-4.853 2.3-3.387 4.852-7.433 4.82-7.389.386-2.028.928-3.354.861-4.194.105-.006-7.25-7.666-11.572-8.594z" fill="#2D4F67"/><path d="M53.122 22.908c-.06-2.344-.292-5.626-.702-8.185.117 0-6.543-2.26-10.865-3.189-1.68-.392-4.272-3.1-4.272-3.084-2.216-3.1-4.454-5.94-6.554-8.334-.011 0-2.034-.094-4.167-.116-2.134.028-4.156.116-4.167.116-2.1 2.393-4.339 5.234-6.555 8.334-1.304 1.21-2.592 2.692-4.272 3.084C7.246 12.462.587 14.723.703 14.723.293 17.276.062 20.564 0 22.908c-.066.254 3.598 5.255 5.681 8.803 1.05 1.321 1.675 3.217 1.553 4.853-.326 4.145-.337 10.672-.326 10.622a85.418 85.418 0 007.505 3.592c-.01-.016 6.024-1.851 9.727-3.128.735-.26 4.123-.26 4.858 0 3.703 1.277 9.738 3.112 9.727 3.128a85.411 85.411 0 007.505-3.592c.01.05 0-6.477-.326-10.622-.127-1.642.503-3.532 1.553-4.852 2.067-3.549 5.736-8.556 5.664-8.804z" fill="url(#paint0_linear_27_3057)"/><path opacity=".25" d="M46.225 47.103c-5.383-.044-14.96-3.493-16.01-5.526-1.061-2.05-20.1-16.669-24.533-9.865 1.05 1.32 1.675 3.216 1.553 4.852-.326 4.145-.337 10.672-.326 10.622a85.418 85.418 0 007.505 3.592c-.01-.016 6.024-1.851 9.727-3.128.735-.26 4.123-.26 4.858 0 3.703 1.277 9.738 3.112 9.727 3.128a85.425 85.425 0 007.505-3.592c-.006 0-.006-.028-.006-.083z" fill="#5F89A6"/><path d="M9.247 36.083s2.271 1.647 2.36 1.586c.088-.06 1.846 0 1.846 0l-4.206-1.586z" fill="#77A2C0"/><path opacity=".3" d="M33.984 32.8c5.543 1.946 13.496-3.238 15.419-8.173 1.929-4.941-9.036-3.858-12.17-1.93-3.128 1.93-3.25 10.103-3.25 10.103z" fill="#618DAA"/><path d="M49.403 24.627c1.183-3.034-2.498-3.797-6.245-3.482 3.47.282 6.08 2.133 5.046 5.626.514-.707.923-1.426 1.199-2.144zM23.35 47.904l-4.72-4.675-.872-3.935-8.511-3.211 8.914 2.166 3.454 6.218 2.89 3.183-1.154.254z" fill="#2D4F67"/><path d="M29.397 8.837c1.27 1.586 2.675 3.797 4.05 6.317.553 1.017 1.609 1.79 2.736 1.99 2.791.503 5.317 1.083 7.268 1.707 1.901.686 2.26 3.82 1.243 5.494-1.144 1.73-2.68 3.73-4.554 5.803-.757.834-1.16 2.05-1.028 3.144.321 2.714.531 5.195.658 7.39.15 2.276-2.901 3.52-4.913 2.69-2.045-.795-4.255-1.602-6.693-2.624-.978-.415-2.227-.415-3.21 0-2.438 1.022-4.649 1.829-6.693 2.625-2.012.834-5.063-.415-4.913-2.692.127-2.194.331-4.675.657-7.389.133-1.094-.27-2.31-1.028-3.144-1.873-2.078-3.41-4.073-4.554-5.803-1.022-1.675-.657-4.808 1.244-5.494 1.95-.624 4.482-1.199 7.267-1.707 1.128-.205 2.183-.973 2.736-1.99 1.376-2.514 2.78-4.73 4.05-6.317 1.294-1.431 4.39-1.431 5.677 0z" fill="#1D445E"/><path d="M29.397 7.04c1.27 1.587 2.675 3.798 4.05 6.318.553 1.017 1.609 1.79 2.736 1.99 2.791.502 5.317 1.082 7.268 1.707 1.901.685 2.26 3.819 1.243 5.493-1.144 1.73-2.68 3.73-4.554 5.803-.757.835-1.16 2.05-1.028 3.145.321 2.713.531 5.195.658 7.389.15 2.277-2.901 3.52-4.913 2.691-2.045-.795-4.255-1.602-6.693-2.625-.978-.414-2.227-.414-3.21 0-2.438 1.023-4.649 1.83-6.693 2.625-2.012.835-5.063-.414-4.913-2.691.127-2.194.331-4.675.657-7.39.133-1.093-.27-2.31-1.028-3.144-1.873-2.078-3.41-4.073-4.554-5.803-1.022-1.674-.657-4.808 1.244-5.493 1.95-.625 4.482-1.2 7.267-1.708 1.128-.199 2.183-.972 2.736-1.99 1.376-2.514 2.78-4.73 4.05-6.316 1.294-1.432 4.39-1.432 5.677 0z" fill="url(#paint1_linear_27_3057)"/><path d="M16.155 12.098S22.339 1.17 22.743 1.254c.403.083 9.318 3.134 9.318 3.134l6.106 7.792 11.164 3.858 3.1-1.31c.117 0-6.543-2.26-10.865-3.189-1.68-.392-4.272-3.1-4.272-3.083-2.216-3.1-4.454-5.942-6.554-8.335-.011 0-2.034-.094-4.167-.116-2.134.028-4.156.116-4.167.116-2.1 2.393-4.339 5.234-6.555 8.335-1.304 1.21-2.592 2.691-4.272 3.083C7.257 12.468.598 14.73.714 14.73l5.576.314 9.865-2.945z" fill="#87AFCC"/><path d="M14.01 31.495a125.09 125.09 0 00-.657 7.39c-.15 2.276 2.902 3.52 4.913 2.691 2.045-.796 4.256-1.603 6.693-2.625.978-.415 2.227-.415 3.21 0 2.438 1.022 4.649 1.83 6.694 2.625 2.011.834 5.062-.415 4.913-2.691a120.238 120.238 0 00-.658-7.39c-.133-1.094.27-2.31 1.028-3.144a53.866 53.866 0 001.559-1.802c-6.936 7.09-24.92 4.554-33.63-7.615-.365 1.188-.243 2.647.348 3.614 1.144 1.73 2.68 3.73 4.554 5.803.757.834 1.16 2.05 1.034 3.145z" fill="#E75100"/><path d="M39.135 31.645c.01 5.615-1.349 8.516-3.968 8.406-2.77-.122-7.329-4.653-8.605-4.554-1.277-.1-5.83 4.438-8.605 4.554-2.62.116-3.98-2.785-3.968-8.406a123.04 123.04 0 00-.641 7.245c-.15 2.277 2.901 3.52 4.913 2.692 2.045-.796 4.255-1.603 6.692-2.625a4.223 4.223 0 011.603-.31c.558 0 1.116.105 1.603.31 2.437 1.022 4.648 1.829 6.693 2.625 2.011.834 5.062-.415 4.913-2.692a117.57 117.57 0 00-.63-7.245z" fill="#E33826"/><path opacity=".35" d="M15.74 36.083c-1.879 0-.436 3.217 1.697 3.498 2.128.282-.934-3.498-1.696-3.498z" fill="#F2FF05"/><path d="M43.456 17.055c-1.95-.625-4.482-1.2-7.267-1.708-1.127-.204-2.183-.972-2.736-1.99-1.376-2.514-2.78-4.73-4.05-6.316-1.288-1.432-4.389-1.432-5.676 0-1.272 1.586-2.675 3.797-4.052 6.317-.552 1.017-1.608 1.79-2.735 1.99-2.791.502-5.317 1.082-7.268 1.707-1.448.52-2 2.47-1.73 4.106 2.675-3.603 11.264-3.57 12.43-3.874 1.448-.376 4.592-9.047 6.195-9.047 1.597 0 4.747 8.677 6.195 9.047 1.166.304 9.66.188 12.43 3.874.265-1.636-.288-3.587-1.736-4.106z" fill="#F4FF94"/><path d="M30.215 13.567c2.16 3.477 5.543 3.443 5.62 4.04.078.597-3.653 1.548-4.581.078-1.04-1.653-1.04-4.118-1.04-4.118z" fill="#fff"/><path d="M8.252 47.899l7.019 1.746 6.344-2.652-2.984-3.764 4.72 4.675-8.942 2.874L8.252 47.9zm33.983.972l-5.842-.149-7.71-2.89-3.641 1.177-2.515-1.498 1.819 2.09c1.016-.205 3.968-.189 4.653.049 3.25 1.122 8.3 2.67 9.472 3.045l.299.061c.492-.21.984-.426 1.481-.647l4.924-2.376.122-.066-3.062 1.204z" fill="#77A2C0"/><defs><linearGradient id="paint0_linear_27_3057" x1="26.562" y1="2.589" x2="26.562" y2="44.68" gradientUnits="userSpaceOnUse"><stop stop-color="#567B98"/><stop offset="1" stop-color="#618DAA"/></linearGradient><linearGradient id="paint1_linear_27_3057" x1="26.562" y1="40.949" x2="26.562" y2="8.835" gradientUnits="userSpaceOnUse"><stop stop-color="#FF8700"/><stop offset=".505" stop-color="#FEDA00"/><stop offset="1" stop-color="#F2FF05"/></linearGradient></defs></svg>