<svg width="61" height="59" fill="none" xmlns="http://www.w3.org/2000/svg"><g stroke="#FFC500" stroke-width="2" stroke-miterlimit="10"><path d="M58.069 28.565C58.069 13.342 45.727 1 30.503 1 15.28 1 2.938 13.342 2.938 28.565h55.13z"/><path d="M47.855 28.565c0-9.584-7.773-17.358-17.358-17.358s-17.358 7.774-17.358 17.358h34.716z"/><path d="M39.18 28.566a8.675 8.675 0 00-8.677-8.676 8.675 8.675 0 00-8.676 8.676H39.18zm-8.677-17.359V1m9.193 12.373l5.346-8.701m1.357 15.361l9.105-4.618m-32.687-2.042L17.47 4.672m-1.356 15.361l-9.106-4.618"/><path d="M30.503 57.724c-9.585 0-17.358-7.773-17.358-17.358v-11.8h34.71v11.8c0 9.585-7.767 17.358-17.352 17.358z"/><path d="M37.997 50.031H23.003a1.902 1.902 0 01-1.898-1.898c0-1.046.853-1.898 1.898-1.898H37.99c1.046 0 1.899.852 1.899 1.898a1.893 1.893 0 01-1.892 1.898zm-4.351-11.364h-6.292l1.282-13.687h3.728l1.282 13.687zM23.14 35.43a2.995 2.995 0 01-5.987 0 2.995 2.995 0 012.994-2.993 2.987 2.987 0 012.993 2.993zm21.112 0a2.995 2.995 0 01-5.988 0 2.995 2.995 0 012.994-2.993 2.987 2.987 0 012.994 2.993zM2.931 28.565v11.452m-2.931 0h5.87m52.199-11.452v11.452m-2.939 0H61m-48.16 1.214a3.185 3.185 0 01-3.187-3.187 3.185 3.185 0 013.187-3.186m35.258 6.373a3.185 3.185 0 003.187-3.187 3.185 3.185 0 00-3.187-3.186m-36.852 5.944v10.611m38.445-10.611v10.611"/></g></svg>