<svg width="128" height="129" fill="none" xmlns="http://www.w3.org/2000/svg"><path d="M64 128.5c35.345 0 64-28.654 64-64 0-35.346-28.655-64-64-64-35.346 0-64 28.654-64 64 0 35.346 28.654 64 64 64zm0-117.333c29.454 0 53.333 23.878 53.333 53.333 0 29.454-23.879 53.333-53.333 53.333-29.455 0-53.333-23.879-53.333-53.333 0-29.455 23.878-53.333 53.333-53.333z" fill="#CB6634"/><path d="M41.104 78.938L64 56.042l22.895 22.896a5.333 5.333 0 007.543-7.543L67.77 44.73a5.333 5.333 0 00-7.542 0L33.562 71.395a5.334 5.334 0 007.542 7.543z" fill="#CB6634"/></svg>