<svg width="104" height="52" fill="none" xmlns="http://www.w3.org/2000/svg"><g fill="#fff"><path d="M5.896 0h91.5a6.07 6.07 0 014.246 1.769c1.061 1.06 1.651 2.476 1.651 4.127v40.208c0 1.651-.59 3.066-1.651 4.245C100.58 51.41 99.048 52 97.397 52H5.896c-1.651 0-3.066-.59-4.127-1.65v-.119C.707 49.171 0 47.755 0 46.104V5.896C0 4.245.707 2.83 1.769 1.769 2.829.707 4.245 0 5.896 0zm91.5 1.18h-91.5c-1.297 0-2.476.589-3.302 1.414C1.77 3.42 1.18 4.6 1.18 5.896v40.208c0 1.297.59 2.477 1.415 3.302.826.825 2.005 1.415 3.302 1.415h91.5c1.298 0 2.477-.59 3.303-1.415.943-.825 1.414-2.005 1.414-3.302V5.896c0-1.297-.471-2.476-1.414-3.302-.826-.825-2.005-1.415-3.302-1.415z"/><path d="M17.57 22.993h1.65v-6.131c.354.118.472.118.825.118 1.297 0 2.712-.59 3.538-1.651.59-.825.943-1.769.943-3.066s-.472-2.476-1.18-3.183c-.707-.708-1.886-1.062-3.3-1.062-.944 0-1.77.118-2.477.236v14.74zm1.65-13.442c.236-.118.59-.118 1.061-.118 1.887 0 2.476 1.297 2.476 2.83 0 2.123-1.179 3.302-2.83 3.302-.235 0-.471 0-.707-.118V9.55zm7.193 13.442h1.768v-6.485h.59c1.533 0 2.122.826 2.476 2.83.236 1.887.59 3.302.825 3.655h1.651c-.118-.353-.471-1.65-.825-3.773-.354-1.886-.826-2.948-2.005-3.301V15.8c1.533-.59 2.477-1.887 2.477-3.774 0-1.179-.354-2.24-1.062-2.947-.825-.708-1.886-1.062-3.42-1.062-.825 0-1.768.118-2.475.236v14.74zm1.768-13.56h.826c1.886 0 2.594 1.062 2.594 2.83 0 1.769-1.061 2.948-2.712 2.948h-.708V9.433zM39.265 7.9c-2.594 0-4.363 2.712-4.363 7.665 0 5.07 1.651 7.664 4.127 7.664 2.359 0 4.363-2.122 4.363-7.782 0-4.717-1.533-7.547-4.127-7.547zm-.118 1.533c1.887 0 2.477 3.302 2.477 6.132 0 2.83-.59 6.131-2.477 6.131-1.886 0-2.476-3.066-2.476-6.131 0-3.066.59-6.132 2.476-6.132zm10.259 13.56l3.537-14.857h-1.886l-1.415 6.957c-.354 1.769-.708 3.773-.944 5.778h-.118c-.236-1.887-.707-4.127-1.06-5.778l-1.416-6.957h-1.886l3.42 14.857h1.768zm9.315-4.48l1.061 4.48h1.651L58.131 8.136h-1.886l-3.42 14.857h1.651l.943-4.48h3.302zm-3.066-1.297l.826-3.774c.236-1.06.353-2.358.59-3.42h.117c.118 1.062.354 2.241.59 3.42l.707 3.774h-2.83zm7.665 5.777c.471.118 1.06.118 2.24.118 1.65 0 3.066-.354 3.891-1.297.707-.707 1.062-1.768 1.062-2.948 0-2.004-.944-3.42-2.713-3.89 1.415-.59 2.24-1.887 2.24-3.42 0-1.061-.235-1.887-.942-2.476-.826-.826-1.887-1.062-3.302-1.062-.944 0-1.769.118-2.476.236v14.74zm1.65-13.56c.236 0 .59-.118.944-.118 1.886 0 2.476 1.062 2.476 2.477 0 1.532-1.18 2.594-2.594 2.594h-.826V9.433zm0 6.368h.826c1.533 0 3.066.943 3.066 3.065 0 1.887-1.18 2.948-2.948 2.948-.472 0-.708-.118-.944-.118v-5.895zm7.547 7.192h6.013v-1.415h-4.244V8.136h-1.77v14.857zm9.787 0v-6.367l3.42-8.49h-1.77l-1.297 3.656c-.353 1.179-.707 2.24-1.06 3.42-.355-1.18-.708-2.36-1.18-3.42L79.12 8.136h-1.769l3.302 8.608v6.25h1.65zM37.496 44.1h1.651v-6.721h3.774v-1.533h-3.774v-5.188h4.01v-1.533h-5.66V44.1zm11.674-4.48l1.061 4.48h1.651L48.58 29.125h-1.886L43.274 44.1h1.651l.943-4.48h3.302zm-3.066-1.416l.826-3.773c.235-.943.471-2.24.59-3.42h.117c.118 1.18.354 2.359.59 3.42l.825 3.773h-2.948zm7.665-9.08V44.1h1.768V29.125H53.77zm4.48 14.976H59.9v-6.485h.708c1.415 0 2.122.707 2.358 2.83.354 1.768.59 3.183.825 3.655h1.769c-.236-.472-.472-1.65-.825-3.773-.354-2.005-.944-3.066-2.005-3.302v-.118c1.415-.707 2.358-1.886 2.358-3.773 0-1.18-.353-2.24-1.06-2.948-.708-.825-1.888-1.061-3.42-1.061-.826 0-1.651 0-2.359.236V44.1zM59.9 30.54c.236 0 .59-.118.944-.118 1.768.118 2.476 1.18 2.476 2.83 0 1.886-1.062 3.066-2.712 3.066H59.9V30.54z"/><path d="M5.896 0h91.5a6.07 6.07 0 014.246 1.769c1.061 1.06 1.651 2.476 1.651 4.127v40.208c0 1.651-.59 3.066-1.651 4.245C100.58 51.41 99.048 52 97.397 52H5.896c-1.651 0-3.066-.59-4.127-1.65v-.119C.707 49.171 0 47.755 0 46.104V5.896C0 4.245.707 2.83 1.769 1.769 2.829.707 4.245 0 5.896 0zm91.5 1.18h-91.5c-1.297 0-2.476.589-3.302 1.414C1.77 3.42 1.18 4.6 1.18 5.896v40.208c0 1.297.59 2.477 1.415 3.302.826.825 2.005 1.415 3.302 1.415h91.5c1.298 0 2.477-.59 3.303-1.415.943-.825 1.414-2.005 1.414-3.302V5.896c0-1.297-.471-2.476-1.414-3.302-.826-.825-2.005-1.415-3.302-1.415z"/><path d="M17.57 22.993h1.65v-6.131c.354.118.472.118.825.118 1.297 0 2.712-.59 3.538-1.651.59-.825.943-1.769.943-3.066s-.472-2.476-1.18-3.183c-.707-.708-1.886-1.062-3.3-1.062-.944 0-1.77.118-2.477.236v14.74zm1.65-13.442c.236-.118.59-.118 1.061-.118 1.887 0 2.476 1.297 2.476 2.83 0 2.123-1.179 3.302-2.83 3.302-.235 0-.471 0-.707-.118V9.55zm7.193 13.442h1.768v-6.485h.59c1.533 0 2.122.826 2.476 2.83.236 1.887.59 3.302.825 3.655h1.651c-.118-.353-.471-1.65-.825-3.773-.354-1.886-.826-2.948-2.005-3.301V15.8c1.533-.59 2.477-1.887 2.477-3.774 0-1.179-.354-2.24-1.062-2.947-.825-.708-1.886-1.062-3.42-1.062-.825 0-1.768.118-2.475.236v14.74zm1.768-13.56h.826c1.886 0 2.594 1.062 2.594 2.83 0 1.769-1.061 2.948-2.712 2.948h-.708V9.433zM39.265 7.9c-2.594 0-4.363 2.712-4.363 7.665 0 5.07 1.651 7.664 4.127 7.664 2.359 0 4.363-2.122 4.363-7.782 0-4.717-1.533-7.547-4.127-7.547zm-.118 1.533c1.887 0 2.477 3.302 2.477 6.132 0 2.83-.59 6.131-2.477 6.131-1.886 0-2.476-3.066-2.476-6.131 0-3.066.59-6.132 2.476-6.132zm10.259 13.56l3.537-14.857h-1.886l-1.415 6.957c-.354 1.769-.708 3.773-.944 5.778h-.118c-.236-1.887-.707-4.127-1.06-5.778l-1.416-6.957h-1.886l3.42 14.857h1.768zm9.315-4.48l1.061 4.48h1.651L58.131 8.136h-1.886l-3.42 14.857h1.651l.943-4.48h3.302zm-3.066-1.297l.826-3.774c.236-1.06.353-2.358.59-3.42h.117c.118 1.062.354 2.241.59 3.42l.707 3.774h-2.83zm7.665 5.777c.471.118 1.06.118 2.24.118 1.65 0 3.066-.354 3.891-1.297.707-.707 1.062-1.768 1.062-2.948 0-2.004-.944-3.42-2.713-3.89 1.415-.59 2.24-1.887 2.24-3.42 0-1.061-.235-1.887-.942-2.476-.826-.826-1.887-1.062-3.302-1.062-.944 0-1.769.118-2.476.236v14.74zm1.65-13.56c.236 0 .59-.118.944-.118 1.886 0 2.476 1.062 2.476 2.477 0 1.532-1.18 2.594-2.594 2.594h-.826V9.433zm0 6.368h.826c1.533 0 3.066.943 3.066 3.065 0 1.887-1.18 2.948-2.948 2.948-.472 0-.708-.118-.944-.118v-5.895zm7.547 7.192h6.013v-1.415h-4.244V8.136h-1.77v14.857zm9.787 0v-6.367l3.42-8.49h-1.77l-1.297 3.656c-.353 1.179-.707 2.24-1.06 3.42-.355-1.18-.708-2.36-1.18-3.42L79.12 8.136h-1.769l3.302 8.608v6.25h1.65zM37.496 44.1h1.651v-6.721h3.774v-1.533h-3.774v-5.188h4.01v-1.533h-5.66V44.1zm11.674-4.48l1.061 4.48h1.651L48.58 29.125h-1.886L43.274 44.1h1.651l.943-4.48h3.302zm-3.066-1.416l.826-3.773c.235-.943.471-2.24.59-3.42h.117c.118 1.18.354 2.359.59 3.42l.825 3.773h-2.948zm7.665-9.08V44.1h1.768V29.125H53.77zm4.48 14.976H59.9v-6.485h.708c1.415 0 2.122.707 2.358 2.83.354 1.768.59 3.183.825 3.655h1.769c-.236-.472-.472-1.65-.825-3.773-.354-2.005-.944-3.066-2.005-3.302v-.118c1.415-.707 2.358-1.886 2.358-3.773 0-1.18-.353-2.24-1.06-2.948-.708-.825-1.888-1.061-3.42-1.061-.826 0-1.651 0-2.359.236V44.1zM59.9 30.54c.236 0 .59-.118.944-.118 1.768.118 2.476 1.18 2.476 2.83 0 1.886-1.062 3.066-2.712 3.066H59.9V30.54z"/><path d="M5.896 0h91.5a6.07 6.07 0 014.246 1.769c1.061 1.06 1.651 2.476 1.651 4.127v40.208c0 1.651-.59 3.066-1.651 4.245C100.58 51.41 99.048 52 97.397 52H5.896c-1.651 0-3.066-.59-4.127-1.65v-.119C.707 49.171 0 47.755 0 46.104V5.896C0 4.245.707 2.83 1.769 1.769 2.829.707 4.245 0 5.896 0zm91.5 1.18h-91.5c-1.297 0-2.476.589-3.302 1.414C1.77 3.42 1.18 4.6 1.18 5.896v40.208c0 1.297.59 2.477 1.415 3.302.826.825 2.005 1.415 3.302 1.415h91.5c1.298 0 2.477-.59 3.303-1.415.943-.825 1.414-2.005 1.414-3.302V5.896c0-1.297-.471-2.476-1.414-3.302-.826-.825-2.005-1.415-3.302-1.415z"/><path d="M17.57 22.993h1.65v-6.131c.354.118.472.118.825.118 1.297 0 2.712-.59 3.538-1.651.59-.825.943-1.769.943-3.066s-.472-2.476-1.18-3.183c-.707-.708-1.886-1.062-3.3-1.062-.944 0-1.77.118-2.477.236v14.74zm1.65-13.442c.236-.118.59-.118 1.061-.118 1.887 0 2.476 1.297 2.476 2.83 0 2.123-1.179 3.302-2.83 3.302-.235 0-.471 0-.707-.118V9.55zm7.193 13.442h1.768v-6.485h.59c1.533 0 2.122.826 2.476 2.83.236 1.887.59 3.302.825 3.655h1.651c-.118-.353-.471-1.65-.825-3.773-.354-1.886-.826-2.948-2.005-3.301V15.8c1.533-.59 2.477-1.887 2.477-3.774 0-1.179-.354-2.24-1.062-2.947-.825-.708-1.886-1.062-3.42-1.062-.825 0-1.768.118-2.475.236v14.74zm1.768-13.56h.826c1.886 0 2.594 1.062 2.594 2.83 0 1.769-1.061 2.948-2.712 2.948h-.708V9.433zM39.265 7.9c-2.594 0-4.363 2.712-4.363 7.665 0 5.07 1.651 7.664 4.127 7.664 2.359 0 4.363-2.122 4.363-7.782 0-4.717-1.533-7.547-4.127-7.547zm-.118 1.533c1.887 0 2.477 3.302 2.477 6.132 0 2.83-.59 6.131-2.477 6.131-1.886 0-2.476-3.066-2.476-6.131 0-3.066.59-6.132 2.476-6.132zm10.259 13.56l3.537-14.857h-1.886l-1.415 6.957c-.354 1.769-.708 3.773-.944 5.778h-.118c-.236-1.887-.707-4.127-1.06-5.778l-1.416-6.957h-1.886l3.42 14.857h1.768zm9.315-4.48l1.061 4.48h1.651L58.131 8.136h-1.886l-3.42 14.857h1.651l.943-4.48h3.302zm-3.066-1.297l.826-3.774c.236-1.06.353-2.358.59-3.42h.117c.118 1.062.354 2.241.59 3.42l.707 3.774h-2.83zm7.665 5.777c.471.118 1.06.118 2.24.118 1.65 0 3.066-.354 3.891-1.297.707-.707 1.062-1.768 1.062-2.948 0-2.004-.944-3.42-2.713-3.89 1.415-.59 2.24-1.887 2.24-3.42 0-1.061-.235-1.887-.942-2.476-.826-.826-1.887-1.062-3.302-1.062-.944 0-1.769.118-2.476.236v14.74zm1.65-13.56c.236 0 .59-.118.944-.118 1.886 0 2.476 1.062 2.476 2.477 0 1.532-1.18 2.594-2.594 2.594h-.826V9.433zm0 6.368h.826c1.533 0 3.066.943 3.066 3.065 0 1.887-1.18 2.948-2.948 2.948-.472 0-.708-.118-.944-.118v-5.895zm7.547 7.192h6.013v-1.415h-4.244V8.136h-1.77v14.857zm9.787 0v-6.367l3.42-8.49h-1.77l-1.297 3.656c-.353 1.179-.707 2.24-1.06 3.42-.355-1.18-.708-2.36-1.18-3.42L79.12 8.136h-1.769l3.302 8.608v6.25h1.65zM37.496 44.1h1.651v-6.721h3.774v-1.533h-3.774v-5.188h4.01v-1.533h-5.66V44.1zm11.674-4.48l1.061 4.48h1.651L48.58 29.125h-1.886L43.274 44.1h1.651l.943-4.48h3.302zm-3.066-1.416l.826-3.773c.235-.943.471-2.24.59-3.42h.117c.118 1.18.354 2.359.59 3.42l.825 3.773h-2.948zm7.665-9.08V44.1h1.768V29.125H53.77zm4.48 14.976H59.9v-6.485h.708c1.415 0 2.122.707 2.358 2.83.354 1.768.59 3.183.825 3.655h1.769c-.236-.472-.472-1.65-.825-3.773-.354-2.005-.944-3.066-2.005-3.302v-.118c1.415-.707 2.358-1.886 2.358-3.773 0-1.18-.353-2.24-1.06-2.948-.708-.825-1.888-1.061-3.42-1.061-.826 0-1.651 0-2.359.236V44.1zM59.9 30.54c.236 0 .59-.118.944-.118 1.768.118 2.476 1.18 2.476 2.83 0 1.886-1.062 3.066-2.712 3.066H59.9V30.54z"/></g></svg>