<svg width="169" height="52" fill="none" xmlns="http://www.w3.org/2000/svg"><path d="M9.253 0h150.08c2.52 0 4.76 1.106 6.44 2.49 1.4 1.659 2.52 3.872 2.52 6.361V43.15c0 2.49-1.12 4.702-2.52 6.362-1.68 1.66-3.92 2.489-6.44 2.489H9.253c-2.52 0-4.76-.83-6.44-2.49-1.4-1.659-2.52-3.872-2.52-6.361V8.85c0-2.49 1.12-4.702 2.52-6.362C4.493 1.106 6.733 0 9.253 0zm150.08 2.213H9.253c-1.96 0-3.64.83-4.76 1.936a6.633 6.633 0 00-1.96 4.702V43.15c0 1.936.84 3.596 1.96 4.702 1.12 1.383 2.8 1.936 4.76 1.936h150.08c1.96 0 3.64-.553 4.76-1.936a6.632 6.632 0 001.96-4.702V8.85c0-1.936-.84-3.596-1.96-4.702a6.797 6.797 0 00-4.76-1.936zm-98 17.702h1.68v-4.979h1.4c1.4 0 1.96.83 2.24 2.213.28 1.66.56 2.49.84 2.766h1.68c-.28-.277-.56-1.383-1.12-3.043-.28-1.106-.56-1.936-1.68-2.489 1.4-.277 2.24-1.383 2.24-3.042 0-.83-.28-1.66-.84-2.213-.84-.553-1.68-.83-3.36-.83-1.12 0-2.24 0-3.08.277v11.34zm1.68-10.234c.28-.277.56-.277 1.4-.277 1.68 0 2.8.83 2.8 2.213s-1.12 2.213-2.8 2.213h-1.4V9.68zm14 3.596h-4.76V9.68h5.04V8.298h-6.44v11.617h6.72v-1.106h-5.32v-4.15h4.76v-1.382zm1.68 6.085c.84.553 1.96.83 3.08.83 2.8 0 4.2-1.66 4.2-3.32s-1.12-2.766-3.08-3.319c-1.68-.83-2.24-1.383-2.24-2.49 0-.552.56-1.659 2.24-1.659 1.12 0 1.68.277 2.24.553l.28-1.106c-.56-.276-1.4-.553-2.52-.553-2.24 0-3.92 1.383-3.92 3.043 0 1.659 1.4 2.765 3.08 3.319 1.68.553 2.24 1.106 2.24 2.212 0 1.383-.84 2.213-2.24 2.213-1.12 0-2.24-.553-2.8-.83l-.56 1.107zm9.24.553h1.68v-4.426h1.12c1.4 0 2.8-.553 3.64-1.383.56-.553.84-1.383.84-2.489 0-.83-.28-1.66-.84-2.213-.84-.83-1.96-1.106-3.36-1.106s-2.24 0-3.08.277v11.34zm1.68-10.234c.28 0 .84-.277 1.4-.277 1.68 0 2.8.83 2.8 2.49 0 1.383-1.12 2.489-3.08 2.489-.56 0-.84-.277-1.12-.277V9.681zm12.6-1.383c-3.36 0-5.6 2.213-5.6 6.085 0 3.596 2.24 5.809 5.32 5.809s5.6-2.213 5.6-6.086c0-3.595-2.24-5.808-5.32-5.808zm-.28 1.106c2.52 0 3.92 2.49 3.92 4.702 0 2.766-1.4 4.98-3.92 4.98-2.24 0-3.64-2.214-3.64-4.703 0-2.766 1.12-4.979 3.64-4.979zm8.96 10.51v-4.978c0-1.936 0-3.319-.28-4.702.84 1.383 1.4 2.49 2.24 3.872l3.92 5.809h1.4V8.298h-1.4v4.979c0 1.936 0 3.319.28 4.702-.56-1.107-1.4-2.213-2.24-3.596l-3.64-6.085h-1.68v11.617h1.4zm9.52-.552c.56.553 1.68.83 2.8.83 2.8 0 4.2-1.66 4.2-3.32s-1.12-2.766-3.08-3.319c-1.68-.83-2.24-1.383-2.24-2.49 0-.552.56-1.659 2.24-1.659 1.12 0 1.68.277 2.24.553l.28-1.106c-.56-.276-1.4-.553-2.52-.553-2.24 0-3.92 1.383-3.92 3.043 0 1.659 1.4 2.765 3.36 3.319 1.4.553 1.96 1.106 1.96 2.212 0 1.383-.84 2.213-2.24 2.213-1.12 0-2.24-.553-2.8-.83l-.28 1.107zm8.96-11.064v11.617h1.68V8.298h-1.68zm4.2 11.617c.56.277 1.4.277 2.52.277 1.96 0 3.08-.277 3.92-1.107.56-.553 1.12-1.383 1.12-2.49 0-1.659-1.4-2.489-2.52-2.765 1.4-.553 1.96-1.383 1.96-2.49 0-1.106-.28-1.66-.84-2.212-.84-.553-1.68-.83-3.36-.83-1.12 0-1.96 0-2.8.277v11.34zm1.68-10.234c.28-.277.56-.277 1.4-.277 1.4 0 2.52.553 2.52 1.937 0 1.106-1.12 1.936-2.52 1.936h-1.4V9.68zm0 4.702h1.12c1.68 0 3.08.83 3.08 2.213 0 1.66-1.4 2.49-3.08 2.49-.56 0-.84-.277-1.12-.277v-4.426zm7.84 5.532h6.72v-1.106h-5.04V8.298h-1.68v11.617zm14.28-6.638h-4.48V9.68h4.76V8.298h-6.16v11.617h6.44v-1.106h-5.04v-4.15h4.48v-1.382zm-82.32 18.808h-6.72v3.596h2.8v4.149c-.28.276-1.12.276-1.96.276-3.36 0-5.6-2.489-5.6-6.361 0-4.426 2.52-6.639 5.88-6.639 1.96 0 3.08.554 4.2 1.107l.84-3.596c-.84-.553-2.8-1.106-5.04-1.106-5.88 0-10.08 3.872-10.08 10.234 0 3.042.84 5.532 2.52 7.468 1.68 1.66 3.92 2.49 7.28 2.49 2.24 0 4.76-.554 5.88-1.107v-10.51zm12.32 6.362l1.4 4.979h4.2l-5.32-19.639h-5.32l-5.32 19.639h3.92l1.4-4.98h5.04zm-4.48-3.32l1.12-4.148c.28-1.107.56-2.766.84-3.873.28 1.107.56 2.49.84 3.873l1.12 4.149h-3.92zm27.72 8.299h3.92l-.84-19.639h-5.32l-1.96 6.639c-.56 2.212-1.12 4.702-1.68 6.915-.28-2.213-.84-4.703-1.4-6.915l-1.68-6.639h-5.6l-1.12 19.639h3.92l.28-7.469c0-2.489.28-5.531.28-8.02.56 2.489 1.12 5.254 1.68 7.744l1.96 7.468h3.08l2.24-7.745c.56-2.213 1.4-4.978 1.96-7.468v8.021l.28 7.469zm7-19.639v19.639h4.2V23.787h-4.2zm11.2 19.639V29.043c.84 2.212 1.96 4.702 3.08 6.914l3.92 7.469h4.2V23.787h-3.64v5.809c0 2.766 0 5.532.28 8.298-.84-2.213-1.96-4.703-3.08-6.915l-3.64-7.192h-4.76v19.639h3.64zm29.4-11.34h-6.44v3.595h2.52v4.149c-.28.276-.84.276-1.96.276-3.08 0-5.6-2.489-5.6-6.361 0-4.426 2.52-6.639 5.88-6.639 1.96 0 3.36.554 4.2 1.107l.84-3.596c-.84-.553-2.52-1.106-4.76-1.106-5.88 0-10.36 3.872-10.36 10.234 0 3.042.84 5.532 2.52 7.468 1.68 1.66 3.92 2.49 7.28 2.49 2.24 0 4.76-.554 5.88-1.107v-10.51zM30.533 43.148h-7V29.596h-1.96c-2.8.276-4.2 1.383-5.04 5.532-.84 4.149-1.68 7.191-2.24 8.02h-7c.56-1.382 1.68-5.808 2.52-9.68.84-3.042 1.96-5.532 4.2-6.362v-.276c-2.8-.83-5.6-3.873-5.6-8.298 0-3.32 1.12-5.532 2.8-7.191 2.24-1.937 5.6-2.766 10.08-2.766 3.64 0 7 .276 9.24.83v3.042c3.08-2.49 7-3.872 11.76-3.872 3.92 0 7 .83 8.4 1.66l-1.4 6.084c-1.68-.83-3.64-1.383-7.28-1.383-5.6 0-10.08 3.596-10.08 11.064 0 7.191 3.92 11.34 9.8 11.34 1.4 0 2.8-.276 3.36-.553v-7.191h-4.76V23.51h11.48v17.978c-2.24.83-6.16 1.937-10.36 1.937-4.76 0-8.12-1.107-10.92-3.043v2.766zm-7-28.49c-.28 0-1.4-.276-3.08-.276-3.08 0-5.04 1.66-5.04 4.702 0 3.043 1.96 4.979 5.6 4.979h2.52V14.66z" fill="#fff"/></svg>