<svg width="53" height="52" fill="none" xmlns="http://www.w3.org/2000/svg"><mask id="a" style="mask-type:luminance" maskUnits="userSpaceOnUse" x="0" y="0" width="53" height="52"><path d="M52.293 0h-52v52h52V0z" fill="#fff"/></mask><g mask="url(#a)"><path fill-rule="evenodd" clip-rule="evenodd" d="M26.293 0c14.386 0 26 11.613 26 26s-11.614 26-26 26c-14.387 0-26-11.613-26-26s11.613-26 26-26zm0 2.427c13 0 23.573 10.573 23.573 23.573S39.293 49.573 26.293 49.573 2.719 39 2.719 26 13.293 2.427 26.293 2.427zm0 2.426C37.993 4.853 47.44 14.3 47.44 26s-9.447 21.147-21.147 21.147S5.146 37.7 5.146 26 14.593 4.853 26.293 4.853zM16.326 34.32h-3.12V22.533C12.08 23.66 10.78 24.44 9.22 24.96V22.1c.867-.26 1.734-.78 2.687-1.473.954-.78 1.56-1.647 1.907-2.6h2.513V34.32zm7.367-8.753c-.78-.347-1.387-.867-1.734-1.387-.433-.607-.606-1.3-.606-1.993 0-1.214.433-2.167 1.3-3.034.867-.78 1.993-1.126 3.553-1.126 1.56 0 2.774.346 3.64 1.126.867.867 1.213 1.82 1.213 3.034 0 .78-.173 1.386-.52 1.993-.433.607-.953 1.04-1.646 1.387.866.346 1.56.866 1.993 1.56.52.693.694 1.473.694 2.426 0 1.474-.434 2.687-1.387 3.64-.954.954-2.254 1.387-3.814 1.387-1.473 0-2.686-.347-3.64-1.127-1.213-.953-1.733-2.166-1.733-3.813 0-.867.174-1.647.607-2.427.433-.693 1.127-1.3 2.08-1.646zm.606-3.12c0 .606.174 1.04.52 1.386.347.347.867.52 1.387.52.607 0 1.127-.173 1.474-.52.346-.346.52-.78.52-1.386 0-.607-.174-1.127-.52-1.474-.347-.346-.867-.52-1.387-.52-.607 0-1.127.174-1.473.52-.347.347-.52.867-.52 1.474zm-.26 6.933c0 .867.174 1.56.607 1.993.52.52 1.04.78 1.647.78.693 0 1.213-.26 1.646-.78.347-.433.607-1.126.607-1.993 0-.78-.26-1.387-.607-1.82a2.368 2.368 0 00-1.646-.693c-.78 0-1.3.26-1.733.78a3.125 3.125 0 00-.52 1.733zm13.78 2.6v-4.247h-4.246v-2.86h4.246v-4.246h2.86v4.246h4.247v2.86H40.68v4.247h-2.86z" fill="#fff"/></g></svg>