<svg width="53" height="52" fill="none" xmlns="http://www.w3.org/2000/svg"><mask id="a" style="mask-type:luminance" maskUnits="userSpaceOnUse" x="0" y="0" width="53" height="52"><path d="M52.293 0h-52v52h52V0z" fill="#fff"/></mask><g mask="url(#a)"><path fill-rule="evenodd" clip-rule="evenodd" d="M24.577 34.918v-4.124c.824.137 1.51.137 2.333.137 4.667 0 8.784-1.237 11.803-3.299l-5.901.275c-.686.137-1.098-.137-1.51-.55-.412-.412-.686-.825-.549-1.512 0-1.1.824-1.787 1.922-1.787H46.81c.686 0 1.235.275 1.784.962.412.55.549 1.237.274 1.925l-2.196 8.248c-.411 1.237-1.646 2.062-3.019 1.787l-.686-.137c-.686-.138-1.235-.55-1.647-1.238a2.196 2.196 0 01-.274-2.062l.96-2.474c-3.843 2.337-9.195 3.85-14.96 3.85h-2.47zm0-25.432V6.599h2.47c5.079 0 9.882 1.1 13.588 3.162.549.275.823.687.823 1.237.138.55 0 .962-.411 1.375l-.275.137c-.549.55-1.372.687-2.059.275-3.019-2.062-7.136-3.437-11.803-3.437-.823 0-1.51.138-2.333.138zM6.187 0h18.39v40.967H6.187c-1.784 0-3.294-1.375-3.294-3.162V3.3c0-1.788 1.51-3.3 3.294-3.3zm18.39 6.599v2.887c-7.96.687-14.136 5.224-14.136 10.723 0 5.361 6.176 9.898 14.136 10.585v4.124c-10.842-.825-19.214-6.873-19.214-14.16 0-7.286 8.372-13.334 19.214-14.16zM10.441 48.116H6.05v1.1h3.157c-.137.412-.549.962-.96 1.237-.412.274-.961.55-1.648.412-2.607-.275-3.156-3.85-.96-5.087.686-.412 1.784-.412 2.607.138.961.55-.274.55 1.785.55-.138-.688-.961-1.512-1.647-1.787a5.63 5.63 0 00-3.02 0c-1.372.687-2.607 2.337-2.058 4.536a3.715 3.715 0 004.117 2.75 3.693 3.693 0 002.745-2.337c.137-.275.412-1.1.274-1.512zm31.017-.138v-1.787c.824 0 1.647 0 1.647.825 0 .962-.823.962-1.647.962zm-1.784 3.85h1.784V49.49c.138.138 1.236 2.062 1.373 2.337h2.196c-.138-.137-1.51-2.062-1.785-2.474.275-.138.55-.138.961-.55.137-.138.412-.412.55-.825.41-1.375-.138-3.3-2.197-3.3-.823-.137-1.921-.137-2.882-.137v7.286zm-6.862-2.75c-2.47 0-1.647-.138-2.196.55-.549.412-1.098.687-1.921.412-1.785-.55-1.785-3.3.137-3.712.686-.137 1.235 0 1.784.55.549.55-.274.413 2.196.413 0-.413-.275-.963-.549-1.237-.686-1.1-1.921-1.65-3.431-1.513a3.594 3.594 0 00-3.294 3.575c0 2.062 1.372 3.574 3.157 3.849 1.51.137 2.744-.413 3.568-1.65.137-.275.549-.825.549-1.237zm-15.371 2.75h.96V45.64c.138.138 1.51 3.987 1.647 4.674.138.275.55 1.375.687 1.512h.686c.274-.687.823-2.337 1.098-3.162.274-.412.411-.962.686-1.512l.549-1.512-.137 6.186h1.098V44.54h-1.647c-.138.688-1.236 3.437-1.51 4.262 0 .137-.412 1.237-.549 1.375l-2.059-5.5-1.51-.137v7.286zm18.527-4.812c0 .137.687 2.2.687 2.2h-1.373l.687-2.2zm-3.43 4.811h1.784l.411-1.1h2.334l.411 1.1H39.4c0-.137-1.236-3.3-1.373-3.574-.274-.687-.412-1.237-.686-1.787-.137-.413-.549-1.65-.686-1.925h-1.373l-1.372 3.712c-.275.412-1.373 3.3-1.373 3.574zm17.018-4.536l-2.059.137v-1.237h2.059v-1.512h-3.843v7.148h3.843v-1.65h-2.059V48.94h2.059v-1.65zm-35.958-1.237c0 .137.96 2.474.96 2.611H12.5c0-.137.96-2.474 1.098-2.611zm-3.431 5.773h1.098l.823-2.062h2.882c.137.275.275.688.412.962 0 .276.274.963.412 1.1h1.098c0-.275-1.236-3.162-1.373-3.574-.274-.412-1.372-3.437-1.51-3.712h-.96l-2.882 7.286zm39.389-4.536v1.65h-2.059v1.237h2.059v1.65h-3.843v-7.15h3.843v1.513c.137 0 .137 0 .137-.413 0-.274 0-.962-.137-1.237h-3.843c0 .138-.137 7.011 0 7.286h3.843l.137-1.65h-2.196V48.94h2.059c.137-.137.137-.55.137-.824 0-.138 0-.688-.137-.825z" fill="#fff"/></g></svg>