<svg width="80" height="19" fill="none" xmlns="http://www.w3.org/2000/svg"><g clip-path="url(#clip0_73_1001)" fill="#fff"><path d="M8.275 6.722L7.82 8.563c.516.132 2.104.66 2.36-.384.272-1.084-1.39-1.33-1.906-1.457zm-.681 2.771l-.499 2.03c.618.155 2.53.775 2.808-.373.295-1.187-1.69-1.497-2.309-1.657z"/><path d="M10.334 1.232C5.876.108 1.36 2.85.249 7.364c-1.111 4.503 1.6 9.075 6.058 10.194 4.458 1.124 8.972-1.618 10.084-6.127 1.111-4.508-1.6-9.074-6.057-10.199zm1.656 6.964c-.12.82-.568 1.216-1.169 1.354.817.43 1.237 1.09.84 2.237-.494 1.423-1.662 1.543-3.222 1.245l-.38 1.531-.913-.229.374-1.509a22.97 22.97 0 01-.726-.189l-.374 1.52-.913-.23.38-1.53a60.54 60.54 0 00-.652-.173l-1.186-.298.454-1.056s.675.184.664.167c.26.063.374-.104.42-.218l.595-2.421c.034.006.068.017.096.023-.034-.017-.068-.023-.096-.029l.425-1.726c.012-.195-.056-.442-.425-.54.017-.011-.664-.166-.664-.166l.244-.987 1.26.316v.006c.187.045.385.091.584.137l.374-1.514.913.23-.369 1.485c.244.057.494.115.732.172l.363-1.474.913.23-.374 1.514c1.151.401 1.996 1.004 1.832 2.122zm12.392-2.122c.675 0 1.259.12 1.747.361.493.241.896.568 1.225.981.323.413.561.895.714 1.451.154.557.233 1.153.233 1.79a7.19 7.19 0 01-.539 2.782 7.174 7.174 0 01-1.463 2.277 6.904 6.904 0 01-2.19 1.532c-.839.379-1.752.562-2.733.562-.125 0-.352-.006-.664-.011a9.084 9.084 0 01-1.083-.098c-.408-.057-.84-.143-1.293-.258a6.437 6.437 0 01-1.293-.47L20.684 1.49l3.261-.51-1.304 5.495a5.48 5.48 0 01.84-.298c.277-.069.578-.103.9-.103zm-2.74 9.12c.494 0 .953-.12 1.39-.36a3.681 3.681 0 001.129-.97 4.875 4.875 0 001.02-2.978c0-.682-.113-1.21-.334-1.594-.227-.385-.64-.574-1.242-.574-.199 0-.454.04-.766.11a1.963 1.963 0 00-.856.447l-1.39 5.833c.085.018.16.03.221.04.063.018.131.023.199.035.074.006.153.011.255.011h.374zm10.045 2.318h-3.12L31.2 6.309h3.137l-2.649 11.203zm1.514-12.568c-.437 0-.828-.132-1.18-.396-.351-.258-.527-.66-.527-1.205a2.115 2.115 0 01.652-1.526c.199-.189.426-.344.687-.459.26-.114.538-.172.833-.172.437 0 .828.132 1.18.396s.528.666.528 1.205c0 .298-.057.58-.182.843a2.314 2.314 0 01-.47.683 2.322 2.322 0 01-.687.459c-.26.12-.539.172-.834.172zm3.869-1.423l3.266-.51-.8 3.304h3.494l-.63 2.598h-3.476l-.93 3.912a4.337 4.337 0 00-.148.918 1.73 1.73 0 00.103.734.9.9 0 00.453.476c.216.115.528.173.936.173.335 0 .664-.035.981-.098a6.83 6.83 0 00.959-.264l.232 2.427c-.42.155-.879.292-1.367.401-.493.115-1.077.172-1.746.172-.97 0-1.719-.143-2.252-.436-.533-.292-.913-.688-1.14-1.193-.221-.505-.323-1.084-.295-1.732a11.09 11.09 0 01.295-2.065l2.064-8.817zm5.818 9.522c0-.963.154-1.875.465-2.724.307-.855.755-1.6 1.328-2.238a6.12 6.12 0 012.098-1.508c.817-.367 1.736-.557 2.745-.557a7.22 7.22 0 011.696.184c.499.12.953.281 1.361.476l-1.078 2.472a10.488 10.488 0 00-.873-.31c-.3-.091-.67-.137-1.106-.137-1.038 0-1.86.361-2.473 1.084-.612.723-.918 1.698-.918 2.92 0 .723.153 1.308.465 1.755.306.448.879.671 1.707.671.408 0 .8-.046 1.18-.126.38-.086.714-.195 1.009-.321l.233 2.535a11.88 11.88 0 01-1.305.42c-.476.12-1.05.177-1.707.177-.873 0-1.61-.126-2.212-.384a4.26 4.26 0 01-1.492-1.033 3.809 3.809 0 01-.85-1.526 6.134 6.134 0 01-.273-1.83zm13.85 4.767c-.743 0-1.39-.114-1.94-.344a3.606 3.606 0 01-1.355-.958 4.138 4.138 0 01-.811-1.457 6.037 6.037 0 01-.272-1.864c0-.855.136-1.71.408-2.559a7.192 7.192 0 011.214-2.3 6.525 6.525 0 011.957-1.675c.771-.43 1.656-.648 2.654-.648.731 0 1.372.115 1.928.344.556.224 1.01.545 1.367.958.357.413.63.895.811 1.457a6.02 6.02 0 01.272 1.864 8.74 8.74 0 01-.397 2.559 7.408 7.408 0 01-1.18 2.3 6.187 6.187 0 01-1.945 1.67c-.782.435-1.684.653-2.71.653zm1.554-9.115c-.465 0-.873.138-1.22.402-.35.27-.646.614-.884 1.02-.238.414-.42.861-.539 1.355a5.903 5.903 0 00-.175 1.394c0 .71.113 1.261.334 1.663.227.396.63.597 1.22.597a1.91 1.91 0 001.219-.408c.352-.27.647-.608.885-1.02.238-.414.42-.861.538-1.354.12-.488.176-.958.176-1.394 0-.712-.113-1.262-.34-1.664-.215-.39-.624-.59-1.214-.59zm8.077 8.817h-3.12l2.632-11.203h3.142l-2.654 11.203zm1.514-12.568c-.437 0-.828-.132-1.18-.396-.351-.258-.527-.66-.527-1.205 0-.298.062-.58.181-.843a2.233 2.233 0 011.163-1.142 2.05 2.05 0 01.828-.172c.437 0 .828.132 1.18.396.351.264.527.666.527 1.205 0 .298-.062.58-.181.843a2.33 2.33 0 01-.471.683 2.384 2.384 0 01-.686.459c-.261.12-.539.172-.834.172zm3.38 1.876c.238-.07.5-.155.789-.247a11.775 11.775 0 012.172-.447 13.17 13.17 0 011.503-.075c1.644 0 2.779.482 3.403 1.451.624.964.731 2.289.329 3.964l-1.435 6.046h-3.137l1.39-5.92c.085-.367.153-.729.198-1.078a2.591 2.591 0 00-.01-.918 1.14 1.14 0 00-.387-.643c-.204-.16-.516-.246-.935-.246a6.18 6.18 0 00-1.243.132l-2.041 8.667h-3.137L71.263 6.82z"/></g><defs><clipPath id="clip0_73_1001"><path fill="#fff" transform="translate(0 .98)" d="M0 0h79.696v17.96H0z"/></clipPath></defs></svg>