<svg width="47" height="36" fill="none" xmlns="http://www.w3.org/2000/svg"><path d="M9.015 35.7v-2.426c0-.925-.578-1.502-1.502-1.502-.462 0-1.04.115-1.386.693-.231-.462-.693-.693-1.271-.693-.347 0-.809.115-1.155.577v-.462h-.81V35.7h.81v-2.08c0-.693.346-1.04.924-1.04.578 0 .809.347.809 1.04v2.08h.808v-2.08c0-.693.347-1.04.925-1.04.577 0 .808.347.808 1.04v2.08h1.04zm12.362-3.813h-1.386v-1.155h-.809v1.155h-.693v.693h.693v1.733c0 .925.347 1.387 1.271 1.387.347 0 .693-.116 1.04-.231l-.231-.693c-.231.115-.578.23-.694.23-.346 0-.577-.23-.577-.577v-1.733h1.386v-.809zm7.048-.115c-.462 0-.809.23-1.04.577v-.462h-.809V35.7h.809v-2.195c0-.578.231-1.04.809-1.04.115 0 .346 0 .577.115l.231-.808h-.577zm-10.745.462c-.346-.231-.924-.347-1.502-.347-.924 0-1.617.462-1.617 1.271 0 .578.462 1.04 1.27 1.155h.347c.462.116.693.231.693.347 0 .231-.346.462-.924.462-.577 0-1.04-.23-1.27-.346l-.347.577c.462.347 1.04.462 1.617.462 1.155 0 1.733-.577 1.733-1.27 0-.694-.578-1.04-1.27-1.156h-.347c-.347 0-.578-.115-.578-.346 0-.231.231-.463.693-.463.462 0 .924.232 1.155.347l.347-.693zm22.183-.462c-.462 0-.81.23-1.04.577v-.462h-.809V35.7h.809v-2.195c0-.578.23-1.04.809-1.04.115 0 .346 0 .577.115l.231-.808h-.577zm-10.63 1.964c0 1.155.81 1.964 2.08 1.964.578 0 .924-.116 1.387-.462l-.347-.694c-.347.232-.578.347-1.04.347-.693 0-1.155-.462-1.155-1.27 0-.694.462-1.156 1.155-1.272.347 0 .693.116 1.04.347l.346-.693c-.346-.347-.808-.462-1.386-.462-1.27.23-2.08 1.04-2.08 2.195zm7.626 0v-1.849h-.809v.462c-.231-.346-.693-.577-1.155-.577-1.04 0-1.849.808-1.849 1.964 0 1.155.809 1.964 1.849 1.964.577 0 .924-.231 1.155-.578v.462h.809v-1.848zm-3.004 0c0-.693.462-1.271 1.155-1.271.693 0 1.156.578 1.156 1.27 0 .694-.463 1.272-1.156 1.272-.693 0-1.155-.578-1.155-1.271zm-9.936-1.964c-1.155 0-1.849.808-1.849 1.964 0 1.155.81 1.964 1.965 1.964.577 0 1.155-.116 1.501-.578l-.346-.578a1.952 1.952 0 01-1.155.347c-.578 0-1.04-.231-1.156-.924h2.773v-.347c0-1.04-.693-1.848-1.733-1.848zm0 .693c.578 0 .924.346.924.924H22.88c.116-.462.462-.924 1.04-.924zm20.565 1.27V30.27h-.809v1.964c-.23-.347-.693-.578-1.155-.578-1.04 0-1.849.809-1.849 1.964 0 1.156.81 1.964 1.849 1.964.578 0 .924-.23 1.155-.577v.462h.809v-1.733zm-3.004 0c0-.692.462-1.27 1.155-1.27.694 0 1.156.578 1.156 1.27 0 .694-.462 1.272-1.156 1.272-.693 0-1.155-.578-1.155-1.271zm-27.843 0v-1.848h-.81v.462c-.23-.346-.693-.577-1.155-.577-1.04 0-1.848.808-1.848 1.964 0 1.155.809 1.964 1.848 1.964.578 0 .925-.231 1.156-.578v.462h.809v-1.848zm-3.004 0c0-.692.462-1.27 1.155-1.27.693 0 1.155.578 1.155 1.27 0 .694-.462 1.272-1.155 1.272-.809 0-1.155-.578-1.155-1.271z" fill="#fff"/><path d="M29.927 3.004H17.449v22.413h12.478V3.004z" fill="#FF5F00"/><path d="M18.258 14.21c0-4.505 2.195-8.549 5.43-11.206C21.262 1.155 18.258 0 14.908 0 7.05 0 .696 6.354.696 14.21c0 7.857 6.354 14.211 14.21 14.211 3.35 0 6.355-1.155 8.781-3.004-3.35-2.541-5.43-6.7-5.43-11.206z" fill="#EB001B"/><path d="M46.795 14.21c0 7.857-6.355 14.211-14.211 14.211-3.35 0-6.354-1.155-8.78-3.004 3.35-2.657 5.43-6.7 5.43-11.206 0-4.506-2.196-8.55-5.43-11.207C26.23 1.155 29.233 0 32.584 0c7.74 0 14.21 6.354 14.21 14.21z" fill="#F79E1B"/></svg>