<svg width="93" height="19" fill="none" xmlns="http://www.w3.org/2000/svg"><path d="M91.165 2.348C89.984 1.442 88.21.98 85.888.98h-6.095L77.53 14.867h-7.987l.516-3.15h4.809l.573-3.539h-4.809l.516-3.137h4.958L76.765.98h-10.06l-2.151 13.173h-3.688L63.018.98h-5.26l-2.153 13.173h-3.597L54.176.98h-5.255l-2.27 13.887h-8.039l.51-3.15h4.83l.574-3.515h-4.824l.504-3.15h5.016l.649-4.066H14.52L12.74 11.98 9.185.98H3.728L.795 18.94h5.212l1.77-11.308 3.448 11.308h18.683l2.27-13.887H35.1L32.826 18.94H81.96l1.424-8.77 2.306 8.77h5.213l-2.39-7.163.546-.126c1.201-.288 2.142-.918 2.795-1.853.654-.936.983-2.166.983-3.623.006-1.704-.542-2.958-1.673-3.827zM25.37 14.867H17.4l.515-3.15h5.006l.568-3.55h-4.963l.479-3.12h7.97l-1.605 9.82zm61.496-6.053c-.526.414-1.286.618-2.322.618h-1.037l.792-4.817h.76c.866 0 1.493.156 1.929.474.34.246.739.744.739 1.68.005 1.133-.468 1.74-.861 2.045z" fill="#fff"/></svg>