<svg width="53" height="18" fill="none" xmlns="http://www.w3.org/2000/svg"><path fill-rule="evenodd" clip-rule="evenodd" d="M38.07 4.325a2.168 2.168 0 002.175-2.162A2.17 2.17 0 0038.07 0c-1.2 0-2.173.969-2.173 2.163a2.166 2.166 0 002.173 2.162zM21.41 5.492c-.098.245-.804 2.23-2.513 4.287V.984l-4.553.895v15.942h4.553v-4.928c1.318 1.967 1.969 4.928 1.969 4.928h5.453c-.54-2.23-2.899-6.342-2.899-6.342 2.118-2.67 3.049-5.515 3.196-5.987H21.41zm11.969-.165c-4.078.13-6.148 1.95-6.148 5.566v6.928h4.449v-5.65c0-2.165.285-3.094 2.87-3.182v-3.6c-.436-.09-1.171-.062-1.171-.062zM6.708 7.248c-.558-.037-1.848-.12-1.848-1.275 0-1.395 1.859-1.395 2.555-1.395 1.226 0 2.814.36 3.947.698 0 0 .632.222 1.17.448l.05.013v-3.82l-.068-.02C11.176 1.43 9.621.983 6.736.983 1.762.983 0 3.865 0 6.333c0 1.422.614 4.771 6.309 5.157.483.03 1.764.103 1.764 1.297 0 .986-1.05 1.568-2.814 1.568-1.933 0-3.81-.49-4.948-.956v3.935c1.705.444 3.628.666 5.881.666 4.863 0 7.041-2.726 7.041-5.427.001-3.062-2.436-5.053-6.525-5.325zm29.157 10.573h4.412V5.507h-4.412V17.82zM48.587 1.77v16.05H53V.985l-4.413.785zm-6.44 0l4.408-.785v16.836h-4.409V1.77z" fill="#E4E4E4"/></svg>