<svg width="52" height="18" fill="none" xmlns="http://www.w3.org/2000/svg"><path d="M34.06 0c-3.62 0-6.857 2.046-6.857 5.82 0 4.332 5.74 4.627 5.74 6.806 0 .915-.961 1.74-2.613 1.74-2.337 0-4.083-1.144-4.083-1.144l-.746 3.81s2.011.968 4.685.968c3.962 0 7.072-2.142 7.072-5.988 0-4.58-5.762-4.869-5.762-6.885 0-.716.79-1.504 2.43-1.504 1.852 0 3.365.836 3.365.836l.73-3.683C38.02.77 36.38 0 34.059 0zM.926.277L.838.83s1.525.301 2.895.91c1.768.691 1.895 1.1 2.188 2.352l3.243 13.613h4.348L20.21.277h-4.337l-4.304 11.855L9.81 2.082C9.65.932 8.833.277 7.838.277H.927zm21.027 0L18.551 17.71h4.133L26.076.277h-4.122zm23.061 0c-.994 0-1.525.584-1.911 1.595l-6.061 15.84h4.337l.84-2.643H47.5l.509 2.642h3.828L48.501.277h-3.486zm.564 4.706l1.287 6.542h-3.442l2.155-6.542z" fill="#fff"/></svg>