<svg width="28" height="28" fill="none" xmlns="http://www.w3.org/2000/svg"><path d="M27.035 16.425c.643-.578.983-1.31.964-2.087 0-2.243-1.657-3.53-4.545-3.53l-1.357.002c-.9 0-1.684-.013-2.442-.058.97-2.257 1.517-4.62 1.59-6.883C21.245.672 19.51 0 18.053 0c-1.429 0-2.228.986-2.765 1.845-.18.288-.6 1.112-1.043 1.983-.377.741-.75 1.475-.928 1.782-.262.451-.521.847-.775 1.19l-.286.347c-.825 1.01-1.671 2.048-2.7 2.811a1.171 1.171 0 00-.96-.5H1.168A1.17 1.17 0 000 10.622v16.211A1.17 1.17 0 001.168 28h7.428c.504 0 .933-.32 1.096-.765.32.057.638.11.957.162l.293.049c2.352.352 4.943.554 7.111.554h4.051c2.315 0 3.869-1.42 3.867-3.569l-.02-.285c-.023-.348-.033-.4-.148-.686-.029-.07-.065-.16-.113-.286.916-.835 1.163-1.989.671-3.372.919-.835 1.166-1.991.674-3.377zM7.43 25.665H2.333V11.79H7.43v13.875zm17.693-10.711c-.34.208-.808.494-.808 1.072 0 .48.23.76.398.967.16.196.276.34.276.722 0 .259-.155.379-.542.616-.34.21-.808.495-.808 1.073 0 .48.23.76.398.967.163.196.278.34.278.722 0 .259-.155.379-.544.616-.34.21-.808.495-.808 1.073 0 .48.23.76.398.967.163.196.278.34.278.722 0 .794-.516 1.197-1.535 1.197l-4.151-.003c-2.715-.1-5.52-.204-8.189-.808v-12.21a17.84 17.84 0 004.629-4.43c.878-1.17 1.492-2.427 2.034-3.535.563-1.154 1.146-2.346 1.625-2.346.519 0 .86.106.86 1.533 0 2.574-1.241 5.744-1.975 7.21-.227.456-.24.854-.033 1.187.54.875 2.3.875 6.55.875 2.211 0 2.211.84 2.211 1.197 0 .258-.155.378-.542.616z" fill="#80FF00"/></svg>