<svg width="42" height="42" fill="none" xmlns="http://www.w3.org/2000/svg"><path d="M20.74 41.404c11.274 0 20.414-9.14 20.414-20.413C41.154 9.717 32.014.577 20.74.577 9.466.577.327 9.717.327 20.991c0 11.274 9.14 20.413 20.413 20.413z" fill="#484848"/><path d="M34.45 19.815a3.508 3.508 0 00-3.508-3.509 3.49 3.49 0 00-2.481 1.033c-1.962-1.265-4.468-2.072-7.221-2.197a3.822 3.822 0 011.437-2.99 3.823 3.823 0 013.236-.753l.157.034c-.002.04-.006.078-.006.118a2.928 2.928 0 10.458-1.568l-.281-.062a5.329 5.329 0 00-4.511 1.05 5.328 5.328 0 00-2.004 4.17c-2.752.126-5.258.932-7.22 2.197a3.508 3.508 0 10-4.11 5.582 7.005 7.005 0 00-.128 1.33c0 5.041 5.468 9.128 12.215 9.128 6.746 0 12.215-4.087 12.215-9.127 0-.452-.044-.896-.13-1.33a3.506 3.506 0 001.882-3.106zm-5.458-9.679c.78 0 1.415.635 1.415 1.415s-.635 1.415-1.415 1.415-1.415-.635-1.415-1.415.635-1.415 1.415-1.415zM8.03 19.815c0-1.1.895-1.995 1.994-1.995.471 0 .904.165 1.245.44-1.067.915-1.893 1.99-2.406 3.172a1.989 1.989 0 01-.833-1.617zm20.185 9.677c-2.047 1.53-4.793 2.372-7.731 2.372-2.939 0-5.684-.843-7.732-2.372-1.915-1.431-2.97-3.293-2.97-5.241 0-1.95 1.055-3.81 2.97-5.242 2.048-1.53 4.793-2.372 7.732-2.372 2.938 0 5.684.843 7.731 2.372 1.916 1.431 2.97 3.293 2.97 5.242 0 1.948-1.054 3.81-2.97 5.24zm3.89-8.06c-.514-1.182-1.34-2.258-2.406-3.173.34-.274.773-.439 1.244-.439 1.1 0 1.995.895 1.995 1.995 0 .666-.33 1.255-.834 1.616z" fill="#fff"/><path d="M16.021 23.716a1.597 1.597 0 100-3.194 1.597 1.597 0 000 3.195zm8.923 0a1.597 1.597 0 100-3.194 1.597 1.597 0 000 3.195zM24.268 26a6.09 6.09 0 01-4.11 1.591 6.045 6.045 0 01-4.466-1.942.757.757 0 10-1.107 1.032 7.646 7.646 0 005.573 2.424 7.6 7.6 0 005.13-1.986.757.757 0 10-1.02-1.118z" fill="#fff"/></svg>