<svg width="110" height="40" fill="none" xmlns="http://www.w3.org/2000/svg"><path d="M13.75 16.937c0 .54-.183 2.162-1.467 3.243-1.466 1.081-4.033 1.442-5.683 1.442-.733 0-1.467 0-2.017-.18-1.466-.18-3.116-.541-3.85-1.802C.183 18.919 0 18.018 0 17.117h4.583c0 .18 0 .72.367 1.081.367.18.917.54 1.65.54.183 0 1.1 0 1.65-.54.733-.54.733-1.441.733-1.621v-1.622c-.183.36-.366.54-.55.54-.733.721-1.833.901-2.75.901-1.283 0-2.566-.36-3.483-1.08-.917-.721-2.2-2.163-2.2-5.046 0-.54 0-2.883 1.65-4.504 1.1-1.081 2.75-1.622 4.217-1.622.366 0 1.833 0 2.933.901.183.18.367.18.55.72v-1.26h4.4v12.432zM7.7 7.747s-.367-.18-.917-.18c-.183 0-.55.18-.733.18-.733.361-1.283 1.082-1.283 2.704 0 1.08.183 1.801.55 1.981l.55.541h.916c.184 0 .55 0 .917-.18.917-.36 1.1-1.622 1.1-2.523 0-.9 0-1.982-1.1-2.522zm15.583 9.19v-.901c-.183 0-.366.18-.916.54-.55.18-1.65.541-3.117.541-.367 0-1.283 0-2.017-.18-1.65-.72-2.566-1.982-2.566-3.784 0-.54.183-2.162 1.65-3.243 1.1-.54 2.383-.72 3.666-.901.734-.18 1.467-.18 2.2-.36.367-.18.55-.18.917-.18v-.721c-.183-.36-.55-.721-1.65-.721h-.733c-.734.18-.917.9-.917 1.081l-4.767.18c0-.36.184-.54.184-.72.183-.541.366-1.442 1.466-2.163.917-.72 2.384-1.26 5.134-1.26 2.016 0 4.766.18 5.683 2.341.367.541.367.901.367 2.163v6.666c0 .901.183 1.081.366 1.622h-4.95zm-2.016-5.225c-.55.18-1.284.36-1.834.72 0 .18-.183.36-.183.541 0 .54.367 1.081 1.283 1.081.367 0 .917-.18 1.284-.36 1.283-.721 1.283-1.982 1.283-2.523-.55.18-1.283.36-1.833.54zm25.3 5.225V10.45c0-.54.183-2.162-1.834-2.162-.366 0-1.466 0-1.65 1.262-.183.18-.183.36-.183.72v6.667h-4.95V9.369c-.367-.9-1.283-1.08-1.833-1.08-.184 0-1.284.18-1.65 1.08 0 .18-.184.36-.184.721v6.847h-4.95V4.505H34.1v1.801c.367-.54.55-.72.733-.9.55-.541 1.467-1.262 3.3-1.262.367 0 2.567 0 3.667 1.442.183.18.367.36.733.9.184-.54.367-.72.55-.9.734-.54 1.65-1.442 3.667-1.442.367 0 .917 0 1.833.18.55.18 2.2.721 2.75 2.523.184.72.184 1.441.184 2.162v7.928h-4.95zm17.416-.54c-.916.54-1.833.9-2.933.9-1.283 0-2.2-.54-2.567-.72l-.55-.541v.901h-4.766V0h4.95v5.405l.55-.54c.733-.54 1.65-.72 2.566-.72 1.65 0 2.934.54 4.034 1.62.733.902 1.466 2.163 1.466 4.686 0 .72 0 4.324-2.75 5.945zm-2.75-7.929c-.366-.72-1.1-.72-1.283-.72-.183 0-.733 0-1.1.36-.733.54-.917 1.622-.917 2.523 0 .9.184 1.982.917 2.702 0 0 .55.36 1.1.36.183 0 .733-.18 1.283-.54.367-.54.55-1.261.55-2.522 0-.721 0-1.622-.55-2.163zM67.65 0h5.133v16.937H67.65V0zm6.6 0h4.95v3.243h-4.95V0zm0 4.505h4.95v12.432h-4.95V4.505zm15.033 12.432V10.09c0-.18 0-.54-.183-.72 0-.541-.367-1.082-1.65-1.082-1.833 0-1.833 1.442-1.833 1.982v6.667h-4.95V4.505h4.766v1.621c.367-.36.367-.54.55-.72.917-.901 2.384-1.262 3.667-1.262.367 0 2.017 0 3.117 1.081.733.54 1.1 1.261 1.283 2.162.183.36.183.721.183 1.622v7.928h-4.95zm19.617 0c0 .54 0 2.162-1.467 3.243-1.466 1.081-3.85 1.442-5.683 1.442-.55 0-1.283 0-2.017-.18-1.283-.18-2.933-.541-3.85-1.802-.55-.721-.55-1.622-.55-2.523h4.584c0 .18-.184.72.366 1.081.184.18.734.54 1.467.54.183 0 1.283 0 1.833-.54.734-.54.55-1.441.55-1.621v-1.622c-.183.36-.183.54-.366.54-.734.721-1.834.901-2.75.901-1.467 0-2.567-.36-3.667-1.08-.917-.721-2.017-2.163-2.017-5.046 0-.54 0-2.883 1.467-4.504 1.1-1.081 2.933-1.622 4.4-1.622.367 0 1.833 0 2.75.901.367.18.367.18.733.72v-1.26h4.4v11.711c-.183.18-.183.54-.183.721zm-5.867-9.19c-.183 0-.55-.18-.916-.18-.367 0-.55.18-.917.18-.733.361-1.1 1.082-1.1 2.704 0 1.08.183 1.801.55 1.981l.55.541h.733c.184 0 .55 0 1.1-.18.917-.36 1.1-1.622 1.1-2.523 0-.9-.183-1.982-1.1-2.522zm-77.366 27.93c-2.75 0-3.667-.901-4.034-2.163-.183-.54-.183-.9-.183-1.44v-5.947H19.8v-2.703h1.833V19.46h4.95v3.964h2.2v2.703h-2.2l-.183 4.685c0 .54.183 1.261 1.467 1.261h.916v3.423c-.366 0-1.833.18-3.116.18zM48.95 30.27s0 .54.183.901c.184.54.55 1.442 2.017 1.442.733 0 1.1-.36 1.467-.54.366-.361.733-.902.733-1.082l4.217 1.622c-.184.18-.367.54-.734.9-.733.901-1.833 1.442-2.2 1.802-.733.18-2.016.721-3.85.721-.916 0-2.016-.18-2.933-.54-2.567-1.082-4.033-3.604-4.033-6.307 0-2.522 1.283-4.144 2.016-4.684 1.834-1.802 4.217-1.982 4.95-1.982.917 0 3.484.18 5.317 2.162.55.54 1.1 1.441 1.283 2.342.367 1.081.367 1.982.367 3.243h-8.8zm3.667-3.423c-.367-.901-1.284-1.081-1.65-1.081-.367 0-.734.18-.917.18-.917.36-.917 1.441-1.1 1.622h3.667v-.721zm14.3.18c-.55 0-2.567-.18-3.3 1.441v7.027h-5.134V23.063h4.95v1.081l.55-.54c1.284-.721 2.2-.721 3.667-.721v4.144h-.733zm9.35 8.468v-.9c-.184.18-.367.36-.917.54-.55.36-1.65.72-3.3.72-.183 0-1.1 0-2.017-.36-1.65-.54-2.383-1.981-2.383-3.603 0-.72 0-2.162 1.65-3.243 1.1-.721 2.383-.901 3.667-1.081.733 0 1.466-.18 2.2-.36.183 0 .55-.181.916-.181 0 0 0-.36-.183-.54 0-.541-.367-.901-1.467-.901H73.7c-.917.18-.917.9-.917 1.08l-4.766.18c0-.18.183-.54.183-.72 0-.54.367-1.261 1.283-2.162 1.1-.72 2.567-1.261 5.317-1.261 2.017 0 4.583.36 5.683 2.342.184.54.367 1.081.367 2.162v6.847c0 .901 0 1.081.367 1.441h-4.95zm-2.2-5.225c-.55.18-1.284.36-1.65.901 0 0-.184.18-.184.54 0 .361.367.902 1.284.902.366 0 .733-.18 1.1-.36 1.466-.721 1.466-1.983 1.466-2.523-.733.18-1.283.36-2.016.54zm16.316 5.586c-.366 0-1.65 0-2.75-.72-.183-.181-.183-.181-.55-.361V40h-4.766V23.063h4.766v1.081l.55-.54c.55-.36 1.467-.721 2.934-.721 3.85 0 5.5 3.063 5.5 6.486 0 3.424-1.65 6.487-5.684 6.487zm.184-8.829c-.55-.54-1.1-.72-1.467-.72-.183 0-.55.18-.917.36-1.1.54-1.1 1.801-1.1 2.702 0 1.082.184 2.343 1.1 2.703.367.36.734.36.917.36.183 0 .55 0 .917-.36.916-.54 1.1-1.622 1.1-2.703 0-.72-.184-1.621-.55-2.342zm14.85 9.19c-.367 1.08-.917 2.342-1.834 3.062-.916.721-2.016.721-3.116.721h-1.284l-1.466-.18v-3.424h1.466c.734 0 1.1-.18 1.1-.54 0-.18-.183-.72-.366-1.261l-4.034-11.532h5.134l1.833 8.108s1.833-7.928 2.017-8.108H110l-4.583 13.153zM42.9 25.765c-.183-.901-.733-1.622-1.1-1.982-.917-.901-2.2-1.261-3.483-1.261-1.834 0-2.934.72-3.484 1.26l-.55.541V18.56h-4.95v16.936h4.95v-8.828h4.4v8.828h4.4v-8.108c0-.54-.183-.9-.183-1.621z" fill="#fff"/></svg>