<svg width="42" height="42" fill="none" xmlns="http://www.w3.org/2000/svg"><path d="M20.904 41.423c11.279 0 20.423-9.144 20.423-20.423C41.327 9.72 32.183.577 20.904.577 9.624.577.48 9.721.48 21c0 11.28 9.143 20.423 20.423 20.423z" fill="#26E7EF"/><path d="M33.9 23.8v9.578h-5.57V24.44c0-2.244-.807-3.777-2.823-3.777-1.54 0-2.456 1.033-2.86 2.031-.146.357-.184.854-.184 1.354v9.328h-5.572s.075-15.135 0-16.703h5.572v2.368c-.01.017-.026.037-.036.054h.036v-.054c.74-1.137 2.062-2.76 5.021-2.76 3.668 0 6.416 2.387 6.416 7.518zM11.06 8.623c-1.905 0-3.153 1.246-3.153 2.885 0 1.604 1.211 2.887 3.08 2.887h.038c1.942 0 3.151-1.284 3.151-2.887-.036-1.639-1.209-2.885-3.115-2.885zM8.239 33.378h5.57V16.674h-5.57v16.702z" fill="#0C0C0E"/></svg>