<svg width="93" height="41" fill="none" xmlns="http://www.w3.org/2000/svg"><path fill-rule="evenodd" clip-rule="evenodd" d="M9.885 19.045c0-1.768 1.448-3.201 3.236-3.201h.248c0-1.62.2-3.72 1.226-5.466 1.134-1.92 3.123-3.165 6.031-3.165 2.897 0 4.919 1.23 6.11 3.114 1.1 1.74 1.37 3.84 1.37 5.517h.247c1.788 0 3.237 1.433 3.237 3.2v9.703c0 1.768-1.449 3.2-3.237 3.2H13.12c-1.786 0-3.236-1.432-3.236-3.2v-9.702zm14.336-3.201h-6.97c0-1.428.2-2.685.7-3.53.395-.674 1.064-1.26 2.675-1.26 1.622 0 2.369.601 2.817 1.31.54.852.778 2.107.778 3.48zm1.747 5.138l-.953-.922a.658.658 0 00-.476-.19.66.66 0 00-.477.19l-4.593 4.452-2.058-1.998a.66.66 0 00-.476-.19.659.659 0 00-.477.19l-.951.922a.619.619 0 00-.196.46.62.62 0 00.196.462l3.486 3.375c.13.128.29.19.476.19a.657.657 0 00.477-.19l6.022-5.829a.619.619 0 00.195-.462.623.623 0 00-.195-.46z" fill="#fff"/><path fill-rule="evenodd" clip-rule="evenodd" d="M-.007 6.402C-.007 2.866 2.89 0 6.465 0h29.123c3.575 0 6.474 2.866 6.474 6.402v27.21c0 3.536-2.9 6.402-6.474 6.402H6.467c-3.577 0-6.474-2.866-6.474-6.402V6.402zm6.472-2.24h29.123c1.251 0 2.266 1.004 2.266 2.24v27.21c0 1.237-1.015 2.241-2.266 2.241H6.467a2.235 2.235 0 01-1.595-.648 2.26 2.26 0 01-.67-1.593V6.402a2.252 2.252 0 012.263-2.24z" fill="#fff"/><path d="M53.432 22.008c1.011.422 2.224.633 3.635.633 1.311 0 2.47-.196 3.483-.587 1.027-.406 1.823-.977 2.387-1.714.58-.751.87-1.631.87-2.637 0-.919-.194-1.679-.58-2.28-.386-.618-.997-1.112-1.83-1.489-.818-.39-1.918-.713-3.303-.97-.846-.18-1.5-.352-1.962-.518-.447-.181-.774-.376-.982-.585a1.123 1.123 0 01-.29-.79c0-.467.178-.818.534-1.06.358-.24.872-.36 1.54-.36.58 0 1.064.12 1.451.36.402.24.648.533.736.878.09.137.186.235.29.295a.99.99 0 00.446.091h2.948a.456.456 0 00.47-.473c-.033-.664-.3-1.333-.807-2.01-.49-.69-1.211-1.262-2.164-1.713-.951-.451-2.074-.677-3.37-.677-1.249 0-2.343.204-3.28.61-.936.405-1.658.97-2.164 1.691a4.175 4.175 0 00-.76 2.457c0 1.354.44 2.4 1.317 3.136.893.722 2.232 1.27 4.018 1.646.966.211 1.695.398 2.186.564.49.164.849.353 1.07.564a1.032 1.032 0 01.359.811c0 .468-.224.835-.67 1.106-.446.27-1.093.405-1.941.405-.715 0-1.288-.127-1.718-.381a2.332 2.332 0 01-.937-.972 1.22 1.22 0 00-.358-.293.709.709 0 00-.423-.112h-2.812a.487.487 0 00-.358.158.435.435 0 00-.134.315c.03.813.299 1.564.805 2.255.519.677 1.287 1.226 2.298 1.646zm14.796 0c1.012.422 2.224.633 3.636.633 1.31 0 2.47-.196 3.481-.587 1.027-.406 1.823-.977 2.387-1.714.58-.751.872-1.631.872-2.637 0-.919-.194-1.679-.58-2.28-.388-.618-.997-1.112-1.83-1.489-.818-.39-1.92-.713-3.303-.97-.85-.18-1.502-.352-1.963-.518-.447-.181-.774-.376-.982-.585a1.123 1.123 0 01-.29-.79c0-.467.178-.818.536-1.06.356-.24.868-.36 1.539-.36.578 0 1.063.12 1.45.36.401.24.647.533.736.878.09.137.186.235.289.295.121.06.27.091.448.091h2.944a.455.455 0 00.438-.29.461.461 0 00.033-.183c-.031-.664-.299-1.333-.805-2.01-.49-.69-1.212-1.262-2.165-1.713-.95-.451-2.074-.677-3.368-.677-1.248 0-2.344.204-3.28.61-.938.405-1.659.97-2.165 1.691-.507.722-.76 1.54-.76 2.457 0 1.354.44 2.4 1.318 3.136.892.722 2.232 1.27 4.015 1.646.97.211 1.698.398 2.188.564.492.164.85.353 1.072.564a1.03 1.03 0 01.356.811c0 .468-.222.835-.669 1.106-.446.27-1.094.405-1.942.405-.714 0-1.285-.127-1.718-.381a2.332 2.332 0 01-.936-.972c-.1-.12-.222-.219-.358-.293a.71.71 0 00-.424-.112h-2.811a.488.488 0 00-.357.158.434.434 0 00-.133.315c.029.813.296 1.564.802 2.255.521.677 1.288 1.226 2.299 1.646zm13.166.406a.59.59 0 01-.401-.157.602.602 0 01-.156-.405V7.192c0-.164.052-.3.156-.406a.591.591 0 01.401-.158h2.948a.54.54 0 01.556.564v11.817h6.76c.165 0 .298.06.403.182a.552.552 0 01.156.405v2.256a.6.6 0 01-.156.405.541.541 0 01-.403.157H81.394zM53.163 35.213c-.619 0-1.154-.098-1.608-.293a2.51 2.51 0 01-1.025-.768 1.849 1.849 0 01-.38-1.036.22.22 0 01.067-.159.245.245 0 01.18-.078h.567c.141 0 .239.075.29.226.079.334.283.624.569.81.32.227.767.34 1.338.34.618 0 1.085-.11 1.396-.328a1.087 1.087 0 00.47-.935.846.846 0 00-.235-.62 1.881 1.881 0 00-.669-.419c-.44-.168-.887-.319-1.34-.45a6.826 6.826 0 01-1.383-.53 2.012 2.012 0 01-.77-.698 1.97 1.97 0 01-.257-1.05c0-.405.108-.771.325-1.093a2.17 2.17 0 01.948-.757c.408-.187.895-.282 1.46-.282.58 0 1.078.106 1.496.317.416.202.733.462.948.778.201.277.32.605.345.946a.22.22 0 01-.067.159c-.036.045-.092.067-.166.067h-.591c-.158 0-.254-.071-.29-.213a1.105 1.105 0 00-.524-.778 1.977 1.977 0 00-1.15-.317c-.507 0-.904.098-1.194.293a.976.976 0 00-.434.87c0 .254.065.465.2.63.14.164.352.313.636.44.405.163.818.303 1.238.419.633.17 1.13.35 1.494.54.365.18.637.41.814.688.18.27.27.616.27 1.036 0 .7-.268 1.248-.804 1.646-.537.4-1.258.599-2.164.599zm4.685-.113a.279.279 0 01-.188-.067.286.286 0 01-.067-.193v-7.363c0-.082.022-.145.067-.19a.26.26 0 01.188-.08h4.61c.072 0 .133.026.177.08.054.043.08.108.08.19v.43a.287.287 0 01-.07.19c-.043.046-.108.068-.188.068h-3.793v2.47h3.548c.074 0 .133.025.179.078.05.045.077.11.077.193v.418a.26.26 0 01-.16.243.24.24 0 01-.098.015h-3.546v2.56h3.882c.081 0 .145.021.19.067a.269.269 0 01.067.193v.438a.263.263 0 01-.078.193.241.241 0 01-.179.067h-4.698zm6.97-.698c.52.54 1.28.81 2.276.81.662 0 1.222-.116 1.684-.348a2.63 2.63 0 001.048-.937c.239-.382.37-.797.39-1.24a.161.161 0 00-.066-.159.225.225 0 00-.166-.067h-.615a.268.268 0 00-.177.056c-.046.037-.078.106-.102.204-.119.564-.345.962-.68 1.195-.327.226-.766.338-1.316.338-1.28 0-1.942-.718-1.985-2.153-.01-.218-.013-.539-.013-.959 0-.422.003-.733.013-.936.043-1.437.705-2.154 1.985-2.154.55 0 .99.116 1.316.35.326.225.554.62.68 1.183.036.173.13.26.279.26h.615a.231.231 0 00.155-.056.204.204 0 00.078-.158v-.022a2.543 2.543 0 00-.39-1.23 2.55 2.55 0 00-1.05-.924c-.46-.241-1.021-.361-1.683-.361-.99 0-1.745.274-2.266.823-.52.54-.8 1.286-.835 2.232-.01.211-.013.55-.013 1.015 0 .458.006.79.013.993.036.955.31 1.703.824 2.245zm9.84.81c-.958 0-1.703-.26-2.231-.778-.521-.527-.782-1.318-.782-2.379v-4.578c0-.082.024-.145.067-.19a.259.259 0 01.19-.08h.57a.235.235 0 01.19.08c.052.043.078.108.078.19v4.602c0 .72.166 1.262.502 1.622.335.362.807.542 1.416.542.61 0 1.083-.181 1.418-.542.334-.36.5-.902.5-1.622v-4.602a.26.26 0 01.068-.19.26.26 0 01.19-.08h.58c.074 0 .134.026.179.08a.263.263 0 01.078.19v4.578c0 1.06-.264 1.854-.792 2.38-.521.518-1.26.778-2.22.778z" fill="#fff"/><path fill-rule="evenodd" clip-rule="evenodd" d="M79.602 35.03a.28.28 0 00.19.07h.57a.279.279 0 00.19-.068.262.262 0 00.077-.192v-2.91h1.953l1.617 2.866a.8.8 0 00.168.226.42.42 0 00.267.078h.536a.212.212 0 00.157-.068.204.204 0 00.078-.158.282.282 0 00-.034-.123l-1.718-3.001c.506-.142.896-.397 1.171-.764.282-.37.424-.84.424-1.412 0-.766-.241-1.353-.724-1.759-.484-.405-1.153-.609-2.009-.609h-2.723a.256.256 0 00-.19.08.263.263 0 00-.067.191v7.363c0 .076.024.138.067.19zm4.53-5.467c0 .94-.553 1.41-1.662 1.41h-1.84v-2.82h1.84c1.109 0 1.662.47 1.662 1.41z" fill="#fff"/><path d="M87.103 35.1a.279.279 0 01-.19-.068.286.286 0 01-.067-.192v-7.363c0-.082.024-.145.067-.19a.257.257 0 01.19-.08h4.608c.074 0 .133.026.18.08.051.043.076.108.076.19v.43a.287.287 0 01-.067.19c-.043.046-.108.068-.19.068h-3.79v2.47h3.547a.22.22 0 01.178.078c.054.045.08.109.08.193v.418a.263.263 0 01-.162.242.24.24 0 01-.096.016H87.92v2.56h3.88c.081 0 .145.021.19.067a.268.268 0 01.067.192v.439a.263.263 0 01-.08.192.24.24 0 01-.177.068h-4.698z" fill="#fff"/></svg>