<svg width="83" height="31" fill="none" xmlns="http://www.w3.org/2000/svg"><path d="M.06 10.199c.061-.352.11-.692.182-1.02.75-3.465 2.748-5.958 5.86-7.575C7.7.754 9.42.28 11.212.097A21.059 21.059 0 0112.953 0h57.12c2.022 0 3.972.413 5.763 1.374 3.354 1.787 5.363 4.595 6.102 8.327.024.146.049.292.072.45v.049L.06 10.199zm38.924-1.434V3.83c.048.073.06.097.084.134.957 1.495 1.926 2.99 2.883 4.485.156.243.301.365.592.328.266-.024.533-.012.8-.012V2.03h-1.078v4.876a.335.335 0 01-.12-.134c-.97-1.533-1.95-3.065-2.92-4.596-.072-.11-.144-.158-.277-.158-.303.012-.606 0-.897 0h-.156v6.735c.362.012.713.012 1.089.012zm10.594-2.65c0 .06.012.097.012.146V7.49c0 .109-.036.158-.133.194a2.765 2.765 0 01-1.368.146c-.727-.097-1.259-.474-1.55-1.143-.35-.838-.35-1.69.036-2.516.303-.633.811-1.046 1.514-1.155a3.184 3.184 0 012.131.377c.109.06.205.134.339.207 0-.378-.012-.73 0-1.07.012-.159-.048-.22-.182-.28a4.357 4.357 0 00-2.191-.292c-1.224.134-2.13.766-2.664 1.885-.496 1.033-.484 2.103-.073 3.16.34.864.969 1.471 1.865 1.727 1.15.34 2.264.158 3.305-.413a.209.209 0 00.073-.146V5.204c0-.037-.012-.061-.012-.098h-2.47v1.021c.46-.012.908-.012 1.368-.012zM32.64 8.765v-2.71h.449c.266 0 .508.084.69.29.157.183.29.39.423.596.352.572.69 1.155 1.03 1.726.048.073.096.11.18.11h1.067c.036 0 .072-.012.12-.012-.156-.268-.314-.51-.471-.754-.509-.778-.92-1.617-1.55-2.321.048-.025.108-.061.157-.086 1.223-.644 1.357-2.468.23-3.209-.4-.268-.847-.352-1.32-.352h-1.949c-.048 0-.096 0-.145.011V8.79c.351-.025.702-.025 1.09-.025zM0 20.947h82.108c-.024.267-.06.522-.085.777-.169 1.447-.52 2.832-1.174 4.122-1.416 2.796-3.693 4.413-6.743 4.947a13.69 13.69 0 01-2.447.207c-19.963 0-39.915 0-59.88-.012-1.936 0-3.849-.304-5.665-1.034-2.01-.814-3.632-2.103-4.709-4.011C.762 24.824.387 23.609.182 22.332c-.073-.413-.11-.826-.17-1.24C0 21.043 0 20.994 0 20.946zm58.536 8.242h.17c.557 0 1.101.012 1.658 0 .303-.012.618-.025.92-.086 1.115-.23 1.95-.838 2.349-1.945.266-.728.255-1.483.048-2.224-.206-.766-.665-1.325-1.404-1.63-.339-.134-.714-.254-1.077-.278-.872-.05-1.755-.05-2.628-.062-.011 0-.024.013-.048.013.012 2.054.012 4.12.012 6.212zm-28.475-6.225v6.213h1.066v-2.468c.57-.098 1.04.037 1.343.547a1.7 1.7 0 00.134.194c.338.547.678 1.083 1.017 1.63.048.073.096.109.182.109h1.173c-.69-.96-1.223-1.982-1.96-2.87.06-.024.109-.06.168-.085 1.21-.631 1.175-2.334.195-2.941a1.926 1.926 0 00-1.053-.316c-.727-.013-1.466-.013-2.192-.013a.084.084 0 00-.073 0zm26.61.972v-.972h-3.45v6.213h3.584v-.973H54.3v-1.702h2.191v-.972H54.3v-1.593h2.372zm-31.925-.972v6.213h3.596v-.827c0-.109-.024-.146-.145-.146h-2.373v-1.702h2.19v-.972h-2.07c-.108 0-.145-.037-.145-.146v-1.337c0-.037.012-.074.012-.123h2.374v-.971c-1.139.011-2.276.011-3.439.011zm-1.78 1.338c0-.34-.012-.657 0-.96.012-.146-.048-.208-.181-.256-.533-.195-1.078-.243-1.634-.219-1.236.061-2.203.596-2.773 1.702-.496.973-.496 1.982-.097 2.99.243.608.678 1.058 1.247 1.375a2.86 2.86 0 001.078.328c.762.072 1.513.012 2.228-.329.096-.049.12-.097.12-.194-.012-.268 0-.547 0-.815 0-.036-.012-.073-.012-.121a.507.507 0 00-.121.073c-.533.34-1.114.461-1.73.45-.958-.026-1.696-.609-1.89-1.532a4.188 4.188 0 01-.06-.96c.072-1.01.702-1.74 1.647-1.934a2.848 2.848 0 011.815.231c.122.037.23.098.364.17zm22.955 4.875v-2.59h2.215v-.972h-2.203v-1.678h2.385v-.961h-3.45v6.212c.338-.012.69-.011 1.053-.011zm-8.62-5.253v5.24h1.078v-5.24h1.755v-.971h-4.59v.971h1.757zm14.492 4.329h-.714v-4.389h.678v-.911h-2.482v.923h.714v4.389h-.618v.912h2.422v-.924zm-10.848-5.3v.923h.679v4.389h-.679v.912h2.422v-.912h-.642v-4.39h.642v-.922h-2.422z" fill="#407FC2"/><path d="M54.48 11.901h1.127v2.723c.036-.024.06-.024.072-.048 1.296-1.131 3.197-.511 3.548 1.167.182.851.12 1.702-.34 2.468-.556.936-1.767 1.349-2.76.923-.181-.073-.339-.194-.52-.291v.328H54.48v-7.27zm1.09 4.839c.012 0 .025 0 .05.012v.365c.01.437.192.79.568 1.021.679.425 1.55.097 1.828-.68.151-.434.189-.898.11-1.35-.074-.45-.28-.815-.716-.997-.665-.268-1.428.049-1.67.729-.11.28-.122.596-.17.9zM35.764 11.9h1.113v2.712c.073-.062.11-.086.145-.122.594-.498 1.61-.608 2.289-.231.532.304.75.814.812 1.386.024.23.024.461.024.693v2.832h-1.139v-2.88c0-.17-.024-.34-.048-.511-.11-.57-.472-.875-1.174-.729-.485.097-.824.547-.884 1.082-.013.085-.013.17-.013.268v2.771h-1.125v-7.27zm-8.946 5.13c.036.73.508 1.216 1.198 1.277a2.235 2.235 0 001.513-.425 5.11 5.11 0 00.34-.256.5.5 0 01.012.122v.9c0 .084-.025.145-.097.194a2.765 2.765 0 01-1.622.45c-.316 0-.642-.025-.945-.11-.594-.158-1.054-.535-1.296-1.094-.41-.936-.436-1.884.037-2.796.593-1.155 2.046-1.604 3.172-1.009.363.195.63.474.811.838.303.597.29 1.24.267 1.91h-3.39zm2.25-1.008c-.01-.609-.422-1.01-1.015-.997-.57 0-1.163.498-1.175.997h2.19zm23.052-.134c-.013-.57-.291-.863-.836-.863-.533 0-1.005.182-1.416.51-.098.074-.194.158-.303.244 0-.061-.013-.098-.013-.134v-.997c0-.049.037-.122.073-.146a3.156 3.156 0 012.446-.389c.714.17 1.114.706 1.186 1.496.013.134.025.267.025.413v3.16h-1.138v-.401a3.37 3.37 0 01-.17.134c-.605.474-1.66.51-2.288.085-.884-.608-.823-2.042.11-2.614.313-.194.677-.279 1.04-.327.427-.064.855-.121 1.284-.171zm-.013.96c-.158.025-.327.037-.484.061-.327.061-.666.109-.993.195a.629.629 0 00-.327.23.613.613 0 00.388.949c.871.183 1.573-.486 1.416-1.434zm-28.8 2.334h-1.163v-5.859h-1.949v-1.046h5.06v1.033h-1.949v5.872zm36.72-1.483c.072.061.144.098.217.16a2.18 2.18 0 001.72.411c.084-.011.181-.048.266-.084a.404.404 0 00.109-.645c-.127-.11-.27-.2-.424-.267-.363-.17-.739-.292-1.09-.474-.375-.183-.666-.474-.75-.911-.134-.633.109-1.192.665-1.533.533-.316 1.114-.389 1.707-.316.279.037.558.134.824.207.036.012.096.073.096.11.013.364 0 .728 0 1.118a4.19 4.19 0 01-.23-.146 2.036 2.036 0 00-1.367-.316.922.922 0 00-.4.146c-.243.146-.255.474-.036.657.096.084.218.145.338.194.34.146.68.255 1.006.426.218.108.436.243.593.424.569.62.399 1.593-.34 2.056-.532.327-1.125.388-1.73.351a2.682 2.682 0 01-1.09-.291c-.036-.024-.097-.086-.097-.122-.012-.364 0-.741 0-1.105-.012 0 0-.013.012-.05zm-14.022.438h2.736v1.046h-3.874V12.29h1.138v5.848zm-11.173-.401v1.082c0 .048-.06.11-.109.145-.496.28-1.054.366-1.61.329-1.417-.097-2.325-1.167-2.276-2.65.036-.9.35-1.666 1.114-2.164.883-.572 1.827-.584 2.796-.195.037.013.097.073.097.11.012.376 0 .741 0 1.155a3.365 3.365 0 01-.302-.207 1.818 1.818 0 00-1.272-.304c-.605.085-.992.45-1.187 1.022a2.178 2.178 0 00-.024 1.24c.206.754.957 1.154 1.792.96a2.2 2.2 0 00.811-.402c.037-.036.098-.073.17-.121zm-16.43-3.793h1.115v5.239h-1.115v-5.239zm-.023-1.714h1.186v1.069H18.38v-1.07z" fill="#fff"/><path d="M32.64 3.088c.4 0 .787-.037 1.162.012.484.061.739.34.775.766.036.522-.206.924-.654 1.082a1.673 1.673 0 01-.484.073c-.267.012-.521 0-.8 0V3.088zm26.974 25.128V23.9c.484.023.957.023 1.43.072.217.025.422.085.628.17.496.195.811.56.956 1.082a2.846 2.846 0 010 1.532c-.242.839-.847 1.265-1.67 1.386-.448.073-.883.061-1.344.073zm-28.5-4.303c.4.011.787.011 1.163.048.411.049.642.28.702.645.06.4-.109.777-.46.947a1.34 1.34 0 01-.484.134c-.278.024-.545.012-.824 0-.036 0-.084-.049-.084-.073-.012-.547-.012-1.105-.012-1.701z" fill="#407FC2"/></svg>