<svg width="31" height="31" fill="none" xmlns="http://www.w3.org/2000/svg"><path opacity=".3" d="M15.5 29C22.956 29 29 22.956 29 15.5S22.956 2 15.5 2 2 8.044 2 15.5 8.044 29 15.5 29z" fill="#BC424B" stroke="#582C33" stroke-width="4"/><path d="M10.108 17.16h1.843v1.04H7.037v-1.04H9.02v-4.413l-1.332.378-.265-.926 1.74-.614h.944v5.575zm6.532-2.39c.674.358 1.011.89 1.011 1.596 0 .605-.223 1.084-.67 1.437-.448.346-1.053.52-1.815.52-.77 0-1.377-.174-1.824-.52-.447-.353-.67-.832-.67-1.437 0-.718.34-1.25 1.02-1.597-.53-.34-.794-.81-.794-1.408 0-.604.214-1.07.643-1.398.428-.334.97-.501 1.625-.501s1.193.167 1.616.5c.428.328.642.795.642 1.4 0 .598-.261 1.067-.784 1.407zm-1.474-2.278c-.372 0-.662.079-.87.236-.207.158-.311.385-.311.68a.81.81 0 00.312.672c.213.163.503.245.869.245.36 0 .643-.082.85-.245a.8.8 0 00.322-.671c0-.296-.104-.523-.312-.68-.208-.158-.495-.237-.86-.237zm-1.049 4.536c.246.176.595.265 1.049.265.68 0 .8-.088 1.04-.265.238-.183.358-.438.359-.765 0-.328-.12-.58-.36-.757-.239-.182-.585-.273-1.04-.274-.68 0-.802.092-1.048.275-.24.176-.36.428-.36.755 0 .328.12.583.36.766zm8.724-2.618v.964h-1.597v1.597h-.965v-1.597h-1.597v-.964h1.597v-1.597h.964v1.597h1.598z" fill="#E44B55"/></svg>