<svg width="25" height="31" fill="none" xmlns="http://www.w3.org/2000/svg"><path d="M12.4 0L0 5.636v8.454C0 21.91 5.29 29.224 12.4 31c7.11-1.776 12.4-9.09 12.4-16.91V5.636L12.4 0z" fill="#1E435B"/><path d="M10.695 20.991c-.12 0-.24-.02-.355-.06a.852.852 0 01-.308-.202l-4.07-4.089a.882.882 0 01-.248-.678.957.957 0 01.272-.678.893.893 0 01.663-.261c.268 0 .489.087.662.26l3.384 3.402 8.023-8.06a.915.915 0 01.675-.262c.276 0 .5.087.673.261a.925.925 0 01.26.677.923.923 0 01-.259.678l-8.708 8.75a.851.851 0 01-.309.202c-.114.04-.234.06-.355.06z" fill="#2DC5F5"/></svg>