<svg width="60" height="52" fill="none" xmlns="http://www.w3.org/2000/svg"><path d="M43.376 50.022c0 1.092.892 1.978 1.991 1.978 1.1 0 1.991-.886 1.991-1.978h-3.982zM11.235 39.44c1.1 0 1.99-.886 1.99-1.978a1.985 1.985 0 00-1.99-1.979v3.957zm23.292 10.582c0 1.092.892 1.978 1.991 1.978 1.1 0 1.991-.886 1.991-1.978h-3.982zm3.982-7.537a1.985 1.985 0 00-1.99-1.978c-1.1 0-1.992.886-1.992 1.978h3.982zm14.475-36.72a1.994 1.994 0 00-2.541 1.206 1.975 1.975 0 001.213 2.525l1.328-3.73zm-1.328 15.987a1.975 1.975 0 00-1.213 2.525 1.994 1.994 0 002.54 1.205l-1.327-3.73zM45.284 8.107a1.995 1.995 0 00-2.541 1.205 1.975 1.975 0 001.213 2.525l1.328-3.73zM43.956 19.41a1.975 1.975 0 00-1.213 2.524 1.994 1.994 0 002.54 1.206l-1.327-3.73zm-17.55 3.198c-5.185 0-9.387-4.176-9.387-9.326h-3.982c0 7.336 5.985 13.282 13.368 13.282V22.61zm-9.387-9.326c0-5.151 4.202-9.326 9.386-9.326V0c-7.383 0-13.369 5.947-13.369 13.283h3.983zm9.386-9.326c5.184 0 9.387 4.175 9.387 9.326h3.982C39.774 5.947 33.788 0 26.405 0v3.957zm9.387 9.326c0 3.21-1.632 6.043-4.125 7.724l2.235 3.274c3.54-2.385 5.872-6.42 5.872-10.998h-3.982zm-4.125 7.724a9.377 9.377 0 01-5.262 1.602v3.956c2.775 0 5.358-.842 7.497-2.284l-2.235-3.274zm15.691 29.015v-6.28h-3.982v6.28h3.982zM31.461 27.947h-8.473v3.956h8.473v-3.956zm-19.93-8.586l-1.53-5.326-3.83 1.087 1.532 5.326 3.829-1.087zM.156 16.655l4.436 17.63 3.863-.959-4.436-17.63-3.863.959zm4.436 17.63c.762 3.03 3.501 5.155 6.644 5.155v-3.957a2.863 2.863 0 01-2.78-2.157l-3.864.96zM5.1 10.363c-3.316 0-5.75 3.097-4.945 6.293l3.863-.96A1.11 1.11 0 015.1 14.32v-3.957zm4.9 3.673a5.092 5.092 0 00-4.9-3.673v3.957c.497 0 .935.328 1.072.803L10 14.035zm12.988 13.912c-5.32 0-9.995-3.504-11.456-8.586l-3.83 1.087c1.95 6.78 8.188 11.455 15.286 11.455v-3.956zm24.37 15.795c0-8.724-7.117-15.795-15.897-15.795v3.956c6.58 0 11.915 5.3 11.915 11.839h3.982zm-8.849 6.28v-7.537h-3.982v7.537h3.982zm15.593-38.994a6.478 6.478 0 011.916 4.596H60c0-2.773-1.109-5.433-3.082-7.394l-2.816 2.798zm1.916 4.596c0 1.724-.69 3.377-1.916 4.596l2.816 2.798A10.422 10.422 0 0060 15.624h-3.982zm-4.362-6.128c.912.32 1.75.84 2.446 1.532l2.816-2.798a10.534 10.534 0 00-3.934-2.465l-1.328 3.73zm2.446 10.724a6.547 6.547 0 01-2.446 1.532l1.328 3.73a10.532 10.532 0 003.934-2.464l-2.816-2.798zm-8.634-7.436a4.003 4.003 0 011.184 2.84h3.982a7.947 7.947 0 00-2.35-5.638l-2.816 2.797zm1.184 2.84a4.003 4.003 0 01-1.184 2.84l2.815 2.798a7.948 7.948 0 002.35-5.638h-3.981zm-2.696-3.787a4.034 4.034 0 011.511.947l2.816-2.798a8.032 8.032 0 00-3-1.88l-1.327 3.73zm1.511 6.627c-.43.428-.947.749-1.51.947l1.327 3.73a8.03 8.03 0 003-1.88l-2.816-2.797z" fill="#06F810"/></svg>