<svg width="111" height="54" fill="none" xmlns="http://www.w3.org/2000/svg"><g fill-rule="evenodd" clip-rule="evenodd"><path d="M1.69 8.627l4.8-6.38L5.79 0 0 7.697l1.69.93z" fill="url(#paint0_radial_9_411)"/><path d="M6.49 2.248h98.02l.7-2.248H5.79l.7 2.248z" fill="url(#paint1_radial_9_411)"/><path d="M104.51 2.248l4.799 6.38L111 7.696 105.21 0l-.7 2.248z" fill="url(#paint2_radial_9_411)"/><path d="M6.49 51.754l-4.8-6.381-1.69.93L5.79 54l.7-2.246z" fill="url(#paint3_radial_9_411)"/><path d="M104.51 51.754H6.49L5.79 54h99.42l-.7-2.246z" fill="url(#paint4_radial_9_411)"/><path d="M109.309 45.373l-4.799 6.381.7 2.246 5.79-7.697-1.691-.93z" fill="url(#paint5_radial_9_411)"/><path d="M109.309 8.627v36.745l1.691.93V7.697l-1.691.93z" fill="url(#paint6_radial_9_411)"/><path d="M1.69 45.372V8.627L0 7.697v38.606l1.69-.93z" fill="url(#paint7_radial_9_411)"/><path d="M1.69 8.627v36.746l1.015-.558V9.187l-1.016-.56z" fill="url(#paint8_radial_9_411)"/><path d="M6.91 50.404l-4.205-5.59-1.016.559 4.8 6.381.42-1.35z" fill="url(#paint9_radial_9_411)"/><path d="M104.089 50.404H6.909l-.42 1.35h98.021l-.421-1.35z" fill="url(#paint10_radial_9_411)"/><path d="M108.295 44.815l-4.206 5.59.421 1.35 4.799-6.383-1.014-.557z" fill="url(#paint11_radial_9_411)"/><path d="M108.295 9.187v35.628l1.014.558V8.627l-1.014.56z" fill="url(#paint12_radial_9_411)"/><path d="M2.705 9.187l4.204-5.592-.42-1.347-4.8 6.38 1.016.559z" fill="url(#paint13_radial_9_411)"/><path d="M6.91 3.595h97.179l.421-1.347H6.49l.42 1.347z" fill="url(#paint14_radial_9_411)"/><path d="M104.089 3.595l4.206 5.592 1.014-.56-4.799-6.38-.421 1.348z" fill="url(#paint15_radial_9_411)"/><path d="M4.265 5.205l1.962-3.036-.38-1.982.731 1.753 47.209.308L6.569 2.5 4.265 5.206z" fill="url(#paint16_radial_9_411)"/><path d="M106.733 48.797l-1.96 3.034.379 1.982-.731-1.751-47.208-.308 47.218-.256 2.302-2.701z" fill="url(#paint17_radial_9_411)"/></g><defs><radialGradient id="paint0_radial_9_411" cx="0" cy="0" r="1" gradientUnits="userSpaceOnUse" gradientTransform="matrix(23.0358 0 0 30.6231 7.384 2.09)"><stop stop-color="#FFF8C7"/><stop offset="1" stop-color="#FFC521"/></radialGradient><radialGradient id="paint1_radial_9_411" cx="0" cy="0" r="1" gradientUnits="userSpaceOnUse" gradientTransform="matrix(126.386 0 0 168.013 6.659 -28.612)"><stop stop-color="#FFF8C7"/><stop offset="1" stop-color="#FFC521"/></radialGradient><radialGradient id="paint2_radial_9_411" cx="0" cy="0" r="1" gradientUnits="userSpaceOnUse" gradientTransform="matrix(26.1819 0 0 34.8056 94.28 19.065)"><stop stop-color="#F90"/><stop offset="1" stop-color="#C44800"/></radialGradient><radialGradient id="paint3_radial_9_411" cx="0" cy="0" r="1" gradientUnits="userSpaceOnUse" gradientTransform="matrix(19.8026 0 0 26.325 11.699 31.306)"><stop stop-color="#F90"/><stop offset="1" stop-color="#C44800"/></radialGradient><radialGradient id="paint4_radial_9_411" cx="0" cy="0" r="1" gradientUnits="userSpaceOnUse" gradientTransform="matrix(85.8466 0 0 114.122 48.867 38.009)"><stop stop-color="#F90"/><stop offset="1" stop-color="#C44800"/></radialGradient><radialGradient id="paint5_radial_9_411" cx="0" cy="0" r="1" gradientUnits="userSpaceOnUse" gradientTransform="matrix(26.969 0 0 35.8519 89.966 26.975)"><stop stop-color="#F90"/><stop offset="1" stop-color="#C44800"/></radialGradient><radialGradient id="paint6_radial_9_411" cx="0" cy="0" r="1" gradientUnits="userSpaceOnUse" gradientTransform="matrix(38.8868 0 0 51.695 135.077 30.161)"><stop stop-color="#F90"/><stop offset="1" stop-color="#C44800"/></radialGradient><radialGradient id="paint7_radial_9_411" cx="0" cy="0" r="1" gradientUnits="userSpaceOnUse" gradientTransform="matrix(32.8448 0 0 43.663 -14.919 12.483)"><stop stop-color="#FFEB68"/><stop offset="1" stop-color="#E67D2D"/></radialGradient><radialGradient id="paint8_radial_9_411" cx="0" cy="0" r="1" gradientUnits="userSpaceOnUse" gradientTransform="matrix(32.9231 0 0 43.7671 -11.717 22.903)"><stop stop-color="#F90"/><stop offset="1" stop-color="#C44800"/></radialGradient><radialGradient id="paint9_radial_9_411" cx="0" cy="0" r="1" gradientUnits="userSpaceOnUse" gradientTransform="matrix(21.1936 0 0 28.1742 10.817 28.616)"><stop stop-color="#FFEB68"/><stop offset="1" stop-color="#E67D2D"/></radialGradient><radialGradient id="paint10_radial_9_411" cx="0" cy="0" r="1" gradientUnits="userSpaceOnUse" gradientTransform="matrix(64.4939 0 0 85.7362 91.726 59.625)"><stop stop-color="#FFF8C7"/><stop offset="1" stop-color="#FFC521"/></radialGradient><radialGradient id="paint11_radial_9_411" cx="0" cy="0" r="1" gradientUnits="userSpaceOnUse" gradientTransform="matrix(33.9914 0 0 45.1873 101.944 41.61)"><stop stop-color="#FFF8C7"/><stop offset="1" stop-color="#FFC521"/></radialGradient><radialGradient id="paint12_radial_9_411" cx="0" cy="0" r="1" gradientUnits="userSpaceOnUse" gradientTransform="matrix(34.3821 0 0 45.7065 103.607 24.66)"><stop stop-color="#FFEB68"/><stop offset="1" stop-color="#E67D2D"/></radialGradient><radialGradient id="paint13_radial_9_411" cx="0" cy="0" r="1" gradientUnits="userSpaceOnUse" gradientTransform="matrix(18.7004 0 0 24.8598 13.987 18.712)"><stop stop-color="#F90"/><stop offset="1" stop-color="#C44800"/></radialGradient><radialGradient id="paint14_radial_9_411" cx="0" cy="0" r="1" gradientUnits="userSpaceOnUse" gradientTransform="matrix(84.2998 0 0 112.066 122.644 19.311)"><stop stop-color="#F90"/><stop offset="1" stop-color="#C44800"/></radialGradient><radialGradient id="paint15_radial_9_411" cx="0" cy="0" r="1" gradientUnits="userSpaceOnUse" gradientTransform="matrix(20.5458 0 0 27.313 105.555 6.888)"><stop stop-color="#F90"/><stop offset="1" stop-color="#C44800"/></radialGradient><radialGradient id="paint16_radial_9_411" cx="0" cy="0" r="1" gradientUnits="userSpaceOnUse" gradientTransform="matrix(65.2485 0 0 86.7395 11.681 2.344)"><stop stop-color="#FFF9CF"/><stop offset="1"/></radialGradient><radialGradient id="paint17_radial_9_411" cx="0" cy="0" r="1" gradientUnits="userSpaceOnUse" gradientTransform="matrix(64.1392 0 0 85.2649 100.383 52.828)"><stop stop-color="#FFF9CF"/><stop offset="1"/></radialGradient></defs></svg>