<svg width="40" height="39" fill="none" xmlns="http://www.w3.org/2000/svg"><path d="M20 0l5.936 12.86L40 14.532l-10.4 9.616 2.76 13.896L20 31.124l-12.36 6.92 2.76-13.896L0 14.532l14.064-1.672L20 0z" fill="url(#paint0_linear_9_441)"/><path d="M20 0v21.036l5.936-8.176L20 0z" fill="url(#paint1_linear_9_441)"/><path d="M20 0v21.036l-5.936-8.176L20 0z" fill="url(#paint2_linear_9_441)"/><path d="M20 21.036L0 14.532l14.064-1.672L20 21.036z" fill="url(#paint3_linear_9_441)"/><path d="M20 21.036l5.936-8.176L40 14.532l-20 6.504z" fill="url(#paint4_linear_9_441)"/><path d="M29.6 24.148L20 21.036l20-6.504-10.4 9.616z" fill="url(#paint5_linear_9_441)"/><path d="M32.36 38.044L29.6 24.148 20 21.036l12.36 17.008z" fill="url(#paint6_linear_9_441)"/><path d="M32.36 38.044L20 21.036v10.088l12.36 6.92z" fill="url(#paint7_linear_9_441)"/><path d="M20 21.036v10.088l-12.36 6.92L20 21.036z" fill="url(#paint8_linear_9_441)"/><path d="M10.4 24.148l9.6-3.112L7.64 38.044l2.76-13.896z" fill="url(#paint9_linear_9_441)"/><path d="M0 14.532l10.4 9.616 9.6-3.112-20-6.504z" fill="url(#paint10_linear_9_441)"/><path d="M20 19.328c.35 0 .632-4.105.632-9.168 0-5.063-.283-9.168-.632-9.168-.349 0-.632 4.105-.632 9.168 0 5.063.283 9.168.632 9.168z" fill="url(#paint11_radial_9_441)"/><path d="M29.22 18.848c-4.796 1.632-8.792 2.624-8.932 2.216-.14-.408 3.636-2.06 8.432-3.688 4.796-1.632 8.792-2.624 8.932-2.216.136.408-3.636 2.06-8.432 3.688z" fill="url(#paint12_radial_9_441)"/><path d="M10.344 18.64c4.796 1.632 8.772 2.684 8.884 2.356.112-.328-3.684-1.92-8.48-3.548-4.796-1.628-8.772-2.684-8.884-2.356-.112.328 3.684 1.92 8.48 3.548z" fill="url(#paint13_radial_9_441)"/><path d="M25.416 28.884c-2.876-4.172-4.972-7.712-4.684-7.912.288-.196 2.848 3.024 5.72 7.192 2.872 4.172 4.968 7.712 4.684 7.908-.288.204-2.848-3.02-5.72-7.188z" fill="url(#paint14_radial_9_441)"/><path d="M24.864 28.92c2.88 4.164 5.448 7.38 5.736 7.184.288-.2-1.816-3.736-4.696-7.9s-5.448-7.38-5.736-7.184c-.288.196 1.816 3.732 4.696 7.9z" fill="url(#paint15_radial_9_441)"/><path d="M15.044 28.884c-2.88 4.164-5.448 7.38-5.736 7.184-.288-.2 1.816-3.736 4.696-7.9s5.448-7.38 5.736-7.184c.288.196-1.816 3.736-4.696 7.9z" fill="url(#paint16_radial_9_441)"/><path d="M11.924 23.652L3.18 15.564l11.828-1.404L20 3.344l4.992 10.816 11.828 1.404-8.744 8.088 2.32 11.684L20 29.52 9.604 35.336l2.32-11.684z" fill="url(#paint17_linear_9_441)"/><path d="M20 29.12l-9.904 5.54 2.212-11.132-8.332-7.704 11.268-1.34L20 4.18l4.756 10.304 11.268 1.34-8.332 7.704 2.212 11.132L20 29.12z" fill="url(#paint18_linear_9_441)"/><defs><linearGradient id="paint0_linear_9_441" x1="0" y1="19.021" x2="40" y2="19.021" gradientUnits="userSpaceOnUse"><stop stop-color="#281A0F"/><stop offset=".018" stop-color="#2F1E11"/><stop offset=".045" stop-color="#442A15"/><stop offset=".077" stop-color="#653D1C"/><stop offset=".102" stop-color="#834E23"/><stop offset=".202" stop-color="#B1803B"/><stop offset=".331" stop-color="#F6E588"/><stop offset=".373" stop-color="#F5E386"/><stop offset=".396" stop-color="#F0DC7E"/><stop offset=".414" stop-color="#E9CF70"/><stop offset=".43" stop-color="#DEBE5D"/><stop offset=".444" stop-color="#D1A744"/><stop offset=".454" stop-color="#C4922D"/><stop offset=".46" stop-color="#CF9E3F"/><stop offset=".469" stop-color="#DAAA50"/><stop offset=".479" stop-color="#E1B25B"/><stop offset=".494" stop-color="#E6B762"/><stop offset=".536" stop-color="#E7B864"/><stop offset=".636" stop-color="#F7E687"/><stop offset=".867" stop-color="#834E23"/></linearGradient><linearGradient id="paint1_linear_9_441" x1="20" y1="10.518" x2="25.934" y2="10.518" gradientUnits="userSpaceOnUse"><stop stop-color="#785729"/><stop offset=".224" stop-color="#B1803B"/><stop offset=".498" stop-color="#F6E588"/><stop offset=".647" stop-color="#F5E386"/><stop offset=".728" stop-color="#F3DB80"/><stop offset=".792" stop-color="#EECD75"/><stop offset=".847" stop-color="#E8BA66"/><stop offset=".852" stop-color="#E7B864"/><stop offset="1" stop-color="#834E23"/></linearGradient><linearGradient id="paint2_linear_9_441" x1="14.218" y1="10.518" x2="20.267" y2="10.518" gradientUnits="userSpaceOnUse"><stop stop-color="#785729"/><stop offset=".224" stop-color="#B1803B"/><stop offset=".498" stop-color="#F6E588"/><stop offset=".647" stop-color="#F5E386"/><stop offset=".728" stop-color="#F3DB80"/><stop offset=".792" stop-color="#EECD75"/><stop offset=".847" stop-color="#E8BA66"/><stop offset=".852" stop-color="#E7B864"/><stop offset="1" stop-color="#834E23"/></linearGradient><linearGradient id="paint3_linear_9_441" x1="9.922" y1="18.137" x2="11.212" y2="12.274" gradientUnits="userSpaceOnUse"><stop stop-color="#785729"/><stop offset=".224" stop-color="#B1803B"/><stop offset=".498" stop-color="#F6E588"/><stop offset=".647" stop-color="#F5E386"/><stop offset=".728" stop-color="#F3DB80"/><stop offset=".792" stop-color="#EECD75"/><stop offset=".847" stop-color="#E8BA66"/><stop offset=".852" stop-color="#E7B864"/><stop offset="1" stop-color="#834E23"/></linearGradient><linearGradient id="paint4_linear_9_441" x1="28.015" y1="12.395" x2="30.009" y2="17.809" gradientUnits="userSpaceOnUse"><stop stop-color="#785729"/><stop offset=".224" stop-color="#B1803B"/><stop offset=".498" stop-color="#F6E588"/><stop offset=".647" stop-color="#F5E386"/><stop offset=".728" stop-color="#F3DB80"/><stop offset=".792" stop-color="#EECD75"/><stop offset=".847" stop-color="#E8BA66"/><stop offset=".852" stop-color="#E7B864"/><stop offset="1" stop-color="#834E23"/></linearGradient><linearGradient id="paint5_linear_9_441" x1="29.911" y1="17.468" x2="31.696" y2="23.77" gradientUnits="userSpaceOnUse"><stop stop-color="#785729"/><stop offset=".224" stop-color="#B1803B"/><stop offset=".498" stop-color="#F6E588"/><stop offset=".647" stop-color="#F5E386"/><stop offset=".728" stop-color="#F3DB80"/><stop offset=".792" stop-color="#EECD75"/><stop offset=".847" stop-color="#E8BA66"/><stop offset=".852" stop-color="#E7B864"/><stop offset="1" stop-color="#834E23"/></linearGradient><linearGradient id="paint6_linear_9_441" x1="30.717" y1="25.988" x2="26.369" y2="29.391" gradientUnits="userSpaceOnUse"><stop stop-color="#785729"/><stop offset=".224" stop-color="#B1803B"/><stop offset=".498" stop-color="#F6E588"/><stop offset=".647" stop-color="#F5E386"/><stop offset=".728" stop-color="#F3DB80"/><stop offset=".792" stop-color="#EECD75"/><stop offset=".847" stop-color="#E8BA66"/><stop offset=".852" stop-color="#E7B864"/><stop offset="1" stop-color="#834E23"/></linearGradient><linearGradient id="paint7_linear_9_441" x1="26.131" y1="29.575" x2="21.816" y2="32.713" gradientUnits="userSpaceOnUse"><stop stop-color="#785729"/><stop offset=".224" stop-color="#B1803B"/><stop offset=".498" stop-color="#F6E588"/><stop offset=".647" stop-color="#F5E386"/><stop offset=".728" stop-color="#F3DB80"/><stop offset=".792" stop-color="#EECD75"/><stop offset=".847" stop-color="#E8BA66"/><stop offset=".852" stop-color="#E7B864"/><stop offset="1" stop-color="#834E23"/></linearGradient><linearGradient id="paint8_linear_9_441" x1="18.806" y1="32.806" x2="13.328" y2="29.217" gradientUnits="userSpaceOnUse"><stop stop-color="#785729"/><stop offset=".224" stop-color="#B1803B"/><stop offset=".498" stop-color="#F6E588"/><stop offset=".647" stop-color="#F5E386"/><stop offset=".728" stop-color="#F3DB80"/><stop offset=".792" stop-color="#EECD75"/><stop offset=".847" stop-color="#E8BA66"/><stop offset=".852" stop-color="#E7B864"/><stop offset="1" stop-color="#834E23"/></linearGradient><linearGradient id="paint9_linear_9_441" x1="13.853" y1="29.562" x2="8.983" y2="26.131" gradientUnits="userSpaceOnUse"><stop stop-color="#785729"/><stop offset=".224" stop-color="#B1803B"/><stop offset=".498" stop-color="#F6E588"/><stop offset=".647" stop-color="#F5E386"/><stop offset=".728" stop-color="#F3DB80"/><stop offset=".792" stop-color="#EECD75"/><stop offset=".847" stop-color="#E8BA66"/><stop offset=".852" stop-color="#E7B864"/><stop offset="1" stop-color="#834E23"/></linearGradient><linearGradient id="paint10_linear_9_441" x1="8.38" y1="23.633" x2="10.341" y2="16.552" gradientUnits="userSpaceOnUse"><stop stop-color="#785729"/><stop offset=".224" stop-color="#B1803B"/><stop offset=".498" stop-color="#F6E588"/><stop offset=".647" stop-color="#F5E386"/><stop offset=".728" stop-color="#F3DB80"/><stop offset=".792" stop-color="#EECD75"/><stop offset=".847" stop-color="#E8BA66"/><stop offset=".852" stop-color="#E7B864"/><stop offset="1" stop-color="#834E23"/></linearGradient><linearGradient id="paint17_linear_9_441" x1="3.179" y1="19.34" x2="36.821" y2="19.34" gradientUnits="userSpaceOnUse"><stop stop-color="#F6E588"/><stop offset=".18" stop-color="#F5E386"/><stop offset=".277" stop-color="#F3DB80"/><stop offset=".354" stop-color="#EECD75"/><stop offset=".421" stop-color="#E8BA66"/><stop offset=".427" stop-color="#E7B864"/><stop offset="1" stop-color="#834E23"/></linearGradient><linearGradient id="paint18_linear_9_441" x1="10.322" y1="12.703" x2="30.383" y2="32.449" gradientUnits="userSpaceOnUse"><stop stop-color="#834E23"/><stop offset=".202" stop-color="#B1803B"/><stop offset=".331" stop-color="#F6E588"/><stop offset=".373" stop-color="#F5E386"/><stop offset=".396" stop-color="#F0DC7E"/><stop offset=".414" stop-color="#E9CF70"/><stop offset=".43" stop-color="#DEBE5D"/><stop offset=".444" stop-color="#D1A744"/><stop offset=".454" stop-color="#C4922D"/><stop offset=".46" stop-color="#CF9E3F"/><stop offset=".469" stop-color="#DAAA50"/><stop offset=".479" stop-color="#E1B25B"/><stop offset=".494" stop-color="#E6B762"/><stop offset=".536" stop-color="#E7B864"/><stop offset=".636" stop-color="#F7E687"/><stop offset=".867" stop-color="#834E23"/></linearGradient><radialGradient id="paint11_radial_9_441" cx="0" cy="0" r="1" gradientUnits="userSpaceOnUse" gradientTransform="matrix(.4675 0 0 6.79492 20.005 10.16)"><stop stop-color="#FBCA7E"/><stop offset=".113" stop-color="#D1A869"/><stop offset=".295" stop-color="#927649"/><stop offset=".47" stop-color="#5E4C2F"/><stop offset=".633" stop-color="#352B1B"/><stop offset=".78" stop-color="#18130C"/><stop offset=".908" stop-color="#060503"/><stop offset="1"/></radialGradient><radialGradient id="paint12_radial_9_441" cx="0" cy="0" r="1" gradientUnits="userSpaceOnUse" gradientTransform="matrix(.18555 .54577 -6.43472 2.18768 28.971 18.119)"><stop stop-color="#FBCA7E"/><stop offset=".113" stop-color="#D1A869"/><stop offset=".295" stop-color="#927649"/><stop offset=".47" stop-color="#5E4C2F"/><stop offset=".633" stop-color="#352B1B"/><stop offset=".78" stop-color="#18130C"/><stop offset=".908" stop-color="#060503"/><stop offset="1"/></radialGradient><radialGradient id="paint13_radial_9_441" cx="0" cy="0" r="1" gradientUnits="userSpaceOnUse" gradientTransform="matrix(-.15023 .44253 -6.43668 -2.18508 10.543 18.049)"><stop stop-color="#FBCA7E"/><stop offset=".113" stop-color="#D1A869"/><stop offset=".295" stop-color="#927649"/><stop offset=".47" stop-color="#5E4C2F"/><stop offset=".633" stop-color="#352B1B"/><stop offset=".78" stop-color="#18130C"/><stop offset=".908" stop-color="#060503"/><stop offset="1"/></radialGradient><radialGradient id="paint14_radial_9_441" cx="0" cy="0" r="1" gradientUnits="userSpaceOnUse" gradientTransform="matrix(-.38477 .26513 -3.85723 -5.59785 25.93 28.528)"><stop stop-color="#FBCA7E"/><stop offset=".113" stop-color="#D1A869"/><stop offset=".295" stop-color="#927649"/><stop offset=".47" stop-color="#5E4C2F"/><stop offset=".633" stop-color="#352B1B"/><stop offset=".78" stop-color="#18130C"/><stop offset=".908" stop-color="#060503"/><stop offset="1"/></radialGradient><radialGradient id="paint15_radial_9_441" cx="0" cy="0" r="1" gradientUnits="userSpaceOnUse" gradientTransform="rotate(145.363 8.236 18.238) scale(.46746 6.79537)"><stop stop-color="#FBCA7E"/><stop offset=".113" stop-color="#D1A869"/><stop offset=".295" stop-color="#927649"/><stop offset=".47" stop-color="#5E4C2F"/><stop offset=".633" stop-color="#352B1B"/><stop offset=".78" stop-color="#18130C"/><stop offset=".908" stop-color="#060503"/><stop offset="1"/></radialGradient><radialGradient id="paint16_radial_9_441" cx="0" cy="0" r="1" gradientUnits="userSpaceOnUse" gradientTransform="matrix(.38462 .2657 -3.86238 5.59108 14.528 28.528)"><stop stop-color="#FBCA7E"/><stop offset=".113" stop-color="#D1A869"/><stop offset=".295" stop-color="#927649"/><stop offset=".47" stop-color="#5E4C2F"/><stop offset=".633" stop-color="#352B1B"/><stop offset=".78" stop-color="#18130C"/><stop offset=".908" stop-color="#060503"/><stop offset="1"/></radialGradient></defs></svg>