<svg xmlns="http://www.w3.org/2000/svg" xmlns:xlink="http://www.w3.org/1999/xlink"><defs>
<clipPath id="clip0_1_920">
<rect width="103" height="28" fill="white"/>
</clipPath>
</defs><symbol id="age" viewBox="0 0 84 84">
<g id="18+">
<path id="Vector" fill-rule="evenodd" clip-rule="evenodd" d="M42 79.8C62.2623 79.8 78.6882 62.8765 78.6882 42C78.6882 21.1236 62.2623 4.2 42 4.2C21.7376 4.2 5.31176 21.1236 5.31176 42C5.31176 62.8765 21.7376 79.8 42 79.8ZM42 84C64.5137 84 82.7647 65.1959 82.7647 42C82.7647 18.804 64.5137 0 42 0C19.4863 0 1.23529 18.804 1.23529 42C1.23529 65.1959 19.4863 84 42 84Z" fill="#F6F6F6"/>
<path id="Vector_2" d="M25.5266 29.7354H20.6719C20.6137 31.2325 18.5648 33.7837 15.5029 33.7837V37.9039C18.134 37.9039 19.8454 36.8978 20.3576 36.0833H20.5788V54.2648H25.5266V29.7354Z" fill="#F6F6F6"/>
<path id="Vector_3" d="M40.0937 54.5999C45.4489 54.5999 49.3258 51.6416 49.349 47.6652C49.3258 44.599 47.044 42.0958 44.1801 41.6046V41.4369C46.6714 40.9099 48.4408 38.6822 48.4643 35.9993C48.4408 32.2025 44.9017 29.3999 40.0937 29.3999C35.2506 29.3999 31.7115 32.2025 31.7347 35.9993C31.7115 38.6822 33.4809 40.9099 36.019 41.4369V41.6046C33.1084 42.0958 30.8268 44.599 30.85 47.6652C30.8268 51.6416 34.6918 54.5999 40.0937 54.5999ZM40.0937 50.7912C37.6836 50.7912 36.0654 49.342 36.0889 47.2578C36.0654 45.138 37.7652 43.6048 40.0937 43.6048C42.3871 43.6048 44.0753 45.138 44.0985 47.2578C44.0753 49.342 42.4687 50.7912 40.0937 50.7912ZM40.0937 39.832C38.0678 39.832 36.6243 38.4786 36.6477 36.5384C36.6243 34.6338 38.0446 33.3044 40.0937 33.3044C42.1077 33.3044 43.5165 34.6338 43.5397 36.5384C43.5165 38.4786 42.0845 39.832 40.0937 39.832Z" fill="#F6F6F6"/>
<path id="Vector_4" d="M68.4971 40.0237H62.7692V34.3345H58.8692V40.0237H53.1414V43.9762H58.8692V49.6655H62.7692V43.9762H68.4971V40.0237Z" fill="#F6F6F6"/>
</g>
</symbol><symbol id="interac" viewBox="0 0 108 36">
<g id="1677053137158_interac1 1">
<path id="Vector" d="M67 26.9515C67 29.1873 65.1873 31 62.9515 31H45.0161C42.798 31 41 29.202 41 26.9844V8.87146C41 6.73324 42.7332 5 44.8715 5H63.1285C65.2668 5 67 6.73324 67 8.87097V26.9515Z" fill="#EBAB1F"/>
<path id="Vector_2" d="M43.4534 15.1192V21.7265L42.2742 21.9913V15.3839L43.4534 15.1192ZM46.5752 15.9713C45.8476 16.1346 45.4009 16.9539 45.4009 16.9539V16.3381L44.2565 16.5876V20.5297C44.3963 20.4763 44.5478 20.4454 44.7062 20.4454C44.9611 20.4454 45.1979 20.5219 45.396 20.6523V18.7278C45.4048 17.806 45.6691 17.2677 46.2212 17.1436C46.7061 17.0348 46.888 17.3961 46.8802 17.9541V20.9641L48.0035 20.7106L48.0113 17.7099C48.0211 16.2405 47.4283 15.7796 46.5752 15.9713ZM48.2756 15.685L48.9194 15.5403V14.6156L50.0579 14.3621V15.2849L50.8683 15.1025L50.8571 16.1017L50.0456 16.2841L50.0397 18.7862C50.0451 19.0916 50.0986 19.2809 50.4413 19.2039C50.5751 19.174 50.682 19.1402 50.8041 19.0936L50.807 20.032C50.5227 20.1669 50.3511 20.2213 50.1172 20.2738C49.4661 20.4243 48.9042 20.0007 48.9042 19.1353L48.9081 16.5396L48.2638 16.6842L48.2756 15.685ZM52.2402 17.5771C52.2407 17.6825 52.2378 17.7688 52.2549 17.8703C52.3402 18.3772 52.5893 18.771 53.1017 18.6562C53.5724 18.5508 53.7288 18.238 53.819 17.8928L55.0119 17.6251C54.8874 18.3895 54.4741 19.353 53.1718 19.6447C52.0039 19.9065 51.2978 19.2323 51.1042 18.0801C50.8919 16.8171 51.2209 14.9353 52.9516 14.547C54.2289 14.2606 54.8266 15.0162 54.9908 15.9934C55.056 16.3807 55.0521 16.6685 55.0296 16.9509L52.2402 17.5771ZM53.8975 16.3351C53.9004 16.2483 53.8881 16.1748 53.8788 16.1194C53.8092 15.7046 53.5807 15.3825 53.0767 15.4957C52.5555 15.6124 52.2986 16.0527 52.251 16.7043L53.8975 16.3351ZM57.8469 14.8828C57.054 15.0706 56.6716 15.6232 56.6672 16.7068L56.6569 18.7661L55.5194 19.0215V14.0576L56.6172 13.8115C56.6314 13.9331 56.6574 14.3008 56.6554 14.7039C56.8403 14.0684 57.0938 13.7419 57.8464 13.5732L57.8469 14.8828ZM61.8875 17.5555L61.8811 17.557L60.7392 17.8149C60.6607 17.6722 60.5818 17.4457 60.5475 17.2863C60.3857 17.629 60.1641 18.0237 59.3609 18.2042C58.5078 18.3959 58.0229 17.8149 57.917 17.254C57.6664 15.9306 58.6162 15.2878 59.588 15.0402C59.9375 14.951 60.2317 14.8985 60.5637 14.8147L60.547 14.5171C60.5396 14.1547 60.4558 13.7134 59.8454 13.8507C59.3016 13.9728 59.2732 14.317 59.2246 14.5676L58.0621 14.8284C58.0768 14.0297 58.4254 13.2589 59.7718 12.9564C60.8255 12.7196 61.7017 13.0324 61.6938 14.3278V16.6823C61.6938 16.6823 61.7218 17.0794 61.7669 17.2706C61.8125 17.4648 61.8875 17.5555 61.8875 17.5555ZM60.546 15.6193C60.2616 15.683 60.0224 15.7561 59.8022 15.8345C59.1874 16.0875 58.98 16.3739 59.0565 16.7779C59.1084 17.0534 59.3075 17.2294 59.6757 17.1466C60.4617 16.9701 60.5303 16.2263 60.5436 15.6967L60.546 15.6193ZM65.9909 14.9873C65.9271 15.9404 65.4824 16.8166 64.2027 17.1039C63.1069 17.3501 62.3959 16.772 62.1802 15.632C61.9194 14.2533 62.3136 12.3729 63.9193 12.0126C65.3245 11.6968 65.8825 12.7122 65.9389 13.332L64.8347 13.5801C64.7568 13.2143 64.5768 12.8618 64.0664 12.9765C63.2633 13.157 63.1961 14.5519 63.3403 15.3148C63.4653 15.9767 63.7639 16.216 64.1733 16.1243C64.5499 16.04 64.7656 15.7517 64.8524 15.2437L65.9909 14.9873ZM47.3107 23.4254L45.7005 22.3296C45.7005 22.3296 45.7 24.9008 45.7 25.0189C45.7 25.1013 45.6328 25.1685 45.551 25.1685C45.4686 25.1685 45.4024 25.1013 45.4024 25.0189C45.4024 24.99 45.399 22.0786 45.399 21.7231C45.399 21.3421 45.0896 21.0318 44.7086 21.0318C44.3262 21.0318 44.0173 21.3421 44.0173 21.7231L44.0183 27.4651C44.0183 28.4957 44.8572 29.3361 45.8883 29.3361H46.0118C47.0287 29.3361 47.8451 28.5119 47.8451 27.4945C47.8451 27.4945 47.8461 24.4948 47.8461 24.4644C47.8461 24.0658 47.6259 23.6672 47.3107 23.4254ZM42.6385 22.5694C42.3537 22.638 42.1776 22.9244 42.2463 23.2092C42.3149 23.4941 42.6013 23.6701 42.8861 23.6015L43.6907 23.4083V22.3164L42.6385 22.5694ZM42.6385 23.9761C42.3537 24.0447 42.1776 24.331 42.2463 24.6159C42.3149 24.9008 42.6013 25.0768 42.8861 25.0082L43.6907 24.815V23.7231L42.6385 23.9761ZM42.2463 26.0231C42.3144 26.308 42.6013 26.484 42.8861 26.4153L43.6907 26.2222V25.1302L42.6385 25.3828C42.3537 25.4514 42.1781 25.7382 42.2463 26.0231Z" fill="black"/>
</g>
</symbol><symbol id="mastercard" viewBox="0 0 103 28">
<g id="paymsystem_footer_mastercard 1" clip-path="url(#clip0_1_920)">
<g id="Clip path group">
<mask id="mask0_1_920" style="mask-type:luminance" maskUnits="userSpaceOnUse" x="0" y="0" width="103" height="28">
<g id="clip0_17554_32319">
<path id="Vector" d="M103 0H0V28H103V0Z" fill="white"/>
</g>
</mask>
<g mask="url(#mask0_1_920)">
<g id="Group">
<path id="Vector_2" d="M45.518 16.8465V13.5037C45.518 12.2425 44.7154 11.3934 43.4238 11.3822C42.6746 11.3337 41.9584 11.6974 41.5542 12.3316C41.1858 11.7161 40.5112 11.3518 39.7958 11.3822C39.1736 11.3521 38.5818 11.6538 38.2396 12.1756V11.507H37.0814V16.8465H38.2507V13.8892C38.2507 12.9622 38.762 12.4719 39.5534 12.4719C40.3449 12.4719 40.7117 12.9734 40.7117 13.8781V16.8465H41.8744V13.8892C41.8744 12.9622 42.4079 12.4719 43.1771 12.4719C43.9462 12.4719 44.3464 12.9734 44.3464 13.8781V16.8465H45.518ZM62.8204 11.5115H60.9285V9.8936H59.7591V11.5115H58.6787V12.5723H59.7591V15.0035C59.7591 16.2425 60.2371 16.9802 61.6065 16.9802C62.118 16.9818 62.6195 16.8389 63.0538 16.5679L62.7203 15.574C62.4096 15.7595 62.0569 15.8631 61.6955 15.8749C61.1175 15.8749 60.9262 15.5182 60.9262 14.9834V12.5723H62.8182L62.8204 11.5115ZM72.6975 11.3778C72.1222 11.3609 71.5839 11.6611 71.2947 12.16V11.5115H70.1477V16.8465H71.306V13.8558C71.306 12.9644 71.6838 12.4831 72.4419 12.4831C72.6899 12.4795 72.9362 12.5249 73.1666 12.6168L73.5223 11.5226C73.2576 11.4277 72.9786 11.3787 72.6975 11.3778ZM57.765 11.9349C57.1093 11.5443 56.3554 11.351 55.5931 11.3778C54.2459 11.3778 53.37 12.0263 53.37 13.0848C53.37 13.9562 54.0147 14.491 55.2062 14.658L55.7508 14.7361C56.3845 14.8252 56.6869 14.9924 56.6869 15.2932C56.6869 15.7055 56.2644 15.9417 55.473 15.9417C54.8345 15.962 54.2078 15.7657 53.6945 15.3845L53.1677 16.2871C53.8422 16.7598 54.6504 17.0028 55.473 16.9802C57.0092 16.9802 57.9006 16.2537 57.9006 15.2397C57.9006 14.3015 57.1981 13.8113 56.0422 13.6441L55.4974 13.5662C54.9973 13.4993 54.5949 13.399 54.5949 13.0424C54.5949 12.6524 54.9728 12.4185 55.6086 12.4185C56.1912 12.4271 56.7619 12.5843 57.267 12.8753L57.765 11.9349ZM88.7817 11.3778C88.2064 11.3609 87.668 11.6611 87.3789 12.16V11.5115H86.2317V16.8465H87.39V13.8558C87.39 12.9644 87.7679 12.4831 88.5259 12.4831C88.7739 12.4795 89.0202 12.5249 89.2507 12.6168L89.6064 11.5226C89.3417 11.4277 89.0628 11.3787 88.7817 11.3778ZM73.8669 14.179C73.8669 15.7968 74.9917 16.9802 76.7057 16.9802C77.4007 17.0146 78.0836 16.7873 78.6199 16.3428L78.064 15.4046C77.6637 15.7103 77.1757 15.8783 76.6725 15.8837C75.7476 15.8837 75.0695 15.2018 75.0695 14.1768C75.0695 13.1516 75.7498 12.4808 76.6725 12.4697C77.1757 12.4752 77.6637 12.6432 78.064 12.9489L78.6199 12.0106C78.0836 11.5662 77.4007 11.3388 76.7057 11.3733C74.9917 11.3733 73.8669 12.5566 73.8669 14.1745V14.179ZM84.7112 14.179V11.5048H83.5529V12.1533C83.1522 11.635 82.5258 11.3434 81.8722 11.3711C80.3806 11.3711 79.2045 12.5432 79.2045 14.1722C79.2045 15.8013 80.3739 16.9735 81.8722 16.9735C82.5258 17.0012 83.1522 16.7096 83.5529 16.1913V16.8375H84.7112V14.179ZM80.4027 14.179C80.4027 13.2408 81.0142 12.4719 82.0168 12.4719C82.9749 12.4719 83.6196 13.2096 83.6196 14.179C83.6196 15.1484 82.9749 15.886 82.0168 15.886C81.0142 15.886 80.4027 15.1149 80.4027 14.179ZM66.4284 11.3778C64.8722 11.3778 63.7785 12.5165 63.7785 14.179C63.7785 15.8749 64.9144 16.9802 66.5063 16.9802C67.301 17.0081 68.0782 16.7415 68.6893 16.2314L68.1224 15.3712C67.6802 15.7258 67.1325 15.9219 66.5662 15.9283C65.8193 15.9283 65.1413 15.5829 64.9745 14.6225H68.9271C68.9382 14.4776 68.9495 14.3328 68.9495 14.1768C68.9495 12.5143 67.9134 11.3755 66.4218 11.3755L66.4284 11.3778ZM66.4062 12.4163C67.1532 12.4163 67.6311 12.8842 67.7534 13.7109H64.9945C65.1168 12.9399 65.5836 12.4163 66.4084 12.4163H66.4062ZM95.4509 14.179V9.36768H94.2927V12.1578C93.892 11.6394 93.2656 11.3479 92.612 11.3755C91.1203 11.3755 89.9443 12.5477 89.9443 14.1768C89.9443 15.8058 91.1137 16.978 92.612 16.978C93.2656 17.0056 93.892 16.7141 94.2927 16.1957V16.842H95.4509V14.179ZM96.8048 16.3539C96.8507 16.3538 96.896 16.3629 96.9382 16.3807C96.9788 16.3981 97.0158 16.4231 97.0471 16.4542C97.0782 16.4848 97.103 16.5212 97.1204 16.5612C97.1566 16.6451 97.1566 16.7403 97.1204 16.8242C97.103 16.8642 97.0781 16.9005 97.0471 16.9312C97.0157 16.9622 96.9787 16.9872 96.9382 17.0047C96.896 17.0226 96.8507 17.0317 96.8048 17.0314C96.6662 17.0331 96.54 16.9515 96.4847 16.8242C96.4488 16.7402 96.4488 16.6452 96.4847 16.5612C96.5194 16.4794 96.5848 16.4146 96.667 16.3807C96.712 16.362 96.7604 16.3529 96.8092 16.3539H96.8048ZM96.8048 16.9557C96.8399 16.9563 96.8748 16.9494 96.9071 16.9356C96.9376 16.9223 96.9656 16.9034 96.9892 16.8798C97.0922 16.7764 97.0922 16.6089 96.9892 16.5055C96.9657 16.4819 96.9377 16.463 96.9071 16.4498C96.8746 16.4362 96.8399 16.4293 96.8048 16.4297C96.769 16.4293 96.7334 16.436 96.7002 16.4498C96.5659 16.5073 96.5035 16.6631 96.5608 16.7978C96.5738 16.8284 96.5926 16.8563 96.6159 16.8798C96.6401 16.9038 96.6688 16.9227 96.7002 16.9356C96.7348 16.95 96.7719 16.9568 96.8092 16.9557H96.8048ZM96.8248 16.5323C96.858 16.53 96.8912 16.5394 96.9182 16.559C96.9403 16.5767 96.9527 16.604 96.9514 16.6325C96.9522 16.6569 96.9426 16.6805 96.9249 16.6971C96.9044 16.7153 96.8786 16.7263 96.8515 16.7283L96.9538 16.8465H96.8737L96.7781 16.7283H96.7469V16.8465H96.6802V16.5345L96.8248 16.5323ZM96.7469 16.5902V16.6749H96.8248C96.8386 16.6789 96.8532 16.6789 96.867 16.6749C96.8772 16.6679 96.8832 16.6561 96.8826 16.6437C96.8832 16.6312 96.8772 16.6194 96.867 16.6124C96.8532 16.6085 96.8386 16.6085 96.8248 16.6124L96.7469 16.5902ZM91.147 14.179C91.147 13.2408 91.7584 12.4719 92.761 12.4719C93.7191 12.4719 94.3638 13.2096 94.3638 14.179C94.3638 15.1484 93.7191 15.886 92.761 15.886C91.7584 15.886 91.147 15.1149 91.147 14.179ZM52.0427 14.179V11.5048H50.8846V12.1533C50.4838 11.6394 49.8606 11.3507 49.2106 11.3778C47.7188 11.3778 46.5429 12.55 46.5429 14.179C46.5429 15.808 47.7122 16.9802 49.2106 16.9802C49.8642 17.0078 50.4905 16.7163 50.8912 16.1979V16.8443H52.0495L52.0427 14.179ZM47.7344 14.179C47.7344 13.2408 48.3457 12.4719 49.3483 12.4719C50.3065 12.4719 50.9512 13.2096 50.9512 14.179C50.9512 15.1484 50.3065 15.886 49.3483 15.886C48.3457 15.886 47.7344 15.1171 47.7344 14.179Z" fill="white"/>
<path id="Vector_3" d="M22.3021 7.83667H15.2993V20.4507H22.3021V7.83667Z" fill="#FF5F00"/>
<path id="Vector_4" d="M15.7441 14.1464C15.7423 11.6853 16.8695 9.36 18.801 7.84047C15.3257 5.10297 10.2945 5.70756 7.56326 9.19085C4.83212 12.6742 5.4353 17.7171 8.91053 20.4546C11.8128 22.7408 15.8986 22.7408 18.801 20.4546C16.8688 18.9346 15.7416 16.6083 15.7441 14.1464Z" fill="#EB001B"/>
<path id="Vector_5" d="M31.7504 14.1468C31.7504 18.5771 28.1672 22.1685 23.7471 22.1684C21.9531 22.1684 20.2113 21.5642 18.801 20.4528C22.2762 17.7153 22.8794 12.6724 20.1482 9.1891C19.7544 8.6868 19.3021 8.23346 18.801 7.8387C22.2757 5.10056 27.307 5.70421 30.0389 9.18699C31.1481 10.6011 31.7509 12.348 31.7504 14.1468Z" fill="#F79E1B"/>
<path id="Vector_6" d="M30.9816 19.1137V18.8552H31.0861V18.804H30.8259V18.8574H30.9304V19.1159L30.9816 19.1137ZM31.4952 19.1137V18.8018H31.4262L31.3328 19.0246L31.2394 18.8018H31.1571V19.1137H31.2038V18.8797L31.2906 19.0825H31.3506L31.4373 18.8797V19.1159L31.4952 19.1137Z" fill="#F79E1B"/>
</g>
</g>
</g>
</g>

</symbol><symbol id="visa" viewBox="0 0 101 32">
<g id="paymsystem_footer_visa 1">
<path id="Vector" d="M78.4136 25.1236C77.0197 25.1236 75.6257 25.1236 74.211 25.1236C74.0572 24.3513 73.8923 23.5958 73.7621 22.834C73.7081 22.5177 73.6112 22.395 73.2735 22.3996C71.5883 22.4222 69.9028 22.4168 68.2174 22.4028C67.9623 22.4006 67.861 22.4886 67.7833 22.7316C67.5511 23.4576 67.2972 24.1762 67.0375 24.8921C67.0022 24.9893 66.8853 25.1226 66.8053 25.1233C65.2863 25.1372 63.767 25.1336 62.2042 25.1336C62.4889 24.4166 62.7586 23.7322 63.0325 23.0496C64.9911 18.1658 66.9506 13.2824 68.9099 8.39892C69.3342 7.34122 69.9704 6.89831 71.0646 6.89824C72.2842 6.89815 73.5037 6.89822 74.7544 6.89822C74.8763 7.49362 74.9991 8.08031 75.1165 8.66818C76.0804 13.4944 77.042 18.3212 78.0081 23.1469C78.1319 23.765 78.2779 24.3782 78.4136 24.9938C78.4136 25.037 78.4136 25.0804 78.4136 25.1236ZM72.9131 18.647C72.4653 16.4029 72.0234 14.1889 71.5816 11.9749C71.5635 11.9712 71.5454 11.9675 71.5274 11.9638C70.7575 14.1834 69.9875 16.4029 69.209 18.647C70.4664 18.647 71.6703 18.647 72.9131 18.647Z" fill="white"/>
<path id="Vector_2" d="M60.1051 6.57349C60.6597 6.68111 61.2185 6.76959 61.7677 6.90198C62.2688 7.02278 62.7595 7.19114 63.2921 7.34969C63.0237 8.66157 62.7615 9.94201 62.5052 11.1948C61.8026 10.9795 61.131 10.7315 60.4406 10.5723C59.4964 10.3545 58.5289 10.2715 57.5843 10.5466C57.2003 10.6584 56.8116 10.8731 56.5093 11.1438C55.9907 11.6081 55.9839 12.2765 56.4791 12.7639C56.8207 13.1 57.2254 13.3759 57.6299 13.6302C58.5495 14.208 59.5148 14.7106 60.4086 15.3279C61.4609 16.0548 62.2286 17.0543 62.3898 18.4058C62.6749 20.7959 61.8291 22.6786 59.9079 24.0104C58.6998 24.848 57.3327 25.2222 55.9082 25.3607C53.9192 25.554 51.9696 25.3212 50.069 24.6688C49.9416 24.6251 49.8176 24.5704 49.6934 24.5172C49.6563 24.5015 49.6241 24.4734 49.5673 24.4363C49.8357 23.1224 50.1046 21.8067 50.381 20.454C50.7049 20.6018 51.009 20.7499 51.3198 20.8808C52.8047 21.506 54.338 21.792 55.9272 21.481C56.3407 21.3999 56.7622 21.2092 57.1128 20.9636C57.8732 20.4308 57.9461 19.4298 57.2537 18.8039C56.7986 18.3926 56.2515 18.0888 55.733 17.7587C54.923 17.2431 54.0626 16.8036 53.2961 16.2266C52.3135 15.4868 51.602 14.5006 51.4671 13.1896C51.2652 11.2268 51.9621 9.63309 53.4038 8.3947C54.6581 7.31721 56.1474 6.83903 57.7341 6.63821C57.8223 6.62705 57.908 6.59553 57.9949 6.57349C58.6983 6.57349 59.4017 6.57349 60.1051 6.57349Z" fill="white"/>
<path id="Vector_3" d="M43.762 6.91301C43.5258 7.50671 43.3024 8.07279 43.0758 8.63754C40.9129 14.0299 38.7473 19.421 36.5931 24.8172C36.4905 25.0743 36.3649 25.1418 36.1155 25.1396C34.7503 25.1278 33.3848 25.1231 32.02 25.1428C31.7305 25.147 31.6363 25.041 31.5696 24.7696C30.4122 20.0563 29.2356 15.3482 28.0914 10.6314C27.8815 9.76601 27.4613 9.17499 26.6732 8.81229C25.4097 8.23089 24.0984 7.82246 22.7606 7.49049C22.7015 7.47581 22.6426 7.45974 22.5869 7.44523C22.5936 6.89819 22.5936 6.89817 23.0915 6.89815C25.4806 6.89815 27.8697 6.89759 30.2588 6.89841C31.3919 6.89879 32.2099 7.58671 32.4242 8.75887C33.0307 12.0772 33.6243 15.398 34.2234 18.7179C34.2495 18.8631 34.2794 19.0075 34.3191 19.2119C34.3811 19.0903 34.4243 19.0219 34.4526 18.9474C35.9364 15.025 37.4207 11.1029 38.897 7.1775C38.9776 6.96321 39.0769 6.89053 39.2984 6.89237C40.6842 6.90383 42.0702 6.89791 43.456 6.89871C43.5456 6.89877 43.6352 6.90686 43.762 6.91301Z" fill="white"/>
<path id="Vector_4" d="M41.9528 25.1339C43.2008 19.0381 44.4402 12.9852 45.6825 6.91748C47.1939 6.91748 48.6873 6.91748 50.2094 6.91748C50.0209 7.84164 49.8367 8.74813 49.6513 9.65436C48.6258 14.6663 47.5963 19.6772 46.582 24.6916C46.5115 25.04 46.3934 25.1507 46.0474 25.1436C44.8068 25.1187 43.5655 25.1339 42.3245 25.1339C42.2133 25.1339 42.102 25.1339 41.9528 25.1339Z" fill="white"/>
</g>
</symbol></svg>