<svg width="97" height="44" fill="none" xmlns="http://www.w3.org/2000/svg"><g fill="#D0D2D7" clip-path="url(#clip0_26_73)"><path fill-rule="evenodd" clip-rule="evenodd" d="M10.404 20.988c0-1.86 1.523-3.367 3.404-3.367h.26c0-1.704.21-3.912 1.29-5.749 1.193-2.02 3.285-3.328 6.343-3.328 3.047 0 5.174 1.293 6.427 3.275 1.157 1.83 1.44 4.038 1.44 5.802h.26c1.881 0 3.405 1.508 3.405 3.367v10.204c0 1.86-1.523 3.367-3.404 3.367h-16.02c-1.88 0-3.405-1.507-3.405-3.367V20.988zm15.079-3.367h-7.33c0-1.502.209-2.824.735-3.713.415-.708 1.119-1.324 2.813-1.324 1.706 0 2.492.631 2.964 1.377.566.896.818 2.216.818 3.66zm1.837 5.404l-1.003-.97a.696.696 0 00-.5-.198.693.693 0 00-.502.198l-4.83 4.684-2.165-2.103a.694.694 0 00-.5-.199.69.69 0 00-.503.2l-1 .97a.653.653 0 00-.206.483c0 .191.069.352.206.486l3.667 3.55a.688.688 0 00.5.2.69.69 0 00.502-.2l6.334-6.13a.651.651 0 00.205-.487.653.653 0 00-.205-.484z"/><path fill-rule="evenodd" clip-rule="evenodd" d="M0 7.69C0 3.971 3.047.957 6.807.957h30.631c3.76 0 6.81 3.014 6.81 6.733v28.62c0 3.718-3.05 6.733-6.81 6.733H6.81C3.047 43.044 0 40.03 0 36.31V7.69zm6.807-2.356h30.631c1.316 0 2.383 1.056 2.383 2.356v28.62c0 1.3-1.067 2.356-2.383 2.356H6.81a2.351 2.351 0 01-1.677-.681 2.376 2.376 0 01-.706-1.675V7.69c0-1.3 1.065-2.356 2.381-2.356z"/><path d="M56.207 24.104c1.063.444 2.34.666 3.823.666 1.379 0 2.598-.206 3.663-.618 1.08-.426 1.917-1.027 2.51-1.802.611-.79.915-1.716.915-2.774 0-.966-.203-1.766-.608-2.397-.407-.65-1.05-1.17-1.925-1.567-.862-.411-2.018-.75-3.475-1.02-.89-.189-1.579-.37-2.064-.545-.47-.19-.814-.396-1.032-.616a1.18 1.18 0 01-.305-.83c0-.491.187-.86.561-1.115.377-.253.917-.379 1.62-.379.61 0 1.12.126 1.526.379.423.252.681.56.774.924a.961.961 0 00.305.31c.125.063.283.095.47.095h3.1a.48.48 0 00.494-.497c-.034-.698-.316-1.402-.848-2.114-.516-.727-1.275-1.327-2.277-1.802-1-.474-2.181-.712-3.543-.712-1.314 0-2.465.215-3.45.641-.986.427-1.744 1.02-2.277 1.78-.532.759-.799 1.62-.799 2.584 0 1.423.462 2.523 1.385 3.298.94.76 2.347 1.335 4.226 1.731 1.016.222 1.782.42 2.3.593.515.173.891.372 1.125.593a1.085 1.085 0 01.377.854c0 .491-.236.878-.704 1.163-.47.285-1.15.426-2.042.426-.752 0-1.355-.134-1.807-.401a2.454 2.454 0 01-.986-1.022 1.291 1.291 0 00-.376-.308.746.746 0 00-.445-.119H53.46a.511.511 0 00-.376.167.457.457 0 00-.141.33c.032.856.314 1.646.846 2.373.546.712 1.355 1.29 2.418 1.731zm15.562 0c1.065.444 2.339.666 3.824.666 1.377 0 2.599-.206 3.662-.618 1.08-.426 1.917-1.027 2.51-1.802.61-.79.917-1.716.917-2.774 0-.966-.204-1.766-.61-2.397-.407-.65-1.049-1.17-1.925-1.567-.86-.411-2.018-.75-3.473-1.02-.894-.189-1.58-.37-2.066-.545-.47-.19-.814-.396-1.032-.616a1.18 1.18 0 01-.305-.83c0-.491.186-.86.563-1.115.375-.253.913-.379 1.619-.379.608 0 1.118.126 1.525.379.422.252.681.56.774.924a.961.961 0 00.305.31c.127.063.283.095.471.095h3.097a.48.48 0 00.494-.497c-.032-.698-.314-1.402-.846-2.114-.516-.727-1.275-1.327-2.277-1.802-1-.474-2.181-.712-3.543-.712-1.313 0-2.465.215-3.45.641-.986.427-1.745 1.02-2.277 1.78-.533.759-.799 1.62-.799 2.584 0 1.423.462 2.523 1.387 3.298.937.76 2.347 1.335 4.222 1.731 1.02.222 1.786.42 2.301.593.518.173.894.372 1.128.593a1.086 1.086 0 01.375.854c0 .491-.234.878-.704 1.163-.47.285-1.15.426-2.043.426-.75 0-1.352-.134-1.806-.401a2.453 2.453 0 01-.986-1.022 1.288 1.288 0 00-.376-.308.746.746 0 00-.445-.119h-2.958a.513.513 0 00-.375.167.456.456 0 00-.14.33c.03.856.312 1.646.844 2.373.548.712 1.354 1.29 2.418 1.731zm13.848.427a.622.622 0 01-.422-.165.633.633 0 01-.164-.426V8.52a.59.59 0 01.163-.426.622.622 0 01.423-.166h3.1a.568.568 0 01.586.593V20.95h7.11c.172 0 .313.063.423.191a.58.58 0 01.164.427v2.372a.63.63 0 01-.164.426.57.57 0 01-.424.165H85.617zM55.923 37.993c-.65 0-1.213-.103-1.69-.308a2.639 2.639 0 01-1.079-.807 1.945 1.945 0 01-.4-1.09.23.23 0 01.071-.167.255.255 0 01.188-.082h.598c.148 0 .25.078.304.237.084.35.298.656.599.853.337.237.806.356 1.407.356.65 0 1.142-.115 1.469-.344a1.143 1.143 0 00.494-.984.889.889 0 00-.247-.652 1.975 1.975 0 00-.704-.44 17.952 17.952 0 00-1.409-.475 7.171 7.171 0 01-1.455-.556 2.115 2.115 0 01-.81-.735 2.073 2.073 0 01-.27-1.104c0-.426.114-.81.342-1.15.234-.34.565-.606.997-.795.43-.197.941-.297 1.536-.297.609 0 1.134.111 1.573.333.438.212.77.486.997.819.212.29.338.635.363.995a.23.23 0 01-.07.166c-.038.048-.097.07-.175.07h-.622c-.166 0-.266-.074-.304-.223a1.163 1.163 0 00-.552-.819 2.08 2.08 0 00-1.21-.333c-.532 0-.95.104-1.255.308a1.025 1.025 0 00-.456.915c0 .268.068.49.209.664.148.172.37.329.67.463.425.17.86.317 1.302.44.666.18 1.189.369 1.571.568.384.19.67.43.856.723.19.285.283.648.283 1.09 0 .737-.281 1.313-.844 1.732-.565.42-1.324.629-2.277.629zm4.928-.119a.293.293 0 01-.197-.07.301.301 0 01-.07-.203v-7.744c0-.086.022-.153.07-.201a.273.273 0 01.197-.084H65.7c.076 0 .141.029.187.084.057.046.084.115.084.2v.452a.301.301 0 01-.073.201c-.045.048-.114.071-.198.071h-3.99v2.598h3.732c.078 0 .14.027.188.082a.259.259 0 01.082.203v.44a.279.279 0 01-.082.199.253.253 0 01-.19.073h-3.73v2.691h4.084a.27.27 0 01.2.071c.045.048.07.115.07.203v.46a.276.276 0 01-.082.204.252.252 0 01-.188.07H60.85zm7.33-.734c.548.568 1.347.853 2.395.853.696 0 1.286-.122 1.77-.367.45-.222.832-.562 1.104-.985.251-.402.388-.838.41-1.305a.17.17 0 00-.07-.167.237.237 0 00-.175-.07h-.646a.282.282 0 00-.187.059c-.047.038-.081.11-.106.214-.126.593-.363 1.012-.715 1.257-.345.237-.807.356-1.385.356-1.346 0-2.043-.756-2.088-2.265-.01-.23-.014-.566-.014-1.008 0-.444.004-.771.014-.986.045-1.51.742-2.265 2.088-2.265.578 0 1.04.123 1.385.368.342.237.582.652.715 1.245.038.182.137.274.293.274h.646c.06 0 .118-.02.164-.06a.214.214 0 00.082-.166v-.023a2.676 2.676 0 00-.411-1.293 2.683 2.683 0 00-1.103-.972c-.485-.255-1.075-.38-1.77-.38-1.041 0-1.836.288-2.384.866-.548.568-.84 1.352-.879 2.347-.01.222-.013.578-.013 1.068 0 .482.006.83.013 1.044.038 1.004.327 1.79.868 2.36zm10.351.853c-1.008 0-1.792-.274-2.347-.819-.548-.554-.822-1.387-.822-2.502v-4.815a.28.28 0 01.07-.201.272.272 0 01.2-.084h.6a.246.246 0 01.2.084.251.251 0 01.081.2v4.84c0 .758.175 1.329.529 1.707.352.381.848.57 1.489.57.64 0 1.14-.19 1.491-.57.352-.378.527-.949.527-1.706v-4.84a.28.28 0 01.07-.201.271.271 0 01.2-.084h.61a.24.24 0 01.189.084.276.276 0 01.082.2v4.816c0 1.115-.278 1.95-.833 2.502-.548.545-1.326.819-2.336.819z"/><path fill-rule="evenodd" clip-rule="evenodd" d="M83.732 37.802a.293.293 0 00.2.072h.599a.294.294 0 00.2-.07.276.276 0 00.081-.203V34.54h2.054l1.7 3.015a.84.84 0 00.178.237.443.443 0 00.281.082h.563a.223.223 0 00.166-.07.214.214 0 00.081-.167.295.295 0 00-.036-.13l-1.807-3.156c.533-.15.944-.417 1.233-.804.297-.388.445-.884.445-1.484 0-.806-.253-1.424-.76-1.85-.51-.427-1.214-.641-2.114-.641h-2.864a.272.272 0 00-.2.084.277.277 0 00-.07.2v7.745a.3.3 0 00.07.2zm4.764-5.75c0 .988-.582 1.482-1.748 1.482h-1.936v-2.965h1.936c1.166 0 1.748.493 1.748 1.482z"/><path d="M91.621 37.874a.293.293 0 01-.2-.07.301.301 0 01-.07-.203v-7.744a.28.28 0 01.07-.201.272.272 0 01.2-.084h4.847c.078 0 .14.029.19.084.053.046.08.115.08.2v.452a.301.301 0 01-.07.201c-.047.048-.115.071-.2.071h-3.989v2.598h3.732c.076 0 .14.027.186.082.057.048.084.115.084.203v.44a.276.276 0 01-.17.255.253.253 0 01-.1.017h-3.732v2.691h4.084a.27.27 0 01.2.071c.045.048.07.115.07.203v.46a.277.277 0 01-.084.204.254.254 0 01-.186.07H91.62z"/></g><defs><clipPath id="clip0_26_73"><path fill="#fff" d="M0 0h97v44H0z"/></clipPath></defs></svg>