<svg width="144" height="43" fill="none" xmlns="http://www.w3.org/2000/svg"><g fill="#D0D2D7"><path d="M51.034 9.185c-.517 0-.982-.115-1.398-.346a2.789 2.789 0 01-.986-.956 2.61 2.61 0 01-.36-1.356c0-.497.12-.94.36-1.333.24-.399.569-.713.986-.946a2.748 2.748 0 011.386-.356c.523 0 .99.12 1.398.358.418.23.745.545.985.946.24.39.36.834.36 1.331 0 .5-.12.95-.36 1.356a2.67 2.67 0 01-.986.956 2.773 2.773 0 01-1.386.346h.001zm-.012-1.282c.24.006.478-.051.69-.166.197-.113.359-.281.464-.484.116-.22.175-.465.171-.714a1.421 1.421 0 00-.171-.705 1.206 1.206 0 00-.465-.471 1.31 1.31 0 00-.689-.179 1.29 1.29 0 00-1.143.652 1.423 1.423 0 00-.171.703c-.004.249.055.495.17.714.11.2.27.365.465.482.208.115.442.173.68.168z"/><path fill-rule="evenodd" clip-rule="evenodd" d="M59.657 9.082h-1.376v-.465a1.932 1.932 0 01-.467.336c-.296.155-.627.23-.994.23-.475 0-.898-.115-1.272-.346a2.502 2.502 0 01-.89-.946 2.821 2.821 0 01-.317-1.343c0-.504.105-.956.317-1.355.22-.4.513-.714.88-.946.373-.23.8-.344 1.282-.344.367 0 .694.072.984.218.177.088.333.198.466.327V3.38c0-.76.62-1.376 1.389-1.376l-.002 7.078zM57.73 7.747a1.315 1.315 0 01-.679.169 1.33 1.33 0 01-.666-.169 1.281 1.281 0 01-.467-.482 1.587 1.587 0 01-.157-.725 1.5 1.5 0 01.157-.706c.108-.197.266-.363.456-.481.21-.122.448-.184.69-.18.253 0 .476.061.666.18.197.11.355.279.455.481.117.217.176.46.171.706 0 .273-.058.514-.171.724-.104.2-.261.367-.455.481v.002zm4.036 1.092c.373.23.793.346 1.258.346.369 0 .696-.072.986-.22.192-.103.36-.227.497-.377v.492h1.378V4.008h-1.378v.488a1.755 1.755 0 00-.497-.373 2.144 2.144 0 00-.986-.22c-.465 0-.886.115-1.26.347a2.42 2.42 0 00-.88.946 2.844 2.844 0 00-.317 1.354c0 .497.107.946.318 1.343.212.4.507.716.88.946zm2.456-1.302a1.245 1.245 0 01-.943.379 1.35 1.35 0 01-.678-.169 1.308 1.308 0 01-.455-.483 1.586 1.586 0 01-.16-.724 1.5 1.5 0 01.16-.706c.104-.2.261-.366.455-.481.205-.122.44-.183.678-.18a1.252 1.252 0 011.132.663c.117.216.176.458.171.704 0 .405-.12.74-.36.997z"/><path d="M46.123 7.706c0 .758.62 1.376 1.388 1.376V5.865a1.88 1.88 0 00-.255-.956 1.975 1.975 0 00-.7-.724c-.3-.19-.65-.29-1.006-.284a2.16 2.16 0 00-1.047.253c-.163.09-.309.2-.436.327v-.473h-1.386v3.698c0 .758.62 1.376 1.388 1.376V6.17c0-.203.041-.382.125-.535a.952.952 0 01.372-.358c.163-.086.346-.129.53-.125.303 0 .55.094.74.283.19.19.287.434.287.735v1.536z"/><path fill-rule="evenodd" clip-rule="evenodd" d="M12.955 3.884H9.902c-.592 0-1.368-.002-2.047.091-.842.117-2.086.439-3.15 1.53-1.062 1.091-1.378 2.37-1.49 3.234-.092.699-.092 1.497-.09 2.1v3.174h3.883v-3.04c0-1.461 0-2.194.442-2.648.444-.454 1.156-.454 2.58-.454h2.925V3.884zm20.875 10.13v-3.04c0-1.462 0-2.195-.443-2.65-.442-.453-1.155-.453-2.58-.453h-2.965V3.884h3.096c.59 0 1.366-.002 2.045.091.843.117 2.088.439 3.15 1.53 1.064 1.091 1.377 2.37 1.49 3.234.091.699.091 1.497.091 2.1v3.174l-3.884.002zm-5.987 21.01h2.966c1.423 0 2.136 0 2.578-.454.443-.456.443-1.187.443-2.648v-3.057h3.884v3.189c0 .607.002 1.404-.089 2.1-.113.865-.427 2.143-1.491 3.235-1.063 1.093-2.308 1.414-3.15 1.531-.677.093-1.451.093-2.04.091H27.84v-3.987h.003zM7.008 28.867v3.055c0 1.461 0 2.192.442 2.648.444.454 1.156.454 2.58.454h2.925v3.987H9.897c-.59 0-1.365.002-2.04-.09-.844-.118-2.088-.44-3.151-1.532-1.063-1.092-1.379-2.37-1.492-3.233-.09-.698-.09-1.497-.089-2.102v-3.189h3.883v.002z"/><path d="M30.26 15.73c0 2.4-1.92 4.35-4.285 4.35-2.364 0-4.282-1.95-4.282-4.352s1.918-4.35 4.284-4.35c2.365 0 4.284 1.948 4.284 4.351zm-4.283 7.394c-2.366 0-4.284 1.947-4.284 4.351v3.915h8.568v-3.917c0-2.402-1.919-4.35-4.284-4.35z"/><path opacity=".4" d="M10.577 27.384c0-2.282 1.824-4.133 4.072-4.133h4.068v8.266h-4.068c-2.248 0-4.072-1.85-4.072-4.133zm0-15.879h4.714c1.891 0 3.426 1.558 3.426 3.48v4.786h-8.138l-.002-8.266z"/><path d="M136.742 30.272c1.003 0 1.755.277 2.256.832.502.556.754 1.354.754 2.4v5.581h-3.257v-5.19c0-.37-.098-.665-.293-.882-.185-.228-.453-.344-.803-.344a1.3 1.3 0 00-.98.394 1.333 1.333 0 00-.377.963v5.057h-3.256v-8.617h2.666l.214 1.307c.338-.457.78-.822 1.324-1.094a3.937 3.937 0 011.752-.407zm-12.074 0c1.515 0 2.705.385 3.566 1.159.874.76 1.309 1.875 1.309 3.345 0 1.47-.435 2.589-1.308 3.361-.862.762-2.052 1.144-3.567 1.144-1.515 0-2.705-.382-3.566-1.144-.862-.76-1.292-1.881-1.292-3.36 0-1.48.43-2.601 1.292-3.363.861-.762 2.051-1.142 3.566-1.142zm0 2.201c-1.068 0-1.603.616-1.603 1.846v.929c0 1.22.535 1.83 1.603 1.83 1.08 0 1.62-.61 1.62-1.829v-.93c0-1.23-.54-1.844-1.62-1.844v-.002zm-9.471-3.017v-2.203h3.255v2.202h-3.257l.002.002zm0 9.629v-8.617h3.255v8.617h-3.255zm-1.3-8.617v2.201h-1.831v3.282c0 .392.065.68.196.865.13.174.37.262.72.262h.915v1.909c-.26.086-.6.157-1.013.212a8.42 8.42 0 01-1.08.082c-.96 0-1.701-.175-2.225-.523-.513-.349-.77-.94-.77-1.778v-4.31h-1.208v-2.203h1.34l.703-2.611h2.422v2.61h1.831zm-11.799-.196c1.32 0 2.393.223 3.223.669.828.435 1.242 1.147 1.242 2.138v3.36a.75.75 0 00.131.458c.087.12.217.18.394.18h.588v1.876c-.034.022-.12.061-.262.115a4.559 4.559 0 01-.573.13 4.115 4.115 0 01-.867.081c-.631 0-1.156-.09-1.571-.275-.402-.198-.68-.464-.834-.801a5.281 5.281 0 01-1.389.784c-.514.196-1.114.292-1.8.292-2.03 0-3.043-.805-3.043-2.415 0-.837.223-1.473.669-1.909.46-.447 1.114-.75 1.964-.913.851-.163 1.963-.246 3.338-.246v-.423a.884.884 0 00-.36-.767c-.23-.174-.53-.262-.9-.262-.338 0-.634.06-.883.18-.24.12-.36.309-.36.57v.066h-3.206a1.251 1.251 0 01-.017-.23c0-.814.388-1.461 1.16-1.941.788-.478 1.904-.717 3.356-.717zm1.21 5.058c-.926 0-1.615.104-2.062.31-.436.196-.655.464-.655.8 0 .545.372.817 1.114.817.425 0 .796-.116 1.113-.344.325-.227.49-.511.49-.848v-.735zm-11.599-5.058c1.418 0 2.563.304 3.435.913.883.599 1.326 1.519 1.326 2.759h-3.158c0-.98-.533-1.469-1.603-1.469-1.068 0-1.603.614-1.603 1.844v.929c0 1.22.556 1.83 1.668 1.83 1.113 0 1.668-.5 1.668-1.502h3.028c0 1.25-.443 2.181-1.326 2.79-.872.609-2.017.913-3.435.913-1.517 0-2.705-.378-3.566-1.142-.862-.76-1.292-1.881-1.292-3.36 0-1.48.43-2.601 1.292-3.363.861-.762 2.049-1.142 3.566-1.142zm-11.631-3.217c.217 0 .485.035.8.1.317.053.573.12.77.196v1.91h-.59c-.348 0-.583.065-.703.195-.12.131-.18.353-.18.67v.342h1.473v2.201h-1.473v6.416H76.92v-6.416h-1.113v-2.201h1.115v-.36c0-1.109.27-1.892.816-2.35.545-.467 1.325-.703 2.34-.703zm2.257 2.401v-2.203h3.256v2.202h-3.257l.001.002zm0 9.629v-8.617h3.256v8.617h-3.256zm-10.683-9.629v-2.203h3.257v2.202l-3.257.002zm0 9.629v-8.617h3.257v8.617h-3.257zm-1.805-8.83c.252 0 .475.034.672.1.195.053.293.085.293.096v2.726h-1.046c-.677 0-1.167.174-1.474.523-.291.347-.44.865-.44 1.55v3.835h-3.256v-8.617h2.667l.213 1.305c.172-.472.502-.87.933-1.126.425-.262.905-.39 1.44-.39l-.002-.002zm-11.37.017c1.581 0 2.786.37 3.616 1.11.84.739 1.26 1.87 1.26 3.394v.554h-6.48c0 .62.137 1.089.412 1.404.282.316.725.474 1.323.474.547 0 .943-.115 1.195-.343a1.15 1.15 0 00.392-.914h3.158c0 1.044-.4 1.86-1.195 2.448-.795.588-1.958.88-3.483.88-1.605 0-2.846-.37-3.73-1.109-.885-.75-1.326-1.882-1.326-3.394 0-1.479.43-2.6 1.293-3.362.86-.762 2.05-1.142 3.566-1.142zm.131 2.072c-1.025 0-1.598.484-1.718 1.452h3.175c0-.445-.132-.8-.394-1.06-.25-.26-.604-.392-1.063-.392zm-12.881 6.741l-3.993-11.228h3.86l2.258 7.506h.066l2.275-7.506h3.697l-3.977 11.228h-4.186zm59.438-15.353c-.448 1.208-.998 2.121-1.653 2.742-.643.631-1.548.946-2.715.946-.71 0-1.338-.098-1.881-.292v-1.944h1.308c.818 0 1.303-.396 1.455-1.192l-3.435-8.617h3.501l1.652 5.73h.115l1.522-5.728h3.206l-3.075 8.355zm-7.125-8.355v2.201h-1.83v3.282c0 .39.066.68.196.865.13.172.37.261.72.261h.916v1.91c-.263.086-.6.156-1.015.211a8.49 8.49 0 01-1.08.081c-.959 0-1.7-.172-2.224-.521-.512-.35-.77-.94-.77-1.779v-4.31h-1.21v-2.201h1.343l.703-2.611h2.42v2.61h1.831zm-10.762-1.014v-2.201h3.255v2.201h-3.255zm0 9.629v-8.615h3.255v8.617h-3.257l.002-.002zm-1.298-8.615v2.201h-1.833v3.282c0 .39.066.68.196.865.132.172.372.261.72.261h.917v1.91c-.262.086-.6.156-1.015.211a8.49 8.49 0 01-1.08.081c-.96 0-1.7-.172-2.223-.521-.515-.35-.77-.94-.77-1.779v-4.31h-1.21v-2.201h1.34l.703-2.611h2.422v2.61h1.833zm-10.389-.197c1.003 0 1.756.277 2.258.833.502.554.753 1.354.753 2.398v5.581h-3.256v-5.19c0-.369-.097-.663-.295-.88-.185-.229-.452-.344-.8-.344a1.297 1.297 0 00-.983.392 1.336 1.336 0 00-.377.963v5.06h-3.253v-8.616h2.665l.213 1.305c.338-.457.78-.822 1.325-1.094a3.935 3.935 0 011.75-.407zm-12.072 0c1.581 0 2.786.37 3.616 1.11.84.74 1.26 1.871 1.26 3.393v.556h-6.48c0 .62.137 1.089.411 1.403.283.317.724.474 1.324.474.545 0 .943-.114 1.194-.343a1.15 1.15 0 00.393-.913h3.158c0 1.044-.4 1.86-1.195 2.448-.796.586-1.958.88-3.485.88-1.603 0-2.846-.37-3.729-1.11-.884-.75-1.325-1.881-1.325-3.393 0-1.479.43-2.6 1.293-3.362.86-.762 2.05-1.143 3.565-1.143zm.13 2.073c-1.025 0-1.597.483-1.717 1.452h3.175c0-.447-.132-.8-.394-1.061-.25-.26-.604-.39-1.063-.39zm-8.898 6.74l-.278-1.224c-.634.946-1.55 1.42-2.75 1.42-1.165 0-2.065-.381-2.698-1.143-.634-.762-.95-1.887-.95-3.378 0-1.48.317-2.595.95-3.345.633-.762 1.533-1.143 2.7-1.143.991 0 1.8.332 2.42.996V12.16h3.256v11.834h-2.65zm-2.013-6.415c-.938 0-1.405.56-1.405 1.682v.865c0 1.11.468 1.664 1.405 1.664.48 0 .84-.169 1.08-.506.24-.337.36-.777.36-1.32v-.54c0-.544-.12-.985-.36-1.322-.24-.347-.6-.523-1.08-.523zm-9.908 6.416V12.766h3.617v11.228H42.83z"/></g></svg>