<svg width="32" height="28" viewBox="0 0 32 28" fill="none" xmlns="http://www.w3.org/2000/svg">
<g id="Group 3">
<g id="Vector">
<mask id="path-1-inside-1_13_203" fill="white">
<path d="M26.0625 15L24.3833 16.5319L27.4486 19.3333H17.75C16.4902 19.3333 15.282 19.7899 14.3912 20.6025C13.5004 21.4152 13 22.5174 13 23.6667C13 24.8159 13.5004 25.9181 14.3912 26.7308C15.282 27.5435 16.4902 28 17.75 28H20.125V25.8333H17.75C17.1201 25.8333 16.516 25.6051 16.0706 25.1987C15.6252 24.7924 15.375 24.2413 15.375 23.6667C15.375 23.092 15.6252 22.5409 16.0706 22.1346C16.516 21.7283 17.1201 21.5 17.75 21.5H27.4486L24.3816 24.303L26.0625 25.8333L32 20.4167L26.0625 15Z"/>
</mask>
<path d="M26.0625 15L24.3833 16.5319L27.4486 19.3333H17.75C16.4902 19.3333 15.282 19.7899 14.3912 20.6025C13.5004 21.4152 13 22.5174 13 23.6667C13 24.8159 13.5004 25.9181 14.3912 26.7308C15.282 27.5435 16.4902 28 17.75 28H20.125V25.8333H17.75C17.1201 25.8333 16.516 25.6051 16.0706 25.1987C15.6252 24.7924 15.375 24.2413 15.375 23.6667C15.375 23.092 15.6252 22.5409 16.0706 22.1346C16.516 21.7283 17.1201 21.5 17.75 21.5H27.4486L24.3816 24.303L26.0625 25.8333L32 20.4167L26.0625 15Z" fill="#FD002D"/>
<path d="M26.0625 15L42.9116 -3.46915L26.0625 -18.8402L9.21345 -3.46915L26.0625 15ZM24.3833 16.5319L7.53421 -1.93721L-12.6928 16.5155L7.51784 34.9862L24.3833 16.5319ZM27.4486 19.3333V44.3333H91.8618L44.314 0.879124L27.4486 19.3333ZM13 23.6667H-12H13ZM20.125 28V53H45.125V28H20.125ZM20.125 25.8333H45.125V0.833334H20.125V25.8333ZM15.375 23.6667H40.375H15.375ZM27.4486 21.5L44.3143 39.9539L91.8599 -3.5H27.4486V21.5ZM24.3816 24.303L7.51583 5.84913L-12.7148 24.3388L7.55142 42.7894L24.3816 24.303ZM26.0625 25.8333L9.23232 44.3197L26.0798 59.6578L42.9116 44.3025L26.0625 25.8333ZM32 20.4167L48.849 38.8858L69.0941 20.4167L48.849 1.94752L32 20.4167ZM9.21345 -3.46915L7.53421 -1.93721L41.2323 35.0011L42.9116 33.4692L9.21345 -3.46915ZM7.51784 34.9862L10.5831 37.7875L44.314 0.879124L41.2487 -1.92227L7.51784 34.9862ZM27.4486 -5.66667H17.75V44.3333H27.4486V-5.66667ZM17.75 -5.66667C10.5627 -5.66667 3.26028 -3.08311 -2.45781 2.13339L31.2403 39.0717C27.3038 42.6629 22.4177 44.3333 17.75 44.3333V-5.66667ZM-2.45781 2.13339C-8.25248 7.41976 -12 15.1077 -12 23.6667H38C38 29.9271 35.2534 35.4106 31.2403 39.0717L-2.45781 2.13339ZM-12 23.6667C-12 32.2256 -8.25248 39.9136 -2.45781 45.1999L31.2403 8.26165C35.2534 11.9227 38 17.4062 38 23.6667H-12ZM-2.45781 45.1999C3.26028 50.4164 10.5627 53 17.75 53V3C22.4177 3 27.3038 4.67046 31.2403 8.26165L-2.45781 45.1999ZM17.75 53H20.125V3H17.75V53ZM45.125 28V25.8333H-4.875V28H45.125ZM20.125 0.833334H17.75V50.8333H20.125V0.833334ZM17.75 0.833334C23.0476 0.833334 28.5378 2.73207 32.9197 6.72958L-0.778428 43.6679C4.49426 48.4781 11.1926 50.8333 17.75 50.8333V0.833334ZM32.9197 6.72958C37.3781 10.797 40.375 16.8316 40.375 23.6667H-9.625C-9.625 31.651 -6.12769 38.7879 -0.778428 43.6679L32.9197 6.72958ZM40.375 23.6667C40.375 30.5017 37.3781 36.5364 32.9197 40.6038L-0.778428 3.66545C-6.12769 8.54548 -9.625 15.6823 -9.625 23.6667H40.375ZM32.9197 40.6038C28.5378 44.6013 23.0476 46.5 17.75 46.5V-3.5C11.1926 -3.5 4.49426 -1.14472 -0.778428 3.66545L32.9197 40.6038ZM17.75 46.5H27.4486V-3.5H17.75V46.5ZM10.5828 3.04611L7.51583 5.84913L41.2474 42.7569L44.3143 39.9539L10.5828 3.04611ZM7.55142 42.7894L9.23232 44.3197L42.8927 7.34698L41.2118 5.81667L7.55142 42.7894ZM42.9116 44.3025L48.849 38.8858L15.1509 1.94752L9.21345 7.36418L42.9116 44.3025ZM48.849 1.94752L42.9116 -3.46915L9.21345 33.4692L15.1509 38.8858L48.849 1.94752Z" fill="#FD002D" mask="url(#path-1-inside-1_13_203)"/>
</g>
<g id="Vector_2">
<mask id="path-3-inside-2_13_203" fill="white">
<path d="M9.14286 20.7H2.28571L2.28183 3.34236L15.3494 12.4456C15.5406 12.5787 15.7675 12.65 16 12.65C16.2325 12.65 16.4594 12.5787 16.6506 12.4456L29.7143 3.34489V13.8H32V2.3C31.9992 1.69024 31.7582 1.10566 31.3297 0.674495C30.9012 0.243326 30.3203 0.00076078 29.7143 0H2.28571C1.6802 -9.3299e-07 1.09942 0.241767 0.670883 0.672231C0.242343 1.10269 0.00105965 1.68667 0 2.29597V20.7C0.000786226 21.3098 0.241854 21.8943 0.670339 22.3255C1.09882 22.7566 1.67975 22.9992 2.28571 23H9.14286V20.7ZM27.1984 2.3L16 10.1013L4.8016 2.3H27.1984Z"/>
</mask>
<path d="M9.14286 20.7H2.28571L2.28183 3.34236L15.3494 12.4456C15.5406 12.5787 15.7675 12.65 16 12.65C16.2325 12.65 16.4594 12.5787 16.6506 12.4456L29.7143 3.34489V13.8H32V2.3C31.9992 1.69024 31.7582 1.10566 31.3297 0.674495C30.9012 0.243326 30.3203 0.00076078 29.7143 0H2.28571C1.6802 -9.3299e-07 1.09942 0.241767 0.670883 0.672231C0.242343 1.10269 0.00105965 1.68667 0 2.29597V20.7C0.000786226 21.3098 0.241854 21.8943 0.670339 22.3255C1.09882 22.7566 1.67975 22.9992 2.28571 23H9.14286V20.7ZM27.1984 2.3L16 10.1013L4.8016 2.3H27.1984Z" fill="#FD002D"/>
<path d="M9.14286 20.7H34.1429V-4.3H9.14286V20.7ZM2.28571 20.7L-22.7143 20.7056L-22.7087 45.7H2.28571V20.7ZM2.28183 3.34236L16.572 -17.1708L-22.7289 -44.5491L-22.7182 3.34796L2.28183 3.34236ZM15.3494 12.4456L1.0592 32.9588L1.06831 32.9652L15.3494 12.4456ZM16 12.65V37.65V12.65ZM16.6506 12.4456L30.9317 32.9652L30.941 32.9587L16.6506 12.4456ZM29.7143 3.34489H54.7143V-44.5397L15.4239 -17.1682L29.7143 3.34489ZM29.7143 13.8H4.71429V38.8H29.7143V13.8ZM32 13.8V38.8H57V13.8H32ZM32 2.3H57V2.2845L57 2.269L32 2.3ZM29.7143 0L29.7457 -25L29.73 -25H29.7143V0ZM2.28571 0L2.28568 25H2.28571V0ZM0 2.29597L-25 2.2525L-25 2.27424V2.29597H0ZM0 20.7H-25V20.7161L-25 20.7322L0 20.7ZM2.28571 23L2.25307 48L2.26939 48H2.28571V23ZM9.14286 23V48H34.1429V23H9.14286ZM27.1984 2.3L41.4887 22.8131L106.821 -22.7H27.1984V2.3ZM16 10.1013L1.70974 30.6144L16 40.5696L30.2903 30.6144L16 10.1013ZM4.8016 2.3V-22.7H-74.821L-9.48867 22.8131L4.8016 2.3ZM9.14286 -4.3H2.28571V45.7H9.14286V-4.3ZM27.2857 20.6944L27.2818 3.33676L-22.7182 3.34796L-22.7143 20.7056L27.2857 20.6944ZM-12.0083 23.8556L1.0592 32.9588L29.6395 -8.06755L16.572 -17.1708L-12.0083 23.8556ZM1.06831 32.9652C5.44148 36.0088 10.6502 37.65 16 37.65V-12.35C20.8848 -12.35 25.6397 -10.8514 29.6304 -8.07389L1.06831 32.9652ZM16 37.65C21.3498 37.65 26.5585 36.0088 30.9317 32.9652L2.36957 -8.07389C6.36034 -10.8514 11.1152 -12.35 16 -12.35V37.65ZM30.941 32.9587L44.0046 23.858L15.4239 -17.1682L2.36027 -8.06742L30.941 32.9587ZM4.71429 3.34489V13.8H54.7143V3.34489H4.71429ZM29.7143 38.8H32V-11.2H29.7143V38.8ZM57 13.8V2.3H7V13.8H57ZM57 2.269C56.9911 -4.9104 54.1543 -11.8243 49.0624 -16.948L13.597 18.297C9.36212 14.0356 7.00741 8.29087 7.00002 2.331L57 2.269ZM49.0624 -16.948C43.9652 -22.077 37.0216 -24.9908 29.7457 -25L29.6829 25C23.6189 24.9924 17.8372 22.5636 13.597 18.297L49.0624 -16.948ZM29.7143 -25H2.28571V25H29.7143V-25ZM2.28575 -25C-4.99297 -25 -11.9427 -22.0923 -17.0463 -16.9658L18.3881 18.3103C14.1416 22.5759 8.35337 25 2.28568 25L2.28575 -25ZM-17.0463 -16.9658C-22.1447 -11.8445 -24.9875 -4.92963 -25 2.2525L25 2.33945C24.9896 8.30298 22.6294 14.0499 18.3881 18.3103L-17.0463 -16.9658ZM-25 2.29597V20.7H25V2.29597H-25ZM-25 20.7322C-24.9907 27.9112 -22.1539 34.8246 -17.0623 39.948L18.403 4.70296C22.6376 8.96406 24.9923 14.7083 25 20.6678L-25 20.7322ZM-17.0623 39.948C-11.9655 45.0766 -5.02237 47.9905 2.25307 48L2.31835 -1.99998C8.38186 -1.99206 14.1632 0.436623 18.403 4.70296L-17.0623 39.948ZM2.28571 48H9.14286V-2H2.28571V48ZM34.1429 23V20.7H-15.8571V23H34.1429ZM12.9081 -18.2131L1.70973 -10.4119L30.2903 30.6144L41.4887 22.8131L12.9081 -18.2131ZM30.2903 -10.4119L19.0919 -18.2131L-9.48867 22.8131L1.70974 30.6144L30.2903 -10.4119ZM4.8016 27.3H27.1984V-22.7H4.8016V27.3Z" fill="#FD002D" mask="url(#path-3-inside-2_13_203)"/>
</g>
</g>
</svg>
