<svg width="28" height="28" viewBox="0 0 28 28" fill="none" xmlns="http://www.w3.org/2000/svg">
<path id="Vector" d="M26.1238 16.1935L26.5125 15.844C27.0088 15.3975 27.2309 14.8763 27.2182 14.3571L27.218 14.3476V14.3381C27.218 13.4289 26.8935 12.7859 26.3304 12.3484C25.7397 11.8894 24.7963 11.5886 23.4549 11.5884C23.4546 11.5884 23.4543 11.5884 23.454 11.5884L22.0981 11.5909L22.0967 11.5909C21.1911 11.5909 20.389 11.5786 19.6091 11.5323L18.4986 11.4663L18.9376 10.4441C19.87 8.27297 20.3922 6.01049 20.4641 3.85651C20.4618 2.40427 20.0692 1.68198 19.6658 1.31021C19.249 0.926219 18.6755 0.781245 18.0534 0.781245C17.0598 0.781245 16.4639 1.43739 15.9504 2.25848L26.1238 16.1935ZM26.1238 16.1935L26.2986 16.6862M26.1238 16.1935L26.2986 16.6862M26.2986 16.6862C26.5084 17.277 26.5422 17.7663 26.4613 18.1644C26.3819 18.5552 26.1821 18.9087 25.8356 19.2236L25.4508 19.5735L25.625 20.0635C25.8347 20.653 25.8685 21.141 25.7879 21.5381C25.7087 21.9281 25.5094 22.2812 25.1635 22.5965L24.7684 22.9566L24.9611 23.4553C25.0096 23.581 25.0477 23.6775 25.0795 23.7547C25.1365 23.896 25.1438 23.9243 25.148 23.9436C25.154 23.9714 25.1598 24.0145 25.1723 24.1978C25.1724 24.1981 25.1724 24.1984 25.1724 24.1987L25.1893 24.4562C25.1847 25.3209 24.8746 25.9888 24.3772 26.4466C23.8689 26.9142 23.1024 27.2187 22.104 27.2187H18.0533C15.9284 27.2187 13.3795 27.021 11.063 26.6739L10.7765 26.6266L10.7757 26.6265C10.4577 26.5743 10.1438 26.5218 9.83019 26.4655L9.18364 26.3496L8.95838 26.9666C8.90468 27.1137 8.76178 27.2188 8.59606 27.2188H1.16824C0.954841 27.2188 0.781245 27.0433 0.781245 26.8343V10.623C0.781245 10.414 0.954884 10.2385 1.16824 10.2385H8.59606C8.72567 10.2385 8.84347 10.3032 8.91529 10.4059L9.37561 11.0642L10.0208 10.5858C11.1216 9.7696 12.016 8.67536 12.8168 7.69569L12.8595 7.64347L12.8611 7.64146L13.1452 7.29637L13.158 7.28079L13.17 7.26457C13.443 6.89568 13.7183 6.47555 13.9926 6.00175L13.9927 6.00168M26.2986 16.6862L13.9927 6.00168M13.9927 6.00168C14.184 5.67104 14.5711 4.91055 14.9414 4.18207M13.9927 6.00168L14.9414 4.18207M25.5323 15.6193L25.5316 15.6197C25.3476 15.7325 25.2373 15.8051 25.1611 15.8862C25.1066 15.9442 25.0966 15.977 25.0966 16.0261C25.0966 16.1322 25.12 16.2028 25.1492 16.2608C25.1844 16.3309 25.2314 16.392 25.3187 16.4994C25.3222 16.5035 25.3257 16.5079 25.3294 16.5124C25.4038 16.6032 25.5307 16.7581 25.6233 16.963C25.7281 17.1948 25.7703 17.4411 25.7703 17.715C25.7703 18.0471 25.6529 18.3333 25.4304 18.5683C25.2603 18.7479 25.0328 18.8886 24.8561 18.9971L24.8554 18.9976C24.6715 19.1103 24.5611 19.183 24.4849 19.2641C24.4304 19.3221 24.4204 19.3549 24.4204 19.404C24.4204 19.5102 24.4438 19.5807 24.473 19.6387C24.508 19.7083 24.5545 19.7689 24.6407 19.8749C24.6433 19.878 24.6459 19.8812 24.6486 19.8845C24.7249 19.9762 24.8542 20.1319 24.9485 20.3392C25.0543 20.5721 25.0966 20.8191 25.0966 21.0929C25.0966 21.4252 24.9789 21.7119 24.7554 21.9472C24.5849 22.1266 24.3571 22.2668 24.1792 22.3754C23.9952 22.4882 23.8848 22.5608 23.8087 22.6419C23.7542 22.7 23.7441 22.7328 23.7441 22.7819C23.7441 22.888 23.7676 22.9586 23.7967 23.0166C23.8317 23.0861 23.8783 23.1468 23.9644 23.2528C23.967 23.2559 23.9696 23.2591 23.9724 23.2624C24.0486 23.3541 24.178 23.5098 24.2722 23.7171C24.3781 23.9499 24.4203 24.197 24.4203 24.4707C24.4203 25.0502 24.2221 25.6025 23.7343 25.983C23.2825 26.3354 22.6959 26.4489 22.104 26.4489H22.1036L17.9521 26.4464L17.9378 26.4464L17.9236 26.4459L17.8742 26.444C15.1872 26.3444 12.3277 26.2383 9.59177 25.6192L8.98295 25.4814V24.8572V12.6467V12.225L9.33549 11.9936C11.0344 10.8784 12.5252 9.45285 13.7616 7.75668L13.7678 7.74822L13.7678 7.74827C14.5947 6.64519 15.1792 5.4536 15.7248 4.33851L15.7339 4.31983C16.0073 3.75979 16.3093 3.14125 16.6081 2.66276C16.7585 2.42197 16.9313 2.17804 17.1252 1.9858C17.2977 1.81478 17.6152 1.55513 18.0524 1.55513C18.3277 1.55513 18.9117 1.56681 19.3065 2.10606C19.6209 2.53556 19.6924 3.15703 19.6924 3.86888C19.6924 6.62644 18.3866 9.9288 17.6361 11.4283C17.4879 11.7254 17.5475 11.8216 17.5678 11.8543L17.568 11.8547L17.5688 11.856C17.6221 11.9426 17.8253 12.1448 18.8693 12.2547C19.8569 12.3587 21.3082 12.3598 23.4539 12.3598C24.6191 12.3598 25.4212 12.5733 25.918 13.0307C26.4476 13.5183 26.4467 14.1153 26.4464 14.3245C26.4464 14.3291 26.4464 14.3335 26.4464 14.3377L25.5323 15.6193ZM25.5323 15.6193C25.709 15.5107 25.9363 15.3702 26.1062 15.1909M25.5323 15.6193L26.1062 15.1909M14.9414 4.18207C15.3974 3.28675 15.7937 2.50932 15.9502 2.25872L14.9414 4.18207ZM26.1062 15.1909C26.3284 14.9564 26.4465 14.6705 26.4464 14.338L26.1062 15.1909ZM7.43012 26.4464H8.21137V25.6652V11.7904V11.0091H7.43012H2.33302H1.55178V11.7904V25.6652V26.4464H2.33302H7.43012Z" fill="none" stroke="#FD002D" stroke-width="1.56249"/>
</svg>
