<svg width="32" height="32" viewBox="0 0 32 32" fill="none" xmlns="http://www.w3.org/2000/svg">
<g clip-path="url(#clip0_4_4)">
<path d="M31.94 16.39C31.94 15.47 31.61 14.71 31 14.15C30.22 13.43 29.07 13.09 27.38 13.09C24.89 13.09 23.11 13.09 21.95 12.97C21.73 12.95 21.55 12.92 21.42 12.9C22.06 11.52 23.79 7.47 23.79 3.79C23.79 2.9 23.72 1.88 23.15 1.1C22.38 0.0500003 21.24 0.0500002 20.87 0.0500002C20.42 0.0500002 19.75 0.19 19.08 0.85C18.83 1.1 18.59 1.43 18.33 1.84C17.93 2.47 17.53 3.28 17.21 3.95C16.59 5.21 15.89 6.63 14.93 7.93C13.53 9.85 11.85 11.47 9.93 12.73V11.46H0V31.98H9.92V30.83L10.44 30.95C13.83 31.72 17.27 31.84 20.6 31.96L25.74 31.97C26.79 31.97 27.65 31.72 28.3 31.21C29.06 30.61 29.48 29.7 29.48 28.64C29.48 28.16 29.4 27.73 29.21 27.34C29.11 27.13 29 26.95 28.91 26.82C29.13 26.68 29.39 26.49 29.62 26.24C30.07 25.78 30.3 25.2 30.3 24.56C30.3 24.08 30.22 23.65 30.03 23.27C29.93 23.05 29.82 22.87 29.72 22.74C29.94 22.6 30.21 22.41 30.44 22.17C30.87 21.7 31.1 21.12 31.1 20.48C31.1 20 31.02 19.57 30.83 19.19C30.73 18.97 30.62 18.8 30.53 18.66L31.92 16.69V16.39H31.94ZM8.04 30.09H1.88V13.33H8.04V30.09ZM29.23 17.26C29.04 17.38 28.89 17.49 28.75 17.63C28.53 17.87 28.42 18.14 28.42 18.45C28.42 18.7 28.47 18.93 28.58 19.15C28.65 19.31 28.74 19.42 28.87 19.57L28.92 19.63C28.98 19.71 29.08 19.84 29.14 19.97C29.2 20.1 29.24 20.27 29.24 20.48C29.24 20.64 29.19 20.76 29.08 20.87C28.96 21 28.74 21.14 28.59 21.23C28.34 21.39 28.12 21.52 27.94 21.71C27.72 21.95 27.61 22.22 27.61 22.52C27.61 22.79 27.66 23.01 27.78 23.23C27.86 23.4 27.96 23.52 28.11 23.71C28.18 23.79 28.28 23.9 28.34 24.04C28.4 24.18 28.44 24.35 28.44 24.56C28.44 24.72 28.39 24.84 28.28 24.95C28.16 25.08 27.94 25.22 27.77 25.31C27.5 25.47 27.31 25.6 27.13 25.79C26.9 26.03 26.79 26.3 26.79 26.6C26.79 26.87 26.85 27.09 26.96 27.31C27.04 27.48 27.15 27.62 27.29 27.78C27.36 27.86 27.46 27.99 27.52 28.12C27.58 28.26 27.62 28.42 27.62 28.64C27.62 29.12 27.46 29.48 27.15 29.73C26.85 29.97 26.38 30.09 25.76 30.09L20.69 30.08C17.44 29.96 14.09 29.84 10.87 29.11V14.37C13.03 12.96 14.9 11.16 16.46 9.02C17.52 7.6 18.27 6.09 18.93 4.72C19.22 4.12 19.59 3.36 19.93 2.81C20.11 2.52 20.27 2.3 20.41 2.16C20.58 1.99 20.74 1.92 20.87 1.92C21.22 1.92 21.46 1.96 21.63 2.2C21.88 2.54 21.91 3.26 21.91 3.77C21.91 6.88 20.41 10.7 19.53 12.47C19.25 13.01 19.24 13.5 19.49 13.91C19.8 14.42 20.48 14.69 21.76 14.83C23 14.96 24.85 14.96 27.38 14.96C28.53 14.96 29.31 15.15 29.72 15.53C29.94 15.72 30.01 15.94 30.03 16.13L29.23 17.26Z" fill="#FD002D"/>
<path d="M8.04 13.33H1.88V30.08H8.04V13.33Z" fill="#FD002D"/>
<path d="M28.75 17.63C28.53 17.87 28.42 18.14 28.42 18.45C28.42 18.7 28.47 18.93 28.58 19.15C28.65 19.31 28.74 19.42 28.87 19.57L28.92 19.63C28.98 19.71 29.08 19.84 29.14 19.97C29.2 20.1 29.24 20.27 29.24 20.48C29.24 20.64 29.19 20.76 29.08 20.87C28.96 21 28.74 21.14 28.59 21.23C28.34 21.39 28.12 21.52 27.94 21.71C27.72 21.95 27.61 22.22 27.61 22.52C27.61 22.79 27.66 23.01 27.78 23.23C27.86 23.4 27.96 23.52 28.11 23.71C28.18 23.79 28.28 23.9 28.34 24.04C28.4 24.18 28.44 24.35 28.44 24.56C28.44 24.72 28.39 24.84 28.28 24.95C28.16 25.08 27.94 25.22 27.77 25.31C27.5 25.47 27.31 25.6 27.13 25.79C26.9 26.03 26.79 26.3 26.79 26.6C26.79 26.87 26.85 27.09 26.96 27.31C27.04 27.48 27.15 27.62 27.29 27.78C27.36 27.86 27.46 27.99 27.52 28.12C27.58 28.26 27.62 28.42 27.62 28.64C27.62 29.12 27.46 29.48 27.15 29.73C26.85 29.97 26.38 30.09 25.76 30.09L20.69 30.08C17.44 29.96 14.09 29.84 10.87 29.11V14.37C13.03 12.96 14.9 11.16 16.46 9.02C17.52 7.6 18.27 6.09 18.93 4.72C19.22 4.12 19.59 3.36 19.93 2.81C20.11 2.52 20.27 2.3 20.41 2.16C20.58 1.99 20.74 1.92 20.87 1.92C21.22 1.92 21.46 1.96 21.63 2.2C21.88 2.54 21.91 3.26 21.91 3.77C21.91 6.88 20.41 10.7 19.53 12.47C19.25 13.01 19.24 13.5 19.49 13.91C19.8 14.42 20.48 14.69 21.76 14.83C23 14.96 24.85 14.96 27.38 14.96C28.53 14.96 29.31 15.15 29.72 15.53C29.94 15.72 30.01 15.94 30.03 16.13L29.23 17.25C29.04 17.38 28.89 17.48 28.75 17.63Z" fill="#FD002D"/>
</g>
<defs>
<clipPath id="clip0_4_4">
<rect width="32" height="32" fill="white"/>
</clipPath>
</defs>
</svg>
