<svg width="55" height="50" fill="none" xmlns="http://www.w3.org/2000/svg"><path d="M47.325 0c-5.038 0-7.674 4.113-7.674 8.176 0 .263.01.53.028.798H15.32c.018-.268.029-.535.029-.798C15.349 4.113 12.713 0 7.674 0 2.636 0 0 3.561 0 7.08c0 2.995 2.431 5.432 5.42 5.432 2.602 0 4.72-2.122 4.72-4.73H6.302a.884.884 0 01-.882.884 1.586 1.586 0 01-1.583-1.587c0-2.552 2.412-3.233 3.837-3.233 2.833 0 3.837 2.333 3.837 4.33 0 1.822-.651 4.056-1.476 6.884-.8 2.74-1.707 5.847-2.335 9.624-.285 1.717-.67 5.19-.042 9.162.625 3.954 2.062 7.283 4.27 9.895C15.438 47.894 20.677 50 27.5 50c6.823 0 12.062-2.106 15.572-6.258 2.208-2.613 3.644-5.942 4.27-9.895.628-3.973.243-7.446-.043-9.163-.628-3.776-1.534-6.883-2.334-9.624-.825-2.828-1.477-5.062-1.477-6.884 0-1.997 1.005-4.33 3.837-4.33 1.426 0 3.838.681 3.838 3.233 0 .875-.71 1.587-1.583 1.587a.884.884 0 01-.883-.885H44.86a4.73 4.73 0 004.72 4.73c2.989 0 5.42-2.436 5.42-5.432C55 3.561 52.364 0 47.325 0zM19.186 44.536c-1.711-.8-3.159-1.894-4.33-3.28-3.71-4.39-4.173-11.112-3.37-15.94.59-3.55 1.462-6.539 2.232-9.176.34-1.165.66-2.267.927-3.32h4.541v31.716zm6.395 1.55a21.83 21.83 0 01-2.558-.332V12.82h2.558v33.266zm6.396-.332a21.83 21.83 0 01-2.558.332V12.82h2.558v32.934zm11.537-20.438c.803 4.828.34 11.55-3.37 15.94-1.172 1.386-2.619 2.48-4.33 3.28V12.82h4.541a98.58 98.58 0 00.928 3.32c.769 2.637 1.641 5.627 2.231 9.176z" fill="#A167FF"/></svg>