<svg width="64" height="54" fill="none" xmlns="http://www.w3.org/2000/svg"><path d="M44.488 16.339L32 52.539l30.702-36.2H44.488z" fill="#10BAFC"/><path d="M14.002 1.408L1.298 16.34h18.214l-5.51-14.93zm30.486 14.931h18.214L49.998 1.409l-5.51 14.93zm0 0L32 1.409l-12.488 14.93h24.976z" fill="#0084FF"/><path d="M32 1.408H14.002l5.51 14.931L32 1.409zm17.998 0H32L44.488 16.34l5.51-14.93z" fill="#10BAFC"/><path d="M19.512 16.339L32 52.539l12.488-36.2H19.512z" fill="#0084FF"/><path d="M1.298 16.339L32 52.539l-12.488-36.2H1.298z" fill="#10BAFC"/><path d="M63.665 15.387L50.96.457a.226.226 0 00-.028-.028A1.26 1.26 0 0049.998 0H14.002c-.007 0-.012.003-.018.003a1.264 1.264 0 00-.944.453L.335 15.386c-.474.558-.418 1.415-.001 1.904l30.702 36.199c.5.579 1.39.635 1.928 0l30.702-36.2c.417-.489.473-1.344-.001-1.902zM50.442 4.014l9.289 10.916H46.414l4.028-10.916zm-29.05 13.734h21.216L32 48.498l-10.608-30.75zm26.68-14.931l-4.02 10.896-9.114-10.896h13.134zm-6.521 12.114H22.449L32 3.51l9.55 11.42zM29.063 2.816l-9.114 10.896-4.02-10.896h13.134zM13.558 4.014l4.028 10.917H4.269l9.289-10.917zM4.263 17.748h14.34l9.834 28.502L4.263 17.748zm31.3 28.502l9.833-28.503h14.341L35.563 46.25z" fill="#003A7B"/></svg>