<svg width="42" height="42" fill="none" xmlns="http://www.w3.org/2000/svg"><path d="M21.24 41.404c11.274 0 20.414-9.14 20.414-20.413C41.654 9.717 32.514.577 21.24.577 9.966.577.827 9.717.827 20.991c0 11.274 9.14 20.413 20.413 20.413z" fill="#FFC552"/><path d="M21.956 27.925c-.797-1.688-1.734-3.398-3.56-3.398-.361-.005-.72.07-1.053.219l-.622-1.337c.755-.698 1.977-1.246 3.511-1.246 2.44 0 3.694 1.265 4.691 2.881.59-1.378.87-3.24.87-5.55 0-5.763-1.674-8.685-5.589-8.685-3.862 0-5.523 2.96-5.523 8.685 0 5.724 1.668 8.658 5.523 8.658a5.575 5.575 0 001.678-.234l.074.007zm.955 2.013a9.576 9.576 0 01-2.633.377C15.14 30.32 10.11 25.91 10.11 19.497c0-6.468 5.031-10.874 10.168-10.874 5.22 0 10.196 4.38 10.196 10.874a11.198 11.198 0 01-.995 4.717 10.413 10.413 0 01-2.85 3.741c.703 1.186 1.496 1.975 2.553 1.975 1.152 0 1.615-.959 1.696-1.71h1.502c.088 1-.379 5.158-4.575 5.158-2.541 0-3.886-1.582-4.894-3.44z" fill="#0F0F14"/></svg>