<svg width="55" height="55" fill="none" xmlns="http://www.w3.org/2000/svg"><g opacity=".5" fill="#8EB0FF"><path d="M0 27.5C0 42.688 12.313 55 27.5 55 42.688 55 55 42.687 55 27.5 55 12.312 42.687 0 27.5 0 12.312 0 0 12.313 0 27.5zm50.417 0c0 12.656-10.26 22.917-22.917 22.917-12.656 0-22.917-10.26-22.917-22.917 0-12.656 10.26-22.917 22.917-22.917 12.656 0 22.917 10.26 22.917 22.917z"/><path d="M21.296 17.662l9.838 9.838-9.838 9.838a2.292 2.292 0 003.241 3.24L35.996 29.12a2.292 2.292 0 000-3.24L24.537 14.42a2.292 2.292 0 00-3.24 3.241z"/></g></svg>