<svg width="70" height="70" fill="none" xmlns="http://www.w3.org/2000/svg"><g filter="url(#filter0_d_15_768)"><path d="M35 10c-13.8 0-25 11.2-25 25s11.2 25 25 25 25-11.2 25-25-11.2-25-25-25zm0 7.5c4.15 0 7.5 3.35 7.5 7.5s-3.35 7.5-7.5 7.5a7.49 7.49 0 01-7.5-7.5c0-4.15 3.35-7.5 7.5-7.5zM35 53c-6.25 0-11.775-3.2-15-8.05.075-4.975 10-7.7 15-7.7 4.975 0 14.925 2.725 15 7.7C46.775 49.8 41.25 53 35 53z" fill="#8EB0FF"/></g><defs><filter id="filter0_d_15_768" x="0" y="0" width="70" height="70" filterUnits="userSpaceOnUse" color-interpolation-filters="sRGB"><feFlood flood-opacity="0" result="BackgroundImageFix"/><feColorMatrix in="SourceAlpha" values="0 0 0 0 0 0 0 0 0 0 0 0 0 0 0 0 0 0 127 0" result="hardAlpha"/><feOffset/><feGaussianBlur stdDeviation="5"/><feComposite in2="hardAlpha" operator="out"/><feColorMatrix values="0 0 0 0 0.00784314 0 0 0 0 0.290196 0 0 0 0 0.945098 0 0 0 1 0"/><feBlend in2="BackgroundImageFix" result="effect1_dropShadow_15_768"/><feBlend in="SourceGraphic" in2="effect1_dropShadow_15_768" result="shape"/></filter></defs></svg>