<svg width="139" height="41" fill="none" xmlns="http://www.w3.org/2000/svg"><path d="M52.359 15.234c.092.346-.023.554-.3.647l-2.66.786c-.323.092-.485 0-.6-.324-.416-1.364-1.295-2.08-2.936-2.08-2.497 0-3.352 1.48-3.352 3.467v4.577c0 1.988.832 3.468 3.352 3.468 2.057 0 3.144-.948 3.144-3.052v-.6h-2.705c-.231 0-.37-.116-.37-.394v-2.543a.36.36 0 01.324-.392h6.056c.255 0 .393.115.393.37v3.79c0 3.607-2.658 6.334-6.796 6.334-4.9 0-7.189-2.912-7.189-6.888v-4.832c0-3.976 2.288-6.888 7.19-6.888 3.952.023 5.732 2.288 6.449 4.554zm13.476 4.507v8.877c.024.185-.138.347-.323.37H62.76a.36.36 0 01-.393-.324v-1.502a4.276 4.276 0 01-3.745 2.103c-2.566 0-4.207-1.641-4.207-4.184 0-2.473 1.549-3.93 5.34-4.207.809-.07 1.641-.07 2.473-.023v-.994c0-1.318-.693-1.85-1.872-1.85-1.202 0-1.549.486-1.873 1.249-.115.3-.23.347-.485.277l-2.705-.693c-.277-.07-.3-.231-.254-.416.37-1.942 2.22-3.375 5.456-3.375 3.42.023 5.34 1.664 5.34 4.692zm-3.606 4.67v-1.295c-.716-.023-1.456 0-2.173.07-1.387.162-2.103.6-2.103 1.64 0 .949.647 1.48 1.687 1.48 1.202 0 2.15-.647 2.59-1.895zm13.362-9.34c1.71 0 2.843 1.018 3.375 2.474 1.017-1.48 2.242-2.473 3.953-2.473 2.38 0 3.744 1.895 3.744 4.716v8.83c0 .231-.208.37-.439.37h-2.82c-.254 0-.44-.139-.44-.37v-8.183c0-1.225-.53-1.965-1.502-1.965-1.017 0-1.757.832-2.103 2.104v8.044c.023.185-.14.347-.324.37H75.96c-.23 0-.323-.139-.323-.37v-8.183c0-1.225-.555-1.965-1.503-1.965-1.04 0-1.78.878-2.103 2.15v8.021a.337.337 0 01-.3.37h-3.052a.337.337 0 01-.37-.3V15.742c0-.185.162-.347.347-.347h2.889c.185-.023.347.116.37.324v1.572c.786-1.156 1.965-2.22 3.676-2.22zm26.537.301c.07.324-.023.555-.323.648l-2.613.762c-.323.093-.485-.023-.6-.323-.37-1.225-1.018-2.22-2.82-2.22-2.243 0-2.96 1.48-2.96 3.468v4.577c0 1.988.81 3.468 2.96 3.468 1.918 0 2.658-1.087 2.958-2.428.07-.3.278-.439.601-.323l2.612.832c.301.092.393.324.324.647-.624 2.659-2.543 4.831-6.519 4.831-4.484 0-6.727-2.912-6.727-6.888v-4.831c0-3.976 2.312-6.89 6.727-6.89 3.884 0 5.71 2.058 6.38 4.67zm13.107 4.37v8.876c.023.185-.138.347-.323.37h-2.751a.36.36 0 01-.393-.324v-1.502a4.276 4.276 0 01-3.745 2.103c-2.566 0-4.207-1.641-4.207-4.184 0-2.473 1.549-3.93 5.34-4.207a17.64 17.64 0 012.473-.023v-.994c0-1.318-.693-1.85-1.872-1.85-1.202 0-1.549.486-1.873 1.249-.115.3-.231.347-.485.277l-2.705-.693c-.277-.07-.3-.231-.254-.416.37-1.942 2.219-3.375 5.455-3.375 3.422.023 5.34 1.664 5.34 4.692zm-3.629 4.669v-1.295a17.06 17.06 0 00-2.173.07c-1.387.162-2.104.6-2.104 1.64 0 .949.648 1.48 1.688 1.48 1.225 0 2.15-.647 2.589-1.895zm14.147-8.784v2.635c0 .323-.115.44-.439.44h-.393c-1.965 0-3.121.877-3.514 2.357v7.582a.336.336 0 01-.3.37h-3.121c-.185 0-.324-.162-.324-.347V15.72c0-.185.139-.347.301-.347h2.843c.301 0 .37.185.37.393v1.826c.647-1.202 1.849-2.38 3.953-2.38.532 0 .624.069.624.416zm4.832 7.697v.509c0 1.433.739 2.427 2.473 2.427 1.688 0 2.173-.647 2.612-1.456.231-.37.324-.416.717-.255l1.942.995c.393.208.416.392.254.762-.832 1.896-2.936 2.982-5.525 2.982-3.93 0-6.01-2.334-6.01-5.524V20.62c0-3.098 1.942-5.525 5.964-5.525 3.837 0 5.71 2.427 5.71 5.455v2.173c0 .37-.116.625-.648.625l-7.489-.024zm0-2.89v.463h4.738v-.462c0-1.318-.739-2.358-2.357-2.358-1.619 0-2.381 1.04-2.381 2.358zM17.014 0H.509A.513.513 0 000 .509v23.994c0 8.553 6.935 15.511 15.511 15.511h1.503c8.553 0 15.488-6.934 15.488-15.51V15.51C32.525 6.935 25.59 0 17.014 0zm10.54 24.758c0 5.825-4.299 10.24-10.956 10.24-7.906 0-11.605-4.692-11.605-11.119v-7.79c0-6.426 3.699-11.119 11.605-11.119 6.403 0 9.292 3.652 10.448 7.305.162.555-.046.878-.485 1.04l-4.3 1.271c-.508.162-.786 0-.948-.508-.67-2.196-2.103-3.375-4.715-3.375-4.046 0-5.41 2.38-5.41 5.594v7.397c0 3.213 1.341 5.595 5.41 5.595 3.328 0 5.085-1.55 5.085-4.924v-.948h-4.438c-.347 0-.601-.208-.601-.624V18.7c0-.393.231-.647.6-.647h9.687c.393 0 .624.208.624.6v6.104z" fill="#484848"/></svg>