<svg width="44" height="45" fill="none" xmlns="http://www.w3.org/2000/svg"><path d="M39.184 16.238a18.26 18.26 0 01.953 5.842c0 10.037-8.136 18.203-18.137 18.203-10 0-18.139-8.166-18.139-18.203C3.861 12.043 11.999 3.875 22 3.875c1.995 0 3.95.324 5.82.959V.784A21.901 21.901 0 0022 0C9.869 0 0 9.905 0 22.08c0 12.175 9.869 22.08 22 22.08s22-9.905 22-22.08c0-1.987-.262-3.947-.78-5.842h-4.036z" fill="#fff"/><path fill-rule="evenodd" clip-rule="evenodd" d="M29.975 21.41c1.17-.64 1.872-1.794 1.872-3.097 0-2.454-2.063-4.013-5.339-4.013-3.234 0-5.318 1.515-5.318 3.907 0 1.302.806 2.498 2.064 3.201-1.723.685-2.83 2.135-2.83 3.846 0 2.646 2.383 4.333 6.104 4.333 3.724 0 6.105-1.71 6.105-4.398 0-1.667-1.019-3.096-2.658-3.779zm-3.447 5.422c-1.637 0-2.53-.704-2.53-1.965 0-1.238.893-1.943 2.53-1.943 1.64 0 2.554.705 2.554 1.943 0 1.283-.916 1.965-2.554 1.965zm0-6.64c-1.382 0-2.146-.598-2.146-1.665 0-1.11.764-1.73 2.146-1.73 1.385 0 2.149.62 2.149 1.73 0 1.067-.766 1.665-2.149 1.665z" fill="#fff"/><path d="M13.832 17.502v11.912h3.786V14.448h-6.53v3.054h2.745zM37.844 1.676v4.208h4.19V8.91h-4.19v4.206H34.83V8.91h-4.167V5.884h4.167v-4.21h3.014v.002z" fill="#fff"/></svg>