<svg width="100" height="45" fill="none" xmlns="http://www.w3.org/2000/svg"><path fill-rule="evenodd" clip-rule="evenodd" d="M10.69 21.023c0-1.944 1.567-3.52 3.498-3.52h.269c0-1.783.214-4.091 1.326-6.01 1.224-2.113 3.374-3.48 6.518-3.48 3.132 0 5.316 1.352 6.603 3.424 1.189 1.913 1.48 4.222 1.48 6.066h.268c1.932 0 3.498 1.576 3.498 3.52V31.69c0 1.944-1.566 3.52-3.497 3.52H14.188c-1.931 0-3.497-1.576-3.497-3.52V21.023zm15.497-3.52h-7.533c0-1.57.216-2.952.755-3.883.428-.738 1.15-1.383 2.892-1.383 1.753 0 2.56.66 3.045 1.439.582.937.84 2.317.84 3.827zm1.886 5.649l-1.029-1.014a.706.706 0 00-.514-.208.707.707 0 00-.515.208l-4.965 4.897-2.224-2.198a.707.707 0 00-.515-.21.707.707 0 00-.515.21l-1.029 1.013a.686.686 0 00-.212.507c0 .199.071.368.212.507l3.77 3.711a.7.7 0 00.514.209c.201 0 .373-.07.514-.209l6.508-6.41a.685.685 0 00.212-.506.686.686 0 00-.212-.507z" fill="#fff"/><path fill-rule="evenodd" clip-rule="evenodd" d="M0 7.12C0 3.232 3.132.08 6.995.08h31.478c3.863 0 6.995 3.152 6.995 7.04v29.92c0 3.888-3.132 7.04-6.995 7.04H6.995C3.132 44.08 0 40.928 0 37.04V7.12zm6.995-2.464h31.478A2.456 2.456 0 0140.92 7.12v29.92a2.456 2.456 0 01-2.448 2.464H6.995a2.456 2.456 0 01-2.448-2.464V7.12a2.456 2.456 0 012.448-2.464z" fill="#fff"/><path d="M57.758 24.28c1.093.463 2.404.695 3.931.695 1.415 0 2.67-.215 3.763-.645 1.11-.446 1.97-1.075 2.58-1.885.627-.826.94-1.794.94-2.901 0-1.009-.208-1.844-.626-2.505-.418-.678-1.077-1.223-1.978-1.637-.884-.43-2.074-.785-3.57-1.066-.916-.198-1.623-.389-2.122-.57-.482-.199-.836-.414-1.06-.645-.21-.232-.315-.52-.315-.868 0-.513.194-.901.58-1.166.385-.264.94-.396 1.663-.396.628 0 1.15.132 1.568.396.434.265.7.587.796.968a.988.988 0 00.314.322c.128.066.29.1.482.1h3.184a.48.48 0 00.361-.15.512.512 0 00.145-.372c-.032-.727-.322-1.463-.868-2.207-.53-.76-1.31-1.388-2.34-1.884-1.029-.496-2.243-.744-3.642-.744-1.35 0-2.532.223-3.545.67-1.013.446-1.792 1.066-2.34 1.86-.546.793-.82 1.694-.82 2.702 0 1.488.475 2.637 1.424 3.447.965.794 2.412 1.397 4.34 1.81 1.046.232 1.834.439 2.365.62.53.182.916.389 1.157.62.257.232.386.53.386.893 0 .513-.241.918-.723 1.215-.483.298-1.182.447-2.099.447-.771 0-1.39-.14-1.857-.422-.466-.281-.804-.636-1.013-1.066a1.333 1.333 0 00-.386-.323c-.112-.082-.265-.124-.458-.124h-3.039a.524.524 0 00-.386.174.482.482 0 00-.144.347c.032.893.321 1.72.868 2.48.563.744 1.39 1.347 2.484 1.81zm15.992 0c1.094.463 2.404.695 3.931.695 1.415 0 2.67-.215 3.763-.645 1.11-.446 1.97-1.075 2.58-1.885.628-.826.941-1.794.941-2.901 0-1.009-.209-1.844-.627-2.505-.418-.678-1.077-1.223-1.978-1.637-.884-.43-2.074-.785-3.57-1.066-.916-.198-1.623-.389-2.121-.57-.483-.199-.837-.414-1.062-.645-.209-.232-.313-.52-.313-.868 0-.513.193-.901.579-1.166.385-.264.94-.396 1.664-.396.627 0 1.15.132 1.567.396.434.265.7.587.796.968a.984.984 0 00.314.322c.129.066.29.1.482.1h3.184c.145 0 .265-.05.362-.15a.512.512 0 00.144-.372c-.032-.727-.321-1.463-.868-2.207-.53-.76-1.31-1.388-2.34-1.884-1.028-.496-2.242-.744-3.641-.744-1.35 0-2.533.223-3.546.67-1.012.446-1.792 1.066-2.339 1.86-.546.793-.82 1.694-.82 2.702 0 1.488.474 2.637 1.423 3.447.965.794 2.412 1.397 4.341 1.81 1.045.232 1.833.439 2.364.62.53.182.916.389 1.157.62.258.232.386.53.386.893 0 .513-.24.918-.723 1.215-.483.298-1.182.447-2.099.447-.771 0-1.39-.14-1.857-.422-.466-.281-.803-.636-1.013-1.066a1.332 1.332 0 00-.385-.323c-.113-.082-.266-.124-.459-.124H70.93a.524.524 0 00-.386.174.482.482 0 00-.145.347c.032.893.322 1.72.868 2.48.563.744 1.39 1.347 2.484 1.81zm14.232.447a.632.632 0 01-.434-.173.67.67 0 01-.169-.447V7.988c0-.182.056-.33.169-.446a.632.632 0 01.434-.174h3.183c.177 0 .322.058.434.174a.613.613 0 01.17.446v12.995h7.307c.177 0 .322.066.434.198a.613.613 0 01.169.446v2.48a.67.67 0 01-.169.447.58.58 0 01-.434.173H87.982zM57.467 38.8c-.667 0-1.246-.108-1.736-.323-.483-.215-.852-.496-1.11-.843a2.054 2.054 0 01-.41-1.14c0-.067.025-.125.073-.174a.262.262 0 01.193-.087h.615c.152 0 .257.083.313.248.072.347.278.645.615.893.346.248.828.372 1.447.372.668 0 1.17-.12 1.508-.36.337-.248.506-.591.506-1.03 0-.28-.084-.507-.253-.681-.161-.174-.402-.327-.724-.459a18.288 18.288 0 00-1.447-.496c-.627-.182-1.125-.376-1.495-.583-.37-.206-.647-.462-.832-.768-.185-.306-.277-.69-.277-1.154 0-.446.116-.847.35-1.202.24-.356.582-.633 1.024-.831.442-.207.969-.31 1.58-.31.627 0 1.166.116 1.616.347.45.223.792.509 1.025.856.233.347.358.694.374 1.041a.24.24 0 01-.073.174c-.04.05-.1.074-.18.074h-.64c-.169 0-.273-.078-.313-.235-.049-.347-.237-.633-.567-.856-.33-.231-.744-.347-1.242-.347-.547 0-.977.107-1.29.322-.314.215-.47.534-.47.955 0 .281.072.513.217.694.152.182.381.344.687.484.305.132.752.285 1.338.459.684.19 1.222.388 1.616.595.394.198.688.45.88.756.194.298.29.678.29 1.141 0 .769-.29 1.372-.868 1.81-.579.438-1.359.657-2.34.657zm5.066-.124a.3.3 0 01-.205-.074.319.319 0 01-.073-.211v-8.097a.29.29 0 01.073-.21.276.276 0 01.205-.087h4.98c.08 0 .145.029.193.087.056.049.085.12.085.21v.471a.318.318 0 01-.073.211c-.048.05-.116.075-.205.075h-4.1v2.715h3.835c.08 0 .145.029.193.087.056.05.084.12.084.21v.46a.291.291 0 01-.084.21.257.257 0 01-.193.075h-3.835v2.814h4.197c.088 0 .156.025.205.075a.29.29 0 01.072.21v.484a.291.291 0 01-.084.21.257.257 0 01-.193.075h-5.077zm7.532-.769c.563.595 1.383.893 2.46.893.715 0 1.322-.129 1.82-.385.5-.264.877-.607 1.135-1.029a2.85 2.85 0 00.421-1.364.177.177 0 00-.072-.173.242.242 0 00-.18-.075h-.664c-.08 0-.145.02-.193.062-.048.041-.084.116-.109.223-.128.62-.373 1.058-.735 1.315-.354.248-.828.372-1.423.372-1.383 0-2.098-.79-2.147-2.369a33.86 33.86 0 01-.012-1.054c0-.462.004-.806.013-1.029.048-1.579.763-2.368 2.146-2.368.595 0 1.07.128 1.423.384.354.248.599.682.736 1.302.04.19.14.285.3.285h.664c.065 0 .12-.02.17-.061a.226.226 0 00.084-.174v-.025a2.831 2.831 0 00-.422-1.351c-.258-.422-.636-.76-1.134-1.017-.499-.265-1.106-.397-1.821-.397-1.07 0-1.885.302-2.448.905-.563.595-.864 1.414-.904 2.455a35.91 35.91 0 00-.013 1.116c0 .504.005.868.013 1.091.04 1.05.337 1.873.892 2.468zm10.636.893c-1.037 0-1.841-.285-2.412-.855-.563-.579-.844-1.451-.844-2.617v-5.034c0-.09.024-.161.073-.21a.275.275 0 01.204-.087h.616c.088 0 .156.029.205.087.056.049.084.12.084.21v5.06c0 .793.18 1.388.543 1.785.361.396.872.595 1.531.595.66 0 1.17-.199 1.532-.595.361-.397.542-.992.542-1.786v-5.059a.29.29 0 01.073-.21.275.275 0 01.204-.087h.628a.24.24 0 01.193.087.291.291 0 01.084.21v5.034c0 1.166-.285 2.038-.856 2.617-.563.57-1.363.855-2.4.855z" fill="#fff"/><path fill-rule="evenodd" clip-rule="evenodd" d="M86.045 38.602c.056.05.125.074.205.074h.615a.3.3 0 00.205-.074.291.291 0 00.085-.211v-3.199h2.11l1.748 3.15c.057.107.117.19.181.247a.45.45 0 00.29.087h.579c.064 0 .12-.025.168-.074a.226.226 0 00.085-.174.316.316 0 00-.036-.136l-1.857-3.298c.546-.157.968-.438 1.266-.844.305-.405.458-.921.458-1.55 0-.843-.261-1.487-.784-1.934-.522-.446-1.246-.67-2.17-.67H86.25a.275.275 0 00-.205.088.29.29 0 00-.072.21v8.097c0 .083.024.153.072.21zm4.896-6.014c0 1.033-.599 1.55-1.797 1.55h-1.99v-3.1h1.99c1.198 0 1.797.517 1.797 1.55z" fill="#fff"/><path d="M94.152 38.676a.3.3 0 01-.205-.074.318.318 0 01-.072-.211v-8.097c0-.09.024-.161.072-.21a.276.276 0 01.205-.087h4.98c.08 0 .145.029.193.087.057.049.085.12.085.21v.471a.319.319 0 01-.072.211.273.273 0 01-.206.075h-4.1v2.715h3.835c.08 0 .145.029.193.087.056.05.084.12.084.21v.46a.291.291 0 01-.084.21.257.257 0 01-.193.075h-3.835v2.814h4.197c.088 0 .157.025.205.075a.29.29 0 01.072.21v.484a.291.291 0 01-.084.21.257.257 0 01-.193.075h-5.077z" fill="#fff"/></svg>