<svg width="29" height="30" fill="none" xmlns="http://www.w3.org/2000/svg"><g opacity=".5" fill="#fff"><path d="M25.803 10.693c.417 1.236.628 2.529.628 3.847 0 6.61-5.358 11.987-11.944 11.987-6.585 0-11.944-5.377-11.944-11.987S7.902 2.552 14.487 2.552c1.314 0 2.602.213 3.833.631V.516A14.423 14.423 0 0014.487 0C6.5 0 0 6.522 0 14.54c0 8.018 6.499 14.54 14.487 14.54 7.989 0 14.488-6.522 14.488-14.54a14.6 14.6 0 00-.514-3.847h-2.658z"/><path fill-rule="evenodd" clip-rule="evenodd" d="M19.739 14.099c.77-.422 1.232-1.181 1.232-2.04 0-1.616-1.358-2.642-3.515-2.642-2.13 0-3.502.997-3.502 2.572 0 .858.53 1.646 1.359 2.109-1.135.45-1.864 1.405-1.864 2.532 0 1.742 1.57 2.854 4.02 2.854 2.452 0 4.02-1.126 4.02-2.896 0-1.098-.67-2.04-1.75-2.49zm-2.27 3.57c-1.078 0-1.666-.463-1.666-1.293 0-.816.588-1.28 1.666-1.28 1.08 0 1.682.464 1.682 1.28 0 .844-.604 1.294-1.682 1.294zm0-4.372c-.91 0-1.414-.394-1.414-1.097 0-.73.504-1.139 1.414-1.139.912 0 1.415.409 1.415 1.14 0 .702-.505 1.096-1.415 1.096z"/><path d="M9.109 11.525v7.845h2.493V9.514h-4.3v2.011h1.807zM24.92 1.104v2.77h2.76v1.993h-2.76v2.77h-1.985v-2.77h-2.744V3.875h2.744V1.103h1.985z"/></g></svg>