<svg width="91" height="29" fill="none" xmlns="http://www.w3.org/2000/svg"><path opacity=".5" fill-rule="evenodd" clip-rule="evenodd" d="M.975 1.33v-.106l.15-.71h12.378c1.576 0 2.996 1.046 3.355 2.858l3.062 16.232L27.49.514h7.641L23.346 28.562h-7.689l-5.8-22.386C9.505 4.8 9.2 4.293 8.13 3.713 6.385 2.77 3.51 1.883.975 1.331zm46.531 7.941C47.546 3.813 52.607 0 59.796 0c2.804 0 5.055.61 6.806 1.243L65.324 7.19c-3.255-1.494-6.13-1.39-7.171-1.253-2.103.273-3.062 1.343-3.086 2.348-.07 3.308 10.224 3.716 10.192 11.118C65.234 25.236 60.237 29 52.594 29c-3.252-.033-6.39-.711-8.088-1.49l1.316-6.146c1.692.786 3.815 1.829 7.47 1.772 2.095-.032 4.334-.863 4.355-2.746.01-1.228-.94-2.11-3.771-3.485-2.758-1.343-6.418-3.594-6.37-7.634zM78.895.513h6.207l5.873 28.05h-6.728l-.879-4.191h-9.331l-1.517 4.19h-7.638L75.797 2.57A3.31 3.31 0 0178.895.513zm1.066 7.579l-3.83 10.531h6.034L79.96 8.092zM38.255.513h7.271l-6.015 28.05h-7.274L38.254.512z" fill="#fff"/></svg>