<svg width="240" height="29" fill="none" xmlns="http://www.w3.org/2000/svg"><g opacity=".5" fill="#fff"><path fill-rule="evenodd" clip-rule="evenodd" d="M.975 1.33v-.106l.15-.71h12.429c1.582 0 3.008 1.046 3.368 2.858l3.075 16.232L27.598.514h7.672L23.437 28.562h-7.72L9.894 6.177C9.54 4.8 9.234 4.293 8.159 3.713 6.408 2.77 3.52 1.883.975 1.331zm46.72 7.941C47.736 3.813 52.818 0 60.036 0c2.816 0 5.076.61 6.834 1.243L65.586 7.19c-3.269-1.494-6.155-1.39-7.2-1.253-2.112.273-3.075 1.343-3.099 2.348-.07 3.308 10.265 3.716 10.233 11.118C65.496 25.236 60.478 29 52.804 29c-3.266-.034-6.416-.711-8.121-1.49l1.322-6.146c1.698.786 3.83 1.829 7.5 1.772 2.103-.032 4.352-.863 4.373-2.746.01-1.228-.944-2.11-3.787-3.485-2.769-1.343-6.444-3.594-6.395-7.634zM79.212.513h6.233l5.897 28.05h-6.755l-.883-4.191h-9.369l-1.523 4.19h-7.669L76.102 2.57a3.323 3.323 0 013.11-2.057zm1.071 7.579l-3.845 10.531h6.058L80.282 8.092zM38.406.513h7.302l-6.04 28.05h-7.304L38.406.512z"/><path d="M103.962 8.528c0-1.677.407-3.096 1.223-4.261.815-1.164 1.926-2.042 3.335-2.637 1.409-.593 2.998-.89 4.766-.89 1.98 0 3.557.192 4.734.575 1.175.385 2.077.776 2.706 1.17l.315 4.402h-.106c-.582-.489-1.297-.92-2.147-1.293a15.365 15.365 0 00-2.706-.889 12.445 12.445 0 00-2.83-.333c-1.467 0-2.654.238-3.562.717-.908.477-1.362 1.309-1.362 2.496 0 .908.215 1.619.646 2.13.43.514 1.077.932 1.939 1.258.86.326 1.932.664 3.212 1.013 1.211.325 2.346.658 3.406.996 1.058.337 1.984.78 2.776 1.327a5.711 5.711 0 011.868 2.165c.455.896.681 2.043.681 3.44 0 2.7-.879 4.768-2.637 6.199s-4.22 2.148-7.386 2.148a18.44 18.44 0 01-4.784-.647c-1.607-.43-2.911-1.007-3.913-1.728l-.278-4.436h.104c1.164.978 2.562 1.747 4.191 2.305a15.09 15.09 0 004.925.838c3.515 0 5.273-1.21 5.273-3.632 0-.86-.198-1.56-.593-2.096-.397-.535-1.037-.983-1.921-1.343-.885-.361-2.038-.728-3.458-1.101a46.294 46.294 0 01-3.178-.977 10.802 10.802 0 01-2.689-1.364 5.906 5.906 0 01-1.869-2.164c-.453-.886-.681-2.014-.681-3.388zm22.387 19.242V1.229h17.113V5.07h-12.433v7.089h9.814v3.702h-9.814v8.068h12.433v3.842h-17.113zm24.202-13.27c0 2.002.367 3.75 1.1 5.24.733 1.49 1.787 2.642 3.161 3.458 1.374.814 3.026 1.221 4.96 1.221 1.978 0 3.62-.297 4.925-.89a11.94 11.94 0 003.422-2.323h.104l-.489 4.646c-1.025.698-2.235 1.273-3.632 1.728-1.397.455-3.027.68-4.889.68-2.096 0-3.976-.354-5.64-1.063-1.666-.712-3.087-1.689-4.261-2.935-1.177-1.246-2.073-2.707-2.69-4.383-.617-1.677-.926-3.47-.926-5.378 0-1.932.309-3.73.926-5.397a12.71 12.71 0 012.69-4.365c1.174-1.245 2.589-2.223 4.243-2.934 1.653-.71 3.515-1.065 5.588-1.065 1.862 0 3.469.192 4.819.576 1.351.384 2.503.937 3.459 1.66l.489 4.75h-.106a11.269 11.269 0 00-3.457-2.288c-1.328-.57-2.877-.856-4.645-.856-1.933 0-3.58.407-4.942 1.222s-2.405 1.967-3.125 3.458c-.722 1.49-1.084 3.237-1.084 5.239zm32.446 9.778c2.397 0 4.143-.517 5.238-1.553 1.094-1.037 1.642-2.8 1.642-5.292V1.228h3.912v16.45c0 3.725-.939 6.42-2.813 8.085-1.874 1.665-4.604 2.497-8.189 2.497-3.563 0-6.332-.827-8.312-2.48-1.979-1.653-2.969-4.352-2.969-8.102V1.228h4.68v16.1c0 2.492.529 4.273 1.59 5.345 1.058 1.07 2.798 1.605 5.221 1.605zM208.318 4.93h-5.274v8.94h5.274c1.698 0 2.927-.366 3.682-1.099.759-.734 1.137-1.856 1.137-3.37s-.378-2.637-1.137-3.37c-.755-.734-1.984-1.1-3.682-1.1zm-9.954 22.84V1.229h11.212c1.744 0 3.254.35 4.523 1.048 1.268.698 2.24 1.658 2.916 2.88.674 1.224 1.012 2.604 1.012 4.14 0 1.816-.501 3.4-1.502 4.749-1.001 1.35-2.362 2.248-4.087 2.69l6.812 11.036h-5.379l-6.148-10.408h-4.679v10.408h-4.68zm24.376 0V1.229h17.114V5.07h-12.432v7.089h9.814v3.702h-9.814v8.068h12.432v3.842H222.74z"/></g></svg>