<svg width="151" height="29" fill="none" xmlns="http://www.w3.org/2000/svg"><path d="M29.738 3.004H17.442v22.097h12.296V3.004z" fill="#FF5F00"/><path d="M18.224 14.053A14.025 14.025 0 0123.59 3.004a14.054 14.054 0 100 22.097 14.028 14.028 0 01-5.366-11.048z" fill="#EB001B"/><path d="M46.327 14.053a14.058 14.058 0 01-7.91 12.64A14.052 14.052 0 0123.59 25.1a14.059 14.059 0 003.955-17.19 14.052 14.052 0 00-3.955-4.907 14.053 14.053 0 0122.737 11.049z" fill="#F79E1B"/><path d="M44.986 22.761v-.452h.183v-.092h-.465v.092h.183v.452h.1zm.902 0v-.545h-.143l-.163.375-.164-.375h-.142v.545h.1v-.411l.153.355h.105l.154-.356v.412h.1z" fill="#fff"/><path opacity=".5" d="M56.327 22.575h-1.46V5.816h1.46v16.76zM66.98 5.816c1.281-.018 2.557.18 3.771.587a8.02 8.02 0 012.85 1.676 7.35 7.35 0 011.806 2.64 9.843 9.843 0 010 6.954 7.35 7.35 0 01-1.807 2.64 8.017 8.017 0 01-2.849 1.676c-1.214.407-2.49.605-3.77.586h-6.118V5.816h6.117zm-4.657 1.389v13.982h4.657a9.648 9.648 0 003.232-.497 6.54 6.54 0 002.358-1.407 5.855 5.855 0 001.45-2.202 8.74 8.74 0 000-5.77 5.917 5.917 0 00-1.45-2.209 6.437 6.437 0 00-2.358-1.406 9.76 9.76 0 00-3.232-.491h-4.657zm30.694-1.58c.701-.002 1.4.078 2.083.24a8.388 8.388 0 011.885.688 7.489 7.489 0 011.592 1.083c.472.419.88.902 1.215 1.436l-1.22.814a5.925 5.925 0 00-1.024-1.185 6.439 6.439 0 00-1.305-.898c-.486-.25-1-.442-1.532-.568a7.213 7.213 0 00-1.694-.198 7.432 7.432 0 00-2.784.515 6.643 6.643 0 00-2.238 1.46 6.832 6.832 0 00-1.496 2.263 8.107 8.107 0 000 5.842 6.833 6.833 0 001.496 2.262 6.637 6.637 0 002.238 1.46 7.428 7.428 0 002.784.516 7.348 7.348 0 001.688-.192 6.44 6.44 0 002.832-1.46 5.77 5.77 0 001.022-1.198l1.198.874a7.109 7.109 0 01-1.24 1.413c-.48.419-1.01.777-1.58 1.065-.59.3-1.215.527-1.861.677a9.358 9.358 0 01-5.465-.401 8.197 8.197 0 01-2.723-1.766 8.076 8.076 0 01-1.802-2.706 9.513 9.513 0 010-6.925 8.077 8.077 0 011.802-2.711 8.197 8.197 0 012.723-1.766 9.028 9.028 0 013.406-.634zm11.264 7.637c.214-.355.478-.678.785-.958.291-.266.62-.49.975-.664.35-.171.72-.3 1.101-.383a5.357 5.357 0 011.149-.126c.657-.007 1.309.1 1.928.317a4.343 4.343 0 011.502.904c.425.4.756.888.97 1.43.234.601.35 1.242.342 1.886v6.907h-1.365v-6.488a4.612 4.612 0 00-.24-1.532 3.064 3.064 0 00-.706-1.155 3.115 3.115 0 00-1.137-.725 4.352 4.352 0 00-1.533-.25 4.016 4.016 0 00-1.478.268 3.546 3.546 0 00-1.198.767c-.343.337-.615.74-.801 1.185-.2.48-.3.995-.294 1.514v6.416h-1.364V5.337h1.364v7.925zm16.867-2.13a5.12 5.12 0 012.089.424 4.948 4.948 0 011.664 1.185 5.67 5.67 0 011.108 1.82 6.591 6.591 0 01.395 2.88h-9.446c.036.604.184 1.197.437 1.747.23.49.553.932.952 1.299.392.355.849.63 1.347.808a4.72 4.72 0 001.622.275 5.01 5.01 0 002.12-.431 5.968 5.968 0 001.687-1.173l.73.933a6.675 6.675 0 01-1.095.898 5.88 5.88 0 01-1.138.575 5.61 5.61 0 01-1.179.3 8.7 8.7 0 01-1.209.083 5.955 5.955 0 01-2.274-.425 5.296 5.296 0 01-1.796-1.191 5.37 5.37 0 01-1.173-1.832 6.375 6.375 0 01-.419-2.358c-.009-.8.136-1.594.425-2.34a5.557 5.557 0 011.173-1.844 5.296 5.296 0 011.772-1.203c.7-.29 1.451-.437 2.208-.43zm-.023 1.208a3.952 3.952 0 00-2.826 1.107 4.197 4.197 0 00-.879 1.24 4.915 4.915 0 00-.437 1.58h8.056a4.855 4.855 0 00-.395-1.598 4.03 4.03 0 00-.845-1.24 3.744 3.744 0 00-2.674-1.089zm13.155-1.209a5.962 5.962 0 012.328.45 4.973 4.973 0 011.825 1.298l-.884.922a4.913 4.913 0 00-1.479-1.024 4.44 4.44 0 00-1.826-.365 4.317 4.317 0 00-1.718.341 4.221 4.221 0 00-2.299 2.382 5.17 5.17 0 000 3.628 4.203 4.203 0 002.299 2.37c.544.23 1.129.346 1.718.341a4.42 4.42 0 001.85-.383 5.136 5.136 0 001.49-1.017l.849.933a5.092 5.092 0 01-1.831 1.3 6.287 6.287 0 01-4.651.005 5.44 5.44 0 01-3.016-3.058 6.473 6.473 0 010-4.615 5.43 5.43 0 013.016-3.065 5.983 5.983 0 012.329-.443zm8.26 4.932h1.831l4.741-4.752h1.723l-5.362 5.315 5.458 5.95h-1.735l-4.825-5.28h-1.831v5.28h-1.366V5.336h1.366v10.726z" fill="#fff"/></svg>