<svg width="104" height="29" fill="none" xmlns="http://www.w3.org/2000/svg"><path opacity=".5" d="M12 .194V0h8v19.333C20 24.672 15.523 29 10 29S0 24.672 0 19.333h8c0 1.068.895 1.934 2 1.934s2-.866 2-1.934V.193zm28.887 10.185c.885.926 1.568 2.052 2.03 3.347.453 1.276.683 2.72.683 4.292 0 .378-.014.72-.043 1.02-.042.416-.081.6-.16.755l-.221.43H29.339c.068.306.17.595.302.864.25.504.582.947.988 1.319.405.37.88.662 1.41.87a4.695 4.695 0 001.72.31c1.211 0 2.133-.255 2.74-.76l.324-.27 5.864 1.58-.625.89A8.867 8.867 0 0140 27.106a9.905 9.905 0 01-2.787 1.39c-1.037.335-2.199.504-3.453.504-1.425 0-2.801-.246-4.09-.73a10.07 10.07 0 01-3.432-2.142c-.978-.931-1.77-2.082-2.355-3.42C23.297 21.37 23 19.83 23 18.135c0-1.59.283-3.056.84-4.357.558-1.297 1.321-2.428 2.27-3.359a10.364 10.364 0 013.294-2.178 10.04 10.04 0 013.876-.779c1.59 0 3.043.253 4.32.753 1.291.505 2.397 1.233 3.287 2.164zm-11.362 5.01H37.2a4.228 4.228 0 00-.167-.515 3.035 3.035 0 00-.719-1.065 3.681 3.681 0 00-1.217-.759c-.488-.193-1.086-.29-1.777-.29-.604 0-1.148.101-1.617.301a3.831 3.831 0 00-1.209.797 4.116 4.116 0 00-.969 1.531zm49.565-4.854a10.312 10.312 0 012.292 3.404c.543 1.3.818 2.738.818 4.273 0 1.534-.275 2.978-.817 4.289a10.25 10.25 0 01-2.293 3.426 10.706 10.706 0 01-3.457 2.258c-1.321.54-2.785.815-4.353.815-1.54 0-2.996-.274-4.33-.814a10.417 10.417 0 01-3.464-2.263 10.397 10.397 0 01-2.269-3.422c-.542-1.31-.817-2.753-.817-4.29 0-1.536.276-2.973.818-4.272a10.447 10.447 0 012.268-3.4 10.42 10.42 0 013.465-2.262c1.333-.54 2.79-.815 4.329-.815 1.568 0 3.032.275 4.352.816 1.319.54 2.481 1.3 3.458 2.257zm-3.558 9.993c.258-.656.388-1.436.388-2.316 0-.88-.13-1.65-.386-2.293a4.663 4.663 0 00-1.027-1.595 4.107 4.107 0 00-1.456-.94 5.036 5.036 0 00-1.771-.315 5.03 5.03 0 00-1.77.315 3.92 3.92 0 00-1.43.933c-.422.43-.77.972-1.038 1.613-.267.639-.402 1.406-.402 2.282 0 .877.135 1.653.404 2.305.267.652.615 1.2 1.036 1.628.413.421.898.743 1.442.957.553.219 1.145.33 1.758.33.612 0 1.204-.111 1.758-.33a4.334 4.334 0 001.469-.964c.427-.424.772-.966 1.025-1.61zm27.992-7.922c.316.974.476 2.027.476 3.131V28.42h-6.24V16.51c0-.99-.253-1.834-.75-2.508-.445-.602-1.247-.894-2.45-.894-1.078 0-1.858.324-2.383.99-.577.732-.857 1.61-.857 2.683V28.42h-6.24V8.043h6.12v1.124a6.183 6.183 0 011.4-.877 8.589 8.589 0 013.56-.789c1.31 0 2.47.219 3.452.65.988.434 1.819 1.047 2.469 1.82a7.875 7.875 0 011.443 2.634zM56.541 23.07c.402-.048.518-.072.544-.079l.995-.242v5.227l-.502.195c-.113.044-.326.116-.973.281-.526.135-1.234.2-2.165.2-2.021 0-3.649-.568-4.838-1.69-1.196-1.125-1.802-2.703-1.802-4.69v-8.7h-2.4v-5.53h2.4v-5.76H54v5.76h4.04v5.53H54v7.965c0 .595.123 1.025.356 1.242.24.224.698.343 1.324.343.285 0 .575-.017.861-.052z" fill="#fff"/></svg>