<svg width="33" height="28" fill="none" xmlns="http://www.w3.org/2000/svg"><path d="M32.6 21.432H0V28h32.6v-6.568z" fill="#D3D3D3"/><path fill-rule="evenodd" clip-rule="evenodd" d="M32.583 18.67v-1.714c-.047-.49-.122-.976-.223-1.458a14.765 14.765 0 00-7.89-10.032L26.958.87a.585.585 0 00-.231-.797.587.587 0 00-.798.231l-2.52 4.733a18.143 18.143 0 00-14.217.035L6.654.322a.587.587 0 10-1.03.565l2.505 4.63a14.85 14.85 0 00-7.735 9.38A13.101 13.101 0 000 18.123v.497l32.583.052zM23.717 8.468a1.544 1.544 0 11.034 3.087 1.544 1.544 0 01-.034-3.087zm-15.245 0a1.543 1.543 0 11.034 3.087 1.543 1.543 0 01-.034-3.087z" fill="#D3D3D3"/></svg>