<svg xmlns="http://www.w3.org/2000/svg" xmlns:xlink="http://www.w3.org/1999/xlink"><symbol id="social-1" viewBox="0 0 41 42">
<g id="fb">
<path id="Vector" d="M20.4134 41.404C31.6874 41.404 40.8268 32.2646 40.8268 20.9906C40.8268 9.71655 31.6874 0.577148 20.4134 0.577148C9.1394 0.577148 0 9.71655 0 20.9906C0 32.2646 9.1394 41.404 20.4134 41.404Z" fill="currentColor"/>
<path id="Vector_2" class="inner" d="M16.8445 13.4073C16.8445 14.0336 16.8445 16.8308 16.8445 16.8308H14.3364V21.0173H16.8445V33.4568H21.9967V21.0173H25.454C25.454 21.0173 25.7779 19.0095 25.9346 16.815C25.4846 16.815 22.0163 16.815 22.0163 16.815C22.0163 16.815 22.0163 14.3792 22.0163 13.9524C22.0163 13.5249 22.5778 12.9496 23.1332 12.9496C23.6876 12.9496 24.8574 12.9496 25.9404 12.9496C25.9404 12.379 25.9404 10.4099 25.9404 8.59131C24.4944 8.59131 22.8493 8.59131 22.1237 8.59131C16.717 8.59105 16.8445 12.7814 16.8445 13.4073Z" fill="#fff" style="fill: var(--primary-color)"/>
</g>
</symbol><symbol id="social-2" viewBox="0 0 42 42">
<g id="quora">
<path id="Vector" d="M21.2403 41.404C32.5143 41.404 41.6537 32.2646 41.6537 20.9906C41.6537 9.71655 32.5143 0.577148 21.2403 0.577148C9.9663 0.577148 0.826904 9.71655 0.826904 20.9906C0.826904 32.2646 9.9663 41.404 21.2403 41.404Z" fill="currentColor"/>
<path id="Vector_2" d="M21.9562 27.9252C21.1592 26.2373 20.2218 24.5268 18.396 24.5268C18.0348 24.5224 17.6764 24.5969 17.3427 24.7458L16.7213 23.4091C17.4761 22.7106 18.698 22.1631 20.2323 22.1631C22.6724 22.1631 23.9259 23.428 24.923 25.0441C25.5129 23.6659 25.7937 21.8044 25.7937 19.4935C25.7937 13.7314 24.119 10.8088 20.2042 10.8088C16.3421 10.8088 14.6814 13.7692 14.6814 19.4935C14.6814 25.2178 16.3491 28.1517 20.2042 28.1517C20.7711 28.1598 21.3362 28.081 21.8825 27.9176L21.9562 27.9252ZM22.9112 29.9377C22.0524 30.1859 21.1672 30.3128 20.2779 30.3153C15.1413 30.3191 10.11 25.9088 10.11 19.4973C10.11 13.0291 15.1413 8.62256 20.2779 8.62256C25.4988 8.62256 30.4739 13.0026 30.4739 19.4973C30.4869 21.1312 30.1463 22.7459 29.479 24.2139C28.8118 25.6818 27.8362 26.9628 26.6294 27.9554C27.3316 29.141 28.125 29.9302 29.1819 29.9302C30.3335 29.9302 30.7969 28.9711 30.8777 28.2197H32.3804C32.4682 29.2203 32.0012 33.3776 27.8055 33.3776C25.2636 33.3776 23.9189 31.7955 22.9112 29.9377Z" fill="#fff" style="fill: var(--primary-color)"/>
</g>
</symbol><symbol id="social-3" viewBox="0 0 42 42">
<g id="twitter">
<path id="Vector" d="M21.0672 41.404C32.3412 41.404 41.4806 32.2646 41.4806 20.9906C41.4806 9.71655 32.3412 0.577148 21.0672 0.577148C9.7932 0.577148 0.653809 9.71655 0.653809 20.9906C0.653809 32.2646 9.7932 41.404 21.0672 41.404Z" fill="currentColor"/>
<path id="Vector_2" d="M9.77188 8.62256L19.1036 22.1249L9.31805 33.3776H11.4039L20.0279 23.4608L26.8814 33.3776H33.4542L23.6893 19.2493L32.9312 8.62256H30.8467L22.7662 17.9133L16.3447 8.62256H9.77188Z" fill="#fff" style="fill: var(--primary-color)"/>
</g>
</symbol><symbol id="social-4" viewBox="0 0 42 42">
<g id="linkedin">
<path id="Vector" d="M20.9036 41.423C32.1829 41.423 41.3266 32.2794 41.3266 21.0001C41.3266 9.72081 32.1829 0.577148 20.9036 0.577148C9.62437 0.577148 0.480713 9.72081 0.480713 21.0001C0.480713 32.2794 9.62437 41.423 20.9036 41.423Z" fill="currentColor"/>
<path id="Vector_2" d="M33.9001 23.7998V33.3776H28.3293V24.4413C28.3293 22.1967 27.5229 20.6643 25.5069 20.6643C23.9668 20.6643 23.0511 21.6968 22.6477 22.6951C22.5009 23.0524 22.4631 23.549 22.4631 24.049V33.3773H16.8912C16.8912 33.3773 16.9657 18.2421 16.8912 16.6745H22.4628V19.0417C22.4525 19.0592 22.437 19.0787 22.4268 19.0959H22.4628V19.0417C23.203 17.9055 24.5254 16.2817 27.4845 16.2817C31.1518 16.2821 33.9001 18.6694 33.9001 23.7998ZM11.0607 8.62256C9.1548 8.62256 7.90723 9.86923 7.90723 11.5077C7.90723 13.1115 9.11795 14.3952 10.987 14.3952H11.0246C12.9673 14.3952 14.1764 13.1115 14.1764 11.5077C14.1396 9.86912 12.9674 8.62256 11.0607 8.62256ZM8.2379 33.3775H13.8086V16.6748H8.2379V33.3775Z" fill="#fff" style="fill: var(--primary-color)"/>
</g>
</symbol><symbol id="social-5" viewBox="0 0 42 42">
<g id="reddit">
<path id="Vector" d="M20.7401 41.404C32.0141 41.404 41.1535 32.2646 41.1535 20.9906C41.1535 9.71655 32.0141 0.577148 20.7401 0.577148C9.46606 0.577148 0.32666 9.71655 0.32666 20.9906C0.32666 32.2646 9.46606 41.404 20.7401 41.404Z" fill="currentColor"/>
<g id="Group">
<path id="Vector_2" d="M34.4505 19.8146C34.4505 17.8771 32.8799 16.3065 30.9424 16.3065C29.9721 16.3065 29.0955 16.7021 28.4606 17.3389C26.4988 16.0737 23.9925 15.2673 21.2399 15.1416C21.2416 13.9728 21.7651 12.8833 22.6769 12.1518C23.5903 11.4191 24.77 11.1447 25.9127 11.3985L26.0696 11.4334C26.0681 11.4727 26.0637 11.5112 26.0637 11.551C26.0637 13.1683 27.3748 14.4794 28.9921 14.4794C30.6094 14.4794 31.9205 13.1683 31.9205 11.551C31.9205 9.9336 30.6094 8.62256 28.9921 8.62256C27.9522 8.62256 27.0412 9.16617 26.5217 9.98314L26.241 9.92079C24.6476 9.56675 23.0031 9.94953 21.7297 10.9711C20.4578 11.9914 19.7279 13.5113 19.7262 15.1416C16.9743 15.2673 14.4684 16.0732 12.5068 17.3379C11.8719 16.7009 10.994 16.3065 10.0235 16.3065C8.08607 16.3065 6.51544 17.8771 6.51544 19.8146C6.51544 21.1645 7.2793 22.334 8.3972 22.9204C8.3123 23.3547 8.26764 23.7987 8.26764 24.2507C8.26764 29.2913 13.7366 33.3776 20.4829 33.3776C27.2293 33.3776 32.6982 29.2913 32.6982 24.2507C32.6982 23.799 32.6536 23.3552 32.5688 22.9211C33.6868 22.3345 34.4505 21.1646 34.4505 19.8146ZM28.9921 10.1363C29.7722 10.1363 30.4069 10.7709 30.4069 11.551C30.4069 12.3311 29.7722 12.9657 28.9921 12.9657C28.212 12.9657 27.5774 12.3311 27.5774 11.551C27.5774 10.7709 28.2121 10.1363 28.9921 10.1363ZM8.02912 19.8146C8.02912 18.7149 8.92377 17.8202 10.0235 17.8202C10.4945 17.8202 10.9268 17.9852 11.2679 18.2595C10.2009 19.1749 9.37494 20.2508 8.86208 21.4322C8.35839 21.0705 8.02912 20.4809 8.02912 19.8146ZM28.2145 29.4918C26.1672 31.0214 23.4214 31.8639 20.483 31.8639C17.5446 31.8639 14.7988 31.0214 12.7515 29.4918C10.8362 28.0607 9.78138 26.1994 9.78138 24.2507C9.78138 22.3019 10.8362 20.4405 12.7515 19.0095C14.7988 17.4798 17.5446 16.6374 20.483 16.6374C23.4214 16.6374 26.1672 17.4798 28.2145 19.0095C30.1298 20.4405 31.1846 22.3019 31.1846 24.2507C31.1846 26.1994 30.1298 28.0607 28.2145 29.4918ZM32.1034 21.4313C31.5904 20.2501 30.7645 19.1745 29.6977 18.2593C30.0388 17.9849 30.4714 17.8202 30.9425 17.8202C32.0422 17.8202 32.9368 18.7149 32.9368 19.8146C32.9368 20.4808 32.6071 21.0697 32.1034 21.4313Z" fill="#fff" style="fill: var(--primary-color)"/>
<path id="Vector_3" d="M16.0212 23.7165C16.9034 23.7165 17.6185 23.0014 17.6185 22.1193C17.6185 21.2371 16.9034 20.522 16.0212 20.522C15.1391 20.522 14.424 21.2371 14.424 22.1193C14.424 23.0014 15.1391 23.7165 16.0212 23.7165Z" fill="#fff" style="fill: var(--primary-color)"/>
<path id="Vector_4" d="M24.9445 23.7165C25.8267 23.7165 26.5418 23.0014 26.5418 22.1193C26.5418 21.2371 25.8267 20.522 24.9445 20.522C24.0624 20.522 23.3472 21.2371 23.3472 22.1193C23.3472 23.0014 24.0624 23.7165 24.9445 23.7165Z" fill="#fff" style="fill: var(--primary-color)"/>
<path id="Vector_5" d="M24.2679 26.0007C23.142 27.0265 21.6823 27.5915 20.1578 27.5915C18.446 27.5915 16.8599 26.9016 15.6919 25.6489C15.4069 25.3431 14.928 25.3265 14.6222 25.6116C14.3165 25.8966 14.2998 26.3755 14.5849 26.6812C16.0212 28.2216 18.0525 29.1051 20.1578 29.1051C22.0604 29.1051 23.8821 28.3999 25.2874 27.1195C25.5963 26.838 25.6187 26.3593 25.3371 26.0504C25.0557 25.7416 24.5773 25.719 24.2679 26.0007Z" fill="#fff" style="fill: var(--primary-color)"/>
</g>
</g>
</symbol><symbol id="warning-1" viewBox="0 0 128 40">
<path d="M6.84101 0H121.159C123.095 0 124.773 0.836461 126.064 1.93029C127.118 3.21716 128 4.91153 128 6.82038V33.1796C128 35.1099 127.161 36.7828 126.064 38.0697C124.773 39.3566 123.074 40 121.159 40H6.84101C4.90487 40 3.22689 39.3566 1.93613 38.0697C0.882017 36.7828 0 35.0885 0 33.1796V6.82038C0 4.89008 0.838992 3.21716 1.93613 1.93029C3.22689 0.879356 4.92639 0 6.84101 0ZM121.159 1.69437H6.84101C5.35664 1.69437 4.06588 2.3378 3.22689 3.17426C2.3879 4.01072 1.74252 5.29759 1.74252 6.77748V33.1367C1.74252 34.6166 2.3879 35.9035 3.22689 36.7399C4.06588 37.7909 5.35664 38.2198 6.84101 38.2198H121.159C122.643 38.2198 123.934 37.7909 124.773 36.7399C125.612 35.9035 126.257 34.6166 126.257 33.1367V6.82038C126.257 5.34048 125.612 4.05362 124.773 3.21716C123.934 2.3807 122.643 1.73727 121.159 1.73727V1.69437ZM46.5318 15.2922H47.8225V11.4745H48.8766C49.9308 11.4745 50.361 12.118 50.5761 13.1689C50.7913 14.4558 51.0064 15.0992 51.2215 15.2922H52.5123C52.2971 15.0777 52.082 14.2413 51.6733 12.9544C51.4582 12.118 51.243 11.4745 50.3825 11.0241C51.4366 10.8097 52.082 9.97319 52.082 8.68633C52.082 8.0429 51.8669 7.39946 51.4366 6.99196C50.7913 6.563 50.1459 6.34853 48.8766 6.34853C48.0376 6.34853 47.1771 6.34853 46.5318 6.563V15.2708V15.2922ZM47.801 7.42091C48.0161 7.20643 48.2313 7.20643 48.8551 7.20643C50.1459 7.20643 50.9849 7.84987 50.9849 8.9008C50.9849 9.95174 50.1459 10.5952 48.8551 10.5952H47.801V7.42091ZM58.4713 10.1877H54.8571V7.42091H58.6864V6.36997H53.7815V15.2922H58.9015V14.4558H54.8356V11.2815H58.4498V10.2306L58.4713 10.1877ZM59.762 14.8847C60.4074 15.3137 61.2464 15.5282 62.1069 15.5282C64.2366 15.5282 65.2908 14.2413 65.2908 12.9759C65.2908 11.7105 64.4518 10.8525 62.9459 10.4236C61.6551 9.78016 61.2464 9.37265 61.2464 8.4933C61.2464 8.06434 61.6766 7.20643 62.9459 7.20643C63.7849 7.20643 64.2366 7.42091 64.6454 7.63539L64.8605 6.79893C64.4303 6.58445 63.8064 6.36997 62.9244 6.36997C61.2249 6.36997 59.9341 7.42091 59.9341 8.70777C59.9341 9.99464 60.9882 10.8311 62.279 11.2601C63.5698 11.689 63.9785 12.0965 63.9785 12.9544C63.9785 14.0054 63.3331 14.6488 62.279 14.6488C61.44 14.6488 60.5795 14.2198 60.1492 14.0054L59.719 14.8418L59.762 14.8847ZM66.7966 15.2922H68.0874V11.882H68.9264C69.9805 11.882 71.0561 11.4531 71.7015 10.8311C72.1318 10.4021 72.3469 9.78016 72.3469 8.9008C72.3469 8.25737 72.1318 7.61394 71.7015 7.20643C71.0561 6.563 70.2171 6.36997 69.1415 6.36997C68.0659 6.36997 67.442 6.36997 66.7966 6.58445V15.2922ZM68.0874 7.42091C68.3025 7.42091 68.7328 7.20643 69.1415 7.20643C70.4323 7.20643 71.2713 7.84987 71.2713 9.13673C71.2713 10.1877 70.4323 11.067 68.9264 11.067C68.4961 11.067 68.281 10.8525 68.0874 10.8525V7.44236V7.42091ZM77.682 6.36997C75.122 6.36997 73.4225 8.06434 73.4225 11.067C73.4225 13.8338 75.122 15.5282 77.4884 15.5282C79.8548 15.5282 81.7479 13.8338 81.7479 10.8311C81.7479 8.06434 80.0484 6.36997 77.682 6.36997ZM77.4669 7.20643C79.403 7.20643 80.4572 9.13673 80.4572 10.8097C80.4572 12.933 79.403 14.6273 77.4669 14.6273C75.7674 14.6273 74.6918 12.933 74.6918 11.0241C74.6918 8.9008 75.5308 7.20643 77.4669 7.20643ZM84.2864 15.2922V11.4745C84.2864 9.99464 84.2864 8.92225 84.0713 7.87131C84.7166 8.92225 85.1254 9.80161 85.7708 10.8525L88.761 15.3137H89.8151V6.39142H88.761V10.2091C88.761 11.689 88.761 12.7614 88.9761 13.8123C88.5459 12.9759 87.922 12.118 87.2766 11.0456L84.5015 6.34853H83.2108V15.2708H84.2649L84.2864 15.2922ZM91.5361 14.8633C91.9664 15.2922 92.8269 15.5067 93.6659 15.5067C95.7956 15.5067 96.8498 14.2198 96.8498 12.9544C96.8498 11.689 96.0108 10.8311 94.5049 10.4021C93.2141 9.75871 92.8054 9.35121 92.8054 8.47185C92.8054 8.0429 93.2356 7.18499 94.5049 7.18499C95.3439 7.18499 95.7956 7.39946 96.2044 7.61394L96.4195 6.77748C95.9893 6.563 95.3654 6.34853 94.4834 6.34853C92.7839 6.34853 91.4931 7.39946 91.4931 8.68633C91.4931 9.97319 92.5472 10.8097 94.0531 11.2386C95.1072 11.6676 95.5375 12.0751 95.5375 12.933C95.5375 13.9839 94.8921 14.6273 93.838 14.6273C92.999 14.6273 92.1385 14.1984 91.7082 13.9839L91.4931 14.8204H91.5361V14.8633ZM98.3771 6.34853V15.2708H99.6679V6.34853H98.3771ZM101.561 15.2922C101.991 15.5067 102.615 15.5067 103.497 15.5067C104.982 15.5067 105.842 15.2922 106.487 14.6702C106.918 14.2413 107.326 13.6193 107.326 12.7399C107.326 11.4531 106.272 10.8097 105.39 10.6166C106.444 10.1877 106.875 9.56568 106.875 8.68633C106.875 7.80697 106.66 7.39946 106.229 6.99196C105.584 6.563 104.938 6.34853 103.669 6.34853C102.83 6.34853 102.185 6.34853 101.54 6.563V15.2708L101.561 15.2922ZM102.852 7.42091C103.067 7.20643 103.282 7.20643 103.906 7.20643C104.96 7.20643 105.842 7.63539 105.842 8.68633C105.842 9.52279 105.003 10.1662 103.906 10.1662H102.852V7.39946V7.42091ZM102.852 11.0241H103.691C104.982 11.0241 106.036 11.6676 106.036 12.7185C106.036 14.0054 104.982 14.6488 103.691 14.6488C103.261 14.6488 103.045 14.4343 102.852 14.4343V11.0241ZM108.811 15.2708H113.931V14.4343H110.102V6.36997H108.811V15.2922V15.2708ZM119.696 10.1448H116.276V7.37802H119.89V6.32708H115.178V15.2493H120.083V14.4129H116.254V11.2386H119.675V10.1877L119.696 10.1448ZM56.9869 24.622H51.8669V27.3887H53.9966V30.563C53.7815 30.7775 53.1576 30.7775 52.5123 30.7775C49.9523 30.7775 48.2528 28.8472 48.2528 25.8874C48.2528 22.4772 50.1889 20.7828 52.7274 20.7828C54.2118 20.7828 55.0723 21.2118 55.9113 21.6193L56.5566 18.8525C55.9113 18.4236 54.4269 18.0161 52.7274 18.0161C48.2528 18.0161 45.0474 20.9973 45.0474 25.8874C45.0474 28.2252 45.6928 30.134 46.9835 31.6354C48.2743 32.9223 49.9738 33.5657 52.5338 33.5657C54.2333 33.5657 56.1479 33.1367 57.0084 32.7292V24.622H56.9869ZM66.3664 29.5121L67.4205 33.3298H70.6044L66.5385 18.2306H62.4726L58.4067 33.3298H61.397L62.4511 29.5121H66.3018H66.3664ZM62.9459 26.9598L63.7849 23.7855C64 22.9491 64.2151 21.6622 64.4303 20.8043C64.6454 21.6407 64.8605 22.7346 65.0756 23.7855L65.9146 26.9598H62.9244H62.9459ZM84.0713 33.3298H87.0615L86.4161 18.2306H82.3503L80.8659 23.3351C80.4356 25.0295 80.0269 26.9383 79.5751 28.6327C79.36 26.9383 78.9297 25.0295 78.521 23.3351L77.2303 18.2306H72.9708L72.1318 33.3298H75.122L75.3372 27.5818C75.3372 25.6515 75.5523 23.3351 75.5523 21.4048C75.9825 23.3351 76.3913 25.4584 76.843 27.3458L78.3274 33.0938H80.6723L82.3718 27.1528C82.802 25.4584 83.4259 23.3351 83.8561 21.4048V27.5818L84.0713 33.3298ZM89.3849 18.2306V33.3298H92.5687V18.2306H89.3849ZM97.9254 33.3298V22.2842C98.5708 23.9785 99.4098 25.8874 100.27 27.5818L103.261 33.3298H106.444V18.2306H103.669V22.6917C103.669 24.815 103.669 26.9383 103.884 29.0617C103.239 27.3673 102.4 25.4584 101.54 23.7641L98.7644 18.2306H95.1503V33.3298H97.9254ZM120.342 24.622H115.437V27.3887H117.373V30.563C117.158 30.7775 116.727 30.7775 115.888 30.7775C113.544 30.7775 111.629 28.8472 111.629 25.8874C111.629 22.4772 113.565 20.7828 116.104 20.7828C117.588 20.7828 118.664 21.2118 119.287 21.6193L119.933 18.8525C119.287 18.4236 117.997 18.0161 116.319 18.0161C111.844 18.0161 108.424 20.9973 108.424 25.8874C108.424 28.2252 109.069 30.134 110.36 31.6354C111.65 32.9223 113.35 33.5657 115.91 33.5657C117.609 33.5657 119.524 33.1367 120.385 32.7292V24.6649L120.342 24.622ZM23.1045 33.1367H17.7909V22.7131H16.3066C14.1768 22.9276 13.1227 23.7641 12.4773 26.9598C11.8319 30.1555 11.1866 32.4933 10.7778 33.1367H5.4642C5.89445 32.0858 6.75496 28.6756 7.40034 25.6944C8.04571 23.3566 8.88471 21.4477 10.5842 20.8043V20.5898C8.45445 19.9464 6.32471 17.6086 6.32471 14.2198C6.32471 11.6676 7.1637 9.97319 8.45445 8.68633C10.154 7.20643 12.714 6.563 16.1345 6.563C18.9096 6.563 21.4481 6.77748 23.1691 7.20643V9.54424C25.514 7.61394 28.4827 6.563 32.1183 6.563C35.1086 6.563 37.4319 7.20643 38.5076 7.84987L37.4534 12.5469C36.1627 11.9035 34.6783 11.496 31.9032 11.496C27.6437 11.496 24.2232 14.2627 24.2232 20.0107C24.2232 25.7587 27.2134 28.7185 31.6881 28.7185C32.7422 28.7185 33.8178 28.504 34.2481 28.2895V22.756H30.634V18.059H39.3681V31.8713C37.6686 32.5147 34.6568 33.3512 31.4729 33.3512C27.8588 33.3512 25.2773 32.5147 23.1476 31.0134V33.1367H23.1045ZM17.7694 11.2386C17.5543 11.2386 16.7153 11.0241 15.4245 11.0241C13.0797 11.0241 11.5953 12.311 11.5953 14.6273C11.5953 16.9437 13.0797 18.445 15.8548 18.445H17.7909V11.2172L17.7694 11.2386Z" fill="currentColor"/>
</symbol><symbol id="warning-2" viewBox="0 0 139 41">
<path d="M52.3587 15.2336C52.4512 15.5804 52.3356 15.7884 52.0582 15.8809L49.3998 16.6668C49.0762 16.7593 48.9144 16.6668 48.7988 16.3432C48.3827 14.9793 47.5043 14.2627 45.863 14.2627C43.3664 14.2627 42.5111 15.7422 42.5111 17.7302V22.3072C42.5111 24.2953 43.3433 25.7747 45.863 25.7747C47.9204 25.7747 49.0068 24.8269 49.0068 22.7233V22.1223H46.3022C46.071 22.1223 45.9323 22.0067 45.9323 21.7293V19.1865C45.9092 19.0016 46.0479 18.8167 46.256 18.7935C46.2791 18.7935 46.3022 18.7935 46.3022 18.7935H52.3125C52.5668 18.7935 52.7055 18.9091 52.7055 19.1634V22.9545C52.7055 26.5607 50.0471 29.2884 45.9092 29.2884C41.0086 29.2884 38.72 26.3757 38.72 22.3997V17.5684C38.72 13.5924 41.0086 10.6797 45.9092 10.6797C49.8621 10.7028 51.6421 12.9682 52.3587 15.2336ZM65.8356 19.7413V28.618C65.8587 28.8029 65.6969 28.9648 65.5119 28.9879C65.4888 28.9879 65.4888 28.9879 65.4657 28.9879H62.7611C62.5762 29.011 62.3912 28.8723 62.3681 28.6643C62.3681 28.6411 62.3681 28.618 62.3681 28.618V27.1617C61.5822 28.4793 60.1721 29.2884 58.6233 29.2653C56.0573 29.2653 54.4161 27.624 54.4161 25.0812C54.4161 22.6078 55.9649 21.1514 59.756 20.874C60.565 20.8047 61.3972 20.8047 62.2294 20.8509V19.8569C62.2294 18.5393 61.5359 18.0076 60.357 18.0076C59.1549 18.0076 58.8082 18.493 58.4846 19.2559C58.369 19.5564 58.2534 19.6026 57.9991 19.5333L55.2945 18.8398C55.0171 18.7704 54.994 18.6086 55.0402 18.4237C55.4101 16.4819 57.2594 15.0487 60.4957 15.0487C63.9169 15.0718 65.8356 16.7131 65.8356 19.7413ZM62.2294 24.4108V23.1163C61.5128 23.0932 60.7731 23.1163 60.0565 23.1857C58.6695 23.3475 57.9529 23.7867 57.9529 24.8269C57.9529 25.7747 58.6001 26.3064 59.6404 26.3064C60.8424 26.3064 61.7902 25.6591 62.2294 24.4108ZM75.5907 15.0718C77.3013 15.0718 78.434 16.0889 78.9657 17.5453C79.9828 16.0658 81.208 15.0718 82.9186 15.0718C85.2996 15.0718 86.6635 16.9673 86.6635 19.7875V28.618C86.6635 28.8492 86.4554 28.9879 86.2242 28.9879H83.404C83.1498 28.9879 82.9648 28.8492 82.9648 28.618V20.4348C82.9648 19.2096 82.4332 18.4699 81.4623 18.4699C80.4451 18.4699 79.7054 19.3021 79.3587 20.5735V28.618C79.3818 28.8029 79.22 28.9648 79.035 28.9879H79.0119H75.9606C75.7294 28.9879 75.6369 28.8492 75.6369 28.618V20.4348C75.6369 19.2096 75.0821 18.4699 74.1344 18.4699C73.0941 18.4699 72.3544 19.3483 72.0308 20.6197V28.6411C72.0539 28.8261 71.9152 28.9879 71.7303 29.011C71.7071 29.011 71.684 29.011 71.6609 29.011H68.6789C68.494 29.0341 68.3321 28.8954 68.309 28.7105C68.309 28.6874 68.309 28.6643 68.309 28.6411V15.7422C68.309 15.5572 68.4708 15.3954 68.6558 15.3954H68.6789H71.5453C71.7303 15.3723 71.8921 15.511 71.9152 15.7191V15.7422V17.291C72.7011 16.1352 73.8801 15.0718 75.5907 15.0718ZM102.128 15.3723C102.198 15.6959 102.105 15.9271 101.805 16.0196L99.1925 16.7824C98.8689 16.8749 98.7071 16.7593 98.5915 16.4588C98.2217 15.2336 97.5744 14.2396 95.7713 14.2396C93.529 14.2396 92.8124 15.7191 92.8124 17.7071V22.2841C92.8124 24.2721 93.6215 25.7516 95.7713 25.7516C97.69 25.7516 98.4297 24.6651 98.7302 23.3244C98.7996 23.0239 99.0076 22.8852 99.3312 23.0007L101.943 23.8329C102.244 23.9254 102.336 24.1566 102.267 24.4802C101.643 27.1386 99.7242 29.3115 95.7482 29.3115C91.2636 29.3115 89.0213 26.3988 89.0213 22.4228V17.5915C89.0213 13.6155 91.333 10.7028 95.7482 10.7028C99.6318 10.7028 101.458 12.7602 102.128 15.3723ZM115.235 19.7413V28.618C115.258 28.8029 115.097 28.9648 114.912 28.9879C114.889 28.9879 114.889 28.9879 114.865 28.9879H112.161C111.976 29.011 111.791 28.8723 111.768 28.6643C111.768 28.6411 111.768 28.618 111.768 28.618V27.1617C110.982 28.4793 109.572 29.2884 108.023 29.2653C105.457 29.2653 103.816 27.624 103.816 25.0812C103.816 22.6078 105.365 21.1514 109.156 20.874C109.965 20.8047 110.797 20.8047 111.629 20.8509V19.8569C111.629 18.5393 110.936 18.0076 109.757 18.0076C108.555 18.0076 108.208 18.493 107.884 19.2559C107.769 19.5564 107.653 19.6026 107.399 19.5333L104.694 18.8398C104.417 18.7704 104.394 18.6086 104.44 18.4237C104.81 16.4819 106.659 15.0487 109.895 15.0487C113.317 15.0718 115.235 16.7131 115.235 19.7413ZM111.606 24.4108V23.1163C110.889 23.0932 110.15 23.1163 109.433 23.1857C108.046 23.3475 107.33 23.7867 107.33 24.8269C107.33 25.7747 107.977 26.3064 109.017 26.3064C110.242 26.3064 111.167 25.6591 111.606 24.4108ZM125.753 15.6266V18.2619C125.753 18.5855 125.638 18.7011 125.314 18.7011H124.921C122.956 18.7011 121.8 19.5795 121.407 21.059V28.6411C121.431 28.8261 121.292 28.9879 121.107 29.011H121.084H117.986C117.801 29.011 117.663 28.8492 117.663 28.6643C117.663 28.6643 117.663 28.6643 117.663 28.6411V15.7191C117.663 15.5341 117.801 15.3723 117.963 15.3723C117.986 15.3723 118.009 15.3723 118.009 15.3723H120.806C121.107 15.3723 121.176 15.5572 121.176 15.7653V17.5915C121.824 16.3894 123.026 15.2105 125.129 15.2105C125.661 15.2105 125.753 15.2799 125.753 15.6266ZM130.585 23.3244V23.8329C130.585 25.2661 131.324 26.2601 133.058 26.2601C134.746 26.2601 135.231 25.6129 135.67 24.8038C135.901 24.4339 135.994 24.3877 136.387 24.5495L138.329 25.5435C138.722 25.7516 138.745 25.9365 138.583 26.3064C137.751 28.2019 135.647 29.2884 133.058 29.2884C129.128 29.2884 127.048 26.9536 127.048 23.7636V20.6197C127.048 17.5221 128.99 15.0949 133.012 15.0949C136.849 15.0949 138.722 17.5221 138.722 20.5504V22.7233C138.722 23.0932 138.606 23.3475 138.074 23.3475L130.585 23.3244ZM130.585 20.4348V20.8971H135.323V20.4348C135.323 19.1172 134.584 18.0769 132.966 18.0769C131.347 18.0769 130.585 19.1172 130.585 20.4348Z" fill="currentColor"/>
<path d="M17.0137 0H0.508564C0.231167 0 0 0.231163 0 0.50856V24.5034C0 33.0565 6.93492 40.0145 15.5111 40.0145H17.0137C25.5667 40.0145 32.5017 33.0796 32.5017 24.5034V15.5111C32.5248 6.93492 25.5899 0 17.0137 0ZM27.5548 24.7577C27.5548 30.583 23.2551 34.9982 16.5976 34.9982C8.69177 34.9982 4.99314 30.3056 4.99314 23.8792V16.089C4.99314 9.66265 8.69177 4.97003 16.5976 4.97003C23.0008 4.97003 25.8904 8.62242 27.0462 12.2748C27.208 12.8296 27 13.1532 26.5607 13.3151L22.2611 14.5865C21.7525 14.7483 21.4751 14.5865 21.3133 14.0779C20.6429 11.8818 19.2097 10.7029 16.5976 10.7029C12.5522 10.7029 11.1883 13.0839 11.1883 16.2971V23.6943C11.1883 26.9075 12.5291 29.2885 16.5976 29.2885C19.9263 29.2885 21.6832 27.7397 21.6832 24.3647V23.4169H17.2448C16.8981 23.4169 16.6438 23.2089 16.6438 22.7928V18.7012C16.6438 18.3082 16.875 18.0539 17.2448 18.0539H26.9306C27.3236 18.0539 27.5548 18.262 27.5548 18.6549V24.7577Z" fill="currentColor"/>
</symbol><symbol id="warning-3" viewBox="0 0 310 41">
<path d="M6.6994 22.4697H7.21473C8.50308 22.4697 9.99756 22.4697 11.2859 22.4697C12.1104 22.4697 12.7804 22.3158 13.3988 21.8028C14.8933 20.6742 14.8933 18.5708 13.3988 17.5961C12.8835 17.2883 12.4196 16.9292 11.9043 16.9292C10.1006 16.7753 8.45155 16.9292 6.6994 16.7753V22.4697ZM6.6994 32.3707H7.21473C8.70922 32.3707 9.99756 32.3707 11.4405 32.3707C11.7497 32.3707 12.1104 32.3707 12.4196 32.3707C14.3779 32.0629 15.6663 30.2674 15.0479 28.3179C14.7387 27.0354 13.5534 26.3685 12.4196 26.0607C11.5951 25.9068 10.616 25.9068 9.79143 25.9068C8.81228 25.9068 7.83314 25.9068 6.6994 25.9068V32.3707ZM0.154599 13.0304C1.95828 13.0304 3.91657 13.0304 5.72025 13.0304C8.19388 13.0304 10.616 13.0304 13.0896 13.1843C15.0479 13.1843 16.697 13.8512 17.8307 15.4415C19.119 17.237 19.4798 19.1864 18.8098 21.2898C18.5006 22.2645 17.8307 22.9314 17.0062 23.3931C16.697 23.547 16.4908 23.7009 16.1816 23.9061C16.8516 24.2139 17.47 24.573 17.9853 25.0347C19.2736 26.1633 19.9436 27.8049 19.9436 29.6005C19.9436 31.5499 19.2736 33.1915 17.6761 34.474C16.5424 35.4487 15.2025 35.9617 13.7595 36.1156C13.2442 36.1156 12.7804 36.2695 12.265 36.2695C8.34848 36.2695 4.43191 36.2695 0.515338 36.2695C0.360737 36.2695 0.206135 36.2695 0 36.2695V32.5246H1.80368V16.9292H0L0.154599 13.0304ZM297.247 29.1388C297.247 28.6257 297.247 28.164 297.247 27.651C297.092 26.5224 296.423 25.7016 295.443 25.1886C293.64 24.06 291.527 24.6756 290.702 26.6763C290.187 28.164 290.187 29.4466 290.548 30.883C290.857 32.0116 291.372 32.8324 292.506 33.3454C294.619 34.1662 297.247 32.3707 297.247 30.1135V29.1388ZM293.021 40.0145C292.351 39.8606 291.527 39.7067 291.063 39.3476C289.775 38.6807 288.95 37.706 288.435 36.2695C289.105 36.2695 289.723 36.2695 290.393 36.2695C290.548 36.2695 290.548 36.4235 290.702 36.4235C291.836 38.3729 294.155 38.8859 296.113 37.706C296.938 37.193 297.247 36.5773 297.402 35.6026C297.402 34.6279 297.402 33.6532 297.402 32.6785C297.247 32.8324 297.092 33.1915 296.886 33.3454C294.928 35.6026 291.321 35.1409 289.672 32.8324C288.538 31.3447 288.383 29.7544 288.538 27.9588C288.538 26.8302 289.053 25.8555 289.517 24.8808C291.166 22.4184 295.083 21.9567 296.886 24.573C297.041 24.7269 297.196 24.8808 297.402 25.2399V23.1366H301.009V24.6243H299.205V25.1373C299.205 28.5745 299.205 31.9603 299.205 35.3974C299.205 37.8599 297.711 39.2963 295.443 39.8093C295.134 39.8093 294.928 39.9632 294.619 39.9632H292.97V40.0145H293.021ZM308.224 5.84827C308.224 3.23194 306.111 1.12861 303.483 1.12861C300.854 1.12861 298.742 3.23194 298.587 5.84827C298.587 8.4646 300.7 10.5679 303.328 10.7218C306.111 10.5679 308.224 8.4646 308.224 5.84827ZM309.203 6.51518C309.048 7.48989 308.688 8.3107 308.069 9.13151C306.575 11.0809 304.153 11.9017 301.834 11.2348C299.566 10.5679 297.917 8.6185 297.762 6.36128C297.453 3.28324 299.566 0.513006 302.504 0C302.504 0 302.658 0 302.813 0H304.101H304.256C305.905 0.307804 307.038 0.974709 308.018 2.25722C308.688 3.07803 308.842 3.89885 309.151 4.87356V6.51518H309.203ZM195.313 24.06C195.004 25.7016 194.489 27.2919 194.179 28.9336C193.664 31.1908 193.046 33.4993 192.53 35.7565C192.53 35.9104 192.53 36.0643 192.221 36.0643C190.727 36.0643 189.284 36.0643 187.789 36.0643C187.635 35.5513 187.48 35.0896 187.48 34.5766C186.346 30.5239 185.213 26.4198 184.233 22.3671C184.233 22.0593 184.079 21.8541 183.718 21.8541C183.409 21.8541 183.048 21.8541 182.584 21.8541V18.4169H189.593V21.8541H187.789C188.614 25.2912 189.438 28.6771 190.263 32.1142C190.417 31.8064 190.417 31.2934 190.572 30.9856C191.397 26.9328 192.221 22.8288 193.2 18.9299C193.2 18.776 193.355 18.6221 193.509 18.6221C194.798 18.6221 196.138 18.6221 197.426 18.6221C197.735 18.6221 197.735 18.776 197.735 18.9299C198.714 23.1366 199.539 27.3945 200.518 31.6012C200.518 31.7551 200.518 31.7551 200.673 31.909L202.94 21.8028H201.137V18.3656H208.145V21.8028C207.836 21.8028 207.321 21.8028 207.011 21.8028C206.857 21.8028 206.702 21.8028 206.702 22.1106C205.568 26.5224 204.229 31.0369 203.095 35.4487C202.94 35.7565 202.94 35.9617 202.579 35.9617C201.291 35.9617 199.951 35.9617 198.663 35.9617C198.354 35.9617 198.354 35.9617 198.148 35.6539C197.168 31.909 196.344 28.164 195.365 24.2652C195.468 24.2139 195.468 24.2139 195.313 24.06ZM171.762 17.5448C170.628 20.9819 169.649 24.2139 168.67 27.651H174.7C173.721 24.2139 172.741 20.828 171.762 17.5448ZM182.687 32.3707V36.1156H177.482C177.173 34.987 176.813 33.8584 176.503 32.6785C176.349 32.1655 176.194 31.7038 175.988 31.1908C175.988 31.0369 175.833 31.0369 175.679 31.0369C173.051 31.0369 170.474 31.0369 168 31.0369C167.691 31.0369 167.691 31.1908 167.691 31.3447C167.176 32.8324 166.867 34.2688 166.403 35.7565C166.403 35.9104 166.403 35.9104 166.248 36.0643H160.837V32.3194C161.352 32.3194 161.816 32.3194 162.332 32.3194C162.641 32.3194 162.641 32.3194 162.847 32.0116C164.805 25.6503 166.918 19.4942 168.876 13.133C168.876 12.8252 169.031 12.8252 169.392 12.8252C171.041 12.8252 172.638 12.8252 174.442 12.8252C174.751 12.8252 174.751 12.9791 174.957 13.133C177.07 19.3403 179.028 25.6503 181.193 31.8577C181.348 32.1655 181.348 32.1655 181.708 32.1655C181.708 32.3707 182.224 32.3707 182.687 32.3707ZM246.795 25.0347L254.319 25.1886C254.319 23.2392 252.825 21.7515 250.867 21.7515C248.908 21.6489 246.95 23.2392 246.795 25.0347ZM259.37 28.3179H246.795C246.95 29.9596 247.465 31.396 248.754 32.3707C249.887 33.1915 251.227 33.3454 252.67 32.8837C253.649 32.5759 254.165 31.909 254.629 30.9343C254.783 30.7804 254.783 30.6265 255.144 30.6265C256.432 30.6265 257.927 30.6265 259.215 30.4726C259.215 30.7804 259.061 30.9856 259.061 31.1395C258.081 34.2175 255.968 36.013 252.67 36.526C250.712 36.8338 248.908 36.68 247.105 35.7052C244.837 34.5766 243.343 32.6272 242.673 30.0109C242.003 26.9328 242.364 24.0087 244.322 21.3924C247.568 16.9805 254.474 17.1857 257.721 21.5463C258.7 23.2392 259.524 26.3685 259.37 28.3179ZM27.4675 25.0347L34.9915 25.1886C35.1461 23.3931 33.7031 21.9567 31.7448 21.7515C29.735 21.495 27.6221 23.0853 27.4675 25.0347ZM39.7326 28.3179H27.1583C27.1583 28.6257 27.1583 28.9849 27.3129 29.2927C27.4675 29.9596 27.6221 30.5752 27.9829 31.2421C28.8074 32.7298 30.2504 33.1915 31.8994 33.0376C33.3939 32.8837 34.3731 32.0629 34.8369 30.7804C34.8369 30.6265 34.9915 30.6265 35.1461 30.6265C36.4344 30.6265 37.9289 30.4726 39.2172 30.4726H39.3718C39.2172 31.4473 38.8565 32.2681 38.3927 33.0889C37.1043 35.0383 35.3007 36.1669 32.9816 36.526C31.0234 36.8338 29.0651 36.68 27.2614 35.7052C24.7878 34.4227 23.4994 32.2681 22.8295 29.7031C22.3141 27.0867 22.5203 24.5217 23.9632 22.2132C26.9007 17.1857 34.4246 16.6727 37.8774 21.5463C39.1657 23.4957 39.8356 25.7529 39.8356 28.2153C39.8872 28.164 39.8872 28.164 39.7326 28.3179ZM220.771 27.8049C219.637 27.9588 218.503 27.9588 217.524 28.3179C216.7 28.4718 216.03 28.6258 215.257 28.9849C214.278 29.2927 213.968 30.1135 213.968 31.0882C213.968 32.0629 214.638 32.7298 215.617 33.0376C217.112 33.5506 218.864 33.0376 220.049 31.909C220.977 30.7291 220.977 29.2927 220.771 27.8049ZM220.771 24.8808C220.771 24.3678 220.616 23.7522 220.616 23.2392C220.462 22.2645 219.792 21.5976 218.813 21.4437C218.143 21.2898 217.318 21.2898 216.7 21.4437C215.566 21.7515 214.741 22.4184 214.741 23.7009C214.741 23.8548 214.741 24.0087 214.741 24.2139L210.516 24.06C210.516 23.2392 210.67 22.4184 211.186 21.8028C211.856 20.5203 212.989 19.5455 214.278 19.0325C216.906 18.0578 219.483 18.0578 222.111 19.1864C224.224 20.0072 225.203 21.8028 225.357 23.9061C225.512 25.8555 225.357 27.8049 225.357 29.9083C225.357 30.883 225.357 31.8577 225.357 32.9863H226.852V36.4235H221.286V34.474C221.132 34.6279 220.771 34.987 220.616 35.1409C217.988 37.3982 213.608 37.2443 211.134 34.987C209.021 32.8837 209.021 28.6257 212.268 27.0354C213.762 26.2146 215.205 25.9068 216.854 25.7529C218.143 25.599 219.483 25.4451 220.925 25.2399C220.616 24.8808 220.616 24.8808 220.771 24.8808ZM89.4112 21.6489C90.0811 20.9819 90.5449 20.3663 91.2149 19.6994C92.7093 18.4169 94.3069 17.9039 96.2652 18.2117C97.7597 18.5195 98.5327 19.3403 99.048 20.6741C99.2026 20.982 99.2026 21.3411 99.3572 21.6489C99.5118 21.495 99.6664 21.1359 99.8725 20.982C100.697 19.6994 101.831 18.5195 103.48 18.2117C104.974 17.9039 106.417 17.9039 107.551 18.8786C108.53 19.6994 108.839 20.8281 109.046 21.9567C109.046 22.2645 109.046 22.7775 109.046 23.0853C109.046 26.5224 109.046 29.9083 109.046 33.1915V33.7045H111.519V35.8078H106.623V35.2948C106.623 31.2421 106.623 27.3432 106.623 23.2392C106.623 22.7262 106.623 22.4184 106.469 21.9567C106.16 20.315 104.974 19.4942 103.222 20.0072C101.934 20.3151 101.109 21.1359 100.285 22.2645C99.6149 23.2392 99.3057 24.3678 99.3057 25.4964C99.3057 28.1127 99.3057 30.6778 99.3057 33.2941V33.8071H101.934V35.9104H96.5744V35.3974C96.5744 31.3447 96.5744 27.2406 96.5744 23.1879C96.5744 22.6749 96.5744 22.2132 96.4198 21.7002C96.1106 20.7254 95.4406 20.2125 94.4615 20.0585C92.967 19.9046 91.9879 20.5716 91.0087 21.5463C89.875 22.8288 89.205 24.1626 89.3596 25.9581C89.3596 28.4206 89.3596 30.8317 89.3596 33.448V33.961H91.9879V36.0643H84.5155V33.961H86.9891V20.469H84.5155V18.3656H89.7204C89.2566 19.4942 89.2566 20.5202 89.4112 21.6489ZM59.47 26.6763H54.059C54.059 26.0094 54.059 25.1886 54.2136 24.573H62.4075V35.9617H59.8308V32.3707C59.6762 32.5246 59.6762 32.5246 59.6762 32.6785C58.0271 35.1409 55.9142 36.4234 52.9768 36.5773C50.7093 36.5773 48.9056 35.7565 47.1019 34.3201C45.1436 32.5246 44.0099 30.2674 43.4945 27.8049C42.8246 24.573 43.1853 21.2898 44.4737 18.2117C45.4528 16.1084 46.9473 14.3129 49.0602 13.3382C52.513 11.6965 56.7387 12.3635 59.2124 15.9545C59.2124 16.1084 59.367 16.1084 59.5216 16.2623V12.6712H61.9952V20.0072H59.3154C59.1608 19.0325 58.6455 18.2117 58.1817 17.3909C56.8933 15.5954 55.0897 14.6207 52.9768 14.6207C51.0185 14.6207 49.3694 15.5954 48.2357 17.0831C47.1019 18.3656 46.5866 20.0072 46.2774 21.8028C45.9682 24.2652 46.1228 26.5224 46.9473 28.7797C47.4626 30.0622 48.0811 31.2421 49.2148 32.2168C51.1731 34.0123 53.6467 34.3201 55.9142 33.1915C58.1817 32.2168 59.6762 29.4466 59.47 26.6763ZM128.783 27.1893C128.783 26.8815 128.783 26.5224 128.783 26.0607C128.628 24.7782 128.268 23.4444 127.649 22.3158C126.361 20.5203 124.197 19.8533 122.238 20.8281C120.435 21.6489 118.631 23.9061 118.992 26.3685C119.146 27.651 118.992 28.8309 119.301 30.1135C119.61 32.2168 121.774 34.0123 123.887 34.3201C125.691 34.474 127.34 33.4993 128.113 31.8577C128.474 30.2674 128.783 28.7797 128.783 27.1893ZM116.209 14.159H113.941V12.0556H118.837V22.1619C118.992 22.008 118.992 21.8541 119.146 21.8541C119.662 21.0333 120.435 20.2124 121.259 19.5968C123.527 17.9552 126.309 17.9552 128.628 19.9046C130.277 21.1872 131.102 22.9827 131.566 24.9321C132.236 27.8562 131.875 30.6265 130.277 33.2428C129.453 34.5253 128.319 35.7052 126.825 36.3208C124.557 37.1417 121.929 36.4748 120.28 34.6792C119.971 34.1662 119.455 33.7045 118.992 33.1915V36.2695H113.941V34.1662H116.415V14.159H116.209ZM76.9915 27.1893C76.8369 27.1893 76.6823 27.1893 76.6823 27.1893C75.1878 27.3432 73.7449 27.7023 72.0958 28.0101C71.1167 28.1641 70.1375 28.5231 69.313 29.1388C68.7976 29.4466 68.3338 29.9596 68.3338 30.7804C68.0246 32.7298 69.4676 34.6792 71.5805 34.8331C73.848 34.987 76.3216 33.1915 76.7854 30.9343C76.9915 29.4466 76.7854 28.3179 76.9915 27.1893ZM79.259 34.1662H81.7326C81.7326 34.8331 81.8872 35.6539 81.8872 36.2695H76.8369V33.1915C76.6823 33.3454 76.6823 33.3454 76.6823 33.3454C75.394 35.4487 73.4357 36.4234 70.9621 36.5773C68.8492 36.7312 67.2001 35.9104 66.0664 34.1149C65.0872 32.4733 64.778 30.883 65.7571 29.0875C66.2725 27.9588 67.2516 27.4458 68.3854 26.9841C69.8799 26.3172 71.4774 26.0094 73.1265 25.7016C74.2602 25.5477 75.6001 25.3938 76.8885 25.1886C76.8885 24.3678 76.8885 23.3931 76.7338 22.5723C76.4247 21.2898 75.4455 20.6229 74.2602 20.3151C73.2811 20.0072 72.1473 20.1612 71.1682 20.3151C69.8799 20.6229 69.0553 21.5976 68.6946 22.7775C68.54 23.0853 68.54 23.2905 68.0246 23.2905C67.2001 23.2905 66.5302 23.2905 65.7571 23.2905C66.2725 21.1872 67.2516 19.6994 69.2099 18.7247C71.4774 17.75 73.7964 17.75 76.0639 18.7247C77.8676 19.5455 78.8467 20.9819 79.1559 22.9314C79.1559 23.4444 79.1559 23.7522 79.1559 24.2139C79.1559 27.2919 79.1559 30.2161 79.1559 33.3454L79.259 34.1662ZM145.428 25.8555H155.065C155.065 24.3678 154.55 23.2392 153.932 22.1106C152.952 20.8281 151.819 20.1611 150.17 20.469C147.078 20.8281 145.635 23.0853 145.428 25.8555ZM158.054 27.8049H145.325C145.48 28.4718 145.48 28.9336 145.635 29.4466C145.789 30.4213 146.15 31.396 146.768 32.3707C148.057 34.3201 150.994 34.987 152.798 33.8584C153.622 33.3454 154.086 32.5759 154.601 31.7551C154.756 31.4473 154.911 31.2421 155.271 31.2421C156.096 31.2421 156.92 31.2421 157.745 31.2421C157.59 31.5499 157.59 31.909 157.436 32.2168C156.302 34.8331 153.21 36.6286 150.221 36.2695C146.15 35.9617 143.367 33.1915 142.697 29.0875C142.182 26.4711 142.543 23.9061 143.985 21.5976C145.119 19.6481 146.923 18.3656 149.19 18.0065C152.437 17.4935 155.426 19.1351 156.869 22.0593C157.693 23.7009 158.003 25.4964 158.003 27.4458C158.054 27.8049 158.054 27.8049 158.054 27.8049ZM234.994 32.6785H237.107V36.1156H228.913V32.6785H230.717V21.9567H228.913V18.5195H234.943V21.1359C235.097 20.9819 235.252 20.6229 235.252 20.469C235.922 19.4942 236.746 18.5195 238.035 18.3656C239.014 18.0578 240.148 18.2117 241.127 18.3656L241.281 18.5195C241.281 19.802 241.281 21.1359 241.281 22.4184C240.766 22.4184 240.302 22.2645 239.787 22.2645C238.499 22.1106 237.159 22.4184 236.18 23.2392C235.355 23.9061 235.046 24.8808 234.891 25.8555C234.891 27.9588 234.891 30.0622 234.891 32.3707C234.84 32.5246 234.84 32.5246 234.994 32.6785ZM135.482 14.0051H133.009V12.0556H138.059V34.0123H140.327V36.1156H133.009V34.0123H135.482V14.0051ZM267.718 29.7544C267.718 30.7291 267.873 31.7038 268.234 32.6785C268.903 33.961 269.883 34.7818 271.326 34.7818C272.768 34.7818 273.954 34.1149 274.572 32.8324C274.881 32.0116 275.088 31.3447 275.242 30.37C275.397 29.0875 275.242 27.7536 274.572 26.625C273.902 25.3425 272.768 24.6756 271.326 24.6756C269.883 24.6756 269.058 25.4964 268.388 26.625C267.718 27.651 267.718 28.6258 267.718 29.7544ZM277.149 29.4466C277.149 31.0882 276.84 32.5246 276.015 33.6532C274.727 35.6026 272.923 36.2695 270.604 36.1156C268.491 35.9617 266.997 34.6279 266.172 32.6785C265.348 30.5752 265.193 28.2666 266.172 26.1633C267.151 24.06 268.955 22.9314 271.377 22.9314C273.799 22.9314 275.448 24.06 276.427 26.1633C276.994 27.3432 277.149 28.4718 277.149 29.4466ZM284.364 35.9617H278.643V34.474H280.447V24.8808H278.643V23.3931H282.405V26.0094C283.075 24.8808 283.9 23.7522 285.188 23.2392C285.858 23.0853 286.992 23.0853 287.662 23.2392V25.0347C287.353 25.0347 286.992 25.0347 286.683 24.8808C284.415 24.7269 282.457 26.3685 282.457 28.6257C282.457 30.4213 282.457 32.3707 282.457 34.1662V34.3201H284.57L284.364 35.9617ZM261.483 33.8584H263.595V35.9617H261.483V33.8584ZM301.988 3.23193V5.18136C302.658 5.18136 303.277 5.18136 303.946 5.18136C304.101 5.18136 304.256 5.18136 304.462 5.02746C304.977 4.87355 305.132 4.51445 304.977 3.89884C304.977 3.38584 304.668 3.07804 304.153 3.07804C303.483 3.23194 302.813 3.23193 301.988 3.23193ZM304.771 5.69437C305.441 5.84827 305.596 6.36127 305.596 6.82298C305.596 7.28468 305.75 7.9516 305.75 8.4646C304.771 8.4646 304.926 8.6185 304.771 7.64379C304.771 7.33599 304.771 6.97689 304.616 6.66908C304.462 6.15608 304.307 5.84827 303.637 5.84827C302.967 5.84827 302.349 5.84827 301.679 5.84827V8.31069H300.854V2.46242C301.009 2.46242 301.164 2.46242 301.524 2.46242C302.349 2.46242 303.173 2.46242 303.998 2.46242C304.823 2.46242 305.286 2.97544 305.492 3.59104C305.956 4.56576 305.596 5.18136 304.771 5.69437Z" fill="currentColor"/>
</symbol><symbol id="warning-4" viewBox="0 0 41 41">
<path d="M35.6346 14.7672C36.2098 16.474 36.5016 18.2594 36.5016 20.08C36.5016 29.208 29.1022 36.6343 20.0072 36.6343C10.9123 36.6343 3.51127 29.208 3.51127 20.08C3.51127 10.952 10.9123 3.52404 20.0072 3.52404C21.8212 3.52404 23.6002 3.81855 25.3008 4.39585V0.712844C23.576 0.238598 21.7956 -0.00115547 20.0072 4.18663e-06C8.97492 4.18663e-06 0 9.00756 0 20.08C0 31.1525 8.97492 40.16 20.0072 40.16C31.0396 40.16 40.0145 31.1525 40.0145 20.08C40.0145 18.2728 39.7761 16.4907 39.3059 14.7672H35.6346Z" fill="currentColor"/>
<path fill-rule="evenodd" clip-rule="evenodd" d="M27.2598 19.4706C28.3235 18.8883 28.9621 17.8391 28.9621 16.6544C28.9621 14.4222 27.0864 13.0049 24.107 13.0049C21.1659 13.0049 19.2702 14.382 19.2702 16.5574C19.2702 17.7421 20.0038 18.8298 21.1476 19.469C19.5803 20.0914 18.5733 21.41 18.5733 22.9662C18.5733 25.3725 20.7408 26.9069 24.1253 26.9069C27.5115 26.9069 29.6773 25.3524 29.6773 22.9077C29.6773 21.3916 28.7503 20.0914 27.2598 19.4706ZM24.1253 24.402C22.6364 24.402 21.8245 23.7611 21.8245 22.6148C21.8245 21.4887 22.6364 20.8478 24.1253 20.8478C25.6159 20.8478 26.4478 21.4887 26.4478 22.6148C26.4478 23.7811 25.6142 24.402 24.1253 24.402ZM24.1253 18.3629C22.8682 18.3629 22.1729 17.8191 22.1729 16.8485C22.1729 15.8395 22.8682 15.2756 24.1253 15.2756C25.3841 15.2756 26.0794 15.8395 26.0794 16.8485C26.0794 17.8191 25.3824 18.3629 24.1253 18.3629Z" fill="currentColor"/>
<path d="M12.5795 15.9165V26.7496H16.0224V13.1387H10.0836V15.9165H12.5795ZM34.4157 1.52413V5.35105H38.2271V8.10201H34.4157V11.9272H31.6747V8.10201H27.885V5.35105H31.6747V1.52246H34.4157V1.52413Z" fill="currentColor"/>
</symbol></svg>