<svg width="32" height="32" fill="none" xmlns="http://www.w3.org/2000/svg"><g clip-path="url(#clip0_4_4)" fill="#FD002D"><path d="M31.94 16.39c0-.92-.33-1.68-.94-2.24-.78-.72-1.93-1.06-3.62-1.06-2.49 0-4.27 0-5.43-.12-.22-.02-.4-.05-.53-.07.64-1.38 2.37-5.43 2.37-9.11 0-.89-.07-1.91-.64-2.69C22.38.05 21.24.05 20.87.05c-.45 0-1.12.14-1.79.8-.25.25-.49.58-.75.99-.4.63-.8 1.44-1.12 2.11-.62 1.26-1.32 2.68-2.28 3.98-1.4 1.92-3.08 3.54-5 4.8v-1.27H0v20.52h9.92v-1.15l.52.12c3.39.77 6.83.89 10.16 1.01l5.14.01c1.05 0 1.91-.25 2.56-.76.76-.6 1.18-1.51 1.18-2.57 0-.48-.08-.91-.27-1.3-.1-.21-.21-.39-.3-.52.22-.14.48-.33.71-.58.45-.46.68-1.04.68-1.68 0-.48-.08-.91-.27-1.29-.1-.22-.21-.4-.31-.53.22-.14.49-.33.72-.57.43-.47.66-1.05.66-1.69 0-.48-.08-.91-.27-1.29-.1-.22-.21-.39-.3-.53l1.39-1.97v-.3h.02zm-23.9 13.7H1.88V13.33h6.16v16.76zm21.19-12.83c-.19.12-.34.23-.48.37-.22.24-.33.51-.33.82 0 .25.05.48.16.7.07.16.16.27.29.42l.05.06c.06.08.16.21.22.34.06.13.1.3.1.51 0 .16-.05.28-.16.39-.12.13-.34.27-.49.36-.25.16-.47.29-.65.48-.22.24-.33.51-.33.81 0 .27.05.49.17.71.08.17.18.29.33.48.07.08.17.19.23.33s.1.31.1.52c0 .16-.05.28-.16.39-.12.13-.34.27-.51.36-.27.16-.46.29-.64.48-.23.24-.34.51-.34.81 0 .27.06.49.17.71.08.17.19.31.33.47.07.08.17.21.23.34.06.14.1.3.1.52 0 .48-.16.84-.47 1.09-.3.24-.77.36-1.39.36l-5.07-.01c-3.25-.12-6.6-.24-9.82-.97V14.37c2.16-1.41 4.03-3.21 5.59-5.35 1.06-1.42 1.81-2.93 2.47-4.3.29-.6.66-1.36 1-1.91.18-.29.34-.51.48-.65.17-.17.33-.24.46-.24.35 0 .59.04.76.28.25.34.28 1.06.28 1.57 0 3.11-1.5 6.93-2.38 8.7-.28.54-.29 1.03-.04 1.44.31.51.99.78 2.27.92 1.24.13 3.09.13 5.62.13 1.15 0 1.93.19 2.34.57.22.19.29.41.31.6l-.8 1.13z"/><path d="M8.04 13.33H1.88v16.75h6.16V13.33zm20.71 4.3c-.22.24-.33.51-.33.82 0 .25.05.48.16.7.07.16.16.27.29.42l.05.06c.06.08.16.21.22.34.06.13.1.3.1.51 0 .16-.05.28-.16.39-.12.13-.34.27-.49.36-.25.16-.47.29-.65.48-.22.24-.33.51-.33.81 0 .27.05.49.17.71.08.17.18.29.33.48.07.08.17.19.23.33s.1.31.1.52c0 .16-.05.28-.16.39-.12.13-.34.27-.51.36-.27.16-.46.29-.64.48-.23.24-.34.51-.34.81 0 .27.06.49.17.71.08.17.19.31.33.47.07.08.17.21.23.34.06.14.1.3.1.52 0 .48-.16.84-.47 1.09-.3.24-.77.36-1.39.36l-5.07-.01c-3.25-.12-6.6-.24-9.82-.97V14.37c2.16-1.41 4.03-3.21 5.59-5.35 1.06-1.42 1.81-2.93 2.47-4.3.29-.6.66-1.36 1-1.91.18-.29.34-.51.48-.65.17-.17.33-.24.46-.24.35 0 .59.04.76.28.25.34.28 1.06.28 1.57 0 3.11-1.5 6.93-2.38 8.7-.28.54-.29 1.03-.04 1.44.31.51.99.78 2.27.92 1.24.13 3.09.13 5.62.13 1.15 0 1.93.19 2.34.57.22.19.29.41.31.6l-.8 1.12c-.19.13-.34.23-.48.38z"/></g><defs><clipPath id="clip0_4_4"><path fill="#fff" d="M0 0h32v32H0z"/></clipPath></defs></svg>