<svg width="32" height="28" fill="none" xmlns="http://www.w3.org/2000/svg"><path d="M26.063 15l-1.68 1.532 3.066 2.801H17.75c-1.26 0-2.468.457-3.359 1.27-.89.812-1.391 1.914-1.391 3.064 0 1.149.5 2.251 1.391 3.064.891.813 2.1 1.269 3.359 1.269h2.375v-2.167H17.75a2.5 2.5 0 01-1.68-.634 2.075 2.075 0 01-.695-1.532c0-.575.25-1.126.696-1.532a2.496 2.496 0 011.679-.635h9.699l-3.067 2.803 1.68 1.53L32 20.417 26.062 15z" fill="#80FF00"/><path d="M9.143 20.7H2.286L2.282 3.342l13.067 9.104a1.139 1.139 0 001.302 0l13.063-9.101V13.8H32V2.3a2.31 2.31 0 00-.67-1.626A2.281 2.281 0 0029.714 0H2.286C1.68 0 1.099.242.67.672A2.307 2.307 0 000 2.296V20.7c0 .61.242 1.194.67 1.626.429.43 1.01.673 1.616.674h6.857v-2.3zM27.198 2.3L16 10.101 4.802 2.3h22.396z" fill="#80FF00"/></svg>