<svg width="44" height="46" fill="none" xmlns="http://www.w3.org/2000/svg"><g fill="#fff" opacity=".5" clip-path="url(#clip0_18_44)"><path d="M39.184 17.158A18.26 18.26 0 0140.137 23c0 10.037-8.136 18.203-18.137 18.203-10 0-18.139-8.166-18.139-18.203C3.861 12.963 11.999 4.795 22 4.795c1.995 0 3.95.324 5.82.959v-4.05A21.9 21.9 0 0022 .92C9.869.92 0 10.825 0 23c0 12.175 9.869 22.08 22 22.08S44 35.175 44 23c0-1.987-.262-3.947-.78-5.842h-4.036z"/><path fill-rule="evenodd" clip-rule="evenodd" d="M29.975 22.33c1.17-.64 1.872-1.794 1.872-3.097 0-2.454-2.063-4.013-5.339-4.013-3.234 0-5.318 1.514-5.318 3.906 0 1.303.806 2.5 2.064 3.202-1.723.685-2.83 2.134-2.83 3.846 0 2.646 2.383 4.333 6.104 4.333 3.724 0 6.105-1.71 6.105-4.398 0-1.667-1.019-3.096-2.658-3.779zm-3.447 5.423c-1.637 0-2.53-.705-2.53-1.966 0-1.238.893-1.943 2.53-1.943 1.64 0 2.554.705 2.554 1.943 0 1.283-.916 1.966-2.554 1.966zm0-6.641c-1.382 0-2.146-.598-2.146-1.665 0-1.11.764-1.73 2.146-1.73 1.385 0 2.149.62 2.149 1.73 0 1.067-.766 1.665-2.149 1.665z"/><path d="M13.832 18.422v11.912h3.786V15.368h-6.53v3.054h2.745zM37.844 2.596v4.208h4.19V9.83h-4.19v4.206H34.83V9.83h-4.167V6.804h4.167v-4.21h3.014v.002z"/></g><defs><clipPath id="clip0_18_44"><path fill="#fff" d="M0 0h44v46H0z"/></clipPath></defs></svg>