<svg width="100" height="45" fill="none" xmlns="http://www.w3.org/2000/svg"><path d="M12.5 19.465c0 .495-.167 1.981-1.333 2.972C9.833 23.428 7.5 23.76 6 23.76c-.667 0-1.333 0-1.833-.165-1.334-.166-2.834-.496-3.5-1.652-.5-.66-.667-1.486-.667-2.312h4.167c0 .165 0 .66.333.99.333.166.833.496 1.5.496.167 0 1 0 1.5-.495.667-.496.667-1.322.667-1.487v-1.486c-.167.33-.334.495-.5.495-.667.66-1.667.826-2.5.826-1.167 0-2.334-.33-3.167-.991-.833-.66-2-1.982-2-4.625 0-.495 0-2.642 1.5-4.129 1-.99 2.5-1.486 3.833-1.486.334 0 1.667 0 2.667.826.167.165.333.165.5.66V8.068h4v11.397zM7 11.04s-.333-.165-.833-.165c-.167 0-.5.165-.667.165-.667.33-1.167.991-1.167 2.478 0 .99.167 1.651.5 1.816l.5.496h.834c.166 0 .5 0 .833-.165.833-.33 1-1.487 1-2.313 0-.825 0-1.816-1-2.312zm14.167 8.424v-.826c-.167 0-.334.165-.834.495-.5.165-1.5.496-2.833.496-.333 0-1.167 0-1.833-.165-1.5-.661-2.334-1.817-2.334-3.469 0-.495.167-1.982 1.5-2.973 1-.495 2.167-.66 3.334-.826.666-.165 1.333-.165 2-.33.333-.165.5-.165.833-.165v-.66c-.167-.331-.5-.662-1.5-.662h-.667c-.666.166-.833.826-.833.991l-4.333.166c0-.33.166-.496.166-.661.167-.496.334-1.321 1.334-1.982.833-.66 2.166-1.156 4.666-1.156 1.834 0 4.334.165 5.167 2.147.333.495.333.826.333 1.982v6.111c0 .826.167.991.334 1.486h-4.5zm-1.834-4.79c-.5.165-1.166.33-1.666.66 0 .165-.167.33-.167.496 0 .495.333.99 1.167.99.333 0 .833-.164 1.166-.33C21 15.831 21 14.675 21 14.18c-.5.165-1.167.33-1.667.496zm23 4.79v-5.946c0-.496.167-1.982-1.666-1.982-.334 0-1.334 0-1.5 1.156-.167.165-.167.33-.167.66v6.112h-4.5v-6.937c-.333-.826-1.167-.991-1.667-.991-.166 0-1.166.165-1.5.99 0 .166-.166.33-.166.661v6.277h-4.5V8.068H31V9.72c.333-.496.5-.66.667-.826.5-.496 1.333-1.156 3-1.156.333 0 2.333 0 3.333 1.321.167.165.333.33.667.826.166-.496.333-.66.5-.826.666-.495 1.5-1.321 3.333-1.321.333 0 .833 0 1.667.165.5.165 2 .66 2.5 2.312.166.66.166 1.322.166 1.982v7.268h-4.5zm15.834-.496c-.834.495-1.667.826-2.667.826-1.167 0-2-.496-2.333-.66l-.5-.496v.826h-4.334V3.939h4.5v4.955l.5-.496c.667-.495 1.5-.66 2.334-.66 1.5 0 2.666.495 3.666 1.486.667.826 1.334 1.982 1.334 4.295 0 .66 0 3.964-2.5 5.45zm-2.5-7.267c-.334-.66-1-.66-1.167-.66-.167 0-.667 0-1 .33-.667.495-.833 1.486-.833 2.312 0 .826.166 1.817.833 2.477 0 0 .5.33 1 .33.167 0 .667-.165 1.167-.495.333-.495.5-1.156.5-2.312 0-.66 0-1.487-.5-1.982zM61.5 3.939h4.667v15.526H61.5V3.939zm6 0H72v2.973h-4.5V3.939zm0 4.13H72v11.396h-4.5V8.068zm13.667 11.396v-6.277c0-.165 0-.495-.167-.66 0-.496-.333-.991-1.5-.991-1.667 0-1.667 1.32-1.667 1.816v6.112h-4.5V8.068h4.334v1.487c.333-.33.333-.496.5-.661.833-.826 2.166-1.156 3.333-1.156.333 0 1.833 0 2.833.99.667.496 1 1.157 1.167 1.983.167.33.167.66.167 1.486v7.268h-4.5zm17.833 0c0 .495 0 1.981-1.333 2.972-1.334.991-3.5 1.322-5.167 1.322-.5 0-1.167 0-1.833-.165-1.167-.166-2.667-.496-3.5-1.652-.5-.66-.5-1.486-.5-2.312h4.166c0 .165-.166.66.334.99.166.166.666.496 1.333.496.167 0 1.167 0 1.667-.495.666-.496.5-1.322.5-1.487v-1.486c-.167.33-.167.495-.334.495-.666.66-1.666.826-2.5.826-1.333 0-2.333-.33-3.333-.991-.833-.66-1.833-1.982-1.833-4.625 0-.495 0-2.642 1.333-4.129 1-.99 2.667-1.486 4-1.486.333 0 1.667 0 2.5.826.333.165.333.165.667.66V8.068h4v10.736c-.167.165-.167.495-.167.66zm-5.333-8.424c-.167 0-.5-.165-.834-.165-.333 0-.5.165-.833.165-.667.33-1 .991-1 2.478 0 .99.167 1.651.5 1.816l.5.496h.667c.166 0 .5 0 1-.165.833-.33 1-1.487 1-2.313 0-.825-.167-1.816-1-2.312zm-70.334 25.6c-2.5 0-3.333-.825-3.666-1.981-.167-.496-.167-.826-.167-1.322v-5.45H18V25.41h1.667v-3.633h4.5v3.633h2v2.478h-2L24 32.182c0 .496.167 1.156 1.333 1.156h.834v3.139c-.334 0-1.667.165-2.834.165zM44.5 31.688s0 .495.167.826c.166.495.5 1.32 1.833 1.32.667 0 1-.33 1.333-.495.334-.33.667-.825.667-.99l3.833 1.486c-.166.165-.333.495-.666.826-.667.826-1.667 1.321-2 1.651-.667.166-1.834.661-3.5.661a7.61 7.61 0 01-2.667-.495c-2.333-.991-3.667-3.304-3.667-5.781 0-2.313 1.167-3.8 1.834-4.295 1.666-1.651 3.833-1.816 4.5-1.816.833 0 3.166.165 4.833 1.982.5.495 1 1.32 1.167 2.147.333.99.333 1.817.333 2.973h-8zm3.333-3.138c-.333-.826-1.166-.991-1.5-.991-.333 0-.666.165-.833.165-.833.33-.833 1.321-1 1.486h3.333v-.66zm13 .165c-.5 0-2.333-.165-3 1.321v6.442h-4.666V25.08h4.5v.991l.5-.495c1.166-.661 2-.661 3.333-.661v3.799h-.667zm8.5 7.763v-.826c-.166.165-.333.33-.833.495-.5.33-1.5.66-3 .66-.167 0-1 0-1.833-.33-1.5-.495-2.167-1.816-2.167-3.303 0-.66 0-1.982 1.5-2.973 1-.66 2.167-.826 3.333-.99.667 0 1.334-.166 2-.331.167 0 .5-.165.834-.165 0 0 0-.33-.167-.496 0-.495-.333-.826-1.333-.826H67c-.833.166-.833.826-.833.991l-4.334.166c0-.166.167-.496.167-.661 0-.496.333-1.156 1.167-1.982 1-.66 2.333-1.156 4.833-1.156 1.833 0 4.167.33 5.167 2.147.166.495.333.99.333 1.982v6.276c0 .826 0 .991.333 1.322h-4.5zm-2-4.79c-.5.165-1.166.33-1.5.826 0 0-.166.165-.166.495 0 .33.333.826 1.166.826.334 0 .667-.165 1-.33 1.334-.661 1.334-1.817 1.334-2.313-.667.165-1.167.33-1.834.496zm14.834 5.12c-.334 0-1.5 0-2.5-.66-.167-.166-.167-.166-.5-.331v4.79h-4.334V25.08h4.334v.991l.5-.495c.5-.33 1.333-.661 2.666-.661 3.5 0 5 2.808 5 5.946s-1.5 5.946-5.166 5.946zm.166-8.093c-.5-.496-1-.66-1.333-.66-.167 0-.5.164-.833.33-1 .495-1 1.651-1 2.477 0 .99.166 2.147 1 2.477.333.33.666.33.833.33.167 0 .5 0 .833-.33.834-.495 1-1.486 1-2.477 0-.66-.166-1.487-.5-2.147zm13.5 8.423c-.333.991-.833 2.147-1.666 2.808-.834.66-1.834.66-2.834.66h-1.166l-1.334-.165v-3.138h1.334c.666 0 1-.165 1-.495 0-.165-.167-.66-.334-1.156l-3.666-10.57h4.666l1.667 7.432s1.667-7.268 1.833-7.433H100l-4.167 12.057zM39 27.557c-.167-.825-.667-1.486-1-1.816-.833-.826-2-1.156-3.167-1.156-1.666 0-2.666.66-3.166 1.156l-.5.495v-5.285h-4.5v15.526h4.5v-8.094h4v8.094h4v-7.433c0-.495-.167-.826-.167-1.486z" fill="#fff" opacity=".5"/></svg>