<svg width="102" height="46" fill="none" xmlns="http://www.w3.org/2000/svg"><path d="M5.44 6.866h91.12c1.53 0 2.89.677 3.91 1.523.85 1.015 1.53 2.368 1.53 3.89v20.976c0 1.523-.68 2.876-1.53 3.891-1.02 1.015-2.38 1.523-3.91 1.523H5.44c-1.53 0-2.89-.508-3.91-1.523C.68 36.131 0 34.778 0 33.256V12.278c0-1.522.68-2.875 1.53-3.89 1.02-.846 2.38-1.523 3.91-1.523zM96.56 8.22H5.44a4.11 4.11 0 00-2.89 1.184 4.071 4.071 0 00-1.19 2.875v20.976c0 1.185.51 2.2 1.19 2.876.68.846 1.7 1.184 2.89 1.184h91.12c1.19 0 2.21-.338 2.89-1.184a4.07 4.07 0 001.19-2.876V12.28c0-1.184-.51-2.199-1.19-2.875a4.111 4.111 0 00-2.89-1.184zm-59.5 10.826h1.02V16h.85c.85 0 1.19.508 1.36 1.353.17 1.015.34 1.523.51 1.692h1.02c-.17-.17-.34-.846-.68-1.86-.17-.677-.34-1.185-1.02-1.523.85-.17 1.36-.846 1.36-1.861 0-.508-.17-1.015-.51-1.353-.51-.339-1.02-.508-2.04-.508-.68 0-1.36 0-1.87.17v6.935zm1.02-6.26c.17-.168.34-.168.85-.168 1.02 0 1.7.507 1.7 1.353s-.68 1.353-1.7 1.353h-.85v-2.537zm8.5 2.2h-2.89v-2.2h3.06v-.845h-3.91v7.105h4.08v-.677h-3.23v-2.537h2.89v-.846zm1.02 3.722c.51.338 1.19.507 1.87.507 1.7 0 2.55-1.015 2.55-2.03s-.68-1.691-1.87-2.03c-1.02-.507-1.36-.846-1.36-1.522 0-.339.34-1.015 1.36-1.015.68 0 1.02.169 1.36.338l.17-.677a3.41 3.41 0 00-1.53-.338c-1.36 0-2.38.846-2.38 1.86 0 1.016.85 1.692 1.87 2.03 1.02.34 1.36.678 1.36 1.354 0 .846-.51 1.353-1.36 1.353-.68 0-1.36-.338-1.7-.507l-.34.677zm5.61.338h1.02v-2.707h.68c.85 0 1.7-.338 2.21-.845.34-.339.51-.846.51-1.523 0-.507-.17-1.015-.51-1.353-.51-.508-1.19-.677-2.04-.677-.85 0-1.36 0-1.87.17v6.935zm1.02-6.26c.17 0 .51-.168.85-.168 1.02 0 1.7.507 1.7 1.522 0 .846-.68 1.523-1.87 1.523-.34 0-.51-.17-.68-.17v-2.706zm7.65-.845c-2.04 0-3.4 1.353-3.4 3.722 0 2.199 1.36 3.552 3.23 3.552 1.87 0 3.4-1.353 3.4-3.722 0-2.199-1.36-3.552-3.23-3.552zm-.17.677c1.53 0 2.38 1.522 2.38 2.875 0 1.692-.85 3.045-2.38 3.045-1.36 0-2.21-1.353-2.21-2.875 0-1.692.68-3.045 2.21-3.045zm5.44 6.428V16c0-1.184 0-2.03-.17-2.876.51.846.85 1.523 1.36 2.368l2.38 3.553h.85V11.94h-.85v3.045c0 1.184 0 2.03.17 2.876-.34-.677-.85-1.353-1.36-2.2l-2.21-3.72H66.3v7.104h.85zm5.78-.338c.34.338 1.02.507 1.7.507 1.7 0 2.55-1.015 2.55-2.03s-.68-1.691-1.87-2.03c-1.02-.507-1.36-.846-1.36-1.522 0-.339.34-1.015 1.36-1.015.68 0 1.02.169 1.36.338l.17-.677a3.41 3.41 0 00-1.53-.338c-1.36 0-2.38.846-2.38 1.86 0 1.016.85 1.692 2.04 2.03.85.34 1.19.678 1.19 1.354 0 .846-.51 1.353-1.36 1.353-.68 0-1.36-.338-1.7-.507l-.17.677zm5.44-6.767v7.105h1.02V11.94h-1.02zm2.55 7.105c.34.17.85.17 1.53.17 1.19 0 1.87-.17 2.38-.678.34-.338.68-.845.68-1.522 0-1.015-.85-1.522-1.53-1.692.85-.338 1.19-.845 1.19-1.522s-.17-1.015-.51-1.353c-.51-.339-1.02-.508-2.04-.508-.68 0-1.19 0-1.7.17v6.935zm1.02-6.26c.17-.168.34-.168.85-.168.85 0 1.53.338 1.53 1.184 0 .677-.68 1.184-1.53 1.184h-.85v-2.2zm0 2.877h.68c1.02 0 1.87.507 1.87 1.353 0 1.015-.85 1.522-1.87 1.522-.34 0-.51-.169-.68-.169v-2.706zm4.76 3.383h4.08v-.677h-3.06v-6.428H86.7v7.105zm8.67-4.06h-2.72v-2.2h2.89v-.845H91.8v7.105h3.91v-.677h-3.06v-2.537h2.72v-.846zM45.39 26.489h-4.08v2.2h1.7v2.537c-.17.169-.68.169-1.19.169-2.04 0-3.4-1.523-3.4-3.891 0-2.707 1.53-4.06 3.57-4.06 1.19 0 1.87.338 2.55.677l.51-2.2c-.51-.338-1.7-.676-3.06-.676-3.57 0-6.12 2.368-6.12 6.259 0 1.86.51 3.383 1.53 4.567 1.02 1.015 2.38 1.523 4.42 1.523 1.36 0 2.89-.339 3.57-.677V26.49zm7.48 3.89l.85 3.046h2.55l-3.23-12.01h-3.23l-3.23 12.01h2.38l.85-3.045h3.06zm-2.72-2.03l.68-2.537c.17-.676.34-1.691.51-2.368.17.677.34 1.523.51 2.368l.68 2.538h-2.38zm16.83 5.076h2.38l-.51-12.01h-3.23l-1.19 4.06c-.34 1.352-.68 2.875-1.02 4.228-.17-1.353-.51-2.876-.85-4.229l-1.02-4.06h-3.4l-.68 12.01h2.38l.17-4.567c0-1.522.17-3.383.17-4.905.34 1.522.68 3.214 1.02 4.736l1.19 4.567h1.87l1.36-4.736c.34-1.353.85-3.045 1.19-4.567v4.905l.17 4.568zm4.25-12.01v12.01h2.55v-12.01h-2.55zm6.8 12.01v-8.797a45.865 45.865 0 001.87 4.23l2.38 4.567h2.55v-12.01h-2.21v3.552c0 1.691 0 3.383.17 5.074a45.875 45.875 0 00-1.87-4.229l-2.21-4.398h-2.89v12.01h2.21zm17.85-6.936h-3.91v2.2h1.53v2.537c-.17.169-.51.169-1.19.169-1.87 0-3.4-1.523-3.4-3.891 0-2.707 1.53-4.06 3.57-4.06 1.19 0 2.04.338 2.55.677l.51-2.2c-.51-.338-1.53-.676-2.89-.676-3.57 0-6.29 2.368-6.29 6.259 0 1.86.51 3.383 1.53 4.567 1.02 1.015 2.38 1.523 4.42 1.523 1.36 0 2.89-.339 3.57-.677V26.49zm-77.52 6.766h-4.25v-8.288h-1.19c-1.7.169-2.55.845-3.06 3.383-.51 2.537-1.02 4.398-1.36 4.905H4.25c.34-.845 1.02-3.552 1.53-5.92.51-1.86 1.19-3.383 2.55-3.89v-.17c-1.7-.508-3.4-2.368-3.4-5.075 0-2.03.68-3.383 1.7-4.398 1.36-1.184 3.4-1.692 6.12-1.692 2.21 0 4.25.17 5.61.508v1.86c1.87-1.522 4.25-2.368 7.14-2.368 2.38 0 4.25.508 5.1 1.015l-.85 3.722c-1.02-.508-2.21-.846-4.42-.846-3.4 0-6.12 2.2-6.12 6.766 0 4.399 2.38 6.936 5.95 6.936.85 0 1.7-.17 2.04-.338v-4.398h-2.89v-3.722h6.97v10.996c-1.36.507-3.74 1.184-6.29 1.184-2.89 0-4.93-.677-6.63-1.861v1.691zm-4.25-17.423c-.17 0-.85-.17-1.87-.17-1.87 0-3.06 1.016-3.06 2.876 0 1.861 1.19 3.045 3.4 3.045h1.53v-5.751z" fill="#fff" opacity=".5"/></svg>