<svg width="46" height="46" fill="none" xmlns="http://www.w3.org/2000/svg"><g opacity=".5" clip-path="url(#clip0_18_859)"><mask id="a" style="mask-type:luminance" maskUnits="userSpaceOnUse" x="0" y="0" width="46" height="46"><path d="M46 .051H0v45.432h46V.051z" fill="#fff"/></mask><g mask="url(#a)"><path fill-rule="evenodd" clip-rule="evenodd" d="M21.482 30.56v-3.604c.729.12 1.336.12 2.064.12 4.128 0 7.77-1.081 10.441-2.883l-5.22.24c-.607.12-.971-.12-1.336-.48-.364-.36-.607-.72-.485-1.321 0-.961.728-1.562 1.7-1.562H41.15c.608 0 1.093.24 1.579.841.364.48.485 1.081.242 1.682l-1.942 7.206c-.364 1.081-1.457 1.802-2.67 1.562l-.608-.12c-.607-.12-1.093-.48-1.457-1.081a1.9 1.9 0 01-.243-1.802l.85-2.162c-3.4 2.042-8.134 3.363-13.233 3.363h-2.186zm0-22.221V5.817h2.186c4.492 0 8.741.96 12.02 2.762.485.24.727.6.727 1.081.122.48 0 .84-.364 1.201l-.242.12c-.486.48-1.215.6-1.822.24-2.67-1.801-6.313-3.002-10.44-3.002-.73 0-1.336.12-2.065.12zM5.214.05h16.268v35.793H5.214c-1.579 0-2.914-1.201-2.914-2.763V2.934C2.3 1.372 3.635.05 5.214.05zm16.268 5.766v2.522c-7.041.6-12.505 4.564-12.505 9.368 0 4.685 5.464 8.648 12.505 9.249v3.603c-9.59-.72-16.997-6.005-16.997-12.371 0-6.366 7.406-11.65 16.997-12.371zM8.977 42.09H5.092v.96h2.793c-.122.36-.486.841-.85 1.081s-.85.48-1.457.36c-2.307-.24-2.792-3.362-.85-4.443.607-.36 1.578-.36 2.307.12.85.48-.243.48 1.578.48-.121-.6-.85-1.321-1.457-1.561a5.04 5.04 0 00-2.67 0c-1.215.6-2.307 2.042-1.822 3.963.364 1.442 1.821 2.643 3.642 2.403a3.255 3.255 0 002.429-2.042c.121-.24.364-.961.242-1.321zm27.439-.12v-1.562c.728 0 1.456 0 1.456.72 0 .841-.728.841-1.456.841zm-1.579 3.363h1.578V43.29c.122.12 1.093 1.801 1.215 2.042h1.942c-.121-.12-1.335-1.802-1.578-2.163.243-.12.485-.12.85-.48.121-.12.364-.36.485-.72.365-1.202-.121-2.883-1.942-2.883-.729-.12-1.7-.12-2.55-.12v6.366zm-6.07-2.403c-2.186 0-1.457-.12-1.943.48-.485.361-.97.601-1.7.361-1.578-.48-1.578-2.883.122-3.243.607-.12 1.093 0 1.578.48.486.481-.243.36 1.943.36 0-.36-.243-.84-.486-1.08-.607-.961-1.7-1.441-3.035-1.321-1.578.12-2.914 1.441-2.914 3.123 0 1.801 1.214 3.122 2.793 3.363 1.335.12 2.428-.36 3.156-1.442.122-.24.486-.72.486-1.08zm-13.598 2.403h.85v-5.405c.122.12 1.336 3.483 1.457 4.083.121.24.486 1.201.607 1.322h.607c.243-.601.729-2.042.971-2.763.243-.36.364-.84.607-1.321l.486-1.321-.122 5.405h.972v-6.366h-1.457c-.121.6-1.093 3.002-1.336 3.723 0 .12-.364 1.081-.485 1.201l-1.821-4.804-1.336-.12v6.366zm16.39-4.204c0 .12.607 1.921.607 1.921h-1.214l.607-1.921zm-3.035 4.204h1.578l.364-.961h2.065l.364.96h1.7c0-.12-1.093-2.882-1.215-3.122-.242-.6-.364-1.081-.607-1.562-.121-.36-.485-1.441-.607-1.681h-1.214l-1.214 3.243c-.243.36-1.214 2.882-1.214 3.123zm15.055-3.964l-1.822.12v-1.081h1.822v-1.321h-3.4v6.245h3.4v-1.44h-1.822V42.81h1.822v-1.44zm-31.81-1.081c0 .12.85 2.162.85 2.282H10.8c0-.12.85-2.162.97-2.282zm-3.034 5.045h.97l.73-1.802h2.549c.121.24.243.6.364.84 0 .24.243.841.364.962h.972c0-.24-1.093-2.763-1.214-3.123-.243-.36-1.215-3.003-1.336-3.243h-.85l-2.55 6.366zm34.844-3.964v1.441h-1.822v1.081h1.822v1.442h-3.4v-6.246h3.4v1.321c.121 0 .121 0 .121-.36 0-.24 0-.841-.121-1.081h-3.4c0 .12-.121 6.125 0 6.366h3.4l.121-1.442h-1.943v-1.08h1.822c.121-.12.121-.481.121-.721 0-.12 0-.601-.121-.721z" fill="#fff"/></g></g><defs><clipPath id="clip0_18_859"><path fill="#fff" d="M0 0h46v46H0z"/></clipPath></defs></svg>