<svg width="132" height="132" viewBox="0 0 132 132" fill="none" xmlns="http://www.w3.org/2000/svg">
<g id="arrow up" opacity="0.5">
<path id="Vector" d="M66 132C102.45 132 132 102.45 132 66C132 29.55 102.45 2.79342e-05 66 2.47477e-05C29.55 2.15611e-05 3.9474e-05 29.55 3.62875e-05 66C3.31009e-05 102.45 29.55 132 66 132ZM66 11.0001C96.375 11.0001 121 35.6251 121 66C121 96.375 96.375 121 66 121C35.6251 121 11.0001 96.375 11.0001 66C11.0001 35.6251 35.6251 11.0001 66 11.0001Z" fill="#FFC552"/>
<path id="Vector_2" d="M42.389 80.8891L66 57.2781L89.6109 80.8891C91.7588 83.037 95.2413 83.037 97.3891 80.8891C99.537 78.7413 99.537 75.2588 97.3891 73.1109L69.8891 45.6108C67.7412 43.463 64.2587 43.463 62.1109 45.6108L34.6108 73.1109C32.4629 75.2588 32.4629 78.7413 34.6108 80.8891C36.7589 83.037 40.2411 83.037 42.389 80.8891Z" fill="#FFC552"/>
</g>
</svg>
