<svg width="128" height="40" fill="none" xmlns="http://www.w3.org/2000/svg"><path d="M6.841 0h114.318c1.936 0 3.614.836 4.905 1.93C127.118 3.217 128 4.912 128 6.82v26.36c0 1.93-.839 3.603-1.936 4.89-1.291 1.287-2.99 1.93-4.905 1.93H6.841c-1.936 0-3.614-.643-4.905-1.93C.882 36.783 0 35.089 0 33.18V6.82c0-1.93.839-3.603 1.936-4.89C3.226.88 4.926 0 6.841 0zm114.318 1.694H6.841a5.169 5.169 0 00-3.614 1.48 5.137 5.137 0 00-1.484 3.603v26.36c0 1.48.645 2.767 1.484 3.603.839 1.05 2.13 1.48 3.614 1.48h114.318c1.484 0 2.775-.43 3.614-1.48a5.137 5.137 0 001.484-3.603V6.82c0-1.48-.645-2.766-1.484-3.603a5.169 5.169 0 00-3.614-1.48v-.043zM46.532 15.292h1.29v-3.817h1.055c1.054 0 1.484.643 1.7 1.694.214 1.287.43 1.93.645 2.123h1.29c-.215-.214-.43-1.05-.839-2.338-.215-.836-.43-1.48-1.29-1.93 1.054-.214 1.699-1.05 1.699-2.338 0-.643-.215-1.287-.645-1.694-.646-.429-1.291-.643-2.56-.643-.84 0-1.7 0-2.345.214v8.729zM47.8 7.421c.215-.215.43-.215 1.054-.215 1.29 0 2.13.644 2.13 1.695 0 1.05-.84 1.694-2.13 1.694H47.8V7.421zm10.67 2.767h-3.614V7.42h3.83V6.37h-4.905v8.922h5.12v-.836h-4.066V11.28h3.614v-1.05l.021-.043zm1.291 4.697c.645.429 1.484.643 2.345.643 2.13 0 3.184-1.287 3.184-2.552 0-1.266-.84-2.124-2.345-2.552-1.29-.644-1.7-1.051-1.7-1.93 0-.43.43-1.288 1.7-1.288.839 0 1.29.215 1.7.43l.215-.837c-.43-.215-1.055-.429-1.937-.429-1.7 0-2.99 1.05-2.99 2.338 0 1.287 1.054 2.123 2.345 2.552 1.29.429 1.7.837 1.7 1.694 0 1.051-.646 1.695-1.7 1.695-.839 0-1.7-.43-2.13-.644l-.43.837.043.043zm7.035.407h1.29v-3.41h.84c1.053 0 2.13-.429 2.774-1.05.43-.43.646-1.052.646-1.931 0-.644-.215-1.287-.645-1.695-.646-.643-1.485-.836-2.56-.836-1.076 0-1.7 0-2.345.214v8.708zm1.29-7.871c.215 0 .646-.215 1.054-.215 1.291 0 2.13.644 2.13 1.93 0 1.052-.839 1.931-2.345 1.931-.43 0-.645-.215-.839-.215V7.421zm9.595-1.051c-2.56 0-4.26 1.694-4.26 4.697 0 2.767 1.7 4.461 4.066 4.461 2.367 0 4.26-1.694 4.26-4.697 0-2.767-1.7-4.461-4.066-4.461zm-.215.836c1.936 0 2.99 1.93 2.99 3.604 0 2.123-1.054 3.817-2.99 3.817-1.7 0-2.775-1.694-2.775-3.603 0-2.123.839-3.818 2.775-3.818zm6.82 8.086v-3.817c0-1.48 0-2.553-.216-3.604.646 1.051 1.054 1.93 1.7 2.981l2.99 4.462h1.054V6.39H88.76v3.818c0 1.48 0 2.552.215 3.603-.43-.836-1.054-1.694-1.7-2.766L84.5 6.348h-1.29v8.922h1.054l.021.021zm7.25-.429c.43.43 1.29.644 2.129.644 2.13 0 3.184-1.287 3.184-2.553 0-1.265-.84-2.123-2.345-2.552-1.29-.643-1.7-1.05-1.7-1.93 0-.43.43-1.287 1.7-1.287.839 0 1.29.214 1.7.429l.215-.837c-.43-.214-1.055-.428-1.937-.428-1.7 0-2.99 1.05-2.99 2.337 0 1.287 1.054 2.124 2.56 2.553 1.054.429 1.484.836 1.484 1.694 0 1.05-.645 1.694-1.699 1.694-.839 0-1.7-.429-2.13-.643l-.215.836h.043v.043zm6.84-8.514v8.922h1.29V6.349h-1.29zm3.184 8.943c.43.215 1.054.215 1.936.215 1.485 0 2.345-.215 2.99-.837.431-.429.839-1.05.839-1.93 0-1.287-1.054-1.93-1.936-2.123 1.054-.43 1.485-1.051 1.485-1.93 0-.88-.215-1.288-.646-1.695-.645-.429-1.291-.643-2.56-.643-.839 0-1.484 0-2.129.214v8.708l.021.021zm1.291-7.871c.215-.215.43-.215 1.054-.215 1.054 0 1.936.43 1.936 1.48 0 .837-.839 1.48-1.936 1.48h-1.054V7.4v.022zm0 3.603h.839c1.291 0 2.345.644 2.345 1.695 0 1.286-1.054 1.93-2.345 1.93-.43 0-.646-.215-.839-.215v-3.41zm5.959 4.247h5.12v-.837h-3.829V6.37h-1.291v8.922-.021zm10.885-5.126h-3.42V7.378h3.614v-1.05h-4.712v8.921h4.905v-.836h-3.829v-3.174h3.421v-1.051l.021-.043zm-62.71 14.477h-5.12v2.767h2.13v3.174c-.215.215-.838.215-1.484.215-2.56 0-4.26-1.93-4.26-4.89 0-3.41 1.937-5.105 4.475-5.105 1.485 0 2.345.429 3.184.836l.646-2.767c-.646-.428-2.13-.836-3.83-.836-4.474 0-7.68 2.981-7.68 7.871 0 2.338.646 4.247 1.937 5.748 1.29 1.287 2.99 1.93 5.55 1.93 1.7 0 3.614-.428 4.474-.836v-8.107h-.021zm9.38 4.89l1.055 3.818h3.183l-4.066-15.1h-4.065l-4.066 15.1h2.99l1.054-3.818h3.915zm-3.42-2.552l.839-3.175c.215-.836.43-2.123.645-2.98.215.836.43 1.93.646 2.98l.839 3.175h-2.99.02zm21.125 6.37h2.99l-.645-15.1H82.35l-1.484 5.105c-.43 1.694-.84 3.603-1.29 5.298-.216-1.695-.646-3.604-1.055-5.298l-1.29-5.104h-4.26l-.84 15.099h2.991l.215-5.748c0-1.93.215-4.247.215-6.177.43 1.93.84 4.053 1.291 5.94l1.484 5.749h2.345l1.7-5.941c.43-1.695 1.054-3.818 1.484-5.748v6.177l.215 5.748zm5.314-15.1v15.1h3.184v-15.1h-3.184zm8.54 15.1V22.284a56.996 56.996 0 002.345 5.298l2.991 5.748h3.183v-15.1h-2.775v4.462c0 2.123 0 4.246.215 6.37a56.913 56.913 0 00-2.344-5.298l-2.776-5.533H95.15V33.33h2.775zm22.417-8.708h-4.905v2.767h1.936v3.174c-.215.215-.646.215-1.485.215-2.344 0-4.259-1.93-4.259-4.89 0-3.41 1.936-5.105 4.475-5.105 1.484 0 2.56.429 3.183.836l.646-2.767c-.646-.428-1.936-.836-3.614-.836-4.475 0-7.895 2.981-7.895 7.871 0 2.338.645 4.247 1.936 5.748 1.29 1.287 2.99 1.93 5.55 1.93 1.699 0 3.614-.428 4.475-.836v-8.064l-.043-.043zm-97.237 8.515H17.79V22.713h-1.484c-2.13.215-3.184 1.051-3.83 4.247-.645 3.195-1.29 5.533-1.7 6.177H5.465c.43-1.051 1.291-4.461 1.936-7.443.646-2.337 1.485-4.246 3.184-4.89v-.214c-2.13-.644-4.26-2.981-4.26-6.37 0-2.552.84-4.247 2.13-5.534 1.7-1.48 4.26-2.123 7.68-2.123 2.776 0 5.314.214 7.035.643v2.338c2.345-1.93 5.314-2.981 8.95-2.981 2.99 0 5.313.643 6.389 1.287l-1.055 4.697c-1.29-.644-2.775-1.051-5.55-1.051-4.26 0-7.68 2.767-7.68 8.515 0 5.748 2.99 8.707 7.465 8.707 1.054 0 2.13-.214 2.56-.428v-5.534h-3.614v-4.697h8.734v13.812c-1.7.644-4.711 1.48-7.895 1.48-3.614 0-6.196-.836-8.325-2.338v2.124h-.043zm-5.336-21.898c-.215 0-1.054-.215-2.344-.215-2.345 0-3.83 1.287-3.83 3.603 0 2.317 1.485 3.818 4.26 3.818h1.936v-7.228l-.022.022z" fill="#484F84"/></svg>