<svg width="310" height="41" fill="none" xmlns="http://www.w3.org/2000/svg"><path d="M7.44 22.47h4.586c.824 0 1.494-.154 2.113-.667 1.494-1.129 1.494-3.232 0-4.207-.516-.308-.98-.667-1.495-.667-1.804-.154-3.453 0-5.205-.154v5.695zm0 9.9h5.72c1.958-.307 3.246-2.103 2.628-4.052-.31-1.283-1.495-1.95-2.629-2.257-.824-.154-1.803-.154-2.628-.154H7.44v6.464zM.893 13.03H6.46c2.474 0 4.896 0 7.37.154 1.958 0 3.607.667 4.74 2.258 1.289 1.795 1.65 3.744.98 5.848-.31.975-.98 1.641-1.804 2.103-.31.154-.515.308-.825.513.67.308 1.289.667 1.804 1.129 1.288 1.128 1.958 2.77 1.958 4.566 0 1.949-.67 3.59-2.267 4.873-1.134.975-2.474 1.488-3.917 1.642-.515 0-.979.154-1.494.154H.74v-3.745h1.803V16.929H.74l.154-3.899zm297.094 16.11v-1.49c-.155-1.129-.825-1.95-1.804-2.462-1.804-1.129-3.916-.513-4.741 1.487-.515 1.488-.515 2.77-.155 4.207.31 1.129.825 1.95 1.959 2.462 2.113.821 4.741-.974 4.741-3.232v-.974zm-4.226 10.875c-.67-.153-1.494-.307-1.958-.666-1.289-.667-2.113-1.642-2.628-3.078h1.958c.154 0 .154.153.309.153 1.134 1.95 3.453 2.463 5.411 1.283.825-.513 1.134-1.129 1.288-2.103v-2.925c-.154.154-.309.514-.515.667-1.958 2.258-5.566 1.796-7.215-.513-1.133-1.487-1.288-3.078-1.133-4.873 0-1.129.515-2.104.979-3.078 1.649-2.463 5.565-2.924 7.369-.308.155.154.309.308.515.667v-2.103h3.608v1.487h-1.804v10.773c0 2.463-1.494 3.9-3.762 4.412-.309 0-.515.154-.824.154h-1.649v.051h.051zm15.203-34.166a4.718 4.718 0 00-4.742-4.72c-2.628 0-4.741 2.104-4.895 4.72 0 2.617 2.113 4.72 4.741 4.874 2.783-.154 4.896-2.257 4.896-4.874zm.979.667c-.155.975-.516 1.796-1.134 2.617-1.495 1.949-3.917 2.77-6.236 2.103-2.267-.667-3.916-2.617-4.071-4.874-.309-3.078 1.804-5.848 4.741-6.361h1.752c1.649.308 2.783.975 3.762 2.257.67.821.825 1.642 1.134 2.617v1.641h.052zM196.053 24.06c-.309 1.642-.825 3.232-1.134 4.874-.515 2.257-1.134 4.565-1.649 6.823 0 .153 0 .307-.309.307h-4.432c-.155-.513-.309-.974-.309-1.487-1.134-4.053-2.268-8.157-3.247-12.21 0-.308-.154-.513-.515-.513h-1.134v-3.437h7.009v3.437h-1.804c.825 3.437 1.649 6.823 2.474 10.26.154-.308.154-.82.309-1.128.824-4.053 1.649-8.157 2.628-12.056 0-.154.155-.308.309-.308h3.917c.309 0 .309.154.309.308.979 4.207 1.804 8.465 2.783 12.671 0 .154 0 .154.154.308l2.268-10.106h-1.804v-3.437h7.009v3.437h-1.134c-.155 0-.309 0-.309.308-1.134 4.411-2.474 8.926-3.607 13.338-.155.308-.155.513-.516.513h-3.916c-.31 0-.31 0-.516-.308-.979-3.745-1.803-7.49-2.783-11.389.104-.051.104-.051-.051-.205zm-23.551-6.515a251.222 251.222 0 00-3.092 10.106h6.029a859.555 859.555 0 00-2.937-10.106zm10.925 14.826v3.745h-5.205c-.309-1.129-.67-2.258-.979-3.438a17.15 17.15 0 00-.515-1.487c0-.154-.155-.154-.309-.154h-7.679c-.309 0-.309.154-.309.308-.516 1.487-.825 2.924-1.289 4.412 0 .153 0 .153-.154.307h-5.411V32.32h1.494c.309 0 .309 0 .516-.307 1.958-6.362 4.071-12.518 6.029-18.879 0-.308.155-.308.515-.308h5.051c.309 0 .309.154.515.308 2.113 6.207 4.071 12.517 6.236 18.725.154.308.154.308.515.308 0 .205.515.205.979.205zm64.108-7.336l7.524.154c0-1.95-1.494-3.438-3.453-3.438-1.958-.102-3.916 1.488-4.071 3.284zm12.574 3.283h-12.574c.155 1.642.67 3.078 1.958 4.053 1.134.82 2.474.974 3.917.513.979-.308 1.495-.975 1.958-1.95.155-.154.155-.308.516-.308 1.288 0 2.783 0 4.071-.153 0 .307-.155.513-.155.667-.979 3.078-3.092 4.873-6.39 5.386-1.958.308-3.762.154-5.566-.82-2.267-1.13-3.762-3.079-4.432-5.695-.669-3.078-.309-6.002 1.65-8.619 3.246-4.412 10.152-4.206 13.398.154.98 1.693 1.804 4.823 1.649 6.772zM28.207 25.035l7.524.154c.155-1.796-1.288-3.232-3.246-3.438-2.01-.256-4.123 1.334-4.278 3.284zm12.265 3.283H27.898c0 .308 0 .667.155.975.154.667.309 1.282.67 1.95.824 1.487 2.267 1.948 3.916 1.795 1.495-.154 2.474-.975 2.938-2.258 0-.154.154-.154.309-.154 1.288 0 2.783-.153 4.071-.153h.155c-.155.974-.516 1.795-.98 2.616-1.288 1.95-3.092 3.078-5.41 3.437-1.959.308-3.917.154-5.72-.82-2.474-1.283-3.763-3.438-4.433-6.003-.515-2.616-.309-5.181 1.134-7.49 2.937-5.027 10.461-5.54 13.914-.667 1.288 1.95 1.958 4.207 1.958 6.67l-.103.102zm181.039-.513c-1.134.154-2.268.154-3.247.513-.825.154-1.494.308-2.267.667-.98.308-1.289 1.128-1.289 2.103 0 .975.67 1.642 1.649 1.95 1.495.513 3.247 0 4.432-1.129.928-1.18.928-2.616.722-4.104zm0-2.924c0-.513-.155-1.129-.155-1.642-.155-.974-.825-1.641-1.804-1.795-.67-.154-1.494-.154-2.113 0-1.133.308-1.958.974-1.958 2.257v.513l-4.226-.154c0-.82.155-1.642.67-2.257a6.014 6.014 0 013.092-2.77c2.629-.975 5.205-.975 7.834.153 2.112.821 3.092 2.617 3.246 4.72.155 1.95 0 3.899 0 6.002v3.078h1.495v3.438h-5.566v-1.95l-.67.667c-2.628 2.257-7.009 2.103-9.482-.154-2.113-2.103-2.113-6.361 1.134-7.952 1.494-.82 2.937-1.128 4.586-1.282 1.288-.154 2.628-.308 4.071-.513-.309-.36-.309-.36-.154-.36zm-131.36-3.232c.67-.667 1.134-1.283 1.804-1.95 1.494-1.282 3.092-1.795 5.05-1.487 1.494.308 2.267 1.128 2.783 2.462.154.308.154.667.309.975.155-.154.309-.513.515-.667.825-1.283 1.959-2.462 3.608-2.77 1.494-.308 2.937-.308 4.071.667.979.82 1.288 1.95 1.494 3.078v11.748h2.474v2.103h-4.896V23.239c0-.513 0-.82-.154-1.282-.31-1.642-1.495-2.463-3.247-1.95-1.288.308-2.113 1.129-2.937 2.258a5.671 5.671 0 00-.98 3.231v8.311h2.629v2.103h-5.36V23.187c0-.512 0-.974-.154-1.487-.31-.975-.98-1.488-1.959-1.642-1.494-.153-2.473.514-3.452 1.488-1.134 1.283-1.804 2.617-1.65 4.412v8.003h2.629v2.103h-7.473v-2.103h2.474V20.469h-2.474v-2.103h5.205c-.464 1.128-.464 2.154-.31 3.283zM60.21 26.676h-5.411c0-.667 0-1.487.154-2.103h8.194v11.389h-2.576V32.37c-.155.154-.155.154-.155.307-1.65 2.463-3.762 3.745-6.7 3.9-2.267 0-4.07-.822-5.874-2.258-1.959-1.795-3.092-4.053-3.608-6.515-.67-3.232-.309-6.515.98-9.593.979-2.104 2.473-3.9 4.586-4.874 3.453-1.641 7.678-.974 10.152 2.617 0 .153.155.153.31.307v-3.59h2.473v7.335h-2.68c-.154-.975-.67-1.795-1.134-2.616-1.288-1.796-3.092-2.77-5.204-2.77-1.959 0-3.608.974-4.742 2.462-1.133 1.283-1.649 2.924-1.958 4.72-.31 2.462-.155 4.72.67 6.977.515 1.282 1.134 2.462 2.268 3.437 1.958 1.795 4.431 2.103 6.699.974 2.267-.974 3.762-3.744 3.556-6.515zm69.313.513v-1.128c-.155-1.283-.516-2.617-1.134-3.745-1.288-1.796-3.453-2.463-5.411-1.488-1.804.82-3.607 3.078-3.247 5.54.155 1.283 0 2.463.31 3.745.309 2.104 2.473 3.9 4.586 4.207 1.804.154 3.453-.82 4.226-2.462.361-1.59.67-3.078.67-4.669zm-12.574-13.03h-2.268v-2.103h4.896v10.106c.154-.154.154-.308.309-.308.515-.82 1.288-1.642 2.113-2.257 2.267-1.642 5.05-1.642 7.369.308 1.649 1.282 2.474 3.078 2.938 5.027.67 2.924.309 5.695-1.289 8.31-.824 1.283-1.958 2.463-3.453 3.079-2.267.82-4.895.154-6.544-1.642-.31-.513-.825-.974-1.289-1.488v3.078h-5.05v-2.103h2.474V14.16h-.206zm-39.218 13.03h-.309c-1.494.154-2.937.513-4.586.821-.98.154-1.959.513-2.783 1.129-.516.308-.98.82-.98 1.641-.309 1.95 1.134 3.9 3.247 4.053 2.268.154 4.741-1.642 5.205-3.899.206-1.487 0-2.616.206-3.745zM80 34.166h2.473c0 .667.155 1.488.155 2.104h-5.05v-3.08l-.155.154c-1.288 2.104-3.247 3.078-5.72 3.232-2.113.154-3.762-.667-4.896-2.462-.979-1.642-1.288-3.232-.31-5.028.516-1.128 1.495-1.641 2.63-2.103 1.494-.667 3.091-.975 4.74-1.282 1.134-.154 2.474-.308 3.762-.513 0-.821 0-1.796-.154-2.617-.31-1.282-1.289-1.95-2.474-2.257-.98-.308-2.113-.154-3.092 0-1.288.308-2.113 1.283-2.474 2.462-.154.308-.154.514-.67.514h-2.267c.515-2.104 1.494-3.592 3.453-4.566 2.267-.975 4.586-.975 6.854 0 1.803.82 2.782 2.257 3.092 4.206v10.414l.103.821zm66.169-8.31h9.637c0-1.488-.515-2.617-1.134-3.745-.979-1.283-2.113-1.95-3.762-1.642-3.092.36-4.535 2.616-4.741 5.386zm12.626 1.949h-12.729c.155.667.155 1.129.309 1.642.155.974.516 1.949 1.134 2.924 1.288 1.95 4.226 2.616 6.03 1.487.824-.513 1.288-1.282 1.803-2.103.155-.308.309-.513.67-.513h2.474c-.155.308-.155.667-.309.975-1.134 2.616-4.226 4.412-7.215 4.053-4.071-.308-6.854-3.079-7.524-7.183-.515-2.616-.155-5.18 1.288-7.49 1.134-1.949 2.938-3.231 5.205-3.59 3.247-.514 6.236 1.128 7.679 4.052.824 1.642 1.133 3.437 1.133 5.387l.052.359zm76.94 4.873h2.113v3.438h-8.194v-3.438h1.804V21.957h-1.804v-3.438h6.029v2.617c.155-.154.31-.513.31-.667.67-.975 1.494-1.95 2.782-2.103.98-.308 2.113-.154 3.092 0l.155.154v3.898c-.515 0-.979-.153-1.494-.153-1.289-.154-2.629.153-3.608.974-.824.667-1.133 1.642-1.288 2.616v6.516c-.052.154-.052.154.103.307zm-99.512-18.673h-2.473v-1.95h5.05v21.957h2.267v2.104h-7.317v-2.104h2.473V14.005zm132.236 15.75c0 .974.155 1.949.515 2.924.67 1.282 1.649 2.103 3.092 2.103s2.629-.667 3.247-1.95c.309-.82.515-1.487.67-2.462.154-1.283 0-2.616-.67-3.745-.67-1.282-1.804-1.95-3.247-1.95-1.443 0-2.267.821-2.937 1.95-.67 1.026-.67 2-.67 3.13zm9.431-.308c0 1.641-.31 3.078-1.134 4.206-1.288 1.95-3.092 2.617-5.411 2.463-2.113-.154-3.608-1.488-4.432-3.438-.825-2.103-.979-4.411 0-6.515.979-2.103 2.783-3.232 5.205-3.232s4.071 1.129 5.05 3.232c.567 1.18.722 2.309.722 3.284zm7.214 6.515h-5.72v-1.488h1.804v-9.593h-1.804v-1.488h3.762v2.616c.67-1.128 1.495-2.257 2.783-2.77.67-.154 1.804-.154 2.474 0v1.796c-.31 0-.67 0-.98-.154-2.267-.154-4.225 1.488-4.225 3.745v5.694h2.113l-.207 1.642zm-22.881-2.104h2.113v2.104h-2.113v-2.104zm40.506-30.626v1.95h1.958c.155 0 .309 0 .516-.155.515-.153.669-.513.515-1.128 0-.513-.309-.821-.825-.821-.67.154-1.34.154-2.164.154zm2.783 2.462c.67.154.824.667.824 1.129 0 .462.155 1.129.155 1.642-.979 0-.825.153-.979-.821 0-.308 0-.667-.155-.975-.154-.513-.309-.82-.979-.82h-1.958V8.31h-.825V2.462h3.144c.824 0 1.288.513 1.494 1.129.464.975.103 1.59-.721 2.103z" fill="#fff"/></svg>