<svg width="24" height="28" fill="none" xmlns="http://www.w3.org/2000/svg"><path fill-rule="evenodd" clip-rule="evenodd" d="M21.284 19.274c.545.552 1.19.994 1.902 1.303a26.28 26.28 0 01-.482 1.302 13.998 13.998 0 01-1.485 2.683 12.689 12.689 0 01-1.901 2.318 3.621 3.621 0 01-2.449 1.094 5.964 5.964 0 01-2.266-.547 6.302 6.302 0 00-2.422-.56 6.51 6.51 0 00-2.514.56A7.273 7.273 0 017.506 28a3.465 3.465 0 01-2.514-1.12 13.108 13.108 0 01-1.993-2.488A16.827 16.827 0 01.89 20.16c-.57-1.62-.87-3.323-.885-5.04a9.26 9.26 0 011.172-4.793 6.941 6.941 0 015.926-3.542c.897.053 1.778.26 2.604.612a8.57 8.57 0 002.084.612 12.423 12.423 0 002.318-.73 7.71 7.71 0 013.139-.56 6.629 6.629 0 015.21 2.775 5.913 5.913 0 00-3.048 5.326 5.822 5.822 0 001.875 4.454zM15.775 4.467A6.108 6.108 0 0017.286.56a3.08 3.08 0 000-.56 5.613 5.613 0 00-2.24.651 6.133 6.133 0 00-1.954 1.485 5.678 5.678 0 00-1.536 3.777c-.01.177-.01.356 0 .534a4.754 4.754 0 004.22-1.98z" fill="#D3D3D3"/></svg>