<svg width="32" height="28" fill="none" xmlns="http://www.w3.org/2000/svg"><mask id="a" style="mask-type:luminance" maskUnits="userSpaceOnUse" x="0" y="0" width="32" height="28"><path d="M31.111 0H0v28h31.111V0z" fill="#fff"/></mask><g mask="url(#a)" fill="#D3D3D3"><path d="M15.556 22.493c-4.34 0-7.654-1.104-9.878-3.344a.772.772 0 010-1.089.77.77 0 011.089 0c1.918 1.919 4.848 2.878 8.789 2.878h1.742a37.856 37.856 0 01-.187-4.667h-2.147c-1.742 0-2.006-1.851-1.4-5.195A83.856 83.856 0 0116.677-.062H1.556A1.556 1.556 0 000 1.556v24.889A1.556 1.556 0 001.556 28h16.846a51.677 51.677 0 01-.949-5.584c-.63.064-1.264.09-1.897.077zm-7.778-14a.778.778 0 011.555 0v3.111a.777.777 0 11-1.555 0v-3.11z"/><path d="M29.555 0H18.31a86.864 86.864 0 00-3.267 11.356c-.435 2.364-.28 3.36-.124 3.36h3.889v.84c0 1.788 0 3.5.186 5.148a9.955 9.955 0 005.351-2.582.77.77 0 011.09 1.09 11.37 11.37 0 01-6.316 3.11c.186 1.91.488 3.805.902 5.678h9.535a1.556 1.556 0 001.556-1.556V1.556A1.556 1.556 0 0029.555 0zm-6.222 11.667a.778.778 0 01-1.555 0V8.556a.778.778 0 111.555 0v3.11z"/></g></svg>