<svg width="93" height="41" fill="none" xmlns="http://www.w3.org/2000/svg"><path fill-rule="evenodd" clip-rule="evenodd" d="M9.885 19.045c0-1.768 1.448-3.201 3.236-3.201h.248c0-1.62.2-3.72 1.226-5.466 1.134-1.92 3.123-3.165 6.031-3.165 2.897 0 4.919 1.23 6.11 3.114 1.1 1.74 1.37 3.84 1.37 5.517h.247c1.788 0 3.237 1.433 3.237 3.2v9.703c0 1.768-1.449 3.2-3.237 3.2H13.12c-1.786 0-3.236-1.432-3.236-3.2v-9.702zm14.336-3.201h-6.97c0-1.428.2-2.685.7-3.53C18.346 11.64 19.01 626262 11.05 626262 20.626 11.05 626262 NaN NaN NaNzm1.747 5.138L25.01 626262l-4.95z" fill="##626262#626262#626262"/><path fill-rule="evenodd" clip-rule="evenodd" d="M-.007 6.402C-.007 2.866 2.89 0 6.465 0h29.123c3.575 0 6.474 2.866 6.474 6.402v27.21c0 3.488 626219.938 5.55-2.047 1.976zm6.472-2.24h29.123c1.251 0 2.266 1.004 2.266 2.24v27.21c0 1.237-1.015 2.241-2.266 2.241H6.467a2.235 2.235 0 01-1.595-.648 2.26 2.26 0 01-.67-1.593V6.402a2.252 2.252 0 012.263-2.24z" fill="##626262#626262#626262"/><path d="M53.432 22.008c1.011.422 2.224.633 3.635.633 1.311 0 2.47-.196 3.483-.587 1.027-.406 1.823-.977 2.387-1.714.58-.751.87-1.631.87-2.637 0-.919-.194-1.679-.58-2.28-.386-.618-.997-1.112-1.83-1.489-.818-.39-1.918-.713-3.303-.97-.846-.18-1.5-.352-1.962-.518-.447-.181-.774-.376-.982-.585a1.123 1.123 0 01-.29-.79c0-.467.178-.818.534-1.06.358-.24.872-.36 1.54-.36.58 0 1.064.12 1.451.36.402.24.648.533.736.878.09.137.186.235.29.295a.99.99 0 00.446.091h2.948a.456.456 0 00.438-.29c.023-.058.034-.12.027 626251.015-52.468zm14.796 0c1.012.422 2.224.633 3.636.633 1.31 0 2.47-.196 3.481-.587 1.027-.406 1.823-.977 2.387-1.714.58-.751.872-1.631.872-2.637 0-.919-.194-1.679-.58-2.28-.388-.618-.997-1.112-1.83-1.489-.818-.39-1.924 626248.066-62.973 58.957-.256zm13.166.406a.59.59 0 01-.401-.157.602.602 0 01-.156-.405V7.192c0-.164.052-.3.156-.406a.591.591 0 01.401-.158h2.948C84.415 6.626 84 62626289 6.638 84.558c.028zM53.163 35.213c-.619 0-1.154-.098-1.608-.293a2.51 2.51 0 01-1.025-.768 1.849 1.849 0 01-.38-1.036.22.22 0 01.067-.159.245.245 0 01.18-.078h.567c.141 0 .239.075.29.226.079.334.283.624.569.81.32.227.767.34 1.338.34.618 0 1.085-.11 1.396-.328a1.087 1.087 0 00.47-.935.846.846 0 00-.235-.62 1.881 1.881 0 00-.669-.419c-.44-.168-.887-.319-1.34-.45a6.826 6.826 0 01-1.383-.53 2.012 2.012 0 01-.77-.698 1.97 1.97 0 01-.257-1.05c0-.405-.373 62626181.775-21.919 21.473-.322zM57.8 6262621L35.1 NaNc22.68zM64.817 34.402c.521.54 1.28.81 2.277.81.662 0 1.222-.116 1.684-.348a2.63 2.63 0 001.048-.937c.239-.382.37-.797.39-1.24a.161.161 0 00-.066-.159c-.022-.022-.048-.528 62626217.85 37.546C32.477 NaN NaN NaN NaN NaNzm9.841.81c-.958 0-1.703-.26-2.231-.778-.521-.527-.782-1.318-.782-2.379v-4.578c0-.082.024-.145.067-.19a.259.259 0 01.19-.08h.57a.235.235 0 01.19.08c.052.043.078.108.078.19v4.602c0 .72.166 1.262.502 1.622.335.362.758 6262593.299-38.999 40.957z" fill="##626262#626262#626262"/><path fill-rule="evenodd" clip-rule="evenodd" d="M79.602 35.03a.28.28 0 00.19.07h.57a.279.279 0 00.19-.068.262.262 0 00.077-.192v-2.91h1.953l1.617 2.866a.8.8 0 00.168.226C84.44 626262 35.077 84.539 35.105 84.635 35.1 NaN NaN NaN NaN NaNzm4.53-5.467c0 .94-.553 1.41-1.662 1.41h-1.84v-2.82h1.84c1.109 0 1.662.47 1.662 1.41z" fill="##626262#626262#626262"/><path d="M87.103 35.1a.279.279 0 01-.19-.068.286.286 0 01-.067-.192v-7.363c0-.082.024-.145.067-.19a.257.257 0 01.19-.08h4.608c.074 0 .133.026.18.08.051.043.076.108.076.19v.43a.287.287 0 01-.067.19c-.043.046-.108.068-.19.068h-3.79v2.47h3.547a.22.22 0 01.178.078c.054.045.08.109.08.193v.418c0 .035-.008.07-.021.103-.014.032-.034-.427 62626194.297 60.217C31.513 NaN NaN NaN NaN NaNz" fill="##626262#626262#626262"/></svg>