<svg width="310" height="41" fill="none" xmlns="http://www.w3.org/2000/svg"><path d="M6.7 22.47h4.585c.825 0 1.495-.154 2.114-.667 1.494-1.129 1.494-3.232 0-4.207-.515-.308-.98-.667-1.495-.667-1.803-.154-3.452 0-5.205-.154v5.695zm0 9.9h5.72c1.958-.307 3.246-2.103 2.628-4.052-.31-1.283-1.495-1.95-2.628-2.257-.825-.154-1.804-.154-2.629-.154H6.7v6.464zM.154 13.03H5.72c2.474 0 4.896 0 7.37.154 1.958 0 3.607.667 4.74 2.258 1.289 1.795 1.65 3.744.98 5.848-.31.975-.98 1.641-1.804 2.103-.309.154-.515.308-.824.513.67.308 1.288.667 1.803 1.129 1.289 1.128 1.959 2.77 1.959 4.566 0 1.949-.67 3.59-2.268 4.873-1.134.975-2.473 1.488-3.916 1.642-.516 0-.98.154-1.495.154H0v-3.745h1.804V16.929H0l.155-3.899zm297.093 16.11v-1.49c-.155-1.129-.824-1.95-1.804-2.462-1.803-1.129-3.916-.513-4.741 1.487-.515 1.488-.515 2.77-.154 4.207.309 1.129.824 1.95 1.958 2.462 2.113.821 4.741-.974 4.741-3.232v-.974zm-4.226 10.875c-.67-.153-1.494-.307-1.958-.666-1.288-.667-2.113-1.642-2.628-3.078h1.958c.155 0 .155.153.309.153 1.134 1.95 3.453 2.463 5.411 1.283.825-.513 1.134-1.129 1.289-2.103v-2.925c-.155.154-.31.514-.516.667-1.958 2.258-5.565 1.796-7.214-.513-1.134-1.487-1.289-3.078-1.134-4.873 0-1.129.515-2.104.979-3.078 1.649-2.463 5.566-2.924 7.369-.308.155.154.31.308.516.667v-2.103h3.607v1.487h-1.804v10.773c0 2.463-1.494 3.9-3.762 4.412-.309 0-.515.154-.824.154h-1.649v.051h.051zm15.203-34.166a4.718 4.718 0 00-4.741-4.72c-2.629 0-4.741 2.104-4.896 4.72 0 2.617 2.113 4.72 4.741 4.874 2.783-.154 4.896-2.257 4.896-4.874zm.979.667c-.155.975-.515 1.796-1.134 2.617-1.494 1.949-3.916 2.77-6.235 2.103-2.268-.667-3.917-2.617-4.072-4.874-.309-3.078 1.804-5.848 4.742-6.361h1.752c1.649.308 2.782.975 3.762 2.257.67.821.824 1.642 1.133 2.617v1.641h.052zM195.313 24.06c-.309 1.642-.824 3.232-1.134 4.874-.515 2.257-1.133 4.565-1.649 6.823 0 .153 0 .307-.309.307h-4.432c-.154-.513-.309-.974-.309-1.487-1.134-4.053-2.267-8.157-3.247-12.21 0-.308-.154-.513-.515-.513h-1.134v-3.437h7.009v3.437h-1.804c.825 3.437 1.649 6.823 2.474 10.26.154-.308.154-.82.309-1.128.825-4.053 1.649-8.157 2.628-12.056 0-.154.155-.308.309-.308h3.917c.309 0 .309.154.309.308.979 4.207 1.804 8.465 2.783 12.671 0 .154 0 .154.155.308l2.267-10.106h-1.803v-3.437h7.008v3.437h-1.134c-.154 0-.309 0-.309.308-1.134 4.411-2.473 8.926-3.607 13.338-.155.308-.155.513-.516.513h-3.916c-.309 0-.309 0-.515-.308-.98-3.745-1.804-7.49-2.783-11.389.103-.051.103-.051-.052-.205zm-23.551-6.515a251.222 251.222 0 00-3.092 10.106h6.03a859.331 859.331 0 00-2.938-10.106zm10.925 14.826v3.745h-5.205c-.309-1.129-.669-2.258-.979-3.438a16.82 16.82 0 00-.515-1.487c0-.154-.155-.154-.309-.154H168c-.309 0-.309.154-.309.308-.515 1.487-.824 2.924-1.288 4.412 0 .153 0 .153-.155.307h-5.411V32.32h1.495c.309 0 .309 0 .515-.307 1.958-6.362 4.071-12.518 6.029-18.879 0-.308.155-.308.516-.308h5.05c.309 0 .309.154.515.308 2.113 6.207 4.071 12.517 6.236 18.725.155.308.155.308.515.308 0 .205.516.205.979.205zm64.108-7.336l7.524.154c0-1.95-1.494-3.438-3.452-3.438-1.959-.102-3.917 1.488-4.072 3.284zm12.575 3.283h-12.575c.155 1.642.67 3.078 1.959 4.053 1.133.82 2.473.974 3.916.513.979-.308 1.495-.975 1.959-1.95.154-.154.154-.308.515-.308 1.288 0 2.783 0 4.071-.153 0 .307-.154.513-.154.667-.98 3.078-3.093 4.873-6.391 5.386-1.958.308-3.762.154-5.565-.82-2.268-1.13-3.762-3.079-4.432-5.695-.67-3.078-.309-6.002 1.649-8.619 3.246-4.412 10.152-4.206 13.399.154.979 1.693 1.803 4.823 1.649 6.772zM27.467 25.035l7.525.154c.154-1.796-1.289-3.232-3.247-3.438-2.01-.256-4.123 1.334-4.277 3.284zm12.266 3.283H27.158c0 .308 0 .667.155.975.155.667.31 1.282.67 1.95.824 1.487 2.267 1.948 3.916 1.795 1.495-.154 2.474-.975 2.938-2.258 0-.154.154-.154.31-.154 1.287 0 2.782-.153 4.07-.153h.155c-.155.974-.516 1.795-.98 2.616-1.288 1.95-3.091 3.078-5.41 3.437-1.959.308-3.917.154-5.72-.82-2.474-1.283-3.763-3.438-4.433-6.003-.515-2.616-.309-5.181 1.134-7.49 2.938-5.027 10.462-5.54 13.914-.667 1.289 1.95 1.959 4.207 1.959 6.67.051-.052.051-.052-.103.102zm181.038-.513c-1.134.154-2.268.154-3.247.513-.824.154-1.494.308-2.267.667-.979.308-1.289 1.128-1.289 2.103 0 .975.67 1.642 1.649 1.95 1.495.513 3.247 0 4.432-1.129.928-1.18.928-2.616.722-4.104zm0-2.924c0-.513-.155-1.129-.155-1.642-.154-.974-.824-1.641-1.803-1.795-.67-.154-1.495-.154-2.113 0-1.134.308-1.959.974-1.959 2.257v.513l-4.225-.154c0-.82.154-1.642.67-2.257a6.01 6.01 0 013.092-2.77c2.628-.975 5.205-.975 7.833.153 2.113.821 3.092 2.617 3.246 4.72.155 1.95 0 3.899 0 6.002v3.078h1.495v3.438h-5.566v-1.95l-.67.667c-2.628 2.257-7.008 2.103-9.482-.154-2.113-2.103-2.113-6.361 1.134-7.952 1.494-.82 2.937-1.128 4.586-1.282 1.289-.154 2.629-.308 4.071-.513-.309-.36-.309-.36-.154-.36zm-131.36-3.232c.67-.667 1.134-1.283 1.804-1.95 1.494-1.282 3.092-1.795 5.05-1.487 1.495.308 2.268 1.128 2.783 2.462.155.308.155.667.31.975.154-.154.308-.513.514-.667.825-1.283 1.959-2.462 3.608-2.77 1.494-.308 2.937-.308 4.071.667.979.82 1.288 1.95 1.495 3.078v11.748h2.473v2.103h-4.896V23.239c0-.513 0-.82-.154-1.282-.309-1.642-1.495-2.463-3.247-1.95-1.288.308-2.113 1.129-2.937 2.258a5.668 5.668 0 00-.98 3.231v8.311h2.629v2.103h-5.36V23.187c0-.512 0-.974-.154-1.487-.31-.975-.98-1.488-1.959-1.642-1.494-.153-2.473.514-3.452 1.488-1.134 1.283-1.804 2.617-1.65 4.412v8.003h2.629v2.103h-7.472v-2.103h2.473V20.469h-2.474v-2.103h5.205c-.463 1.128-.463 2.154-.309 3.283zM59.47 26.676h-5.411c0-.667 0-1.487.155-2.103h8.194v11.389H59.83V32.37c-.155.154-.155.154-.155.307-1.649 2.463-3.762 3.745-6.7 3.9-2.267 0-4.07-.822-5.874-2.258-1.958-1.795-3.092-4.053-3.607-6.515-.67-3.232-.31-6.515.979-9.593.979-2.104 2.473-3.9 4.586-4.874 3.453-1.641 7.679-.974 10.152 2.617 0 .153.155.153.31.307v-3.59h2.473v7.335h-2.68c-.154-.975-.67-1.795-1.133-2.616-1.289-1.796-3.092-2.77-5.205-2.77-1.958 0-3.608.974-4.741 2.462-1.134 1.283-1.65 2.924-1.959 4.72-.309 2.462-.154 4.72.67 6.977.516 1.282 1.134 2.462 2.268 3.437 1.958 1.795 4.432 2.103 6.7.974 2.267-.974 3.761-3.744 3.555-6.515zm69.313.513v-1.128c-.155-1.283-.515-2.617-1.134-3.745-1.288-1.796-3.452-2.463-5.411-1.488-1.803.82-3.607 3.078-3.246 5.54.154 1.283 0 2.463.309 3.745.309 2.104 2.473 3.9 4.586 4.207 1.804.154 3.453-.82 4.226-2.462.361-1.59.67-3.078.67-4.669zm-12.574-13.03h-2.268v-2.103h4.896v10.106c.155-.154.155-.308.309-.308.516-.82 1.289-1.642 2.113-2.257 2.268-1.642 5.05-1.642 7.369.308 1.649 1.282 2.474 3.078 2.938 5.027.67 2.924.309 5.695-1.289 8.31-.824 1.283-1.958 2.463-3.452 3.079-2.268.82-4.896.154-6.545-1.642-.309-.513-.825-.974-1.288-1.488v3.078h-5.051v-2.103h2.474V14.16h-.206zm-39.218 13.03h-.309c-1.494.154-2.937.513-4.586.821-.98.154-1.959.513-2.783 1.129-.515.308-.98.82-.98 1.641-.308 1.95 1.135 3.9 3.248 4.053 2.267.154 4.74-1.642 5.204-3.899.207-1.487 0-2.616.207-3.745zm2.268 6.977h2.474c0 .667.154 1.488.154 2.104h-5.05v-3.08l-.155.154c-1.288 2.104-3.246 3.078-5.72 3.232-2.113.154-3.762-.667-4.896-2.462-.979-1.642-1.288-3.232-.309-5.028.515-1.128 1.495-1.641 2.628-2.103 1.495-.667 3.092-.975 4.741-1.282 1.134-.154 2.474-.308 3.762-.513 0-.821 0-1.796-.154-2.617-.31-1.282-1.288-1.95-2.474-2.257-.979-.308-2.113-.154-3.092 0-1.288.308-2.113 1.283-2.473 2.462-.155.308-.155.514-.67.514h-2.268c.515-2.104 1.495-3.592 3.453-4.566 2.267-.975 4.586-.975 6.854 0 1.804.82 2.783 2.257 3.092 4.206v10.414l.103.821zm66.169-8.31h9.637c0-1.488-.515-2.617-1.133-3.745-.98-1.283-2.113-1.95-3.762-1.642-3.092.36-4.535 2.616-4.742 5.386zm12.626 1.949h-12.729c.155.667.155 1.129.31 1.642.154.974.515 1.949 1.133 2.924 1.289 1.95 4.226 2.616 6.03 1.487.824-.513 1.288-1.282 1.803-2.103.155-.308.31-.513.67-.513h2.474c-.155.308-.155.667-.309.975-1.134 2.616-4.226 4.412-7.215 4.053-4.071-.308-6.854-3.079-7.524-7.183-.515-2.616-.154-5.18 1.288-7.49 1.134-1.949 2.938-3.231 5.205-3.59 3.247-.514 6.236 1.128 7.679 4.052.824 1.642 1.134 3.437 1.134 5.387l.051.359zm76.94 4.873h2.113v3.438h-8.194v-3.438h1.804V21.957h-1.804v-3.438h6.03v2.617c.154-.154.309-.513.309-.667.67-.975 1.494-1.95 2.783-2.103.979-.308 2.113-.154 3.092 0l.154.154v3.898c-.515 0-.979-.153-1.494-.153-1.288-.154-2.628.153-3.607.974-.825.667-1.134 1.642-1.289 2.616v6.516c-.051.154-.051.154.103.307zm-99.512-18.673h-2.473v-1.95h5.05v21.957h2.268v2.104h-7.318v-2.104h2.473V14.005zm132.236 15.75c0 .974.155 1.949.516 2.924.669 1.282 1.649 2.103 3.092 2.103 1.442 0 2.628-.667 3.246-1.95.309-.82.516-1.487.67-2.462.155-1.283 0-2.616-.67-3.745-.67-1.282-1.804-1.95-3.246-1.95-1.443 0-2.268.821-2.938 1.95-.67 1.026-.67 2-.67 3.13zm9.431-.308c0 1.641-.309 3.078-1.134 4.206-1.288 1.95-3.092 2.617-5.411 2.463-2.113-.154-3.607-1.488-4.432-3.438-.824-2.103-.979-4.411 0-6.515.979-2.103 2.783-3.232 5.205-3.232s4.071 1.129 5.05 3.232c.567 1.18.722 2.309.722 3.284zm7.215 6.515h-5.721v-1.488h1.804v-9.593h-1.804v-1.488h3.762v2.616c.67-1.128 1.495-2.257 2.783-2.77.67-.154 1.804-.154 2.474 0v1.796c-.309 0-.67 0-.979-.154-2.268-.154-4.226 1.488-4.226 3.745v5.694h2.113l-.206 1.642zm-22.881-2.104h2.112v2.104h-2.112v-2.104zm40.505-30.626v1.95h1.958c.155 0 .31 0 .516-.155.515-.153.67-.513.515-1.128 0-.513-.309-.821-.824-.821-.67.154-1.34.154-2.165.154zm2.783 2.462c.67.154.825.667.825 1.129 0 .462.154 1.129.154 1.642-.979 0-.824.153-.979-.821 0-.308 0-.667-.155-.975-.154-.513-.309-.82-.979-.82h-1.958V8.31h-.825V2.462h3.144c.825 0 1.288.513 1.494 1.129.464.975.104 1.59-.721 2.103z" fill="#626262"/></svg>