<svg width="101" height="32" fill="none" xmlns="http://www.w3.org/2000/svg"><path d="M78.414 25.124H74.21c-.154-.772-.319-1.528-.449-2.29-.054-.316-.15-.439-.489-.434-1.685.023-3.37.017-5.056.003-.255-.002-.356.086-.434.329a59.39 59.39 0 01-.746 2.16c-.035.098-.152.23-.232.232-1.519.013-3.038.01-4.6.01.284-.717.554-1.401.828-2.084 1.958-4.884 3.918-9.767 5.877-14.65.424-1.059 1.06-1.501 2.155-1.502h3.69c.121.596.244 1.183.362 1.77.963 4.827 1.925 9.653 2.891 14.48.124.617.27 1.23.406 1.846v.13zm-5.5-6.477l-1.332-6.672-.055-.01-2.318 6.682h3.704zM60.105 6.573c.555.108 1.114.196 1.663.329.5.12.992.289 1.524.447l-.787 3.846c-.702-.216-1.374-.464-2.064-.623-.945-.218-1.912-.3-2.857-.026a2.858 2.858 0 00-1.075.598c-.518.464-.525 1.132-.03 1.62.342.336.746.612 1.15.866.92.578 1.886 1.08 2.78 1.698 1.052.727 1.82 1.726 1.98 3.078.286 2.39-.56 4.272-2.481 5.604-1.208.838-2.575 1.212-4 1.35a13.715 13.715 0 01-5.839-.691c-.127-.044-.251-.099-.376-.152-.037-.016-.069-.044-.126-.08l.814-3.983c.324.148.628.296.939.427 1.485.625 3.018.91 4.607.6a3.202 3.202 0 001.186-.518c.76-.532.833-1.534.14-2.16-.454-.41-1.002-.714-1.52-1.044-.81-.516-1.67-.956-2.437-1.533-.983-.74-1.694-1.726-1.829-3.037-.202-1.962.495-3.556 1.937-4.795 1.254-1.077 2.743-1.555 4.33-1.756.088-.011.174-.043.26-.065h2.111zm-16.343.34c-.236.594-.46 1.16-.686 1.725-2.163 5.392-4.329 10.783-6.483 16.18-.103.256-.228.324-.478.322-1.365-.012-2.73-.017-4.095.003-.29.004-.384-.102-.45-.373-1.158-4.713-2.334-9.422-3.479-14.138-.21-.866-.63-1.457-1.418-1.82-1.263-.58-2.575-.99-3.912-1.321l-.174-.046c.007-.547.007-.547.505-.547h7.167c1.133.001 1.95.689 2.165 1.861.607 3.318 1.2 6.64 1.8 9.96.026.144.055.289.095.493.062-.122.105-.19.134-.264 1.483-3.923 2.968-7.845 4.444-11.77.08-.215.18-.287.401-.285 1.386.011 2.772.005 4.158.006.09 0 .18.008.306.014zm-1.809 18.221l3.73-18.216h4.526c-.188.924-.372 1.83-.558 2.737-1.025 5.012-2.055 10.023-3.069 15.037-.07.349-.189.46-.535.452-1.24-.025-2.481-.01-3.722-.01h-.372z" fill="#fff"/></svg>