<svg width="93" height="25" fill="none" xmlns="http://www.w3.org/2000/svg"><g clip-path="url(#clip0_25_2968)"><mask id="a" style="mask-type:luminance" maskUnits="userSpaceOnUse" x="0" y="0" width="93" height="25"><path d="M93 0H0v25h93V0z" fill="#fff"/></mask><g mask="url(#a)"><path d="M41.099 15.042v-2.985c0-1.126-.725-1.884-1.891-1.894a1.866 1.866 0 00-1.688.848 1.768 1.768 0 00-1.588-.848 1.594 1.594 0 00-1.405.708v-.597h-1.046v4.768h1.056v-2.64c0-.828.462-1.266 1.176-1.266.715 0 1.046.448 1.046 1.255v2.65h1.05v-2.64c0-.827.482-1.265 1.176-1.265.695 0 1.056.448 1.056 1.255v2.65h1.058zm15.622-4.764h-1.708V8.834h-1.056v1.444h-.975v.947h.975v2.171c0 1.106.432 1.765 1.668 1.765.462.002.915-.126 1.307-.368l-.301-.887c-.28.165-.599.258-.925.268-.522 0-.695-.318-.695-.796v-2.152h1.708l.002-.948zm8.919-.119a1.42 1.42 0 00-1.267.698v-.579h-1.036v4.764h1.046v-2.67c0-.796.341-1.226 1.026-1.226.224-.003.446.037.654.12l.321-.978a2.251 2.251 0 00-.745-.129zm-13.483.497a3.616 3.616 0 00-1.961-.497c-1.217 0-2.008.579-2.008 1.524 0 .778.583 1.256 1.658 1.405l.492.07c.572.08.845.228.845.497 0 .368-.381.579-1.096.579a2.576 2.576 0 01-1.606-.498l-.475.806a3.49 3.49 0 002.081.62c1.387 0 2.192-.65 2.192-1.555 0-.837-.634-1.275-1.678-1.425l-.492-.07c-.451-.059-.815-.148-.815-.467 0-.348.342-.557.916-.557a3.118 3.118 0 011.497.408l.45-.84zm28.005-.497a1.42 1.42 0 00-1.267.698v-.579H77.86v4.764h1.046v-2.67c0-.796.34-1.226 1.025-1.226.224-.003.447.037.655.12l.32-.978a2.25 2.25 0 00-.744-.129zM66.695 12.66c0 1.445 1.016 2.501 2.564 2.501a2.532 2.532 0 001.728-.569l-.502-.838a2.123 2.123 0 01-1.256.428c-.835 0-1.448-.609-1.448-1.524s.614-1.514 1.448-1.524c.454.005.895.155 1.256.428l.502-.838c-.484-.397-1.1-.6-1.728-.569-1.548 0-2.564 1.056-2.564 2.501v.004zm9.792 0v-2.388H75.44v.58a1.829 1.829 0 00-1.517-.699c-1.347 0-2.41 1.047-2.41 2.501s1.057 2.501 2.41 2.501a1.829 1.829 0 001.517-.698v.577h1.046V12.66zm-3.89 0c0-.838.552-1.524 1.457-1.524.865 0 1.447.659 1.447 1.524 0 .866-.582 1.524-1.447 1.524-.905 0-1.457-.688-1.457-1.524zm-12.618-2.5c-1.405 0-2.393 1.017-2.393 2.501 0 1.514 1.026 2.501 2.463 2.501a2.937 2.937 0 001.971-.668l-.511-.768a2.31 2.31 0 01-1.406.497c-.674 0-1.286-.308-1.437-1.166h3.57c.01-.13.02-.259.02-.398 0-1.484-.936-2.501-2.283-2.501l.006.002zm-.02.927c.674 0 1.106.418 1.216 1.156h-2.49c.11-.688.531-1.156 1.276-1.156h-.002zm26.225 1.574V8.364h-1.046v2.491a1.83 1.83 0 00-1.517-.698c-1.347 0-2.41 1.046-2.41 2.501 0 1.455 1.057 2.501 2.41 2.501a1.83 1.83 0 001.517-.698v.577h1.046V12.66zm1.222 1.942a.31.31 0 01.285.185.294.294 0 01-.066.33.305.305 0 01-.219.09.311.311 0 01-.289-.185.297.297 0 010-.235.304.304 0 01.165-.161.319.319 0 01.128-.024h-.004zm0 .537a.228.228 0 00.167-.067.235.235 0 00-.167-.402.236.236 0 00-.17.402.235.235 0 00.174.067h-.004zm.018-.378a.13.13 0 01.085.024.08.08 0 01.03.066.075.075 0 01-.024.057.112.112 0 01-.067.028l.093.106h-.072l-.087-.106h-.028v.106h-.06v-.279l.13-.002zm-.07.052v.075h.07a.067.067 0 00.038 0 .032.032 0 00.014-.027.032.032 0 00-.013-.028.07.07 0 00-.039 0l-.07-.02zm-5.056-2.153c0-.838.552-1.524 1.457-1.524.865 0 1.447.659 1.447 1.524 0 .866-.582 1.524-1.447 1.524-.905 0-1.457-.688-1.457-1.524zm-35.308 0v-2.388h-1.046v.58a1.829 1.829 0 00-1.511-.693c-1.347 0-2.409 1.047-2.409 2.501 0 1.455 1.056 2.501 2.409 2.501a1.829 1.829 0 001.517-.698v.577h1.046l-.006-2.38zm-3.89 0c0-.838.552-1.524 1.457-1.524.865 0 1.447.659 1.447 1.524 0 .866-.582 1.524-1.447 1.524-.905 0-1.457-.686-1.457-1.524z" fill="#fff"/><path d="M20.137 6.997h-6.323V18.26h6.323V6.997z" fill="#FF5F00"/><path d="M14.216 12.63A7.128 7.128 0 0116.976 7C13.838 4.556 9.295 5.096 6.829 8.206a7.12 7.12 0 001.216 10.057 7.277 7.277 0 008.93 0 7.127 7.127 0 01-2.76-5.633z" fill="#EB001B"/><path d="M28.668 12.631c0 3.956-3.235 7.162-7.226 7.162-1.62 0-3.193-.54-4.466-1.532a7.12 7.12 0 001.216-10.056 7.194 7.194 0 00-1.216-1.206c3.137-2.445 7.68-1.906 10.146 1.204a7.122 7.122 0 011.546 4.428zm-.694 4.435v-.231h.094v-.046h-.235v.048h.095v.23l.046-.001zm.463 0v-.279h-.062l-.084.2-.085-.2h-.074v.279h.042v-.21l.079.182h.054l.078-.181v.21l.052-.001z" fill="#F79E1B"/></g></g><defs><clipPath id="clip0_25_2968"><path fill="#fff" d="M0 0h93v25H0z"/></clipPath></defs></svg>