<svg width="68" height="68" fill="none" xmlns="http://www.w3.org/2000/svg"><g fill="#F6F6F6"><path fill-rule="evenodd" clip-rule="evenodd" d="M34 64.6c16.403 0 29.7-13.7 29.7-30.6C63.7 17.1 50.403 3.4 34 3.4S4.3 17.1 4.3 34c0 16.9 13.297 30.6 29.7 30.6zm0 3.4c18.225 0 33-15.222 33-34S52.225 0 34 0 1 15.222 1 34s14.775 34 33 34z"/><path d="M20.664 24.071h-3.93c-.047 1.212-1.705 3.277-4.184 3.277v3.336c2.13 0 3.515-.815 3.93-1.474h.179v14.718h4.005V24.072zM32.457 44.2c4.335 0 7.473-2.395 7.492-5.614-.019-2.482-1.866-4.509-4.184-4.906v-.136c2.017-.427 3.449-2.23 3.468-4.402-.019-3.073-2.884-5.342-6.776-5.342-3.92 0-6.786 2.269-6.767 5.342-.019 2.172 1.414 3.975 3.468 4.402v.136c-2.356.397-4.203 2.424-4.184 4.906-.019 3.219 3.11 5.614 7.483 5.614zm0-3.083c-1.951 0-3.261-1.174-3.242-2.86-.02-1.717 1.357-2.958 3.242-2.958 1.856 0 3.223 1.241 3.242 2.957-.019 1.687-1.32 2.86-3.242 2.86zm0-8.872c-1.64 0-2.809-1.096-2.79-2.666-.019-1.542 1.131-2.618 2.79-2.618 1.63 0 2.77 1.076 2.79 2.618-.02 1.57-1.179 2.666-2.79 2.666zm22.993.155h-4.637v-4.605h-3.157V32.4h-4.637v3.2h4.637v4.606h3.157V35.6h4.637v-3.2z"/></g></svg>