<svg width="43" height="43" fill="none" xmlns="http://www.w3.org/2000/svg"><g fill="#878787"><path d="M21.5 43C33.374 43 43 33.374 43 21.5S33.374 0 21.5 0 0 9.626 0 21.5 9.626 43 21.5 43zm0-39.417c9.895 0 17.917 8.022 17.917 17.917 0 9.895-8.022 17.917-17.917 17.917-9.895 0-17.917-8.022-17.917-17.917 0-9.895 8.022-17.917 17.917-17.917z"/><path d="M13.809 26.35l7.691-7.69 7.691 7.691a1.792 1.792 0 102.534-2.534l-8.958-8.958c-.7-.7-1.834-.7-2.534 0l-8.958 8.958a1.792 1.792 0 102.534 2.534z"/></g></svg>