<svg width="41" height="54" fill="none" xmlns="http://www.w3.org/2000/svg"><path d="M32.028 3.095c3.049 0 4.834.828 5.357 2.483.261.697.392 1.917.392 3.658 0 1.74-.567 3.908-1.7 6.497a58.095 58.095 0 01-4.08 7.676c-1.59 2.526-3.19 5.072-4.801 7.64-3.832 6.227-5.748 11.234-5.748 15.023 0 .958-.043 1.665-.13 2.123-.089.456-.306.936-.653 1.437-.35.501-.926.838-1.73 1.012-.807.175-1.906.261-3.3.261s-2.493-.087-3.298-.26c-.806-.175-1.382-.523-1.73-1.046-.349-.523-.555-1.012-.621-1.47-.065-.457-.098-1.186-.098-2.188 0-2.83.48-5.736 1.437-8.72.958-2.982 2.111-5.649 3.462-8a99.79 99.79 0 014.05-6.5c1.349-1.979 2.502-3.677 3.461-5.093.956-1.414 1.436-2.406 1.436-2.972H8.844c-1.743 0-3.006-.217-3.79-.652-.783-.435-1.306-1.067-1.567-1.895-.261-.827-.392-1.915-.392-3.265 0-1.349.13-2.438.392-3.266.262-.826.675-1.394 1.241-1.697.914-.523 2.177-.785 3.789-.785h23.511z" fill="url(#paint0_linear_13_216)"/><path d="M32.028 3.095c3.049 0 4.834.828 5.357 2.483.261.697.392 1.917.392 3.658 0 1.74-.567 3.908-1.7 6.497a58.062 58.062 0 01-4.08 7.676c-1.59 2.526-3.19 5.072-4.801 7.64-3.832 6.227-5.748 11.234-5.748 15.023 0 .958-.043 1.665-.13 2.123-.088.456-.306.936-.653 1.437-.35.501-.926.838-1.73 1.013-.807.174-1.906.26-3.3.26s-2.493-.086-3.298-.26c-.806-.175-1.382-.523-1.73-1.046-.349-.522-.555-1.012-.621-1.47-.065-.457-.098-1.185-.098-2.187 0-2.83.48-5.736 1.437-8.72.958-2.982 2.111-5.649 3.462-8a99.734 99.734 0 014.05-6.5c1.349-1.98 2.502-3.677 3.461-5.093.956-1.414 1.436-2.406 1.436-2.972H8.844c-1.743 0-3.006-.218-3.79-.652-.783-.435-1.306-1.067-1.567-1.895-.261-.827-.392-1.915-.392-3.265 0-1.349.13-2.438.392-3.266.262-.827.675-1.394 1.24-1.698.915-.522 2.178-.785 3.79-.785h23.511m0-2.245H8.517c-2.014 0-3.61.35-4.879 1.067-1.08.59-1.85 1.593-2.29 2.982C1.012 5.963.85 7.251.85 8.844s.162 2.882.495 3.94c.435 1.372 1.34 2.472 2.62 3.182 1.133.63 2.728.935 4.878.935H20.08c-.882 1.3-1.915 2.82-3.099 4.557a102.194 102.194 0 00-4.141 6.646c-1.421 2.474-2.65 5.312-3.652 8.432-1.025 3.193-1.545 6.358-1.545 9.405 0 1.114.04 1.933.12 2.503.116.796.444 1.602.976 2.4.469.703 1.391 1.62 3.124 1.994.968.21 2.202.311 3.772.311 1.57 0 2.804-.102 3.774-.31 1.372-.298 2.414-.944 3.096-1.922.53-.764.87-1.535 1.017-2.298.117-.61.17-1.42.17-2.547 0-3.35 1.823-8.008 5.415-13.846 1.6-2.552 3.2-5.097 4.79-7.621a60.658 60.658 0 004.238-7.973c1.269-2.904 1.887-5.324 1.887-7.396 0-2.019-.164-3.416-.514-4.388-.601-1.837-2.391-3.997-7.48-3.997z" fill="url(#paint1_linear_13_216)"/><path d="M32.028.851c5.089 0 6.879 2.16 7.48 3.997.35.972.513 2.37.513 4.388 0 2.072-.617 4.491-1.886 7.395a60.597 60.597 0 01-4.239 7.973c-1.589 2.525-3.188 5.07-4.789 7.622-3.593 5.838-5.414 10.496-5.414 13.846 0 1.128-.055 1.936-.172 2.546-.147.764-.487 1.534-1.016 2.299-.682.977-1.724 1.624-3.097 1.92-.97.21-2.203.312-3.773.312-1.57 0-2.804-.102-3.772-.311-1.733-.375-2.655-1.292-3.124-1.995-.532-.798-.86-1.603-.975-2.4-.081-.57-.12-1.388-.12-2.502 0-3.048.519-6.212 1.544-9.406 1.002-3.12 2.23-5.957 3.652-8.431a102.39 102.39 0 014.141-6.646c1.184-1.737 2.217-3.257 3.099-4.557H8.844c-2.15 0-3.746-.306-4.878-.935-1.28-.71-2.185-1.81-2.62-3.182-.333-1.058-.495-2.347-.495-3.94 0-1.592.162-2.881.496-3.944.44-1.39 1.211-2.392 2.291-2.982C4.907 1.2 6.503.85 8.517.85h23.511m0-.851H8.517C6.352 0 4.619.385 3.219 1.177 1.951 1.87 1.045 3.037.536 4.643.176 5.79 0 7.163 0 8.844c0 1.682.175 3.054.535 4.196.501 1.584 1.545 2.853 3.018 3.67 1.262.701 2.993 1.042 5.29 1.042h9.631l-2.196 3.227a103.263 103.263 0 00-4.176 6.701c-1.45 2.526-2.704 5.418-3.724 8.595-1.052 3.278-1.586 6.53-1.586 9.666 0 1.154.042 2.012.129 2.622.133.923.507 1.848 1.11 2.753.556.834 1.64 1.92 3.653 2.354 1.027.222 2.32.33 3.951.33 1.631 0 2.924-.108 3.953-.33 1.59-.344 2.805-1.106 3.615-2.266.597-.862.985-1.745 1.154-2.625.127-.664.187-1.524.187-2.707 0-3.19 1.779-7.698 5.288-13.4a6438.19 6438.19 0 014.784-7.614 61.474 61.474 0 004.298-8.086c1.318-3.014 1.958-5.544 1.958-7.736 0-2.122-.18-3.608-.563-4.676-.677-2.068-2.67-4.56-8.28-4.56z" fill="#683600"/><path d="M38.3 3.69a3.445 3.445 0 00-2.206 2.205 3.445 3.445 0 00-2.206-2.206 3.445 3.445 0 002.206-2.206A3.445 3.445 0 0038.3 3.69zm-2.886 4.155a2.382 2.382 0 00-1.526 1.526 2.382 2.382 0 00-1.525-1.526 2.382 2.382 0 001.525-1.525 2.38 2.38 0 001.526 1.525z" fill="#fff"/><defs><linearGradient id="paint0_linear_13_216" x1="20.436" y1="50.905" x2="20.436" y2="3.095" gradientUnits="userSpaceOnUse"><stop stop-color="#6B0000"/><stop offset=".063" stop-color="#730303"/><stop offset=".163" stop-color="#8A0A0A"/><stop offset=".286" stop-color="#AF1717"/><stop offset=".428" stop-color="#E22828"/><stop offset=".5" stop-color="#FF3131"/><stop offset=".686" stop-color="#D21C1C"/><stop offset=".895" stop-color="#A40808"/><stop offset="1" stop-color="#930000"/></linearGradient><linearGradient id="paint1_linear_13_216" x1="20.436" y1="53.149" x2="20.436" y2=".851" gradientUnits="userSpaceOnUse"><stop stop-color="#BE6D00"/><stop offset=".03" stop-color="#C67D0F"/><stop offset=".121" stop-color="#DAA837"/><stop offset=".208" stop-color="#EAC956"/><stop offset=".292" stop-color="#F6E16D"/><stop offset=".369" stop-color="#FDF07A"/><stop offset=".433" stop-color="#FFF57F"/><stop offset=".567" stop-color="#E8C653"/><stop offset=".697" stop-color="#D69F2F"/><stop offset=".816" stop-color="#C98415"/><stop offset=".921" stop-color="#C17306"/><stop offset="1" stop-color="#BE6D00"/></linearGradient></defs></svg>