<svg width="64" height="64" viewBox="0 0 64 64" fill="none" xmlns="http://www.w3.org/2000/svg">
<path d="M16 35.5H15.5V36C15.5 45.1127 22.8873 52.5 32 52.5C41.1127 52.5 48.5 45.1127 48.5 36V35.5H48H16ZM63.5 32C63.5 49.397 49.397 63.5 32 63.5C14.603 63.5 0.5 49.397 0.5 32C0.5 14.603 14.603 0.5 32 0.5C49.397 0.5 63.5 14.603 63.5 32ZM22 28.5C25.5899 28.5 28.5 25.5899 28.5 22C28.5 18.4101 25.5899 15.5 22 15.5C18.4101 15.5 15.5 18.4101 15.5 22C15.5 25.5899 18.4101 28.5 22 28.5ZM42 28.5C45.5899 28.5 48.5 25.5899 48.5 22C48.5 18.4101 45.5899 15.5 42 15.5C38.4101 15.5 35.5 18.4101 35.5 22C35.5 25.5899 38.4101 28.5 42 28.5Z" fill="#F20303" stroke="#F20303"/>
</svg>
