<svg width="41" height="41" fill="none" xmlns="http://www.w3.org/2000/svg"><path d="M35.635 14.767c.575 1.707.867 3.492.867 5.313 0 9.128-7.4 16.554-16.495 16.554S3.511 29.208 3.511 20.08c0-9.128 7.401-16.556 16.496-16.556 1.814 0 3.593.295 5.294.872V.713A19.918 19.918 0 0020.007 0C8.975 0 0 9.008 0 20.08c0 11.073 8.975 20.08 20.007 20.08 11.033 0 20.007-9.007 20.007-20.08 0-1.807-.238-3.59-.708-5.313h-3.671z" fill="#FFDA88"/><path fill-rule="evenodd" clip-rule="evenodd" d="M27.26 19.47c1.063-.582 1.702-1.63 1.702-2.816 0-2.232-1.876-3.65-4.855-3.65-2.941 0-4.837 1.378-4.837 3.553 0 1.185.734 2.273 1.878 2.912-1.568.622-2.575 1.941-2.575 3.497 0 2.406 2.168 3.94 5.552 3.94 3.387 0 5.552-1.554 5.552-3.998 0-1.516-.927-2.817-2.417-3.437zm-3.135 4.932c-1.489 0-2.3-.64-2.3-1.787 0-1.126.811-1.767 2.3-1.767 1.49 0 2.323.64 2.323 1.767 0 1.166-.834 1.787-2.323 1.787zm0-6.04c-1.257 0-1.952-.543-1.952-1.513 0-1.01.695-1.573 1.952-1.573 1.26 0 1.954.563 1.954 1.573 0 .97-.697 1.514-1.954 1.514z" fill="#FFDA88"/><path d="M12.58 15.916V26.75h3.442V13.139h-5.938v2.777h2.495zM34.415 1.524v3.827h3.811v2.751h-3.811v3.825h-2.741V8.102h-3.79V5.351h3.79V1.522h2.74v.002z" fill="#FFDA88"/></svg>