<svg width="52" height="52" fill="none" xmlns="http://www.w3.org/2000/svg"><g clip-path="url(#clip0_21_189)" fill="#F6F6F6"><path fill-rule="evenodd" clip-rule="evenodd" d="M26 49.4c12.543 0 22.712-10.477 22.712-23.4C48.712 13.076 38.543 2.6 26 2.6S3.288 13.076 3.288 26c0 12.923 10.169 23.4 22.712 23.4zm0 2.6c13.937 0 25.235-11.64 25.235-26S39.937 0 26 0 .765 11.64.765 26 12.063 52 26 52z"/><path d="M15.802 18.407h-3.005c-.036.927-1.305 2.506-3.2 2.506v2.55c1.629 0 2.688-.622 3.005-1.126h.137v11.255h3.063V18.407zM24.82 33.8c3.315 0 5.715-1.831 5.73-4.293-.015-1.898-1.428-3.448-3.2-3.752v-.103c1.542-.327 2.637-1.706 2.652-3.366-.015-2.35-2.206-4.086-5.182-4.086-2.998 0-5.19 1.735-5.175 4.086-.014 1.66 1.081 3.04 2.652 3.366v.104c-1.801.303-3.214 1.853-3.2 3.751-.014 2.462 2.379 4.293 5.723 4.293zm0-2.357c-1.492 0-2.494-.898-2.48-2.188-.014-1.312 1.038-2.261 2.48-2.261 1.42 0 2.465.949 2.48 2.261-.015 1.29-1.01 2.188-2.48 2.188zm0-6.785c-1.254 0-2.148-.838-2.133-2.039-.015-1.179.864-2.002 2.133-2.002 1.247 0 2.119.823 2.133 2.002-.014 1.201-.9 2.04-2.133 2.04zm17.583.119h-3.546v-3.522h-2.414v3.522h-3.546v2.447h3.546v3.521h2.414v-3.521h3.546v-2.447z"/></g><defs><clipPath id="clip0_21_189"><path fill="#fff" d="M0 0h52v52H0z"/></clipPath></defs></svg>