<svg width="17" height="15" viewBox="0 0 17 15" fill="none" xmlns="http://www.w3.org/2000/svg">
<path d="M13.875 8L12.9912 8.82489L14.6045 10.3333H9.5C8.83696 10.3333 8.20107 10.5792 7.73223 11.0168C7.26339 11.4543 7 12.0478 7 12.6667C7 13.2855 7.26339 13.879 7.73223 14.3166C8.20107 14.7542 8.83696 15 9.5 15H10.75V13.8333H9.5C9.16848 13.8333 8.85054 13.7104 8.61612 13.4916C8.3817 13.2728 8.25 12.9761 8.25 12.6667C8.25 12.3572 8.3817 12.0605 8.61612 11.8417C8.85054 11.6229 9.16848 11.5 9.5 11.5H14.6045L12.9903 13.0093L13.875 13.8333L17 10.9167L13.875 8Z" fill="#5F0000"/>
<path d="M4.85714 10.8H1.21429L1.21222 1.74384L8.15435 6.49338C8.25593 6.56281 8.3765 6.6 8.5 6.6C8.6235 6.6 8.74407 6.56281 8.84565 6.49338L15.7857 1.74516V7.2H17V1.2C16.9996 0.881862 16.8715 0.576868 16.6439 0.35191C16.4163 0.126953 16.1076 0.000396929 15.7857 0H1.21429C0.892605 -4.86778e-07 0.584068 0.126139 0.356407 0.350729C0.128745 0.575319 0.000562941 0.880004 0 1.1979V10.8C0.000417683 11.1181 0.128485 11.4231 0.356117 11.6481C0.58375 11.873 0.892365 11.9996 1.21429 12H4.85714V10.8ZM14.4491 1.2L8.5 5.27022L2.55085 1.2H14.4491Z" fill="#5F0000"/>
</svg>
