<svg width="28" height="29" viewBox="0 0 28 29" fill="none" xmlns="http://www.w3.org/2000/svg">
<g id="Vector">
<mask id="path-1-inside-1_51_290" fill="white">
<path d="M28 14.5523C27.9998 14.6718 27.9879 14.7914 27.9651 14.906C27.9426 15.0209 27.909 15.1315 27.8672 15.234C27.7839 15.4405 27.6699 15.6152 27.5484 15.7596C27.4672 15.8561 27.3825 15.9395 27.2962 16.0141C27.1817 16.1131 27.0652 16.1955 26.9498 16.2676C26.7951 16.3625 26.642 16.4388 26.4924 16.5038C26.2923 16.5894 26.098 16.6542 25.9152 16.7047C24.7326 17.0312 23.5698 17.2827 22.4552 17.5742C22.3521 17.6011 22.2549 17.621 22.1604 17.638C22.0662 17.6555 21.9745 17.6699 21.8843 17.683C21.7046 17.7099 21.5313 17.7333 21.3741 17.7602C21.2691 17.7776 21.1721 17.7971 21.0877 17.8171C21.0486 17.8265 21.0125 17.8365 20.9802 17.8459C21.012 17.9221 21.0584 18.0192 21.1163 18.1377C21.763 19.4652 22.2765 20.8089 22.7428 22.1448C23.2087 23.482 23.6275 24.8118 24.08 26.1183C24.121 26.237 24.1685 26.3801 24.2096 26.5496C24.2496 26.7193 24.2846 26.9165 24.285 27.1501C24.2848 27.2987 24.2699 27.4627 24.2262 27.6358C24.1826 27.8083 24.1091 27.989 24.003 28.1565C23.9283 28.275 23.8404 28.3815 23.7459 28.4739C23.6506 28.566 23.5491 28.644 23.4454 28.709C23.2372 28.8379 23.0228 28.9153 22.8132 28.9582C22.6736 28.9867 22.5354 29 22.398 29C22.24 28.9998 22.083 28.9823 21.9271 28.9462C21.7735 28.9105 21.6323 28.8615 21.5051 28.8064C21.3778 28.7513 21.2643 28.6907 21.1614 28.6296C20.9916 28.5285 20.8515 28.4273 20.7331 28.3402C20.5439 28.2394 20.3573 28.1338 20.1731 28.0231C19.4921 27.6156 18.8449 27.1455 18.2235 26.6488C17.778 26.2924 17.3452 25.9224 16.9245 25.5508C16.5763 25.244 16.2362 24.9356 15.9041 24.6343C15.4147 24.1903 14.943 23.7597 14.4899 23.3668C14.3935 23.2827 14.3112 23.2125 14.243 23.1605C14.179 23.1114 14.1295 23.0799 14.0969 23.0629C14.0666 23.0714 14.0196 23.0878 13.9606 23.1149C13.8333 23.1732 13.6569 23.2798 13.4666 23.4192C13.3392 23.5122 13.2054 23.6187 13.07 23.7331C12.8892 23.8862 12.7057 24.0521 12.5279 24.2186C12.2904 24.4406 12.0645 24.6611 11.8553 24.857C11.7353 24.9691 11.6219 25.0731 11.5038 25.171C10.2704 26.195 9.02004 27.2518 7.66905 28.2281C7.6031 28.275 7.52734 28.3306 7.43859 28.3889C7.40439 28.4116 7.36879 28.4344 7.33056 28.458C7.31284 28.469 7.29495 28.48 7.27619 28.4909C7.15166 28.565 7.00609 28.6404 6.83422 28.7033C6.70233 28.7513 6.55465 28.7912 6.39365 28.8137H6.39313C6.29368 28.8271 6.19213 28.8351 6.0876 28.8349C5.92116 28.8349 5.74771 28.8147 5.57443 28.7646C5.40097 28.7155 5.22927 28.6353 5.07809 28.5281C4.97724 28.4571 4.88552 28.3754 4.80695 28.2879C4.70136 28.1718 4.61876 28.0467 4.55544 27.9236C4.47091 27.7594 4.41987 27.5993 4.38637 27.4501C4.34235 27.2505 4.32955 27.0679 4.3292 26.8973C4.3292 26.7547 4.33919 26.6201 4.35463 26.4921C4.36954 26.364 4.39041 26.243 4.41426 26.1284C4.46196 25.8989 4.52054 25.6978 4.58017 25.5267L4.58052 25.5262C5.31784 23.4159 6.11163 21.3582 6.77055 19.2961C6.84106 19.0779 6.91805 18.8839 6.9854 18.7078C7.05099 18.5383 7.10659 18.3867 7.14219 18.2682C5.37519 17.6924 3.6259 17.091 1.88065 16.4916C1.74438 16.445 1.59723 16.3889 1.44429 16.3187C1.29118 16.2486 1.13123 16.165 0.969352 16.057C0.860964 15.9852 0.751524 15.9021 0.643663 15.8026C0.500022 15.6697 0.357961 15.5057 0.240102 15.298C0.173281 15.18 0.114877 15.0479 0.0734866 14.9047C0.0254312 14.7416 -0.00017449 14.5655 8.94968e-07 14.3889C8.94968e-07 14.3654 0.000526814 14.3424 0.00140374 14.3199C0.00894528 14.0923 0.0615608 13.8646 0.14785 13.6656C0.233262 13.4654 0.349192 13.295 0.472662 13.1554C0.555444 13.0619 0.641734 12.9815 0.727848 12.911C0.843426 12.8169 0.959881 12.7404 1.07388 12.6756C1.22594 12.5886 1.37519 12.5217 1.51831 12.4662C1.62424 12.4253 1.72789 12.3902 1.82698 12.3608C1.90678 12.3364 1.98343 12.3153 2.05726 12.2969C2.8828 12.0888 3.70763 11.8812 4.53247 11.6734C5.08002 11.5358 5.62792 11.3974 6.1753 11.2596C6.41557 11.1992 6.65831 11.1479 6.90016 11.1C7.14184 11.0522 7.38317 11.0078 7.61941 10.9629C8.09155 10.8737 8.54545 10.7803 8.92989 10.6655C9.18595 10.589 9.41044 10.5037 9.58793 10.4131C9.67212 10.3697 9.72912 10.3248 9.78612 10.2636C9.84259 10.2032 9.89819 10.1237 9.95256 10.0151C9.98939 9.94322 10.0246 9.85909 10.0578 9.76362C10.1025 9.63661 10.1432 9.49049 10.1804 9.33089C10.2305 9.11781 10.2742 8.8817 10.3214 8.63354C10.5992 7.17844 10.823 5.67374 11.1304 4.15258C11.1703 3.95703 11.2194 3.69381 11.2834 3.40085C11.3484 3.10717 11.4284 2.78196 11.5372 2.44737C11.6096 2.22437 11.6945 1.99623 11.799 1.76915C11.9395 1.46662 12.1135 1.16249 12.355 0.878021C12.4932 0.71595 12.6544 0.560964 12.8441 0.425107C12.9327 0.360987 13.0288 0.301472 13.1305 0.248511C13.2747 0.172169 13.4303 0.109112 13.5937 0.0642984C13.7449 0.0223192 13.9049 -0.000176089 14.0629 1.03804e-06C14.1797 1.03804e-06 14.2953 0.0120458 14.4051 0.0347181L14.4166 0.0371979C14.5231 0.0596931 14.6241 0.0919303 14.7181 0.130013C14.9138 0.210074 15.0782 0.316705 15.2159 0.430421C15.3074 0.506054 15.3881 0.585584 15.4609 0.665646C15.5573 0.773339 15.6396 0.882449 15.7124 0.992091C15.8088 1.13769 15.8885 1.28417 15.9574 1.42836C16.0484 1.6216 16.1196 1.8106 16.1764 1.99375C16.8904 4.30402 17.6009 6.61518 18.31 8.9274C18.3763 9.14402 18.4385 9.33072 18.4989 9.48535C18.5587 9.64051 18.616 9.76308 18.6709 9.85873C18.7072 9.92232 18.7423 9.97422 18.777 10.0189C18.8235 10.0778 18.8695 10.1255 18.9275 10.1724C19.0036 10.2346 19.1038 10.2987 19.2578 10.3662C19.3455 10.4048 19.4503 10.4434 19.5747 10.482C21.7514 11.1512 23.9286 11.8202 26.1053 12.4894C26.2148 12.5231 26.3337 12.5626 26.4599 12.6122C26.4857 12.6217 26.5115 12.6322 26.5376 12.6428C26.663 12.6949 26.7948 12.756 26.9309 12.8341C27.0666 12.9122 27.2073 13.0073 27.3463 13.131C27.4384 13.2132 27.5305 13.3086 27.6157 13.4204C27.7296 13.569 27.8315 13.7481 27.9002 13.9504C27.9388 14.0623 27.967 14.1805 27.9826 14.3006L27.9842 14.3105V14.311C27.9946 14.3905 28 14.4717 28 14.5523Z"/>
</mask>
<path d="M28 14.5523C27.9998 14.6718 27.9879 14.7914 27.9651 14.906C27.9426 15.0209 27.909 15.1315 27.8672 15.234C27.7839 15.4405 27.6699 15.6152 27.5484 15.7596C27.4672 15.8561 27.3825 15.9395 27.2962 16.0141C27.1817 16.1131 27.0652 16.1955 26.9498 16.2676C26.7951 16.3625 26.642 16.4388 26.4924 16.5038C26.2923 16.5894 26.098 16.6542 25.9152 16.7047C24.7326 17.0312 23.5698 17.2827 22.4552 17.5742C22.3521 17.6011 22.2549 17.621 22.1604 17.638C22.0662 17.6555 21.9745 17.6699 21.8843 17.683C21.7046 17.7099 21.5313 17.7333 21.3741 17.7602C21.2691 17.7776 21.1721 17.7971 21.0877 17.8171C21.0486 17.8265 21.0125 17.8365 20.9802 17.8459C21.012 17.9221 21.0584 18.0192 21.1163 18.1377C21.763 19.4652 22.2765 20.8089 22.7428 22.1448C23.2087 23.482 23.6275 24.8118 24.08 26.1183C24.121 26.237 24.1685 26.3801 24.2096 26.5496C24.2496 26.7193 24.2846 26.9165 24.285 27.1501C24.2848 27.2987 24.2699 27.4627 24.2262 27.6358C24.1826 27.8083 24.1091 27.989 24.003 28.1565C23.9283 28.275 23.8404 28.3815 23.7459 28.4739C23.6506 28.566 23.5491 28.644 23.4454 28.709C23.2372 28.8379 23.0228 28.9153 22.8132 28.9582C22.6736 28.9867 22.5354 29 22.398 29C22.24 28.9998 22.083 28.9823 21.9271 28.9462C21.7735 28.9105 21.6323 28.8615 21.5051 28.8064C21.3778 28.7513 21.2643 28.6907 21.1614 28.6296C20.9916 28.5285 20.8515 28.4273 20.7331 28.3402C20.5439 28.2394 20.3573 28.1338 20.1731 28.0231C19.4921 27.6156 18.8449 27.1455 18.2235 26.6488C17.778 26.2924 17.3452 25.9224 16.9245 25.5508C16.5763 25.244 16.2362 24.9356 15.9041 24.6343C15.4147 24.1903 14.943 23.7597 14.4899 23.3668C14.3935 23.2827 14.3112 23.2125 14.243 23.1605C14.179 23.1114 14.1295 23.0799 14.0969 23.0629C14.0666 23.0714 14.0196 23.0878 13.9606 23.1149C13.8333 23.1732 13.6569 23.2798 13.4666 23.4192C13.3392 23.5122 13.2054 23.6187 13.07 23.7331C12.8892 23.8862 12.7057 24.0521 12.5279 24.2186C12.2904 24.4406 12.0645 24.6611 11.8553 24.857C11.7353 24.9691 11.6219 25.0731 11.5038 25.171C10.2704 26.195 9.02004 27.2518 7.66905 28.2281C7.6031 28.275 7.52734 28.3306 7.43859 28.3889C7.40439 28.4116 7.36879 28.4344 7.33056 28.458C7.31284 28.469 7.29495 28.48 7.27619 28.4909C7.15166 28.565 7.00609 28.6404 6.83422 28.7033C6.70233 28.7513 6.55465 28.7912 6.39365 28.8137H6.39313C6.29368 28.8271 6.19213 28.8351 6.0876 28.8349C5.92116 28.8349 5.74771 28.8147 5.57443 28.7646C5.40097 28.7155 5.22927 28.6353 5.07809 28.5281C4.97724 28.4571 4.88552 28.3754 4.80695 28.2879C4.70136 28.1718 4.61876 28.0467 4.55544 27.9236C4.47091 27.7594 4.41987 27.5993 4.38637 27.4501C4.34235 27.2505 4.32955 27.0679 4.3292 26.8973C4.3292 26.7547 4.33919 26.6201 4.35463 26.4921C4.36954 26.364 4.39041 26.243 4.41426 26.1284C4.46196 25.8989 4.52054 25.6978 4.58017 25.5267L4.58052 25.5262C5.31784 23.4159 6.11163 21.3582 6.77055 19.2961C6.84106 19.0779 6.91805 18.8839 6.9854 18.7078C7.05099 18.5383 7.10659 18.3867 7.14219 18.2682C5.37519 17.6924 3.6259 17.091 1.88065 16.4916C1.74438 16.445 1.59723 16.3889 1.44429 16.3187C1.29118 16.2486 1.13123 16.165 0.969352 16.057C0.860964 15.9852 0.751524 15.9021 0.643663 15.8026C0.500022 15.6697 0.357961 15.5057 0.240102 15.298C0.173281 15.18 0.114877 15.0479 0.0734866 14.9047C0.0254312 14.7416 -0.00017449 14.5655 8.94968e-07 14.3889C8.94968e-07 14.3654 0.000526814 14.3424 0.00140374 14.3199C0.00894528 14.0923 0.0615608 13.8646 0.14785 13.6656C0.233262 13.4654 0.349192 13.295 0.472662 13.1554C0.555444 13.0619 0.641734 12.9815 0.727848 12.911C0.843426 12.8169 0.959881 12.7404 1.07388 12.6756C1.22594 12.5886 1.37519 12.5217 1.51831 12.4662C1.62424 12.4253 1.72789 12.3902 1.82698 12.3608C1.90678 12.3364 1.98343 12.3153 2.05726 12.2969C2.8828 12.0888 3.70763 11.8812 4.53247 11.6734C5.08002 11.5358 5.62792 11.3974 6.1753 11.2596C6.41557 11.1992 6.65831 11.1479 6.90016 11.1C7.14184 11.0522 7.38317 11.0078 7.61941 10.9629C8.09155 10.8737 8.54545 10.7803 8.92989 10.6655C9.18595 10.589 9.41044 10.5037 9.58793 10.4131C9.67212 10.3697 9.72912 10.3248 9.78612 10.2636C9.84259 10.2032 9.89819 10.1237 9.95256 10.0151C9.98939 9.94322 10.0246 9.85909 10.0578 9.76362C10.1025 9.63661 10.1432 9.49049 10.1804 9.33089C10.2305 9.11781 10.2742 8.8817 10.3214 8.63354C10.5992 7.17844 10.823 5.67374 11.1304 4.15258C11.1703 3.95703 11.2194 3.69381 11.2834 3.40085C11.3484 3.10717 11.4284 2.78196 11.5372 2.44737C11.6096 2.22437 11.6945 1.99623 11.799 1.76915C11.9395 1.46662 12.1135 1.16249 12.355 0.878021C12.4932 0.71595 12.6544 0.560964 12.8441 0.425107C12.9327 0.360987 13.0288 0.301472 13.1305 0.248511C13.2747 0.172169 13.4303 0.109112 13.5937 0.0642984C13.7449 0.0223192 13.9049 -0.000176089 14.0629 1.03804e-06C14.1797 1.03804e-06 14.2953 0.0120458 14.4051 0.0347181L14.4166 0.0371979C14.5231 0.0596931 14.6241 0.0919303 14.7181 0.130013C14.9138 0.210074 15.0782 0.316705 15.2159 0.430421C15.3074 0.506054 15.3881 0.585584 15.4609 0.665646C15.5573 0.773339 15.6396 0.882449 15.7124 0.992091C15.8088 1.13769 15.8885 1.28417 15.9574 1.42836C16.0484 1.6216 16.1196 1.8106 16.1764 1.99375C16.8904 4.30402 17.6009 6.61518 18.31 8.9274C18.3763 9.14402 18.4385 9.33072 18.4989 9.48535C18.5587 9.64051 18.616 9.76308 18.6709 9.85873C18.7072 9.92232 18.7423 9.97422 18.777 10.0189C18.8235 10.0778 18.8695 10.1255 18.9275 10.1724C19.0036 10.2346 19.1038 10.2987 19.2578 10.3662C19.3455 10.4048 19.4503 10.4434 19.5747 10.482C21.7514 11.1512 23.9286 11.8202 26.1053 12.4894C26.2148 12.5231 26.3337 12.5626 26.4599 12.6122C26.4857 12.6217 26.5115 12.6322 26.5376 12.6428C26.663 12.6949 26.7948 12.756 26.9309 12.8341C27.0666 12.9122 27.2073 13.0073 27.3463 13.131C27.4384 13.2132 27.5305 13.3086 27.6157 13.4204C27.7296 13.569 27.8315 13.7481 27.9002 13.9504C27.9388 14.0623 27.967 14.1805 27.9826 14.3006L27.9842 14.3105V14.311C27.9946 14.3905 28 14.4717 28 14.5523Z" stroke="#F9B03C" stroke-width="4" mask="url(#path-1-inside-1_51_290)"/>
</g>
</svg>
