<svg width="29" height="29" viewBox="0 0 29 29" fill="none" xmlns="http://www.w3.org/2000/svg">
<path id="Vector" d="M29 14.5523C28.9998 14.6718 28.9875 14.7914 28.9639 14.906C28.9406 15.0209 28.9057 15.1315 28.8625 15.234C28.7762 15.4405 28.6581 15.6152 28.5323 15.7596C28.4482 15.8561 28.3604 15.9395 28.271 16.0141C28.1524 16.1131 28.0318 16.1955 27.9123 16.2676C27.7521 16.3625 27.5935 16.4388 27.4385 16.5038C27.2313 16.5894 27.03 16.6542 26.8407 16.7047C25.6159 17.0312 24.4116 17.2827 23.2572 17.5742C23.1504 17.6011 23.0497 17.621 22.9518 17.638C22.8543 17.6555 22.7593 17.6699 22.6659 17.683C22.4797 17.7099 22.3003 17.7333 22.1375 17.7602C22.0287 17.7776 21.9282 17.7971 21.8409 17.8171C21.8004 17.8265 21.7629 17.8365 21.7295 17.8459C21.7624 17.9221 21.8105 18.0192 21.8705 18.1377C22.5402 19.4652 23.0721 20.8089 23.5551 22.1448C24.0375 23.482 24.4713 24.8118 24.94 26.1183C24.9825 26.237 25.0317 26.3801 25.0742 26.5496C25.1156 26.7193 25.152 26.9165 25.1523 27.1501C25.1521 27.2987 25.1367 27.4627 25.0915 27.6358C25.0462 27.8083 24.9701 27.989 24.8602 28.1565C24.7828 28.275 24.6918 28.3815 24.5939 28.4739C24.4953 28.566 24.3901 28.644 24.2828 28.709C24.0672 28.8379 23.845 28.9153 23.6279 28.9582C23.4833 28.9867 23.3402 29 23.198 29C23.0343 28.9998 22.8717 28.9823 22.7102 28.9462C22.5511 28.9105 22.4049 28.8615 22.2732 28.8064C22.1413 28.7513 22.0238 28.6907 21.9172 28.6296C21.7413 28.5285 21.5962 28.4273 21.4736 28.3402C21.2776 28.2394 21.0843 28.1338 20.8936 28.0231C20.1882 27.6156 19.5179 27.1455 18.8744 26.6488C18.413 26.2924 17.9647 25.9224 17.5289 25.5508C17.1683 25.244 16.8161 24.9356 16.4721 24.6343C15.9653 24.1903 15.4766 23.7597 15.0074 23.3668C14.9075 23.2827 14.8223 23.2125 14.7517 23.1605C14.6854 23.1114 14.6341 23.0799 14.6004 23.0629C14.5689 23.0714 14.5203 23.0878 14.4592 23.1149C14.3273 23.1732 14.1446 23.2798 13.9475 23.4192C13.8156 23.5122 13.677 23.6187 13.5368 23.7331C13.3495 23.8862 13.1595 24.0521 12.9753 24.2186C12.7294 24.4406 12.4954 24.6611 12.2787 24.857C12.1545 24.9691 12.0369 25.0731 11.9147 25.171C10.6372 26.195 9.34218 27.2518 7.94294 28.2281C7.87464 28.275 7.79617 28.3306 7.70426 28.3889C7.66884 28.4116 7.63196 28.4344 7.59236 28.458C7.57402 28.469 7.55549 28.48 7.53605 28.4909C7.40708 28.565 7.25631 28.6404 7.0783 28.7033C6.9417 28.7513 6.78875 28.7912 6.622 28.8137H6.62145C6.51846 28.8271 6.41328 28.8351 6.30502 28.8349C6.13264 28.8349 5.95298 28.8147 5.77352 28.7646C5.59387 28.7155 5.41603 28.6353 5.25945 28.5281C5.155 28.4571 5.06 28.3754 4.97862 28.2879C4.86927 28.1718 4.78371 28.0467 4.71814 27.9236C4.63058 27.7594 4.57772 27.5993 4.54303 27.4501C4.49744 27.2505 4.48417 27.0679 4.48381 26.8973C4.48381 26.7547 4.49417 26.6201 4.51015 26.4921C4.52559 26.364 4.54721 26.243 4.57191 26.1284C4.62132 25.8989 4.68199 25.6978 4.74375 25.5267L4.74411 25.5262C5.50776 23.4159 6.32991 21.3582 7.01236 19.2961C7.08538 19.0779 7.16513 18.8839 7.23488 18.7078C7.30281 18.5383 7.3604 18.3867 7.39727 18.2682C5.56716 17.6924 3.7554 17.091 1.94782 16.4916C1.80668 16.445 1.65427 16.3889 1.49588 16.3187C1.3373 16.2486 1.17163 16.165 1.00397 16.057C0.891713 15.9852 0.778364 15.9021 0.66665 15.8026C0.51788 15.6697 0.370745 15.5057 0.248677 15.298C0.179469 15.18 0.11898 15.0479 0.0761111 14.9047C0.0263394 14.7416 -0.000180722 14.5655 9.26931e-07 14.3889C9.26931e-07 14.3654 0.000545628 14.3424 0.00145387 14.3199C0.00926476 14.0923 0.0637594 13.8646 0.15313 13.6656C0.241593 13.4654 0.361663 13.295 0.489543 13.1554C0.575281 13.0619 0.664653 12.9815 0.753842 12.911C0.873548 12.8169 0.994163 12.7404 1.11223 12.6756C1.26972 12.5886 1.42431 12.5217 1.57253 12.4662C1.68225 12.4253 1.7896 12.3902 1.89223 12.3608C1.97488 12.3364 2.05426 12.3153 2.13074 12.2969C2.98576 12.0888 3.84005 11.8812 4.69434 11.6734C5.26145 11.5358 5.82892 11.3974 6.39584 11.2596C6.6447 11.1992 6.8961 11.1479 7.1466 11.1C7.39691 11.0522 7.64686 11.0078 7.89154 10.9629C8.38053 10.8737 8.85064 10.7803 9.24881 10.6655C9.51402 10.589 9.74653 10.5037 9.93036 10.4131C10.0175 10.3697 10.0766 10.3248 10.1356 10.2636C10.1941 10.2032 10.2517 10.1237 10.308 10.0151C10.3462 9.94322 10.3827 9.85909 10.417 9.76362C10.4633 9.63661 10.5055 9.49049 10.544 9.33089C10.5959 9.11781 10.6411 8.8817 10.69 8.63354C10.9777 7.17844 11.2095 5.67374 11.528 4.15258C11.5692 3.95703 11.6201 3.69381 11.6864 3.40085C11.7537 3.10717 11.8366 2.78196 11.9492 2.44737C12.0242 2.22437 12.1121 1.99623 12.2204 1.76915C12.3659 1.46662 12.5461 1.16249 12.7962 0.878021C12.9394 0.71595 13.1063 0.560964 13.3028 0.425107C13.3946 0.360987 13.4941 0.301472 13.5995 0.248511C13.7488 0.172169 13.9099 0.109112 14.0792 0.0642984C14.2358 0.0223192 14.4015 -0.000176089 14.5651 1.03804e-06C14.6861 1.03804e-06 14.8058 0.0120458 14.9195 0.0347181L14.9315 0.0371979C15.0418 0.0596931 15.1464 0.0919303 15.2438 0.130013C15.4465 0.210074 15.6167 0.316705 15.7593 0.430421C15.8541 0.506054 15.9377 0.585584 16.013 0.665646C16.1129 0.773339 16.1981 0.882449 16.2735 0.992091C16.3734 1.13769 16.4559 1.28417 16.5273 1.42836C16.6216 1.6216 16.6953 1.8106 16.7542 1.99375C17.4937 4.30402 18.2295 6.61518 18.9639 8.9274C19.0326 9.14402 19.0971 9.33072 19.1596 9.48535C19.2215 9.64051 19.2809 9.76308 19.3378 9.85873C19.3754 9.92232 19.4117 9.97422 19.4477 10.0189C19.4958 10.0778 19.5434 10.1255 19.6035 10.1724C19.6823 10.2346 19.7861 10.2987 19.9455 10.3662C20.0364 10.4048 20.145 10.4434 20.2738 10.482C22.5282 11.1512 24.7832 11.8202 27.0376 12.4894C27.151 12.5231 27.2742 12.5626 27.4049 12.6122C27.4316 12.6217 27.4583 12.6322 27.4854 12.6428C27.6153 12.6949 27.7517 12.756 27.8927 12.8341C28.0333 12.9122 28.1789 13.0073 28.323 13.131C28.4184 13.2132 28.5137 13.3086 28.602 13.4204C28.7199 13.569 28.8254 13.7481 28.8966 13.9504C28.9366 14.0623 28.9658 14.1805 28.982 14.3006L28.9837 14.3105V14.311C28.9944 14.3905 29 14.4717 29 14.5523Z" fill="#F9B03C"/>
</svg>
