<svg xmlns="http://www.w3.org/2000/svg" xmlns:xlink="http://www.w3.org/1999/xlink"><defs>
<clipPath id="clip0_1_69">
<rect width="103" height="28" fill="white"/>
</clipPath>
</defs><symbol id="age" viewBox="0 0 84 84">
<g id="18+">
<path id="Vector" fill-rule="evenodd" clip-rule="evenodd" d="M42 79.8C62.2623 79.8 78.6882 62.8765 78.6882 42C78.6882 21.1236 62.2623 4.2 42 4.2C21.7376 4.2 5.31176 21.1236 5.31176 42C5.31176 62.8765 21.7376 79.8 42 79.8ZM42 84C64.5137 84 82.7647 65.1959 82.7647 42C82.7647 18.804 64.5137 0 42 0C19.4863 0 1.23529 18.804 1.23529 42C1.23529 65.1959 19.4863 84 42 84Z" fill="#F6F6F6"/>
<path id="Vector_2" d="M25.5266 29.7352H20.6719C20.6137 31.2324 18.5648 33.7835 15.5029 33.7835V37.9037C18.134 37.9037 19.8454 36.8977 20.3576 36.0832H20.5788V54.2647H25.5266V29.7352Z" fill="#F6F6F6"/>
<path id="Vector_3" d="M40.0937 54.6C45.4489 54.6 49.3258 51.6417 49.349 47.6653C49.3258 44.5991 47.044 42.0959 44.1801 41.6047V41.437C46.6714 40.91 48.4408 38.6823 48.4643 35.9995C48.4408 32.2027 44.9017 29.4 40.0937 29.4C35.2506 29.4 31.7115 32.2027 31.7347 35.9995C31.7115 38.6823 33.4809 40.91 36.019 41.437V41.6047C33.1084 42.0959 30.8268 44.5991 30.85 47.6653C30.8268 51.6417 34.6918 54.6 40.0937 54.6ZM40.0937 50.7914C37.6836 50.7914 36.0654 49.3421 36.0889 47.2579C36.0654 45.1382 37.7652 43.6049 40.0937 43.6049C42.3871 43.6049 44.0753 45.1382 44.0985 47.2579C44.0753 49.3421 42.4687 50.7914 40.0937 50.7914ZM40.0937 39.8321C38.0678 39.8321 36.6243 38.4787 36.6477 36.5385C36.6243 34.634 38.0446 33.3045 40.0937 33.3045C42.1077 33.3045 43.5165 34.634 43.5397 36.5385C43.5165 38.4787 42.0845 39.8321 40.0937 39.8321Z" fill="#F6F6F6"/>
<path id="Vector_4" d="M68.4971 40.0237H62.7692V34.3345H58.8692V40.0237H53.1414V43.9762H58.8692V49.6655H62.7692V43.9762H68.4971V40.0237Z" fill="#F6F6F6"/>
</g>
</symbol><symbol id="master" viewBox="0 0 103 28">
<g id="paymsystem_footer_mastercard 1" clip-path="url(#clip0_1_69)">
<g id="Clip path group">
<mask id="mask0_1_69" style="mask-type:luminance" maskUnits="userSpaceOnUse" x="0" y="0" width="103" height="28">
<g id="clip0_17554_32319">
<path id="Vector" d="M103 0H0V28H103V0Z" fill="white"/>
</g>
</mask>
<g mask="url(#mask0_1_69)">
<g id="Group">
<path id="Vector_2" d="M45.518 16.8462V13.5035C45.518 12.2422 44.7154 11.3931 43.4238 11.382C42.6746 11.3334 41.9584 11.6971 41.5542 12.3313C41.1858 11.7158 40.5112 11.3516 39.7958 11.382C39.1736 11.3519 38.5818 11.6535 38.2396 12.1754V11.5068H37.0814V16.8462H38.2507V13.889C38.2507 12.9619 38.762 12.4717 39.5534 12.4717C40.3449 12.4717 40.7117 12.9731 40.7117 13.8779V16.8462H41.8744V13.889C41.8744 12.9619 42.4079 12.4717 43.1771 12.4717C43.9462 12.4717 44.3464 12.9731 44.3464 13.8779V16.8462H45.518ZM62.8204 11.5112H60.9285V9.89335H59.7591V11.5112H58.6787V12.572H59.7591V15.0032C59.7591 16.2422 60.2371 16.9799 61.6065 16.9799C62.118 16.9816 62.6195 16.8386 63.0538 16.5676L62.7203 15.5737C62.4096 15.7592 62.0569 15.8628 61.6955 15.8746C61.1175 15.8746 60.9262 15.518 60.9262 14.9832V12.572H62.8182L62.8204 11.5112ZM72.6975 11.3775C72.1222 11.3607 71.5839 11.6609 71.2947 12.1597V11.5112H70.1477V16.8462H71.306V13.8556C71.306 12.9641 71.6838 12.4829 72.4419 12.4829C72.6899 12.4793 72.9362 12.5247 73.1666 12.6166L73.5223 11.5224C73.2576 11.4275 72.9786 11.3785 72.6975 11.3775ZM57.765 11.9347C57.1093 11.5441 56.3554 11.3507 55.5931 11.3775C54.2459 11.3775 53.37 12.026 53.37 13.0845C53.37 13.9559 54.0147 14.4907 55.2062 14.6578L55.7508 14.7358C56.3845 14.825 56.6869 14.9922 56.6869 15.2929C56.6869 15.7052 56.2644 15.9415 55.473 15.9415C54.8345 15.9618 54.2078 15.7654 53.6945 15.3843L53.1677 16.2868C53.8422 16.7595 54.6504 17.0026 55.473 16.9799C57.0092 16.9799 57.9006 16.2534 57.9006 15.2395C57.9006 14.3013 57.1981 13.811 56.0422 13.6438L55.4974 13.5659C54.9973 13.4991 54.5949 13.3987 54.5949 13.0422C54.5949 12.6522 54.9728 12.4183 55.6086 12.4183C56.1912 12.4269 56.7619 12.584 57.267 12.875L57.765 11.9347ZM88.7817 11.3775C88.2064 11.3607 87.668 11.6609 87.3789 12.1597V11.5112H86.2317V16.8462H87.39V13.8556C87.39 12.9641 87.7679 12.4829 88.5259 12.4829C88.7739 12.4793 89.0202 12.5247 89.2507 12.6166L89.6064 11.5224C89.3417 11.4275 89.0628 11.3785 88.7817 11.3775ZM73.8669 14.1788C73.8669 15.7966 74.9917 16.9799 76.7057 16.9799C77.4007 17.0143 78.0836 16.7871 78.6199 16.3426L78.064 15.4043C77.6637 15.71 77.1757 15.878 76.6725 15.8835C75.7476 15.8835 75.0695 15.2016 75.0695 14.1765C75.0695 13.1514 75.7498 12.4806 76.6725 12.4695C77.1757 12.475 77.6637 12.643 78.064 12.9486L78.6199 12.0104C78.0836 11.5659 77.4007 11.3386 76.7057 11.3731C74.9917 11.3731 73.8669 12.5564 73.8669 14.1742V14.1788ZM84.7112 14.1788V11.5045H83.5529V12.1531C83.1522 11.6347 82.5258 11.3432 81.8722 11.3708C80.3806 11.3708 79.2045 12.543 79.2045 14.172C79.2045 15.801 80.3739 16.9733 81.8722 16.9733C82.5258 17.0009 83.1522 16.7094 83.5529 16.191V16.8372H84.7112V14.1788ZM80.4027 14.1788C80.4027 13.2405 81.0142 12.4717 82.0168 12.4717C82.9749 12.4717 83.6196 13.2094 83.6196 14.1788C83.6196 15.1481 82.9749 15.8857 82.0168 15.8857C81.0142 15.8857 80.4027 15.1147 80.4027 14.1788ZM66.4284 11.3775C64.8722 11.3775 63.7785 12.5163 63.7785 14.1788C63.7785 15.8746 64.9144 16.9799 66.5063 16.9799C67.301 17.0078 68.0782 16.7412 68.6893 16.2312L68.1224 15.371C67.6802 15.7255 67.1325 15.9216 66.5662 15.9281C65.8193 15.9281 65.1413 15.5826 64.9745 14.6222H68.9271C68.9382 14.4773 68.9495 14.3325 68.9495 14.1765C68.9495 12.514 67.9134 11.3753 66.4218 11.3753L66.4284 11.3775ZM66.4062 12.416C67.1532 12.416 67.6311 12.884 67.7534 13.7107H64.9945C65.1168 12.9396 65.5836 12.416 66.4084 12.416H66.4062ZM95.4509 14.1788V9.36743H94.2927V12.1575C93.892 11.6392 93.2656 11.3476 92.612 11.3753C91.1203 11.3753 89.9443 12.5474 89.9443 14.1765C89.9443 15.8056 91.1137 16.9777 92.612 16.9777C93.2656 17.0054 93.892 16.7138 94.2927 16.1955V16.8418H95.4509V14.1788ZM96.8048 16.3537C96.8507 16.3535 96.896 16.3626 96.9382 16.3805C96.9788 16.3979 97.0158 16.4228 97.0471 16.454C97.0782 16.4846 97.103 16.521 97.1204 16.561C97.1566 16.6449 97.1566 16.7401 97.1204 16.8239C97.103 16.864 97.0781 16.9002 97.0471 16.9309C97.0157 16.962 96.9787 16.9869 96.9382 17.0044C96.896 17.0224 96.8507 17.0315 96.8048 17.0311C96.6662 17.0329 96.54 16.9512 96.4847 16.8239C96.4488 16.7399 96.4488 16.645 96.4847 16.561C96.5194 16.4792 96.5848 16.4143 96.667 16.3805C96.712 16.3617 96.7604 16.3526 96.8092 16.3537H96.8048ZM96.8048 16.9554C96.8399 16.956 96.8748 16.9491 96.9071 16.9354C96.9376 16.9221 96.9656 16.9032 96.9892 16.8796C97.0922 16.7761 97.0922 16.6087 96.9892 16.5052C96.9657 16.4816 96.9377 16.4627 96.9071 16.4496C96.8746 16.4359 96.8399 16.429 96.8048 16.4295C96.769 16.429 96.7334 16.4358 96.7002 16.4496C96.5659 16.5071 96.5035 16.6628 96.5608 16.7976C96.5738 16.8281 96.5926 16.856 96.6159 16.8796C96.6401 16.9035 96.6688 16.9224 96.7002 16.9354C96.7348 16.9497 96.7719 16.9566 96.8092 16.9554H96.8048ZM96.8248 16.532C96.858 16.5297 96.8912 16.5392 96.9182 16.5588C96.9403 16.5765 96.9527 16.6038 96.9514 16.6323C96.9522 16.6566 96.9426 16.6802 96.9249 16.6969C96.9044 16.7151 96.8786 16.7261 96.8515 16.728L96.9538 16.8462H96.8737L96.7781 16.728H96.7469V16.8462H96.6802V16.5343L96.8248 16.532ZM96.7469 16.5899V16.6746H96.8248C96.8386 16.6787 96.8532 16.6787 96.867 16.6746C96.8772 16.6676 96.8832 16.6558 96.8826 16.6435C96.8832 16.631 96.8772 16.6192 96.867 16.6122C96.8532 16.6082 96.8386 16.6082 96.8248 16.6122L96.7469 16.5899ZM91.147 14.1788C91.147 13.2405 91.7584 12.4717 92.761 12.4717C93.7191 12.4717 94.3638 13.2094 94.3638 14.1788C94.3638 15.1481 93.7191 15.8857 92.761 15.8857C91.7584 15.8857 91.147 15.1147 91.147 14.1788ZM52.0427 14.1788V11.5045H50.8846V12.1531C50.4838 11.6392 49.8606 11.3505 49.2106 11.3775C47.7188 11.3775 46.5429 12.5497 46.5429 14.1788C46.5429 15.8078 47.7122 16.9799 49.2106 16.9799C49.8642 17.0076 50.4905 16.716 50.8912 16.1977V16.844H52.0495L52.0427 14.1788ZM47.7344 14.1788C47.7344 13.2405 48.3457 12.4717 49.3483 12.4717C50.3065 12.4717 50.9512 13.2094 50.9512 14.1788C50.9512 15.1481 50.3065 15.8857 49.3483 15.8857C48.3457 15.8857 47.7344 15.1169 47.7344 14.1788Z" fill="white"/>
<path id="Vector_3" d="M22.3021 7.83655H15.2993V20.4506H22.3021V7.83655Z" fill="#FF5F00"/>
<path id="Vector_4" d="M15.7441 14.1461C15.7423 11.6851 16.8695 9.35975 18.801 7.84023C15.3257 5.10272 10.2945 5.70731 7.56326 9.19061C4.83212 12.6739 5.4353 17.7168 8.91053 20.4543C11.8128 22.7405 15.8986 22.7405 18.801 20.4543C16.8688 18.9344 15.7416 16.608 15.7441 14.1461Z" fill="#EB001B"/>
<path id="Vector_5" d="M31.7504 14.1467C31.7504 18.577 28.1672 22.1684 23.7471 22.1683C21.9531 22.1683 20.2113 21.564 18.801 20.4527C22.2762 17.7152 22.8794 12.6723 20.1482 9.18898C19.7544 8.68668 19.3021 8.23334 18.801 7.83858C22.2757 5.10044 27.307 5.70408 30.0389 9.18686C31.1481 10.601 31.7509 12.3478 31.7504 14.1467Z" fill="#F79E1B"/>
<path id="Vector_6" d="M30.9816 19.1136V18.8551H31.0861V18.8039H30.8259V18.8573H30.9304V19.1158L30.9816 19.1136ZM31.4952 19.1136V18.8016H31.4262L31.3328 19.0245L31.2394 18.8016H31.1571V19.1136H31.2038V18.8796L31.2906 19.0823H31.3506L31.4373 18.8796V19.1158L31.4952 19.1136Z" fill="#F79E1B"/>
</g>
</g>
</g>
</g>

</symbol><symbol id="transfer" viewBox="0 0 99 27">
<g id="paymsystem_footer_banktransfer 1">
<path id="Vector" d="M41.8264 7.10405L36.2059 4.87655L30.5899 2.64905L24.975 4.87655L19.3534 7.10405V9.69267H41.8264V7.10405ZM25.1302 11.4026C25.2063 11.4104 25.2831 11.4021 25.3558 11.3783C25.4285 11.3545 25.4954 11.3157 25.5521 11.2645C25.6089 11.2132 25.6543 11.1506 25.6853 11.0807C25.7164 11.0108 25.7323 10.9352 25.7323 10.8587C25.7323 10.7823 25.7164 10.7066 25.6853 10.6368C25.6543 10.5669 25.6089 10.5043 25.5521 10.453C25.4954 10.4017 25.4285 10.363 25.3558 10.3392C25.2831 10.3153 25.2063 10.307 25.1302 10.3148H21.5663C21.4902 10.307 21.4134 10.3153 21.3407 10.3392C21.268 10.363 21.2011 10.4017 21.1444 10.453C21.0876 10.5043 21.0422 10.5669 21.0112 10.6368C20.9801 10.7066 20.9641 10.7823 20.9641 10.8587C20.9641 10.9352 20.9801 11.0108 21.0112 11.0807C21.0422 11.1506 21.0876 11.2132 21.1444 11.2645C21.2011 11.3157 21.268 11.3545 21.3407 11.3783C21.4134 11.4021 21.4902 11.4104 21.5663 11.4026H21.7676V19.1708H21.5663C21.4902 19.1631 21.4134 19.1713 21.3407 19.1952C21.268 19.219 21.2011 19.2577 21.1444 19.309C21.0876 19.3603 21.0422 19.4229 21.0112 19.4927C20.9801 19.5626 20.9641 19.6383 20.9641 19.7147C20.9641 19.7912 20.9801 19.8668 21.0112 19.9367C21.0422 20.0066 21.0876 20.0692 21.1444 20.1205C21.2011 20.1717 21.268 20.2105 21.3407 20.2343C21.4134 20.2581 21.4902 20.2664 21.5663 20.2586H25.1302C25.2063 20.2664 25.2831 20.2581 25.3558 20.2343C25.4285 20.2105 25.4954 20.1717 25.5521 20.1205C25.6089 20.0692 25.6543 20.0066 25.6853 19.9367C25.7164 19.8668 25.7323 19.7912 25.7323 19.7147C25.7323 19.6383 25.7164 19.5626 25.6853 19.4927C25.6543 19.4229 25.6089 19.3603 25.5521 19.309C25.4954 19.2577 25.4285 19.219 25.3558 19.1952C25.2831 19.1713 25.2063 19.1631 25.1302 19.1708H24.9289V11.4026H25.1302ZM32.3719 11.4026C32.4479 11.4104 32.5248 11.4021 32.5974 11.3783C32.6701 11.3545 32.737 11.3157 32.7937 11.2645C32.8506 11.2132 32.8959 11.1506 32.927 11.0807C32.958 11.0108 32.974 10.9352 32.974 10.8587C32.974 10.7823 32.958 10.7066 32.927 10.6368C32.8959 10.5669 32.8506 10.5043 32.7937 10.453C32.737 10.4017 32.6701 10.363 32.5974 10.3392C32.5248 10.3153 32.4479 10.307 32.3719 10.3148H28.8079C28.7318 10.307 28.655 10.3153 28.5823 10.3392C28.5096 10.363 28.4427 10.4017 28.386 10.453C28.3292 10.5043 28.2838 10.5669 28.2528 10.6368C28.2217 10.7066 28.2058 10.7823 28.2058 10.8587C28.2058 10.9352 28.2217 11.0108 28.2528 11.0807C28.2838 11.1506 28.3292 11.2132 28.386 11.2645C28.4427 11.3157 28.5096 11.3545 28.5823 11.3783C28.655 11.4021 28.7318 11.4104 28.8079 11.4026H29.0104V19.1708H28.8079C28.7318 19.1631 28.655 19.1713 28.5823 19.1952C28.5096 19.219 28.4427 19.2577 28.386 19.309C28.3292 19.3603 28.2838 19.4229 28.2528 19.4927C28.2217 19.5626 28.2058 19.6383 28.2058 19.7147C28.2058 19.7912 28.2217 19.8668 28.2528 19.9367C28.2838 20.0066 28.3292 20.0692 28.386 20.1205C28.4427 20.1717 28.5096 20.2105 28.5823 20.2343C28.655 20.2581 28.7318 20.2664 28.8079 20.2586H32.3719C32.4479 20.2664 32.5248 20.2581 32.5974 20.2343C32.6701 20.2105 32.737 20.1717 32.7937 20.1205C32.8506 20.0692 32.8959 20.0066 32.927 19.9367C32.958 19.8668 32.974 19.7912 32.974 19.7147C32.974 19.6383 32.958 19.5626 32.927 19.4927C32.8959 19.4229 32.8506 19.3603 32.7937 19.309C32.737 19.2577 32.6701 19.219 32.5974 19.1952C32.5248 19.1713 32.4479 19.1631 32.3719 19.1708H32.1705V11.4026H32.3719ZM39.7294 11.4026C39.8054 11.4104 39.8823 11.4021 39.9549 11.3783C40.0276 11.3545 40.0945 11.3157 40.1512 11.2645C40.2081 11.2132 40.2534 11.1506 40.2844 11.0807C40.3155 11.0108 40.3315 10.9352 40.3315 10.8587C40.3315 10.7823 40.3155 10.7066 40.2844 10.6368C40.2534 10.5669 40.2081 10.5043 40.1512 10.453C40.0945 10.4017 40.0276 10.363 39.9549 10.3392C39.8823 10.3153 39.8054 10.307 39.7294 10.3148H36.1654C36.0893 10.307 36.0125 10.3153 35.9398 10.3392C35.8671 10.363 35.8002 10.4017 35.7435 10.453C35.6867 10.5043 35.6414 10.5669 35.6103 10.6368C35.5793 10.7066 35.5633 10.7823 35.5633 10.8587C35.5633 10.9352 35.5793 11.0108 35.6103 11.0807C35.6414 11.1506 35.6867 11.2132 35.7435 11.2645C35.8002 11.3157 35.8671 11.3545 35.9398 11.3783C36.0125 11.4021 36.0893 11.4104 36.1654 11.4026H36.3668V19.1708H36.1654C36.0893 19.1631 36.0125 19.1713 35.9398 19.1952C35.8671 19.219 35.8002 19.2577 35.7435 19.309C35.6867 19.3603 35.6414 19.4229 35.6103 19.4927C35.5793 19.5626 35.5633 19.6383 35.5633 19.7147C35.5633 19.7912 35.5793 19.8668 35.6103 19.9367C35.6414 20.0066 35.6867 20.0692 35.7435 20.1205C35.8002 20.1717 35.8671 20.2105 35.9398 20.2343C36.0125 20.2581 36.0893 20.2664 36.1654 20.2586H39.7294C39.8054 20.2664 39.8823 20.2581 39.9549 20.2343C40.0276 20.2105 40.0945 20.1717 40.1512 20.1205C40.2081 20.0692 40.2534 20.0066 40.2844 19.9367C40.3155 19.8668 40.3315 19.7912 40.3315 19.7147C40.3315 19.6383 40.3155 19.5626 40.2844 19.4927C40.2534 19.4229 40.2081 19.3603 40.1512 19.309C40.0945 19.2577 40.0276 19.219 39.9549 19.1952C39.8823 19.1713 39.8054 19.1631 39.7294 19.1708H39.5269V11.4026H39.7294ZM19.9283 22.2274H41.2515C41.3962 22.2341 41.5376 22.1836 41.6453 22.0868C41.7529 21.9899 41.8179 21.8544 41.8264 21.7099V21.3983C41.8179 21.2539 41.753 21.1187 41.6456 21.0218C41.5383 20.925 41.3971 20.8743 41.2526 20.8808H19.9271C19.7827 20.8743 19.6415 20.925 19.5342 21.0218C19.4267 21.1187 19.3618 21.2539 19.3534 21.3983V21.7099C19.3618 21.8543 19.4267 21.9896 19.5342 22.0863C19.6415 22.1832 19.7827 22.2339 19.9271 22.2274H19.9283ZM42.7466 22.8484H18.4342C18.2897 22.842 18.1484 22.8926 18.0408 22.9895C17.9333 23.0862 17.868 23.2214 17.8594 23.3659V23.8328C17.868 23.9771 17.9331 24.1121 18.0404 24.2088C18.1477 24.3057 18.2888 24.3564 18.4331 24.3503H42.7466C42.8911 24.3568 43.0323 24.306 43.1396 24.2092C43.247 24.1124 43.3119 23.9771 43.3204 23.8328V23.3659C43.3119 23.2215 43.247 23.0863 43.1396 22.9895C43.0323 22.8926 42.8911 22.842 42.7466 22.8484ZM52.8052 10.4239C52.5657 10.1549 52.2478 9.96797 51.8963 9.88955C52.1704 9.78066 52.4078 9.59563 52.5802 9.3563C52.725 9.14815 52.8035 8.90108 52.8052 8.64755C52.8042 8.36972 52.7156 8.09929 52.5521 7.87467C52.3767 7.62474 52.1301 7.43344 51.8445 7.32567C51.4603 7.19452 51.0554 7.13503 50.6497 7.15017H48.2119V13.008H50.6891C51.0405 13.0146 51.3915 12.9815 51.7354 12.909C51.9888 12.8574 52.2307 12.7594 52.4486 12.6199C52.6512 12.4818 52.8154 12.2944 52.9256 12.0754C53.056 11.8413 53.1235 11.5773 53.1214 11.3093C53.1287 10.9853 53.0161 10.67 52.8052 10.4239ZM49.0691 7.8443H50.3741C50.7056 7.83031 51.0373 7.8579 51.3619 7.92642C51.5409 7.97332 51.6978 8.08163 51.8051 8.23242C51.9102 8.3825 51.9646 8.56224 51.9604 8.74542C51.9664 8.9308 51.9072 9.11241 51.7927 9.25842C51.6634 9.4052 51.4902 9.50655 51.2989 9.54755C51.0288 9.60283 50.7531 9.6255 50.4776 9.61505H49.0691V7.8443ZM52.0976 11.8065C52.0201 11.943 51.9069 12.0557 51.7703 12.1328C51.6166 12.2162 51.4487 12.2705 51.2752 12.2925C51.081 12.313 50.8855 12.3216 50.6902 12.3184H49.0691V10.3047H50.5744C50.8935 10.2929 51.2127 10.3258 51.5228 10.4025C51.7266 10.4601 51.9074 10.5796 52.0402 10.7445C52.1494 10.898 52.2127 11.0792 52.2228 11.2672C52.233 11.4553 52.1895 11.6423 52.0976 11.8065ZM58.0579 12.4894C58.011 12.0685 57.9938 11.6448 58.0061 11.2215V10.263C58.014 10.041 58.0004 9.81873 57.9656 9.5993C57.9291 9.41608 57.8434 9.24621 57.7181 9.10767C57.5653 8.95476 57.3753 8.84427 57.1669 8.78705C56.8509 8.68994 56.5209 8.64584 56.1904 8.65655C55.8285 8.65088 55.4679 8.70174 55.1216 8.8073C54.8513 8.88406 54.6068 9.03256 54.414 9.23705C54.2389 9.44838 54.1184 9.69949 54.063 9.9683L54.8449 10.0662C54.897 9.81453 55.0379 9.59007 55.242 9.43392C55.4975 9.29835 55.7861 9.23753 56.0745 9.25842C56.3961 9.23535 56.7163 9.32092 56.9835 9.50142C57.0652 9.58141 57.1277 9.67879 57.1664 9.78632C57.2052 9.89385 57.2192 10.0087 57.2074 10.1224C57.2074 10.1483 57.2074 10.2113 57.2018 10.3092C56.7355 10.4371 56.2583 10.5203 55.7764 10.5578C55.5391 10.5818 55.3033 10.6183 55.0699 10.6669C54.868 10.719 54.6744 10.7993 54.495 10.9054C54.325 11.0072 54.1828 11.1494 54.081 11.3194C53.9443 11.5518 53.8957 11.8256 53.9443 12.0909C53.9928 12.3561 54.1352 12.595 54.3454 12.7639C54.6923 13.0123 55.1143 13.133 55.5401 13.1059C55.839 13.1079 56.1363 13.0608 56.4199 12.9664C56.73 12.8547 57.0194 12.6919 57.276 12.4849C57.2923 12.664 57.3432 12.8381 57.4256 12.9979H58.2593C58.1625 12.8417 58.0943 12.6695 58.0579 12.4894ZM57.2074 11.1428C57.222 11.3894 57.1788 11.6358 57.0814 11.8628C56.9626 12.0806 56.7773 12.2548 56.5526 12.36C56.2966 12.483 56.0154 12.545 55.7314 12.5411C55.4803 12.5598 55.2303 12.4923 55.0226 12.3499C54.9476 12.2942 54.8866 12.2215 54.8448 12.1379C54.803 12.0542 54.7814 11.962 54.7819 11.8684C54.7803 11.7456 54.8187 11.6256 54.891 11.5264C54.9705 11.4187 55.0807 11.3376 55.2071 11.2935C55.4324 11.218 55.6658 11.1693 55.9024 11.1484C56.346 11.1066 56.7836 11.016 57.2074 10.8784V11.1428ZM62.19 9.7703C62.2629 9.98166 62.2942 10.2051 62.2822 10.4284V13.008H63.081V10.4025C63.0877 10.1688 63.0727 9.93489 63.036 9.70392C62.9993 9.49756 62.9072 9.30508 62.7695 9.14712C62.6317 8.98915 62.4536 8.87168 62.2541 8.8073C62.0046 8.71202 61.7393 8.66469 61.4722 8.6678C61.1839 8.65149 60.896 8.70675 60.6341 8.82864C60.3723 8.95052 60.1446 9.13527 59.9715 9.36642V8.76567H59.2537V13.0069H60.0581V10.6939C60.033 10.4935 60.053 10.2899 60.1166 10.0982C60.1803 9.90649 60.2859 9.73142 60.426 9.5858C60.6777 9.39166 60.988 9.28926 61.3057 9.29555C61.4994 9.29055 61.6911 9.33508 61.8626 9.42492C62.0076 9.50069 62.1232 9.62261 62.1911 9.77142L62.19 9.7703ZM68.2088 13.008L66.231 10.3407L68.0299 8.76567H66.996L65.1049 10.4914V7.15017H64.3061V13.008H65.1049V11.325L65.6674 10.8379L67.2255 13.008H68.2088ZM47.7585 17.1716H49.9016V22.341H50.7589V17.1716H52.9087V16.4831H47.7585V17.1716ZM54.5693 18.1459C54.3597 18.3061 54.1871 18.5095 54.063 18.7421V18.0998H53.3452V22.341H54.1384V20.1191C54.1359 19.8341 54.1803 19.5506 54.27 19.2799C54.3259 19.1205 54.4305 18.9827 54.5693 18.8861C54.7086 18.793 54.873 18.7444 55.0406 18.7466C55.2458 18.7492 55.4472 18.8025 55.6267 18.9019L55.9024 18.2336C55.6532 18.0868 55.3704 18.0066 55.0811 18.0008C54.9001 17.9987 54.7223 18.0491 54.5693 18.1459ZM60.2302 21.8235C60.1833 21.4023 60.166 20.9782 60.1785 20.5545V19.596C60.1867 19.374 60.1735 19.1517 60.1391 18.9323C60.1025 18.7491 60.0168 18.5792 59.8916 18.4406C59.7387 18.2879 59.5487 18.1774 59.3404 18.12C59.0239 18.0231 58.6935 17.9794 58.3627 17.9906C58.0008 17.9847 57.6403 18.0352 57.294 18.1403C57.0237 18.2172 56.7792 18.3656 56.5864 18.57C56.4115 18.7815 56.2914 19.0326 56.2365 19.3013L57.0173 19.3991C57.0695 19.1476 57.2104 18.9231 57.4144 18.7669C57.6699 18.6314 57.9584 18.5706 58.2469 18.5914C58.5685 18.5683 58.8887 18.6539 59.1559 18.8344C59.2379 18.9145 59.3008 19.0119 59.3397 19.1197C59.3786 19.2275 59.3927 19.3425 59.3809 19.4565C59.3809 19.4824 59.3809 19.5443 59.3741 19.6421C58.9079 19.7699 58.4307 19.8532 57.9487 19.8908C57.7115 19.9147 57.4757 19.9512 57.2422 19.9999C57.0404 20.0521 56.8468 20.1323 56.6674 20.2384C56.4975 20.3403 56.3553 20.4825 56.2534 20.6524C56.1167 20.8848 56.0681 21.1586 56.1167 21.4239C56.1652 21.6891 56.3076 21.928 56.5177 22.0969C56.8649 22.3455 57.2875 22.4663 57.7136 22.4389C58.0122 22.4408 58.309 22.3937 58.5923 22.2994C58.9029 22.1878 59.1926 22.0251 59.4495 21.8179C59.4725 21.9955 59.5225 22.1685 59.598 22.3309H60.4316C60.335 22.1751 60.2668 22.0033 60.2302 21.8235ZM59.3865 20.4713C59.4009 20.718 59.3574 20.9646 59.2594 21.1913C59.1407 21.4092 58.9554 21.5834 58.7306 21.6885C58.4746 21.8117 58.1934 21.8737 57.9094 21.8696C57.6586 21.8881 57.4091 21.8207 57.2018 21.6784C57.1264 21.6228 57.0652 21.5502 57.0232 21.4667C56.9811 21.383 56.9594 21.2906 56.9599 21.1969C56.9583 21.0741 56.9967 20.9541 57.069 20.8549C57.1484 20.7472 57.2587 20.666 57.3851 20.622C57.6107 20.546 57.8445 20.4968 58.0815 20.4758C58.525 20.4339 58.9626 20.3437 59.3865 20.2069V20.4713ZM64.9665 18.5025C64.823 18.3374 64.6387 18.2125 64.4321 18.1403C64.1826 18.045 63.9173 17.9977 63.6502 18.0008C63.3619 17.9847 63.0741 18.0401 62.8126 18.1623C62.5509 18.2844 62.3235 18.4693 62.1506 18.7005V18.0998H61.4317V22.3466H62.2361V20.0314C62.2109 19.831 62.2308 19.6274 62.2945 19.4357C62.3582 19.244 62.4639 19.0688 62.604 18.9233C62.8557 18.7292 63.166 18.6267 63.4837 18.633C63.6777 18.6279 63.8699 18.6725 64.0417 18.7624C64.1859 18.8385 64.3006 18.9605 64.368 19.1089C64.4412 19.3203 64.473 19.5437 64.4614 19.767V22.3466H65.2601V19.7366C65.2665 19.5025 65.251 19.2682 65.214 19.0369C65.1744 18.8419 65.0896 18.6589 64.9665 18.5025ZM69.3517 20.0989C68.9634 19.9674 68.5684 19.8566 68.1683 19.767C67.9311 19.7131 67.6955 19.6527 67.4618 19.5859C67.3453 19.5497 67.2402 19.4837 67.1569 19.3946C67.095 19.3243 67.0604 19.2341 67.059 19.1404C67.0635 19.0621 67.0875 18.986 67.1287 18.9193C67.1699 18.8525 67.2272 18.797 67.2952 18.7579C67.5366 18.6286 67.8097 18.5708 68.0828 18.5914C68.335 18.5746 68.5861 18.6375 68.8005 18.7714C68.8849 18.8311 68.956 18.9076 69.0093 18.9962C69.0627 19.0846 69.0974 19.1831 69.111 19.2855L69.8929 19.1865C69.8559 18.9478 69.7608 18.7219 69.6161 18.5284C69.4475 18.3465 69.2336 18.2126 68.9963 18.1403C68.6828 18.0371 68.3541 17.988 68.0243 17.9951C67.7915 17.9945 67.5596 18.0244 67.3346 18.084C67.1564 18.13 66.9859 18.2017 66.8284 18.2966C66.6692 18.3998 66.5356 18.5379 66.438 18.7005C66.3415 18.8578 66.2915 19.0391 66.294 19.2236C66.2928 19.4266 66.3532 19.625 66.4673 19.7929C66.5952 19.974 66.7725 20.1146 66.978 20.1979C67.3746 20.3445 67.7819 20.4599 68.1964 20.5433C68.4769 20.5938 68.7509 20.6757 69.0131 20.7874C69.0837 20.8236 69.1429 20.8783 69.1846 20.9457C69.2262 21.0132 69.2487 21.0907 69.2494 21.1699C69.2471 21.2644 69.2217 21.3569 69.1755 21.4392C69.1291 21.5216 69.0634 21.5913 68.9839 21.6424C68.7405 21.7952 68.4548 21.866 68.1683 21.8449C67.8675 21.8627 67.5692 21.7826 67.3178 21.6165C67.1131 21.4543 66.9809 21.2177 66.9499 20.9584L66.1624 21.072C66.2245 21.48 66.4427 21.8479 66.771 22.098C67.1905 22.353 67.6784 22.4724 68.1683 22.44C68.5079 22.4436 68.8452 22.3836 69.1628 22.2634C69.4295 22.168 69.6627 21.9972 69.8344 21.7718C69.9803 21.5753 70.0609 21.3381 70.065 21.0934C70.0731 20.8723 70.0061 20.6551 69.8749 20.4769C69.7391 20.3046 69.558 20.1737 69.3517 20.0989ZM72.1688 17.1716C72.316 17.0637 72.4979 17.0141 72.6795 17.0321C72.8378 17.0338 72.9959 17.0478 73.152 17.0738L73.2724 16.4471C73.0254 16.4021 72.7752 16.3776 72.5243 16.374C72.2417 16.3605 71.9604 16.4215 71.7086 16.5506C71.5258 16.6532 71.3823 16.8134 71.3002 17.0063C71.2332 17.2116 71.2042 17.4273 71.2147 17.643V18.093H70.5071V18.6533H71.2091V22.3354H72.0191V18.6533H72.9382V18.0885H72.0191V17.6948C71.9986 17.5076 72.0524 17.3198 72.1688 17.1716ZM77.6059 20.2069C77.6234 19.9086 77.5794 19.6098 77.4767 19.3293C77.3739 19.0486 77.2146 18.7921 77.0085 18.5756C76.8039 18.3802 76.5619 18.2281 76.2971 18.1283C76.0322 18.0285 75.75 17.9833 75.4673 17.9951C75.169 17.9759 74.87 18.0215 74.591 18.1288C74.312 18.236 74.0595 18.4024 73.851 18.6166C73.6425 18.8307 73.4828 19.0874 73.3829 19.3691C73.283 19.6509 73.2453 19.9508 73.2724 20.2485C73.2544 20.5444 73.2988 20.8406 73.4027 21.1181C73.5066 21.3957 73.6676 21.6482 73.8754 21.8595C74.3242 22.2596 74.9131 22.4658 75.5134 22.4333C75.9891 22.4538 76.4598 22.3295 76.8634 22.0766C77.2164 21.8361 77.4734 21.4788 77.589 21.0675L76.7666 20.9741C76.6719 21.2445 76.4923 21.4769 76.2547 21.6368C76.0327 21.7803 75.772 21.8525 75.5077 21.8438C75.1437 21.8543 74.7902 21.7205 74.5245 21.4714C74.2471 21.1832 74.0908 20.7994 74.088 20.3993H77.6002C77.6059 20.316 77.6059 20.2474 77.6059 20.2069ZM74.1454 19.8086C74.1527 19.6411 74.1931 19.4766 74.2642 19.3248C74.3352 19.1728 74.4355 19.0364 74.5594 18.9233C74.8149 18.6995 75.1457 18.5809 75.4852 18.5914C75.67 18.5856 75.8537 18.6197 76.0241 18.6911C76.1946 18.7625 76.3476 18.8697 76.473 19.0054C76.6565 19.2341 76.7613 19.5157 76.7722 19.8086H74.1454ZM79.8075 18.1459C79.598 18.3061 79.4253 18.5095 79.3012 18.7421V18.0998H78.5824V22.341H79.3755V20.1191C79.3732 19.8341 79.4181 19.5504 79.5083 19.2799C79.5642 19.1205 79.6689 18.9828 79.8075 18.8861C79.9469 18.7931 80.1113 18.7445 80.2789 18.7466C80.4837 18.7494 80.6847 18.8028 80.8639 18.9019L81.1406 18.2336C80.8914 18.0868 80.6086 18.0066 80.3194 18.0008C80.1384 17.9988 79.9606 18.0492 79.8075 18.1459Z" fill="white"/>
</g>
</symbol><symbol id="visa" viewBox="0 0 101 32">
<path d="M78.4136 25.1234C77.0197 25.1234 75.6257 25.1234 74.211 25.1234C74.0572 24.3512 73.8923 23.5957 73.7621 22.8338C73.7081 22.5176 73.6112 22.3949 73.2735 22.3994C71.5883 22.4221 69.9028 22.4166 68.2174 22.4026C67.9623 22.4005 67.861 22.4885 67.7833 22.7314C67.5511 23.4574 67.2972 24.1761 67.0375 24.892C67.0022 24.9892 66.8853 25.1225 66.8053 25.1232C65.2863 25.137 63.767 25.1334 62.2042 25.1334C62.4889 24.4165 62.7586 23.7321 63.0325 23.0494C64.9911 18.1657 66.9506 13.2823 68.9099 8.3988C69.3342 7.34109 69.9704 6.89819 71.0646 6.89812C72.2842 6.89803 73.5037 6.89809 74.7544 6.89809C74.8763 7.49349 74.9991 8.08019 75.1165 8.66805C76.0804 13.4942 77.042 18.321 78.0081 23.1468C78.1319 23.7649 78.2779 24.3781 78.4136 24.9937C78.4136 25.0369 78.4136 25.0802 78.4136 25.1234ZM72.9131 18.6469C72.4653 16.4028 72.0234 14.1888 71.5816 11.9748C71.5635 11.9711 71.5454 11.9674 71.5274 11.9637C70.7575 14.1833 69.9875 16.4028 69.209 18.6469C70.4664 18.6469 71.6703 18.6469 72.9131 18.6469Z" fill="white"/>
<path d="M60.1051 6.57361C60.6597 6.68124 61.2185 6.76971 61.7677 6.9021C62.2688 7.0229 62.7595 7.19126 63.2921 7.34981C63.0237 8.66169 62.7615 9.94213 62.5052 11.195C61.8026 10.9796 61.131 10.7316 60.4406 10.5724C59.4964 10.3546 58.5289 10.2716 57.5843 10.5467C57.2003 10.6585 56.8116 10.8732 56.5093 11.1439C55.9907 11.6082 55.9839 12.2766 56.4791 12.764C56.8207 13.1001 57.2254 13.376 57.6299 13.6303C58.5495 14.2082 59.5148 14.7107 60.4086 15.328C61.4609 16.055 62.2286 17.0544 62.3898 18.4059C62.6749 20.796 61.8291 22.6787 59.9079 24.0106C58.6998 24.8482 57.3327 25.2223 55.9082 25.3608C53.9192 25.5542 51.9696 25.3214 50.069 24.669C49.9416 24.6252 49.8176 24.5706 49.6934 24.5174C49.6563 24.5016 49.6241 24.4735 49.5673 24.4364C49.8357 23.1226 50.1046 21.8068 50.381 20.4542C50.7049 20.6019 51.009 20.75 51.3198 20.881C52.8047 21.5062 54.338 21.7922 55.9272 21.4811C56.3407 21.4 56.7622 21.2094 57.1128 20.9638C57.8732 20.431 57.9461 19.4299 57.2537 18.804C56.7986 18.3927 56.2515 18.089 55.733 17.7588C54.923 17.2432 54.0626 16.8038 53.2961 16.2267C52.3135 15.487 51.602 14.5007 51.4671 13.1898C51.2652 11.227 51.9621 9.63321 53.4038 8.39482C54.6581 7.31733 56.1474 6.83916 57.7341 6.63833C57.8223 6.62717 57.908 6.59565 57.9949 6.57361C58.6983 6.57361 59.4017 6.57361 60.1051 6.57361Z" fill="white"/>
<path d="M43.762 6.91301C43.5258 7.50671 43.3024 8.07279 43.0758 8.63754C40.9129 14.0299 38.7473 19.421 36.5931 24.8172C36.4905 25.0743 36.3649 25.1418 36.1155 25.1396C34.7503 25.1278 33.3848 25.1231 32.02 25.1428C31.7305 25.147 31.6363 25.041 31.5696 24.7696C30.4122 20.0563 29.2356 15.3482 28.0914 10.6314C27.8815 9.76601 27.4613 9.17499 26.6732 8.81229C25.4097 8.23089 24.0984 7.82246 22.7606 7.49049C22.7015 7.47581 22.6426 7.45974 22.5869 7.44523C22.5936 6.89819 22.5936 6.89817 23.0915 6.89815C25.4806 6.89815 27.8697 6.89759 30.2588 6.89841C31.3919 6.89879 32.2099 7.58671 32.4242 8.75887C33.0307 12.0772 33.6243 15.398 34.2234 18.7179C34.2495 18.8631 34.2794 19.0075 34.3191 19.2119C34.3811 19.0903 34.4243 19.0219 34.4526 18.9474C35.9364 15.025 37.4207 11.1029 38.897 7.1775C38.9776 6.96321 39.0769 6.89053 39.2984 6.89237C40.6842 6.90383 42.0702 6.89791 43.456 6.89871C43.5456 6.89877 43.6352 6.90686 43.762 6.91301Z" fill="white"/>
<path d="M41.9528 25.134C43.2008 19.0383 44.4402 12.9853 45.6825 6.9176C47.1939 6.9176 48.6873 6.9176 50.2094 6.9176C50.0209 7.84176 49.8367 8.74826 49.6513 9.65448C48.6258 14.6664 47.5963 19.6773 46.582 24.6917C46.5115 25.0401 46.3934 25.1508 46.0474 25.1437C44.8068 25.1188 43.5655 25.134 42.3245 25.134C42.2133 25.134 42.102 25.134 41.9528 25.134Z" fill="white"/>
</symbol></svg>