<svg width="15" height="15" viewBox="0 0 15 15" fill="none" xmlns="http://www.w3.org/2000/svg">
<path id="Vector" d="M14.483 8.79901C14.8273 8.48936 15.0097 8.09731 14.9996 7.68112C14.9996 6.47945 14.112 5.78957 12.5646 5.78957L11.8375 5.7909C11.3555 5.7909 10.9354 5.78433 10.5297 5.76022C11.0489 4.5511 11.3419 3.28534 11.3814 2.07272C11.3814 0.360075 10.4512 0 9.67144 0C8.9057 0 8.47762 0.528034 8.18991 0.988124C8.09344 1.14252 7.8689 1.58415 7.63119 2.05077C7.42946 2.4477 7.22902 2.84108 7.13384 3.00554C6.99394 3.2472 6.85492 3.459 6.71892 3.64279L6.56587 3.82874C6.12376 4.36952 5.6703 4.92602 5.11904 5.33477C5.00586 5.17293 4.81729 5.06639 4.60503 5.06639H0.625842C0.281544 5.06639 0 5.34664 0 5.69089V14.3755C0 14.7198 0.281544 15 0.625842 15H4.60503C4.87475 15 5.105 14.829 5.19227 14.5899C5.36332 14.6206 5.5339 14.6491 5.70494 14.6772L5.86149 14.703C7.12197 14.8921 8.50959 14.9999 9.67139 14.9999H11.8415C13.0813 14.9999 13.9141 14.2395 13.9128 13.0882L13.9028 12.9351C13.8901 12.7487 13.8848 12.7207 13.823 12.5676C13.8076 12.5304 13.7883 12.4816 13.7624 12.4146C14.2532 11.9672 14.3856 11.3493 14.122 10.6081C14.6141 10.1608 14.7465 9.54152 14.483 8.79901ZM3.98042 13.7492H1.24983V6.31627H3.98042V13.7492ZM13.4589 8.01087C13.2765 8.1227 13.0261 8.27576 13.0261 8.58542C13.0261 8.84239 13.1493 8.99283 13.2392 9.10338C13.3252 9.20863 13.387 9.28583 13.387 9.49018C13.387 9.62879 13.3037 9.69324 13.0967 9.82044C12.9142 9.93228 12.6638 10.0853 12.6638 10.395C12.6638 10.652 12.7871 10.8024 12.877 10.913C12.9642 11.0182 13.0261 11.0954 13.0261 11.2998C13.0261 11.4384 12.9428 11.5028 12.7344 11.63C12.5519 11.7419 12.3015 11.8949 12.3015 12.2046C12.3015 12.4616 12.4248 12.612 12.5147 12.7225C12.602 12.8278 12.6638 12.905 12.6638 13.1093C12.6638 13.5347 12.3875 13.7505 11.8415 13.7505L9.61742 13.7492C8.16308 13.6952 6.661 13.64 5.23082 13.3163V6.77502C6.18426 6.14918 7.01933 5.35009 7.71049 4.4019C8.18066 3.77472 8.50959 3.10155 8.79992 2.50814C9.10167 1.89016 9.41395 1.25163 9.67092 1.25163C9.94856 1.25163 10.131 1.30821 10.131 2.07261C10.131 3.4515 9.46652 5.15006 9.07355 5.93512C8.95164 6.1794 8.94507 6.39254 9.05557 6.57103C9.34456 7.03986 10.288 7.03986 12.5646 7.03986C13.7492 7.03986 13.7492 7.48941 13.7492 7.68107C13.7493 7.81922 13.6659 7.88372 13.4589 8.01087Z" fill="#5F0000"/>
</svg>
