<svg width="49" height="52" fill="none" xmlns="http://www.w3.org/2000/svg"><path d="M41.6 1.203L24.25 18.84 6.9 1.203a3.995 3.995 0 00-5.716 0 4.157 4.157 0 000 5.81l20.208 20.543a3.995 3.995 0 005.716 0L47.316 7.013a4.157 4.157 0 000-5.81 3.995 3.995 0 00-5.716 0z" fill="#FFD600"/><path opacity=".5" d="M41.6 23.567L24.25 41.204 6.9 23.567a3.995 3.995 0 00-5.716 0 4.157 4.157 0 000 5.81l20.208 20.542a3.995 3.995 0 005.716 0l20.208-20.542a4.157 4.157 0 000-5.81 3.995 3.995 0 00-5.716 0z" fill="#FFD600"/></svg>