<svg width="97" height="99" fill="none" xmlns="http://www.w3.org/2000/svg"><path d="M48.5 98.602c26.785 0 48.5-22.073 48.5-49.3C97 22.072 75.285 0 48.5 0S0 22.073 0 49.301s21.715 49.301 48.5 49.301zm0-90.385c22.321 0 40.417 18.395 40.417 41.084 0 22.69-18.096 41.084-40.417 41.084S8.083 71.991 8.083 49.301c0-22.69 18.096-41.084 40.417-41.084z" fill="url(#paint0_linear_10_114)"/><path d="M31.15 60.423L48.5 42.786l17.35 17.637a3.995 3.995 0 005.716 0 4.157 4.157 0 000-5.81L51.358 34.07a3.995 3.995 0 00-5.716 0L25.434 54.613a4.157 4.157 0 000 5.81 3.995 3.995 0 005.715 0z" fill="url(#paint1_linear_10_114)"/><defs><linearGradient id="paint0_linear_10_114" x1="17" y1="3.786" x2="84" y2="89.286" gradientUnits="userSpaceOnUse"><stop stop-color="#FFC93F"/><stop offset="1" stop-color="#FFF3D4"/></linearGradient><linearGradient id="paint1_linear_10_114" x1="32.75" y1="33.971" x2="47.969" y2="67.265" gradientUnits="userSpaceOnUse"><stop stop-color="#FFC93F"/><stop offset="1" stop-color="#FFF3D4"/></linearGradient></defs></svg>