<svg width="24" height="21" fill="none" xmlns="http://www.w3.org/2000/svg"><mask id="a" fill="#fff"><path d="M19.625 11l-1.237 1.178 2.258 2.155H13.5a3.59 3.59 0 00-2.475.977A3.255 3.255 0 0010 17.667c0 .884.369 1.732 1.025 2.357A3.59 3.59 0 0013.5 21h1.75v-1.667H13.5a1.79 1.79 0 01-1.237-.488 1.628 1.628 0 01-.513-1.178c0-.442.184-.866.513-1.179A1.795 1.795 0 0113.5 16h7.146l-2.26 2.156 1.239 1.177L24 15.167 19.625 11z"/></mask><path d="M19.625 11l-1.237 1.178 2.258 2.155H13.5a3.59 3.59 0 00-2.475.977A3.255 3.255 0 0010 17.667c0 .884.369 1.732 1.025 2.357A3.59 3.59 0 0013.5 21h1.75v-1.667H13.5a1.79 1.79 0 01-1.237-.488 1.628 1.628 0 01-.513-1.178c0-.442.184-.866.513-1.179A1.795 1.795 0 0113.5 16h7.146l-2.26 2.156 1.239 1.177L24 15.167 19.625 11z" fill="#8EB0FF"/><path d="M19.625 11L36.866-7.103l-17.241-16.42L2.384-7.104 19.625 11zm-1.237 1.178L1.146-5.925l-18.991 18.087L1.13 30.267l17.258-18.089zm2.258 2.155v25h62.42L37.904-3.755 20.646 14.333zM10 17.667h-25 25zM15.25 21v25h25V21h-25zm0-1.667h25v-25h-25v25zm-3.5-1.666h25-25zM20.646 16l17.258 18.088L83.064-9H20.646v25zm-2.26 2.156L1.13.068l-18.995 18.123 19.03 18.086 17.222-18.12zm1.239 1.177L2.402 37.454l17.24 16.386 17.224-16.403-17.241-18.104zM24 15.167L41.241 33.27 60.25 15.167 41.241-2.937 24 15.167zM2.384-7.103L1.146-5.925 35.63 30.282l1.237-1.179L2.384-7.103zM1.13 30.267l2.26 2.153L37.904-3.755 35.645-5.91 1.13 30.267zm19.516-40.934H13.5v50h7.146v-50zm-7.146 0A28.59 28.59 0 00-6.216-2.794l34.482 36.207a21.41 21.41 0 01-14.766 5.92v-50zM-6.216-2.794A28.255 28.255 0 00-15 17.666h50a21.75 21.75 0 01-6.733 15.747L-6.216-2.794zM-15 17.666a28.254 28.254 0 008.784 20.461L28.266 1.92A21.746 21.746 0 0135 17.667h-50zm8.784 20.461A28.59 28.59 0 0013.5 46V-4a21.41 21.41 0 0114.767 5.92L-6.216 38.127zM13.5 46h1.75V-4H13.5v50zm26.75-25v-1.667h-50V21h50zm-25-26.667H13.5v50h1.75v-50zm-1.75 0c5.783 0 11.56 2.177 16.004 6.409L-4.98 36.949a26.795 26.795 0 0018.48 7.384v-50zM29.504.742a23.373 23.373 0 017.246 16.925h-50c0 7.477 3.13 14.385 8.271 19.282L29.504.742zm7.246 16.925a23.373 23.373 0 01-7.246 16.925L-4.98-1.615a26.627 26.627 0 00-8.271 19.282h50zm-7.246 16.925A23.204 23.204 0 0113.5 41V-9A26.795 26.795 0 00-4.979-1.615l34.483 36.207zM13.5 41h7.146V-9H13.5v50zM3.388-2.088L1.128.068l34.516 36.176 2.26-2.156L3.388-2.088zM1.164 36.277l1.238 1.177L36.848 1.212 35.609.035 1.164 36.277zm35.702 1.16l4.375-4.167L6.76-2.937 2.384 1.23l34.482 36.207zm4.375-40.374l-4.375-4.166L2.384 29.103l4.375 4.167L41.24-2.937z" fill="#F6E588" mask="url(#a)"/><mask id="b" fill="#fff"><path d="M6.857 15.3H1.714L1.711 2.47l9.801 6.73a.863.863 0 00.976 0l9.798-6.727V10.2H24V1.7c0-.45-.181-.883-.503-1.201A1.724 1.724 0 0022.286 0H1.714C1.26 0 .824.179.504.497.181.815 0 1.247 0 1.697V15.3c0 .45.181.883.503 1.201.321.32.757.498 1.211.499h5.143v-1.7zM20.4 1.7L12 7.466 3.601 1.7H20.4z"/></mask><path d="M6.857 15.3H1.714L1.711 2.47l9.801 6.73a.863.863 0 00.976 0l9.798-6.727V10.2H24V1.7c0-.45-.181-.883-.503-1.201A1.724 1.724 0 0022.286 0H1.714C1.26 0 .824.179.504.497.181.815 0 1.247 0 1.697V15.3c0 .45.181.883.503 1.201.321.32.757.498 1.211.499h5.143v-1.7zM20.4 1.7L12 7.466 3.601 1.7H20.4z" fill="#8EB0FF"/><path d="M6.857 15.3h25v-25h-25v25zm-5.143 0l-25 .006.006 24.994H1.714v-25zM1.711 2.47l14.15-20.61-39.16-26.885.01 47.501 25-.006zm9.801 6.73l-14.15 20.61.01.006L11.511 9.2zm.488.15v25-25zm.488-.151l14.14 20.617.01-.007L12.488 9.2zm9.798-6.727h25v-47.488L8.136-18.138l14.15 20.61zm0 7.728h-25v25h25v-25zm1.714 0v25h25v-25H24zm0-8.5h25v-.031L24 1.7zM22.286 0l.03-25h-.03V0zM1.714 0v25V0zM0 1.697l-25-.044v.044H0zM0 15.3h-25v.033L0 15.3zM1.714 17l-.032 25h.032V17zm5.143 0v25h25V17h-25zM20.4 1.7l14.15 20.61 66.434-45.61H20.399v25zM12 7.466l-14.15 20.61L12 37.791l14.15-9.715L12 7.466zM3.601 1.7v-25h-80.584l66.434 45.61L3.601 1.7zM6.857-9.7H1.714v50h5.143v-50zm19.857 24.994l-.003-12.83-50 .012.003 12.83 50-.012zm-39.152 7.787l9.8 6.728 28.3-41.22-9.8-6.729-28.3 41.22zm9.81 6.735A25.863 25.863 0 0012 34.35v-50c4.86 0 9.621 1.467 13.653 4.232L-2.63 29.815zM12 34.35c5.208 0 10.31-1.573 14.629-4.535L-1.653-11.417A24.137 24.137 0 0112-15.65v50zm14.638-4.54l9.798-6.727-28.3-41.22-9.798 6.726 28.3 41.22zM-2.714 2.471V10.2h50V2.472h-50zm25 32.728H24v-50h-1.714v50zM49 10.2V1.7H-1v8.5h50zm0-8.531a26.695 26.695 0 00-7.9-18.922L5.895 18.25A23.305 23.305 0 01-1 1.731l50-.062zm-7.9-18.922A26.724 26.724 0 0022.318-25l-.062 50a23.277 23.277 0 01-16.361-6.75L41.1-17.253zM22.287-25H1.714v50h20.572v-50zM1.714-25a26.721 26.721 0 00-18.799 7.73l35.176 35.534A23.279 23.279 0 011.714 25v-50zm-18.799 7.73A26.693 26.693 0 00-25 1.653l50 .088a23.308 23.308 0 01-6.909 16.523L-17.085-17.27zM-25 1.697V15.3h50V1.697h-50zm0 13.636a26.695 26.695 0 007.9 18.92L18.105-1.25A23.305 23.305 0 0125 15.267l-50 .066zm7.9 18.92A26.724 26.724 0 001.681 42l.064-50a23.276 23.276 0 0116.36 6.75L-17.1 34.253zM1.713 42h5.143V-8H1.714v50zm30.143-25v-1.7h-50V17h50zM6.25-18.91l-8.399 5.766 28.3 41.22 8.399-5.766-28.3-41.22zm19.9 5.766l-8.398-5.766-28.3 41.22 8.4 5.766 28.299-41.22zM3.602 26.7H20.4v-50H3.6v50z" fill="#F6E588" mask="url(#b)"/></svg>