<svg width="21" height="21" fill="none" xmlns="http://www.w3.org/2000/svg"><path d="M19.365 12.087l.389-.35c.335-.301.472-.64.464-.964v-.02c0-.628-.22-1.05-.59-1.337-.397-.309-1.056-.53-2.037-.53 0 0 0 0 0 0l-1.017.003h-.002c-.68 0-1.286-.01-1.877-.045l-1.11-.066.439-1.022c.69-1.607 1.075-3.279 1.129-4.867-.003-1.052-.286-1.533-.536-1.763-.263-.242-.637-.345-1.077-.345-.636 0-1.032.41-1.412 1.017-.111.178-.403.75-.748 1.427l7.985 8.862zm0 0l.175.493m-.175-.493l.175.493m0 0c.148.418.167.748.115 1.004a1.25 1.25 0 01-.41.69l-.385.35.175.49c.148.416.166.745.114 1a1.25 1.25 0 01-.408.689l-.395.36.193.499c.036.094.065.168.09.228.042.105.042.112.041.109l.004.03.01.132v.001l.013.186c-.005.596-.218 1.041-.546 1.343-.34.312-.864.528-1.573.528H13.54a36.92 36.92 0 01-5.212-.407l-.214-.035h0a45.176 45.176 0 01-.707-.12l-.646-.116-.226.617a.094.094 0 01-.088.06H.877a.096.096 0 01-.096-.092V7.967c0-.048.042-.093.095-.093h5.571a.1.1 0 01.08.042l.46.659.645-.479c.845-.627 1.53-1.464 2.126-2.194l.038-.046.001-.001.213-.259.013-.015.011-.016c.21-.284.42-.605.63-.966h0m8.876 7.981L10.664 4.6m0 0c.146-.255.44-.832.716-1.375L10.664 4.6zm8.587 7.28v.001c-.067.041-.115.07-.158.102a.593.593 0 00-.074.06.16.16 0 00.017.065.832.832 0 00.113.154c.056.068.166.202.246.38.093.205.128.418.128.644 0 .3-.108.563-.308.774a2.306 2.306 0 01-.466.352l-.005.002h0c-.067.042-.115.071-.159.102a.593.593 0 00-.073.06c.002.031.01.05.017.065a.91.91 0 00.102.141l.007.008c.057.07.17.204.251.384.094.205.129.42.129.646 0 .3-.108.563-.31.775-.147.155-.34.273-.47.352l-.002.001c-.067.041-.114.07-.158.102a.597.597 0 00-.074.06c.003.03.01.05.018.065a.83.83 0 00.102.14l.007.008c.057.07.17.204.251.384.093.206.128.42.128.646 0 .48-.166.958-.59 1.288-.387.303-.878.391-1.342.391h0l-3.114-.002h-.029l-.045-.002c-2.01-.075-4.17-.155-6.24-.623l-.608-.138V9.063l.352-.231a12.6 12.6 0 003.27-3.13l.005-.008h0c.608-.81 1.04-1.688 1.45-2.526l.008-.02c.204-.415.434-.887.663-1.254a3 3 0 01.416-.543c.14-.139.426-.38.833-.38.21 0 .741.005 1.098.493.277.378.328.904.328 1.438 0 2.114-.996 4.623-1.563 5.757a.519.519 0 00-.051.138l.002.002c.013.01.043.03.105.055.133.053.353.105.714.143.728.076 1.804.078 3.418.078.89 0 1.553.16 1.98.554.462.425.46.947.46 1.113v.011l-.779 1.128zm0 0l.004-.002m-.004.003l.004-.003m0 0a2.28 2.28 0 00.466-.35m-.466.35l.466-.35m0 0c.2-.212.31-.474.31-.774l-.31.774zM5.573 20.03h.78V8.062H.97V20.03h4.604z" stroke="#F6E588" stroke-width="1.562"/></svg>