<svg width="64" height="64" fill="none" xmlns="http://www.w3.org/2000/svg"><path d="M50.79 18.911S48.537 20.53 48 23.033a5.685 5.685 0 00-.065.37 1.812 1.812 0 00-.317-.197c-.67-.322-1.484-.173-2.132.216a2.49 2.49 0 00-.59.48c-.557.63-.681 1.546-.779 2.398.125-.622.6-1.155 1.18-1.32a1.563 1.563 0 011.62.524c.377.469.757 1.157 1.185 1.722-.171.367-.358.758-.566 1.18-1.594 3.249-5.958 6.036-7.526 8.382-1.405-2.43-4.44-4.366-5.804-7.799a21.252 21.252 0 01-.994-3.203c.44-.41.863-.87 1.253-1.184a1.554 1.554 0 011.692-.155c.53.29.883.915.875 1.55.084-.854.154-1.775-.258-2.514a2.542 2.542 0 00-.476-.598c-.551-.524-1.315-.848-2.037-.682a1.803 1.803 0 00-.351.125c.009-.125.014-.25.014-.377 0-2.564-1.862-4.641-1.862-4.641S30.2 19.388 30.2 21.95c0 .129.006.256.015.381a1.801 1.801 0 00-.359-.128c-.722-.166-1.485.159-2.037.682-.183.175-.35.373-.476.598-.412.739-.341 1.66-.258 2.514-.008-.635.344-1.26.875-1.55a1.554 1.554 0 011.692.155c.425.34.888.857 1.37 1.292-.222.965-.53 1.986-.97 3.095-1.365 3.433-4.4 5.369-5.807 7.8-1.567-2.347-5.93-5.134-7.523-8.382-.24-.488-.46-.953-.663-1.398.364-.517.695-1.095 1.025-1.505a1.563 1.563 0 011.62-.525c.58.166 1.055.699 1.18 1.32-.098-.851-.222-1.767-.778-2.397a2.51 2.51 0 00-.591-.48c-.648-.39-1.462-.538-2.132-.216-.112.054-.218.12-.317.196a5.228 5.228 0 00-.065-.369c-.454-2.117-2.135-3.6-2.643-4.009-.04-.08-.083-.115-.14-.108l-.007-.005-.002.005s.268 3.974 1.83 12.655a238.858 238.858 0 003.036 14.369h28.104a141.719 141.719 0 003.046-13.736c1.023-5.989 1.263-8.117 1.569-13.287l-.004-.006zM20.91 41.037c-.066 1.453-1.103 2.41-2.278 2.65l-1.84-8.327s3.514 2.767 4.042 4.877c.066.263.088.532.076.8zm13.758.732c-.847 2.636-4.629 2.553-5.366-.117a2.782 2.782 0 01-.105-.797c.045-2.177 2.899-6.744 2.899-6.744s2.754 4.689 2.709 6.866a2.763 2.763 0 01-.137.792zm10.845 1.7c-1.173-.252-2.202-1.218-2.254-2.672a2.78 2.78 0 01.083-.8c.547-2.104 4.086-4.837 4.086-4.837l-1.915 8.31z" fill="url(#paint0_linear_52_865)"/><path d="M46.332 46.149H17.915l-.038-.159a240.295 240.295 0 01-3.038-14.38c-1.547-8.595-1.832-12.64-1.835-12.68L13 18.867l.14-.25.142.093c.073.013.161.057.233.176.555.451 2.226 1.962 2.685 4.102l.014.07c.027-.015.055-.028.082-.042.678-.325 1.546-.24 2.321.226.259.155.468.325.64.52.622.705.742 1.75.83 2.513l-.403.067c-.11-.55-.526-1.016-1.034-1.161a1.354 1.354 0 00-1.409.456c-.19.236-.382.533-.586.847-.117.18-.237.365-.361.546.2.433.4.854.61 1.283.914 1.864 2.807 3.618 4.477 5.167 1.113 1.032 2.17 2.012 2.851 2.933.572-.902 1.346-1.737 2.16-2.616 1.315-1.418 2.674-2.884 3.47-4.888.391-.981.697-1.945.933-2.943-.177-.163-.35-.335-.518-.501-.265-.262-.515-.51-.75-.699a1.346 1.346 0 00-1.471-.135c-.466.254-.775.802-.768 1.362l-.406.024c-.075-.765-.177-1.812.284-2.638a2.72 2.72 0 01.515-.648c.66-.627 1.49-.9 2.22-.733l.096.025v-.073c0-2.615 1.837-4.695 1.915-4.783l.15-.167.15.167c.078.088 1.916 2.168 1.916 4.783v.072a.763.763 0 01.088-.023c.73-.169 1.56.105 2.22.732.22.209.388.42.515.648.46.827.358 1.873.284 2.638l-.407-.024c.008-.56-.3-1.108-.767-1.362a1.346 1.346 0 00-1.47.135c-.236.19-.486.437-.751.7-.131.129-.266.262-.402.392.24 1.033.553 2.033.958 3.052.795 2.003 2.154 3.47 3.468 4.887.815.88 1.588 1.714 2.16 2.616.68-.921 1.738-1.901 2.852-2.933 1.67-1.549 3.564-3.303 4.479-5.168.18-.366.351-.723.51-1.062-.181-.247-.352-.51-.519-.767-.203-.314-.396-.61-.586-.847a1.354 1.354 0 00-1.408-.456c-.509.146-.924.612-1.035 1.162l-.402-.067c.088-.763.207-1.808.83-2.514.172-.194.38-.364.639-.52.775-.466 1.643-.55 2.321-.225.028.013.055.027.082.042l.014-.07c.548-2.554 2.778-4.18 2.872-4.248l.185-.133.11.202-.178.102.18-.1.03.055-.004.063c-.313 5.295-.563 7.41-1.571 13.31-.798 4.672-1.825 9.3-3.051 13.758l-.042.152zm-28.098-.419h27.79a142.202 142.202 0 003-13.563c.975-5.707 1.238-7.86 1.538-12.803-.639.558-1.975 1.907-2.363 3.714a5.006 5.006 0 00-.061.354l-.05.348-.274-.21a1.61 1.61 0 00-.282-.175c-.556-.267-1.282-.189-1.942.208-.222.134-.4.278-.543.44-.282.32-.445.718-.552 1.172a1.81 1.81 0 01.748-.437 1.76 1.76 0 011.832.593c.203.253.401.558.61.881.186.286.378.582.578.845l.077.102-.054.117c-.174.376-.365.774-.567 1.185-.95 1.934-2.873 3.717-4.57 5.29-1.2 1.112-2.332 2.162-2.97 3.116l-.18.27-.163-.282c-.559-.965-1.389-1.86-2.267-2.809-1.278-1.378-2.726-2.94-3.55-5.018a21.468 21.468 0 01-1.005-3.234l-.027-.12.088-.082c.163-.151.325-.312.482-.467.273-.27.53-.525.782-.728a1.75 1.75 0 011.913-.175c.255.14.473.346.639.593-.01-.467-.085-.893-.294-1.267a2.299 2.299 0 00-.438-.55c-.561-.532-1.254-.769-1.854-.63a1.559 1.559 0 00-.311.11l-.312.145.024-.35a4.88 4.88 0 00.014-.363c0-2.024-1.224-3.763-1.658-4.316-.434.553-1.658 2.292-1.658 4.316 0 .111.005.23.014.366l.025.352-.313-.147a1.572 1.572 0 00-.318-.113c-.6-.138-1.293.098-1.854.63-.189.18-.332.36-.438.55-.209.374-.284.8-.294 1.267.166-.247.384-.453.639-.592a1.75 1.75 0 011.913.175c.252.202.51.457.782.726.194.193.395.391.597.573l.092.083-.028.122a21.488 21.488 0 01-.98 3.126c-.826 2.077-2.275 3.64-3.553 5.018-.879.948-1.71 1.844-2.268 2.81l-.163.281-.18-.27c-.637-.954-1.77-2.004-2.97-3.116-1.696-1.573-3.619-3.356-4.567-5.29a58.18 58.18 0 01-.666-1.404l-.05-.111.07-.1c.144-.205.285-.423.422-.634.21-.323.407-.628.611-.882a1.761 1.761 0 011.832-.592 1.8 1.8 0 01.747.437c-.107-.454-.27-.853-.551-1.172a2.273 2.273 0 00-.543-.44c-.66-.397-1.386-.475-1.943-.208-.095.046-.19.105-.282.175l-.274.21-.05-.348a5.199 5.199 0 00-.06-.354c-.388-1.805-1.707-3.143-2.351-3.705.119 1.29.544 5.246 1.788 12.16a239.19 239.19 0 002.994 14.197zm.242-1.798l-2.008-9.09.448.352c.146.115 3.576 2.836 4.114 4.99.068.272.096.562.082.862-.073 1.636-1.279 2.608-2.441 2.846l-.195.04zm-1.355-8.03l1.663 7.532c.943-.268 1.861-1.088 1.92-2.407a2.56 2.56 0 00-.069-.739c-.393-1.57-2.559-3.566-3.515-4.386zm14.89 8.008h-.072c-1.361-.03-2.473-.894-2.835-2.2a2.992 2.992 0 01-.111-.86c.045-2.21 2.813-6.663 2.93-6.852l.177-.283.17.288c.113.194 2.783 4.766 2.738 6.978a2.99 2.99 0 01-.148.854c-.407 1.267-1.521 2.075-2.85 2.075zm.079-9.394c-.62 1.034-2.653 4.56-2.69 6.343-.005.24.028.487.097.736.311 1.126 1.273 1.87 2.45 1.896 1.18.025 2.17-.676 2.527-1.788.079-.246.121-.492.126-.73.037-1.784-1.916-5.4-2.51-6.457zm13.574 9.2l-.194-.042c-1.16-.25-2.357-1.233-2.416-2.869-.01-.3.02-.59.09-.862.558-2.15 4.013-4.837 4.16-4.95l.45-.35-2.09 9.072zm1.428-8.017c-.963.81-3.147 2.787-3.554 4.352a2.56 2.56 0 00-.076.738c.047 1.32.959 2.148 1.899 2.426l1.731-7.516z" fill="url(#paint1_linear_52_865)"/><circle cx="32" cy="32" r="30.5" stroke="url(#paint2_linear_52_865)" stroke-width="3"/><defs><linearGradient id="paint0_linear_52_865" x1="13.208" y1="31.625" x2="50.793" y2="31.625" gradientUnits="userSpaceOnUse"><stop stop-color="#BA973B"/><stop offset=".123" stop-color="#A57D24"/><stop offset=".262" stop-color="#F1DD80"/><stop offset=".367" stop-color="#F1DD80"/><stop offset=".471" stop-color="#DABF64"/><stop offset=".599" stop-color="#C3A348"/><stop offset=".725" stop-color="#B28E34"/><stop offset=".85" stop-color="#A88128"/><stop offset=".969" stop-color="#A57D24"/></linearGradient><linearGradient id="paint1_linear_52_865" x1="13" y1="31.575" x2="51" y2="31.575" gradientUnits="userSpaceOnUse"><stop offset=".031" stop-color="#A57D24"/><stop offset=".15" stop-color="#A88128"/><stop offset=".275" stop-color="#B28E34"/><stop offset=".401" stop-color="#C3A348"/><stop offset=".529" stop-color="#DABF64"/><stop offset=".633" stop-color="#F1DD80"/><stop offset=".738" stop-color="#F1DD80"/><stop offset=".877" stop-color="#A57D24"/><stop offset="1" stop-color="#BA973B"/></linearGradient><linearGradient id="paint2_linear_52_865" x1="32" y1="0" x2="32" y2="64" gradientUnits="userSpaceOnUse"><stop stop-color="#A88027"/><stop offset="1" stop-color="#F1DD80"/></linearGradient></defs></svg>