<svg width="97" height="99" fill="none" xmlns="http://www.w3.org/2000/svg"><path d="M48.5 99C75.285 99 97 76.927 97 49.699S75.285.399 48.5.399 0 22.47 0 49.698C0 76.927 21.715 99 48.5 99zm0-90.385c22.321 0 40.417 18.394 40.417 41.084 0 22.69-18.096 41.084-40.417 41.084S8.083 72.39 8.083 49.7c0-22.69 18.096-41.084 40.417-41.084z" fill="url(#paint0_linear_1_44)"/><path d="M31.15 60.82L48.5 43.185 65.85 60.82a3.995 3.995 0 005.716 0 4.156 4.156 0 000-5.81L51.358 34.468a3.995 3.995 0 00-5.716 0L25.434 55.01a4.157 4.157 0 000 5.81 3.995 3.995 0 005.715 0z" fill="url(#paint1_linear_1_44)"/><defs><linearGradient id="paint0_linear_1_44" x1="17" y1="4.184" x2="84" y2="89.684" gradientUnits="userSpaceOnUse"><stop stop-color="#FFA800"/><stop offset="1" stop-color="#FF1F00"/></linearGradient><linearGradient id="paint1_linear_1_44" x1="32.75" y1="34.369" x2="47.969" y2="67.663" gradientUnits="userSpaceOnUse"><stop stop-color="#FFA800"/><stop offset="1" stop-color="#FF1F00"/></linearGradient></defs></svg>