<svg xmlns="http://www.w3.org/2000/svg" xmlns:xlink="http://www.w3.org/1999/xlink"><defs>
<linearGradient id="paint0_linear_22_964" x1="1.5" y1="23.3571" x2="19.1656" y2="54.9479" gradientUnits="userSpaceOnUse">
<stop stop-color="#FF7A00"/>
<stop offset="1" stop-color="#FF0000"/>
</linearGradient>
<linearGradient id="paint1_linear_22_964" x1="25.0617" y1="3.40476" x2="45.0668" y2="13.7575" gradientUnits="userSpaceOnUse">
<stop stop-color="#FF7A00"/>
<stop offset="1" stop-color="#FF0000"/>
</linearGradient>

<linearGradient id="paint0_linear_22_953" x1="13" y1="2.5" x2="40.5" y2="43" gradientUnits="userSpaceOnUse">
<stop stop-color="#FF7A00"/>
<stop offset="1" stop-color="#FF0000"/>
</linearGradient>

<linearGradient id="paint0_linear_22_956" x1="10" y1="-4.74268e-07" x2="36" y2="43" gradientUnits="userSpaceOnUse">
<stop stop-color="#FF7A00"/>
<stop offset="1" stop-color="#FF0000"/>
</linearGradient>

<linearGradient id="paint0_linear_22_947" x1="4.5" y1="5.5" x2="27" y2="36.5" gradientUnits="userSpaceOnUse">
<stop stop-color="#FF7A00"/>
<stop offset="1" stop-color="#FF0000"/>
</linearGradient>
</defs><symbol id="cash" viewBox="0 0 42 43">
<g id="cash">
<path id="Vector" d="M40.1333 30.4071C39.5866 29.9118 38.9312 29.5518 38.2199 29.3562C37.5085 29.1606 36.7612 29.1348 36.0381 29.281L25.9024 31.0214C25.8897 29.7501 25.3744 28.5355 24.469 27.6429L17.2 20.4762H2.04762C1.50456 20.4762 0.983736 20.6919 0.599733 21.0759C0.21573 21.4599 0 21.9808 0 22.5238C0 23.0669 0.21573 23.5877 0.599733 23.9717C0.983736 24.3557 1.50456 24.5714 2.04762 24.5714H15.5619L21.6024 30.6119C21.7464 30.764 21.8266 30.9655 21.8266 31.175C21.8266 31.3845 21.7464 31.586 21.6024 31.7381C21.4334 31.8892 21.2147 31.9727 20.9881 31.9727C20.7614 31.9727 20.5427 31.8892 20.3738 31.7381L16.7905 28.1548C16.3963 27.8022 15.886 27.6073 15.3571 27.6073C14.8283 27.6073 14.318 27.8022 13.9238 28.1548C13.542 28.5547 13.329 29.0864 13.329 29.6393C13.329 30.1922 13.542 30.7239 13.9238 31.1238L17.5071 34.6048C17.9537 35.0753 18.4947 35.4462 19.0945 35.6932C19.6944 35.9402 20.3397 36.0577 20.9881 36.0381C21.6149 36.0353 22.2371 35.9316 22.8309 35.731L36.7547 33.2738C36.898 33.2477 37.0451 33.2525 37.1864 33.2878C37.3276 33.3231 37.4597 33.3882 37.5738 33.4786C37.7582 33.6733 37.8672 33.9274 37.8809 34.1952C37.8858 34.4348 37.8064 34.6684 37.6568 34.8554C37.5071 35.0425 37.2966 35.1712 37.0619 35.2191L18.019 38.7L6.85952 29.5881H2.04762C1.50456 29.5881 0.983736 29.8038 0.599733 30.1878C0.21573 30.5718 0 31.0927 0 31.6357C0 32.1788 0.21573 32.6996 0.599733 33.0836C0.983736 33.4676 1.50456 33.6833 2.04762 33.6833H5.42619L16.7905 43L37.7786 39.2119C38.9626 39.0161 40.0373 38.4022 40.8074 37.4818C41.5776 36.5613 41.9923 35.3953 41.9762 34.1952C41.9841 33.4641 41.8218 32.7412 41.5019 32.0837C41.182 31.4262 40.7135 30.8522 40.1333 30.4071Z" fill="url(#paint0_linear_22_964)"/>
<path id="Vector_2" d="M32.0453 18.5309C30.5378 18.5607 29.0626 18.0929 27.8477 17.2C27.6201 17.0487 27.3647 16.9445 27.0963 16.8935C26.8279 16.8425 26.552 16.8457 26.2848 16.9029C26.0177 16.9602 25.7647 17.0703 25.5408 17.2268C25.3169 17.3833 25.1265 17.5831 24.981 17.8143C24.8195 18.0063 24.699 18.2293 24.6268 18.4695C24.5545 18.7097 24.5321 18.9622 24.5609 19.2114C24.5896 19.4606 24.6689 19.7014 24.794 19.9188C24.9191 20.1363 25.0872 20.326 25.2881 20.4762C26.6055 21.4007 28.1073 22.0294 29.6905 22.319V24.5714C29.6905 25.1145 29.9062 25.6353 30.2902 26.0193C30.6742 26.4033 31.1951 26.619 31.7381 26.619C32.2812 26.619 32.802 26.4033 33.186 26.0193C33.57 25.6353 33.7857 25.1145 33.7857 24.5714V22.319C34.9088 22.1534 35.9683 21.6943 36.8572 20.9881C37.4989 20.5169 38.0194 19.8998 38.3754 19.1877C38.7315 18.4756 38.9129 17.689 38.9048 16.8929C38.9048 13.1048 35.4238 11.8762 32.4548 11.2619C29.4857 10.6476 28.8715 9.93095 28.8715 9.41904C28.8715 8.90714 29.0762 8.80476 29.3834 8.49762C29.9482 8.19396 30.5859 8.05224 31.2262 8.08809C32.4158 8.07778 33.5851 8.39668 34.6048 9.00952C34.812 9.17865 35.0536 9.30064 35.3128 9.36699C35.572 9.43335 35.8424 9.44249 36.1055 9.39378C36.3685 9.34507 36.6178 9.23967 36.836 9.08492C37.0542 8.93016 37.2361 8.72975 37.3691 8.49762C37.5446 8.28826 37.674 8.04428 37.7489 7.78158C37.8239 7.51888 37.8426 7.24334 37.804 6.9729C37.7654 6.70247 37.6702 6.4432 37.5247 6.21199C37.3792 5.98077 37.1866 5.7828 36.9595 5.63095C35.986 5.03003 34.9101 4.61356 33.7857 4.40238V2.04762C33.7857 1.50456 33.57 0.983736 33.186 0.599733C32.802 0.215731 32.2812 0 31.7381 0C31.1951 0 30.6742 0.215731 30.2902 0.599733C29.9062 0.983736 29.6905 1.50456 29.6905 2.04762V4.3C26.6191 4.8119 24.5715 6.85952 24.5715 9.62381C24.5715 12.3881 27.95 14.6405 31.2262 15.2548C34.5024 15.869 34.6048 16.5857 34.6048 17.0976C34.6048 17.6095 33.4786 18.5309 32.0453 18.5309Z" fill="url(#paint1_linear_22_964)"/>
</g>

</symbol><symbol id="expert" viewBox="0 0 43 43">
<path id="expert" d="M31.9535 25.5586C30.7624 25.1947 29.6252 24.68 28.571 24.0276C29.8939 22.542 30.9532 20.8507 31.7051 19.0237C32.0682 18.8234 32.3712 18.5338 32.5842 18.1835C33.9793 15.775 34.3042 13.8519 33.578 12.3208C33.3511 11.8443 33.0181 11.4233 32.6033 11.0886C32.5763 9.71571 32.3904 8.35027 32.0491 7.01827C31.3186 4.87961 29.8879 3.03527 27.978 1.76988C26.068 0.504494 23.7849 -0.111615 21.4809 0.0166338C19.1801 -0.107408 16.9013 0.510673 14.9953 1.77576C13.0892 3.04085 11.6615 4.88284 10.9318 7.01827C10.5902 8.34386 10.4042 9.70316 10.3776 11.0699C9.96551 11.3997 9.63277 11.814 9.40293 12.2835C8.67673 13.8145 9.00161 15.7376 10.3967 18.1649C10.6116 18.5088 10.9146 18.792 11.2758 18.9864C12.0277 20.8134 13.087 22.5046 14.4099 23.9902C13.3557 24.6428 12.2185 25.1576 11.0273 25.5213C6.51722 26.9216 0.45913 29.8716 0.000473256 39.3752C-0.00941538 39.8093 0.135929 40.2333 0.411488 40.5741C0.687047 40.9149 1.07558 41.1512 1.51022 41.2423C8.09978 42.4569 14.7943 43.0447 21.5 42.9973C28.2057 43.0448 34.9002 42.4571 41.4898 41.2423C41.9244 41.1512 42.313 40.9149 42.5885 40.5741C42.8641 40.2333 43.0094 39.8093 42.9995 39.3752C42.5218 29.8903 36.4637 26.9403 31.9535 25.5586ZM13.5117 16.0177C13.1072 15.4039 12.8825 14.6936 12.862 13.9639C13.2682 13.844 13.6221 13.5955 13.8678 13.2574C14.1134 12.9194 14.2369 12.511 14.2188 12.0968C14.1657 10.7286 14.3007 9.35963 14.6202 8.0265C15.1126 6.67012 16.0558 5.51394 17.2993 4.74237C18.5428 3.9708 20.0149 3.6283 21.4809 3.76951C22.9421 3.62585 24.4107 3.96297 25.6535 4.72738C26.8964 5.4918 27.8424 6.63975 28.3416 7.98916C28.6685 9.32761 28.8099 10.7029 28.7621 12.0781C28.7439 12.4923 28.8675 12.9007 29.1131 13.2387C29.3588 13.5768 29.7127 13.8254 30.1189 13.9452C30.0952 14.683 29.8638 15.4001 29.45 16.0177C28.8834 16.2937 28.4509 16.7767 28.2461 17.362C27.8447 18.7063 25.0355 23.9716 21.4809 23.9716C17.9263 23.9716 15.117 18.669 14.7157 17.3247C14.5041 16.7523 14.0721 16.2833 13.5117 16.0177ZM21.4809 39.3565C15.6112 39.3668 9.75044 38.911 3.95639 37.9935C4.77815 32.2242 8.37096 30.3197 12.174 29.1434C14.0904 28.5745 15.8936 27.6905 17.5059 26.5295C18.7229 27.2751 20.1304 27.6705 21.5669 27.6705C23.0034 27.6705 24.4109 27.2751 25.6279 26.5295C27.221 27.6633 28.9974 28.5279 30.8833 29.0874C34.7055 30.2637 38.2792 32.1681 39.1009 37.9375C33.2765 38.8726 27.3835 39.3409 21.4809 39.3378V39.3565Z" fill="url(#paint0_linear_22_953)"/>

</symbol><symbol id="legal" viewBox="0 0 46 43">
<path id="legal" d="M46 5.24588C45.9991 6.63549 45.436 7.96798 44.4343 8.95089C43.4325 9.93379 42.074 10.4868 40.6568 10.4885H38.9807V37.7606C38.9789 39.1497 38.4154 40.4813 37.4138 41.4635C36.4121 42.4457 35.0541 42.9983 33.6375 43H5.34483C4.64294 43 3.94792 42.8644 3.29945 42.601C2.65099 42.3377 2.06178 41.9516 1.56546 41.4649C1.06915 40.9783 0.675454 40.4005 0.406851 39.7646C0.138248 39.1288 0 38.4472 0 37.759C0 37.0707 0.138248 36.3892 0.406851 35.7533C0.675454 35.1175 1.06915 34.5397 1.56546 34.053C2.06178 33.5664 2.65099 33.1803 3.29945 32.9169C3.94792 32.6535 4.64294 32.518 5.34483 32.518H7.01768V5.24588C7.01768 3.85515 7.58086 2.52133 8.58343 1.53763C9.58599 0.553931 10.9459 0.000861134 12.3642 0H40.6535C42.0712 0.00086052 43.4306 0.553484 44.4331 1.53648C45.4356 2.51948 45.9991 3.85246 46 5.24263V5.24588ZM5.34483 39.401H28.556C28.1976 38.3356 28.1976 37.1856 28.556 36.1203H5.35146C4.90779 36.1203 4.48229 36.2931 4.16857 36.6007C3.85486 36.9083 3.67861 37.3256 3.67861 37.7606C3.67861 38.1957 3.85486 38.6129 4.16857 38.9205C4.48229 39.2281 4.90779 39.401 5.35146 39.401H5.34483ZM35.307 5.24588C35.3063 4.68879 35.3957 4.13511 35.572 3.60553H12.3675C11.9951 3.60488 11.6333 3.72732 11.3406 3.95309L11.334 3.95634C11.1339 4.10897 10.9722 4.30461 10.8613 4.52818C10.7505 4.75175 10.6934 4.99729 10.6946 5.24588V32.518H31.6864C32.1439 32.5128 32.5896 32.6601 32.9507 32.9356C33.3117 33.2112 33.5667 33.5988 33.6739 34.0349C33.7998 34.4523 33.7871 34.8982 33.6376 35.308C33.4881 35.7179 33.2097 36.0706 32.8425 36.3152C32.5829 36.4534 32.3654 36.6565 32.2118 36.9038C32.0583 37.1512 31.9743 37.434 31.9683 37.7236C31.9623 38.0131 32.0347 38.299 32.1779 38.5523C32.3211 38.8055 32.5302 39.0171 32.7838 39.1654C33.0374 39.3138 33.3266 39.3936 33.6219 39.3969C33.9172 39.4002 34.2081 39.3267 34.4651 39.184C34.7221 39.0413 34.936 38.8345 35.085 38.5845C35.2341 38.3344 35.3129 38.0502 35.3136 37.7606L35.307 5.24588ZM32.4582 9.91683H13.3778V13.5126H32.4582V9.91683ZM32.4582 17.2578H13.3778V20.8536H32.4582V17.2578ZM32.4582 24.5988H13.3778V28.1978H32.4582V24.5988ZM42.3264 5.24588C42.3255 4.8111 42.149 4.39437 41.8354 4.08693C41.5219 3.77949 41.0969 3.60639 40.6535 3.60553C40.2809 3.60386 39.9188 3.72641 39.6266 3.95309H39.62C39.419 4.10589 39.2566 4.30194 39.1451 4.5261C39.0337 4.75025 38.9763 4.99652 38.9774 5.24588V6.88624H40.6535C41.0969 6.88538 41.5219 6.71228 41.8354 6.40484C42.149 6.0974 42.3255 5.68067 42.3264 5.24588Z" fill="url(#paint0_linear_22_956)"/>

</symbol><symbol id="secure" viewBox="0 0 34 43">
<path id="secure" fill-rule="evenodd" clip-rule="evenodd" d="M17.8447 0.206343C17.313 -0.068781 16.687 -0.068781 16.1553 0.206343L1.04416 8.02453C0.404222 8.35561 0 9.03242 0 9.77274V21.5C0 26.7034 1.62546 31.0603 4.53889 34.627C7.42194 38.1563 11.4933 40.8262 16.2849 42.8544C16.7431 43.0485 17.2569 43.0485 17.7151 42.8544C22.5067 40.8262 26.578 38.1563 29.4612 34.627C32.3746 31.0603 34 26.7034 34 21.5V9.77274C34 9.03242 33.5958 8.35561 32.9558 8.02453L17.8447 0.206343ZM3.77778 21.5V10.9807L17 4.13979L30.2222 10.9807V21.5C30.2222 25.7854 28.9094 29.2469 26.5759 32.1034C24.3404 34.8402 21.1029 37.0979 17 38.926C12.8971 37.0979 9.65961 34.8402 7.42407 32.1034C5.09059 29.2469 3.77778 25.7854 3.77778 21.5ZM25.9858 16.9132C26.6671 16.0958 26.5793 14.8616 25.7894 14.1565C24.9996 13.4513 23.8068 13.5423 23.1253 14.3596L14.6629 24.5093L10.7671 20.5556C10.0223 19.7998 8.82638 19.8117 8.09591 20.5824C7.36544 21.353 7.37704 22.5905 8.12181 23.3463L13.4551 28.759C13.8278 29.1372 14.335 29.3389 14.8563 29.3165C15.3778 29.294 15.867 29.0493 16.208 28.6404L25.9858 16.9132Z" fill="url(#paint0_linear_22_947)"/>

</symbol><symbol id="warning" viewBox="0 0 34 34">
<path id="Vector" d="M34 16.9919L30.2291 12.4759L30.7545 6.49785L25.1755 5.16579L22.2545 0L17 2.37172L11.7455 0L8.82454 5.16579L3.24545 6.48161L3.77091 12.4596L0 16.9919L3.77091 21.5079L3.24545 27.5021L8.82454 28.8342L11.7455 34L17 31.612L22.2545 33.9838L25.1755 28.818L30.7545 27.4859L30.2291 21.5079L34 16.9919ZM18.5455 25.1142H15.4545V21.8653H18.5455V25.1142ZM18.5455 18.6163H15.4545V8.86957H18.5455V18.6163Z" fill="#FF8F28"/>
</symbol></svg>