<svg width="103" height="28" fill="none" xmlns="http://www.w3.org/2000/svg"><g clip-path="url(#clip0_82_260)"><mask id="a" style="mask-type:luminance" maskUnits="userSpaceOnUse" x="0" y="0" width="103" height="28"><path d="M103 0H0v28h103V0z" fill="#fff"/></mask><g mask="url(#a)"><path d="M45.518 16.846v-3.343c0-1.261-.803-2.11-2.094-2.121a2.06 2.06 0 00-1.87.95 1.953 1.953 0 00-1.758-.95 1.76 1.76 0 00-1.556.793v-.668h-1.16v5.339h1.17v-2.957c0-.927.511-1.417 1.302-1.417.792 0 1.159.5 1.159 1.406v2.968h1.162v-2.957c0-.927.534-1.417 1.303-1.417.77 0 1.17.5 1.17 1.406v2.968h1.171zm17.302-5.335h-1.892V9.893H59.76v1.618h-1.08v1.06h1.08v2.432c0 1.239.478 1.977 1.847 1.977a2.718 2.718 0 001.448-.413l-.334-.994c-.31.186-.663.29-1.024.301-.578 0-.77-.356-.77-.891v-2.411h1.892l.002-1.061zm9.878-.134a1.569 1.569 0 00-1.403.782v-.648h-1.147v5.335h1.158v-2.99c0-.892.378-1.373 1.136-1.373.248-.004.494.041.725.133l.355-1.094a2.468 2.468 0 00-.825-.145zm-14.933.557a3.972 3.972 0 00-2.172-.557c-1.347 0-2.223.649-2.223 1.707 0 .872.645 1.407 1.836 1.574l.545.078c.634.089.936.256.936.557 0 .412-.423.648-1.214.648a2.832 2.832 0 01-1.779-.557l-.526.903a3.833 3.833 0 002.305.693c1.536 0 2.428-.727 2.428-1.74 0-.939-.703-1.43-1.859-1.596l-.545-.078c-.5-.067-.902-.168-.902-.524 0-.39.378-.624 1.014-.624a3.424 3.424 0 011.658.457l.498-.94zm31.017-.557a1.569 1.569 0 00-1.403.782v-.648h-1.147v5.335h1.158v-2.99c0-.892.378-1.373 1.136-1.373a1.88 1.88 0 01.725.133l.355-1.094a2.467 2.467 0 00-.824-.145zm-14.915 2.801c0 1.618 1.125 2.802 2.839 2.802a2.784 2.784 0 001.914-.638l-.556-.938c-.4.306-.888.474-1.391.48-.925 0-1.603-.683-1.603-1.708s.68-1.696 1.603-1.707c.503.006.99.174 1.391.48l.556-.939a2.784 2.784 0 00-1.914-.637c-1.714 0-2.84 1.183-2.84 2.801v.005zm10.844 0v-2.674h-1.158v.649a2.017 2.017 0 00-1.68-.782c-1.492 0-2.669 1.172-2.669 2.8 0 1.63 1.17 2.802 2.668 2.802a2.017 2.017 0 001.68-.782v.646h1.16v-2.659zm-4.308 0c0-.938.611-1.707 1.614-1.707.958 0 1.603.738 1.603 1.707 0 .97-.645 1.707-1.603 1.707-1.003 0-1.614-.77-1.614-1.707zm-13.975-2.8c-1.556 0-2.65 1.138-2.65 2.8 0 1.696 1.136 2.802 2.728 2.802a3.23 3.23 0 002.183-.75l-.567-.86c-.442.355-.99.551-1.556.558-.747 0-1.425-.346-1.591-1.306h3.952c.011-.145.022-.29.022-.446 0-1.662-1.036-2.801-2.527-2.801l.006.002zm-.022 1.038c.747 0 1.225.468 1.347 1.294h-2.758c.122-.77.589-1.294 1.413-1.294h-.002zm29.045 1.762v-4.81h-1.158v2.79a2.017 2.017 0 00-1.681-.783c-1.492 0-2.668 1.172-2.668 2.801 0 1.63 1.17 2.801 2.668 2.801a2.017 2.017 0 001.68-.782v.647h1.159v-2.663zm1.354 2.175a.34.34 0 01.242.1.332.332 0 010 .477.332.332 0 01-.242.1.344.344 0 01-.32-.206.335.335 0 01.182-.444.35.35 0 01.142-.027h-.004zm0 .602a.25.25 0 00.184-.076.265.265 0 00-.082-.43.255.255 0 00-.102-.02.265.265 0 00-.105.02.266.266 0 00-.084.43.261.261 0 00.193.076h-.004zm.02-.423a.142.142 0 01.093.026.09.09 0 01.033.074.085.085 0 01-.026.065.124.124 0 01-.073.03l.102.119h-.08l-.096-.118h-.031v.118h-.067v-.312l.145-.002zm-.078.058v.084h.078a.074.074 0 00.042 0 .036.036 0 00.016-.03.036.036 0 00-.016-.032.076.076 0 00-.042 0l-.078-.022zm-5.6-2.412c0-.938.611-1.707 1.614-1.707.958 0 1.603.738 1.603 1.707 0 .97-.645 1.707-1.603 1.707-1.003 0-1.614-.77-1.614-1.707zm-39.104 0v-2.674h-1.158v.649a2.017 2.017 0 00-1.674-.776c-1.492 0-2.668 1.172-2.668 2.801 0 1.63 1.17 2.802 2.668 2.802a2.016 2.016 0 001.68-.783v.647h1.159l-.007-2.666zm-4.309 0c0-.938.612-1.707 1.614-1.707.959 0 1.603.738 1.603 1.707 0 .97-.645 1.707-1.603 1.707-1.002 0-1.614-.768-1.614-1.707z" fill="#fff"/><path d="M22.302 7.836H15.3v12.615h7.003V7.836z" fill="#FF5F00"/><path d="M15.744 14.146a8.016 8.016 0 013.057-6.306A7.99 7.99 0 007.563 9.19c-2.73 3.484-2.128 8.527 1.348 11.264a7.989 7.989 0 009.89 0 8.015 8.015 0 01-3.057-6.308z" fill="#EB001B"/><path d="M31.75 14.147c0 4.43-3.583 8.021-8.003 8.021a7.991 7.991 0 01-4.946-1.715c3.475-2.738 4.078-7.78 1.347-11.264a8.012 8.012 0 00-1.347-1.35 7.99 7.99 0 0111.238 1.348 8.033 8.033 0 011.711 4.96zm-.768 4.966v-.258h.104v-.052h-.26v.054h.104v.259l.052-.003zm.513 0v-.312h-.069l-.093.223-.094-.223h-.082v.312h.047v-.234l.087.203h.06l.086-.203v.236l.058-.002z" fill="#F79E1B"/></g></g><defs><clipPath id="clip0_82_260"><path fill="#fff" d="M0 0h103v28H0z"/></clipPath></defs></svg>