<svg width="99" height="27" fill="none" xmlns="http://www.w3.org/2000/svg"><path d="M41.826 7.104l-5.62-2.228L30.59 2.65l-5.615 2.227-5.622 2.228v2.589h22.473v-2.59zM25.13 11.402a.548.548 0 100-1.087h-3.564a.546.546 0 100 1.088h.202v7.768h-.202a.55.55 0 00-.602.544.545.545 0 00.602.544h3.564a.548.548 0 100-1.088h-.201v-7.768h.201zm7.242 0a.547.547 0 100-1.087h-3.564a.546.546 0 100 1.088h.202v7.768h-.202a.55.55 0 00-.602.544.545.545 0 00.602.544h3.564a.547.547 0 100-1.088h-.202v-7.768h.202zm7.357 0a.547.547 0 100-1.087h-3.564a.546.546 0 100 1.088h.202v7.768h-.202a.55.55 0 00-.602.544.547.547 0 00.602.544h3.564a.547.547 0 100-1.088h-.202v-7.768h.202zm-19.8 10.825h21.323a.55.55 0 00.574-.517v-.312a.55.55 0 00-.573-.517H19.927a.55.55 0 00-.574.517v.312a.55.55 0 00.574.517h.001zm22.818.621H18.434a.551.551 0 00-.575.518v.467a.55.55 0 00.574.517h24.314a.55.55 0 00.573-.517v-.467a.55.55 0 00-.573-.518zm10.058-12.424a1.718 1.718 0 00-.909-.535c.274-.108.512-.293.684-.533.145-.208.224-.455.225-.709a1.321 1.321 0 00-.253-.772 1.52 1.52 0 00-.708-.55 3.315 3.315 0 00-1.194-.175h-2.438v5.858h2.477c.352.007.703-.027 1.046-.1.254-.05.496-.149.714-.288.202-.138.366-.326.477-.545a1.55 1.55 0 00.195-.766 1.315 1.315 0 00-.316-.885zm-3.736-2.58h1.305a3.97 3.97 0 01.988.082.79.79 0 01.443.306c.105.15.16.33.155.513a.79.79 0 01-.167.513.913.913 0 01-.494.29c-.27.055-.546.077-.821.067h-1.409v-1.77zm3.029 3.962a.865.865 0 01-.328.327 1.41 1.41 0 01-.495.16c-.194.02-.39.029-.585.025h-1.62v-2.013h1.504c.32-.012.639.02.949.097.204.058.384.178.517.342a.993.993 0 01.058 1.062zm5.96.683a9.07 9.07 0 01-.052-1.268v-.958a3.454 3.454 0 00-.04-.664 1.034 1.034 0 00-.248-.491 1.245 1.245 0 00-.551-.321 2.994 2.994 0 00-.977-.13 3.479 3.479 0 00-1.068.15 1.56 1.56 0 00-.708.43 1.676 1.676 0 00-.351.731l.782.098c.052-.252.193-.476.397-.632a1.54 1.54 0 01.833-.176 1.44 1.44 0 01.908.243.758.758 0 01.224.621c0 .026 0 .09-.005.187a7.624 7.624 0 01-1.426.249c-.237.024-.473.06-.706.109a2.218 2.218 0 00-.575.238c-.17.102-.312.244-.414.414-.137.233-.185.506-.137.772.049.265.191.504.401.673.347.248.77.369 1.195.342a2.73 2.73 0 00.88-.14c.31-.111.6-.274.856-.481.016.179.067.353.15.513h.833a1.547 1.547 0 01-.201-.509zm-.85-1.346c.014.246-.03.493-.127.72a1.165 1.165 0 01-.528.497 1.841 1.841 0 01-.822.181 1.108 1.108 0 01-.708-.191.597.597 0 01-.132-.824.665.665 0 01.316-.233 3.06 3.06 0 01.695-.145 6.076 6.076 0 001.305-.27v.265zM62.19 9.77c.073.212.104.435.092.658v2.58h.799v-2.606a3.765 3.765 0 00-.045-.698 1.155 1.155 0 00-.782-.897 2.123 2.123 0 00-.782-.14 1.752 1.752 0 00-1.5.7v-.601h-.718v4.24h.804v-2.312a1.357 1.357 0 01.368-1.108c.252-.194.562-.297.88-.29.193-.006.385.039.557.129.145.076.26.197.328.346h-.001zm6.019 3.238L66.23 10.34l1.799-1.575h-1.034l-1.891 1.725V7.15h-.799v5.857h.799v-1.683l.562-.487 1.558 2.17h.984zm-20.45 4.164h2.143v5.169h.857v-5.17h2.15v-.688h-5.15v.689zm6.81.974c-.21.16-.382.363-.506.596V18.1h-.718v4.24h.793v-2.22a2.595 2.595 0 01.132-.84.803.803 0 01.3-.393.829.829 0 01.47-.14c.206.003.407.056.587.156l.275-.669a1.686 1.686 0 00-.82-.232.938.938 0 00-.513.145zm5.661 3.677a9.055 9.055 0 01-.051-1.269v-.958a3.462 3.462 0 00-.04-.664 1.037 1.037 0 00-.247-.491 1.25 1.25 0 00-.552-.321 2.994 2.994 0 00-.977-.13 3.484 3.484 0 00-1.069.15 1.56 1.56 0 00-.708.43 1.673 1.673 0 00-.35.731l.781.098a1.07 1.07 0 01.397-.632 1.54 1.54 0 01.833-.176 1.44 1.44 0 01.909.243.759.759 0 01.225.622c0 .026 0 .088-.007.186a7.63 7.63 0 01-1.425.249c-.237.024-.473.06-.707.109a2.223 2.223 0 00-.575.238c-.17.102-.312.244-.414.414a1.123 1.123 0 00.265 1.445c.347.248.77.37 1.196.342a2.73 2.73 0 00.878-.14c.31-.111.6-.274.858-.481.022.177.072.35.148.513h.834a1.55 1.55 0 01-.202-.508zm-.843-1.352c.014.247-.03.493-.128.72a1.163 1.163 0 01-.528.497 1.833 1.833 0 01-.822.181c-.25.019-.5-.048-.707-.19a.595.595 0 01-.133-.824.664.664 0 01.316-.233c.226-.076.46-.125.697-.146a6.119 6.119 0 001.304-.27v.265zm5.58-1.969a1.258 1.258 0 00-.535-.362 2.124 2.124 0 00-.782-.14 1.748 1.748 0 00-1.5.7v-.6h-.718v4.246h.804v-2.315a1.354 1.354 0 01.368-1.108c.252-.194.562-.296.88-.29.194-.005.386.04.558.13a.736.736 0 01.326.346c.073.211.105.435.093.658v2.58h.8v-2.61a3.777 3.777 0 00-.047-.7 1.274 1.274 0 00-.248-.535zm4.385 1.597a11.525 11.525 0 00-1.184-.332 13.27 13.27 0 01-.706-.181.704.704 0 01-.305-.191.393.393 0 01-.098-.255.473.473 0 01.236-.382 1.44 1.44 0 01.788-.167c.252-.017.503.046.718.18a.748.748 0 01.31.514l.782-.099a1.477 1.477 0 00-.277-.658 1.403 1.403 0 00-.62-.388 2.91 2.91 0 00-.972-.145c-.233 0-.464.03-.69.089a1.902 1.902 0 00-.506.213c-.159.103-.292.24-.39.403a.975.975 0 00-.144.524c-.001.203.06.4.173.569.128.18.305.322.511.405a8.15 8.15 0 001.218.345c.28.05.555.133.817.244a.435.435 0 01.236.383.58.58 0 01-.265.472c-.243.153-.53.224-.816.203-.3.018-.599-.063-.85-.229a.99.99 0 01-.368-.658l-.788.114c.063.408.28.776.609 1.026.42.255.907.374 1.397.342.34.003.677-.056.995-.177.267-.095.5-.266.671-.491a1.17 1.17 0 00.231-.679.98.98 0 00-.19-.616 1.177 1.177 0 00-.523-.378zm2.817-2.927a.74.74 0 01.51-.14c.159.002.317.016.473.042l.12-.627a4.537 4.537 0 00-.748-.073 1.619 1.619 0 00-.815.177.948.948 0 00-.409.455 1.774 1.774 0 00-.085.637v.45h-.708v.56h.702v3.682h.81v-3.682h.92v-.565h-.92v-.393a.72.72 0 01.15-.523zm5.437 3.035a2.182 2.182 0 00-.597-1.631 2.105 2.105 0 00-1.542-.581 2.07 2.07 0 00-2.195 2.253 2.114 2.114 0 00.603 1.611c.45.4 1.038.607 1.638.574a2.35 2.35 0 001.35-.357c.353-.24.61-.597.726-1.009l-.822-.093c-.095.27-.275.503-.512.663a1.296 1.296 0 01-.747.207 1.38 1.38 0 01-.983-.373 1.562 1.562 0 01-.437-1.072H77.6c.006-.083.006-.152.006-.192zm-3.46-.399a1.272 1.272 0 01.413-.885c.256-.224.587-.342.926-.332a1.291 1.291 0 01.988.414c.183.229.288.51.3.803h-2.628zm5.662-1.662a1.83 1.83 0 00-.507.596V18.1h-.719v4.24h.794v-2.22a2.587 2.587 0 01.132-.84.804.804 0 01.3-.393.83.83 0 01.47-.14c.206.003.407.057.586.156l.277-.669a1.686 1.686 0 00-.822-.232.94.94 0 00-.511.145z" fill="#fff"/></svg>