<svg width="96" height="44" fill="none" xmlns="http://www.w3.org/2000/svg"><mask id="a" style="mask-type:luminance" maskUnits="userSpaceOnUse" x="0" y="0" width="96" height="44"><path d="M95.014 0H0v44h95.014V0z" fill="#fff"/></mask><g fill="#fff" mask="url(#a)"><path d="M7.833 36.098l-3.345 7.79h3.01l.569-1.335h3.768l.568 1.335h3.01l-3.345-7.79H7.833zm1.104 4.451l1.014-2.37 1.015 2.37h-2.03zm7.65 3.339h2.9v-2.114h5.016v-2.448h-5.017v-.78h5.128v-2.448h-8.027v7.79zm9.904 0h2.898v-2.114h5.018v-2.448h-5.018v-.78h5.13v-2.448H26.49v7.79zm12.804-7.79h-2.9v7.79h2.9v-7.79zm4.779 0h-2.9v7.79h7.36V41.44h-4.46v-5.342zm9.235 0h-2.9v7.79h2.9v-7.79zm4.755 0l-3.345 7.79h3.01l.569-1.335h3.768l.568 1.335h3.01l-3.345-7.79h-4.235zm1.104 4.451l1.014-2.37 1.015 2.37h-2.03zm6.177-2.002h2.899v5.342h2.899v-5.342h2.898v-2.449h-8.696v2.449zm10.262 5.341h8.25v-2.226h-5.351v-.668h5.239v-2.003h-5.24v-.667h5.351v-2.226h-8.25v7.79zm18.526-4.24c-.677-.4-1.98-.638-3.914-.713-.802-.03-1.308-.067-1.516-.11-.164-.044-.246-.13-.246-.257 0-.133.082-.222.246-.267.23-.06.736-.089 1.516-.089.714 0 1.185.04 1.417.122.238.075.357.238.357.49h2.898c0-.972-.319-1.674-.959-2.104-.714-.489-1.95-.734-3.713-.734-1.762 0-3.028.21-3.778.634-.677.386-1.015.994-1.015 1.825s.29 1.47.87 1.803c.675.4 1.984.631 3.923.69.774.023 1.282.079 1.528.168.163.06.246.164.246.311 0 .133-.086.222-.257.267-.23.06-.736.09-1.517.09-.78 0-1.32-.041-1.55-.123-.23-.074-.345-.237-.345-.49h-2.9c0 .965.34 1.667 1.015 2.104.752.49 2.01.734 3.78.734 1.768 0 3.02-.222 3.778-.667.676-.4 1.014-1.02 1.014-1.858 0-.838-.294-1.476-.88-1.825l.002-.001z"/><path fill-rule="evenodd" clip-rule="evenodd" d="M11.232 26.114c-2.163-1.86-4.74-5.3-4.74-11.138v-2.208H0L9.104 0h68.09c5.29 0 9.524 1.268 12.586 3.772 2.265 1.86 4.963 5.313 4.963 11.205 0 3.25-.86 7.833-4.954 11.198-3.067 2.507-7.305 3.778-12.594 3.778h-53.72c-5.143 0-9.263-1.291-12.243-3.839zm3.139-3.659c2.092 1.788 5.126 2.682 9.104 2.682 3.977 0 7.011-.894 9.104-2.682 2.036-1.75 3.054-4.242 3.054-7.48V5.098H28.28v9.879c0 2.634-1.601 3.951-4.806 3.951-3.206 0-4.807-1.317-4.807-3.951v-9.88h-7.352v9.879c0 3.236 1.02 5.729 3.054 7.48zM62.35 5.097v19.756h-8.48L45.388 14.27v10.584h-7.352V5.097h8.482L55 15.681V5.097h7.352zm24.373 2.4c-2.187-1.787-5.363-2.681-9.529-2.681-4.165 0-7.341.894-9.528 2.681-2.13 1.75-3.195 4.243-3.195 7.48 0 3.236 1.065 5.729 3.195 7.479 2.186 1.788 5.363 2.681 9.528 2.681 4.166 0 7.341-.893 9.529-2.681 2.13-1.75 3.195-4.244 3.195-7.48 0-3.235-1.065-5.729-3.195-7.479zm-4.157 7.479c0 2.634-1.79 3.95-5.372 3.95-3.581 0-5.372-1.316-5.372-3.95 0-2.635 1.792-3.952 5.372-3.952 3.581 0 5.372 1.317 5.372 3.952z"/></g></svg>